<?xml version="1.0" encoding="utf-8" standalone="no"?>
<!DOCTYPE svg PUBLIC "-//W3C//DTD SVG 1.1//EN"
  "http://www.w3.org/Graphics/SVG/1.1/DTD/svg11.dtd">
<!-- Created with matplotlib (http://matplotlib.org/) -->
<svg height="1455pt" version="1.1" viewBox="0 0 1382 1455" width="1382pt" xmlns="http://www.w3.org/2000/svg" xmlns:xlink="http://www.w3.org/1999/xlink">
 <defs>
  <style type="text/css">
*{stroke-linecap:butt;stroke-linejoin:round;}
  </style>
 </defs>
 <g id="figure_1">
  <g id="patch_1">
   <path d="M 0 1455.84 
L 1382.4 1455.84 
L 1382.4 0 
L 0 0 
z
" style="fill:#ffffff;"/>
  </g>
  <g id="axes_1">
   <g id="patch_2">
    <path clip-path="url(#pf992af3652)" d="M 257.349252 925.810937 
L 271.902602 925.21786 
L 268.599583 930.017271 
L 480.677441 1075.972136 
L 479.025931 1078.371842 
L 477.374422 1080.771547 
L 265.296563 934.816682 
L 261.993544 939.616092 
z
" style="fill:#d7d7d7;"/>
   </g>
   <g id="patch_3">
    <path clip-path="url(#pf992af3652)" d="M 179.641744 489.705159 
L 192.984355 483.863371 
L 191.651501 489.535035 
L 719.320457 613.538467 
L 718.65403 616.374299 
L 717.987602 619.210132 
L 190.318646 495.2067 
L 188.985792 500.878365 
z
" style="fill:#fff9f5;"/>
   </g>
   <g id="patch_4">
    <path clip-path="url(#pf992af3652)" d="M 458.642579 683.589967 
L 467.736776 672.212474 
L 469.194966 677.853216 
L 717.924935 613.553929 
L 718.65403 616.374299 
L 719.383125 619.19467 
L 470.653156 683.493957 
L 472.111347 689.134698 
z
" style="fill:#a7a7a7;"/>
   </g>
   <g id="patch_5">
    <path clip-path="url(#pf992af3652)" d="M 390.407276 824.261256 
L 395.575519 810.643583 
L 398.692796 815.565663 
L 717.095391 613.91326 
L 718.65403 616.374299 
L 720.212668 618.835339 
L 401.810073 820.487742 
L 404.92735 825.409821 
z
" style="fill:#4a4a4a;"/>
   </g>
   <g id="patch_6">
    <path clip-path="url(#pf992af3652)" d="M 954.27601 430.511443 
L 963.364292 441.893661 
L 957.540794 442.070179 
L 973.152979 957.131473 
L 970.241231 957.219732 
L 967.329482 957.307991 
L 951.717297 442.246697 
L 945.893799 442.423215 
z
" style="fill:#808080;"/>
   </g>
   <g id="patch_7">
    <path clip-path="url(#pf992af3652)" d="M 943.365639 427.102855 
L 943.476046 441.667867 
L 938.788745 438.207595 
L 688.677234 777.009837 
L 686.333583 775.279701 
L 683.989932 773.549565 
L 934.101443 434.747322 
L 929.414142 431.28705 
z
" style="fill:#898989;"/>
   </g>
   <g id="patch_8">
    <path clip-path="url(#pf992af3652)" d="M 288.151628 350.606568 
L 302.490594 348.048087 
L 299.867956 353.250591 
L 888.480556 649.976475 
L 887.169237 652.577728 
L 885.857918 655.17898 
L 297.245318 358.453096 
L 294.62268 363.6556 
z
" style="fill:#e98b6e;"/>
   </g>
   <g id="patch_9">
    <path clip-path="url(#pf992af3652)" d="M 930.273591 822.279837 
L 939.991593 833.129362 
L 941.13112 827.415716 
L 1084.713722 856.051775 
L 1085.283486 853.194952 
z
" style="fill:#ededed;"/>
   </g>
   <g id="patch_10">
    <path clip-path="url(#pf992af3652)" d="M 289.930359 344.53227 
L 302.417996 337.034891 
L 301.820124 342.830306 
L 638.013876 377.513031 
L 637.71494 380.410739 
L 637.416005 383.308446 
L 301.222252 348.62572 
L 300.62438 354.421135 
z
" style="fill:#f7b799;"/>
   </g>
   <g id="patch_11">
    <path clip-path="url(#pf992af3652)" d="M 496.120133 1230.880766 
L 501.843275 1217.486835 
L 504.755779 1222.532784 
L 968.784979 954.696757 
L 970.241231 957.219732 
L 971.697483 959.742706 
L 507.668283 1227.578733 
L 510.580787 1232.624682 
z
" style="fill:#fef0e8;"/>
   </g>
   <g id="patch_12">
    <path clip-path="url(#pf992af3652)" d="M 288.654717 349.517079 
L 302.78433 345.980727 
L 300.524856 351.350928 
L 510.132623 439.54195 
L 509.002886 442.227051 
L 507.873148 444.912151 
L 298.265381 356.721129 
L 296.005906 362.091329 
z
" style="fill:#f09c7b;"/>
   </g>
   <g id="patch_13">
    <path clip-path="url(#pf992af3652)" d="M 957.065785 430.201387 
L 967.858889 439.982014 
L 962.138743 441.088457 
L 1017.68545 728.256692 
L 1014.825377 728.809913 
L 1011.965304 729.363135 
L 956.418598 442.1949 
L 950.698452 443.301343 
z
" style="fill:#dddddd;"/>
   </g>
   <g id="patch_14">
    <path clip-path="url(#pf992af3652)" d="M 447.236718 704.80361 
L 444.890631 719.178853 
L 450.05377 716.479543 
L 551.90305 911.29297 
L 554.484619 909.943315 
z
" style="fill:#facab1;"/>
   </g>
   <g id="patch_15">
    <path clip-path="url(#pf992af3652)" d="M 623.732991 390.898999 
L 619.655822 404.882148 
L 616.159735 400.221498 
L 346.222594 602.709078 
L 344.474551 600.378754 
L 342.726507 598.048429 
L 612.663648 395.560848 
L 609.167561 390.900198 
z
" style="fill:#fde1d0;"/>
   </g>
   <g id="patch_16">
    <path clip-path="url(#pf992af3652)" d="M 857.852786 1051.136764 
L 851.340207 1064.16512 
L 848.734152 1058.954289 
L 482.285314 1242.223694 
L 480.982287 1239.618279 
L 479.679259 1237.012863 
L 846.128097 1053.743459 
L 843.522042 1048.532628 
z
" style="fill:#fbfbfb;"/>
   </g>
   <g id="patch_17">
    <path clip-path="url(#pf992af3652)" d="M 547.142121 894.205768 
L 533.332131 889.575874 
L 538.128095 886.267851 
L 342.076569 602.032765 
L 344.474551 600.378754 
L 346.872533 598.724742 
L 542.924058 882.959829 
L 547.720022 879.651807 
z
" style="fill:#f7b799;"/>
   </g>
   <g id="patch_18">
    <path clip-path="url(#pf992af3652)" d="M 453.570292 674.790184 
L 467.202433 669.660226 
L 462.289133 666.529131 
L 642.628241 383.541834 
L 640.171591 381.976286 
z
" style="fill:#dcdcdc;"/>
   </g>
   <g id="patch_19">
    <path clip-path="url(#pf992af3652)" d="M 573.334951 902.204145 
L 580.986035 889.810087 
L 583.115873 895.233008 
L 1013.760458 726.098453 
L 1014.825377 728.809913 
L 1015.890296 731.521374 
L 585.245711 900.655929 
L 587.37555 906.078849 
z
" style="fill:#c7c7c7;"/>
   </g>
   <g id="patch_20">
    <path clip-path="url(#pf992af3652)" d="M 488.89346 1063.945117 
L 488.258451 1049.393535 
L 493.067359 1052.682712 
L 683.929129 773.635113 
L 686.333583 775.279701 
L 688.738037 776.924289 
L 497.876267 1055.971888 
L 502.685176 1059.261065 
z
" style="fill:#fde1d0;"/>
   </g>
   <g id="patch_21">
    <path clip-path="url(#pf992af3652)" d="M 946.259187 429.101007 
L 934.718725 437.987486 
L 940.332109 439.547678 
L 881.555853 651.017535 
L 884.362545 651.797631 
z
" style="fill:#a9a9a9;"/>
   </g>
   <g id="patch_22">
    <path clip-path="url(#pf992af3652)" d="M 486.325846 1062.490728 
L 483.251898 1048.253362 
L 488.545603 1050.686666 
L 554.419336 907.377007 
L 557.066188 908.593659 
L 559.713041 909.810312 
L 493.839308 1053.119971 
L 499.133012 1055.553276 
z
" style="fill:#fac8af;"/>
   </g>
   <g id="patch_23">
    <path clip-path="url(#pf992af3652)" d="M 551.549826 891.754587 
L 553.895912 877.379344 
L 548.732774 880.078655 
L 446.883494 685.265227 
L 444.301924 686.614883 
z
" style="fill:#cacaca;"/>
   </g>
   <g id="patch_24">
    <path clip-path="url(#pf992af3652)" d="M 254.438565 902.728616 
L 255.510298 888.202669 
L 259.901385 892.031851 
L 439.524811 686.049947 
L 441.720355 687.964538 
L 443.915899 689.879129 
L 264.292472 895.861033 
L 268.68356 899.690214 
z
" style="fill:#fffaf7;"/>
   </g>
   <g id="patch_25">
    <path clip-path="url(#pf992af3652)" d="M 284.626493 355.368566 
L 298.996368 357.747318 
L 294.786397 361.774777 
L 688.438568 773.265972 
L 686.333583 775.279701 
L 684.228598 777.293431 
L 290.576427 365.802236 
L 286.366456 369.829696 
z
" style="fill:#c1c1c1;"/>
   </g>
   <g id="patch_26">
    <path clip-path="url(#pf992af3652)" d="M 510.794715 459.613479 
L 520.682481 470.308516 
L 514.887005 470.905792 
L 559.963926 908.295021 
L 557.066188 908.593659 
L 554.16845 908.892297 
L 509.091529 471.503069 
L 503.296053 472.100345 
z
" style="fill:#eb9172;"/>
   </g>
   <g id="patch_27">
    <path clip-path="url(#pf992af3652)" d="M 493.989867 1069.339724 
L 499.449766 1055.836345 
L 502.460472 1060.824323 
L 912.197062 813.510442 
L 913.702415 816.004431 
L 915.207768 818.498421 
L 505.471177 1065.812302 
L 508.481883 1070.80028 
z
" style="fill:#f19e7d;"/>
   </g>
   <g id="patch_28">
    <path clip-path="url(#pf992af3652)" d="M 175.589493 473.625541 
L 189.620002 469.714458 
L 185.001134 466.163355 
L 277.162984 346.289757 
L 274.85355 344.514206 
z
" style="fill:#898989;"/>
   </g>
   <g id="patch_29">
    <path clip-path="url(#pf992af3652)" d="M 870.080637 648.906451 
L 856.852598 655.003234 
L 858.076357 649.307034 
L 718.04215 619.222399 
L 718.65403 616.374299 
L 719.265909 613.526199 
L 859.300116 643.610833 
L 860.523875 637.914633 
z
" style="fill:#8a0b25;"/>
   </g>
   <g id="patch_30">
    <path clip-path="url(#pf992af3652)" d="M 427.56752 677.708039 
L 413.004047 677.94679 
L 416.42288 673.229178 
L 160.917334 488.065402 
L 162.62675 485.706596 
L 164.336167 483.34779 
L 419.841713 668.511567 
L 423.260546 663.793955 
z
" style="fill:#fff9f5;"/>
   </g>
   <g id="patch_31">
    <path clip-path="url(#pf992af3652)" d="M 896.233251 816.576129 
L 884.87299 825.691843 
L 884.682425 819.868788 
L 375.736321 836.524615 
L 375.641038 833.613088 
L 375.545755 830.70156 
L 884.491859 814.045734 
L 884.301293 808.222679 
z
" style="fill:#dfdfdf;"/>
   </g>
   <g id="patch_32">
    <path clip-path="url(#pf992af3652)" d="M 259.581372 354.819709 
L 245.550863 358.730792 
L 250.169732 362.281895 
L 158.007881 482.155493 
L 160.317316 483.931044 
z
" style="fill:#f9c6ac;"/>
   </g>
   <g id="patch_33">
    <path clip-path="url(#pf992af3652)" d="M 897.502116 666.972734 
L 899.595566 681.386936 
L 903.705682 677.257624 
L 1081.743133 854.467441 
L 1083.798191 852.402785 
z
" style="fill:#fee6d9;"/>
   </g>
   <g id="patch_34">
    <path clip-path="url(#pf992af3652)" d="M 669.155223 778.504986 
L 659.315625 789.244356 
L 658.24053 783.518236 
L 376.178586 836.476148 
L 375.641038 833.613088 
L 375.103491 830.750028 
L 657.165435 777.792116 
L 656.09034 772.065996 
z
" style="fill:#d86551;"/>
   </g>
   <g id="patch_35">
    <path clip-path="url(#pf992af3652)" d="M 886.557505 670.045535 
L 894.883587 681.996607 
L 889.060985 681.792696 
L 876.39658 1043.420554 
L 873.485279 1043.318599 
L 870.573977 1043.216643 
L 883.238382 681.588785 
L 877.415779 681.384874 
z
" style="fill:#e7e7e7;"/>
   </g>
   <g id="patch_36">
    <path clip-path="url(#pf992af3652)" d="M 920.198992 832.230737 
L 932.643197 839.799986 
L 927.234428 841.965512 
L 972.945615 956.136969 
L 970.241231 957.219732 
L 967.536846 958.302495 
L 921.825659 844.131038 
L 916.416891 846.296564 
z
" style="fill:#878787;"/>
   </g>
   <g id="patch_37">
    <path clip-path="url(#pf992af3652)" d="M 867.526437 1026.887204 
L 855.338179 1018.912361 
L 860.81531 1016.926081 
L 715.915464 617.36744 
L 718.65403 616.374299 
L 721.392595 615.381159 
L 866.292442 1014.9398 
L 871.769574 1012.95352 
z
" style="fill:#fdd9c4;"/>
   </g>
   <g id="patch_38">
    <path clip-path="url(#pf992af3652)" d="M 443.382951 705.363799 
L 453.190979 716.132009 
L 447.391225 716.686208 
L 481.925808 1078.094743 
L 479.025931 1078.371842 
L 476.126054 1078.648941 
L 441.591471 717.240406 
L 435.791717 717.794605 
z
" style="fill:#da6853;"/>
   </g>
   <g id="patch_39">
    <path clip-path="url(#pf992af3652)" d="M 540.912856 901.917704 
L 526.80599 905.543734 
L 529.031308 900.15929 
L 374.528379 836.30531 
L 375.641038 833.613088 
L 376.753697 830.920866 
L 531.256627 894.774846 
L 533.481945 889.390402 
z
" style="fill:#f5a886;"/>
   </g>
   <g id="patch_40">
    <path clip-path="url(#pf992af3652)" d="M 434.028971 672.269279 
L 421.053753 665.651466 
L 426.285505 663.087671 
L 269.928239 344.020551 
L 272.544115 342.738654 
L 275.159992 341.456757 
L 431.517258 660.523876 
L 436.749011 657.960082 
z
" style="fill:#d0d0d0;"/>
   </g>
   <g id="patch_41">
    <path clip-path="url(#pf992af3652)" d="M 625.865004 393.585092 
L 612.232862 398.71505 
L 617.146163 401.846146 
L 436.807055 684.833442 
L 439.263705 686.39899 
z
" style="fill:#c7c7c7;"/>
   </g>
   <g id="patch_42">
    <path clip-path="url(#pf992af3652)" d="M 339.120928 617.01718 
L 343.871059 630.786276 
L 338.324917 629.001735 
L 245.724091 916.794149 
L 242.95102 915.901878 
L 240.177949 915.009608 
L 332.778775 627.217194 
L 327.232632 625.432653 
z
" style="fill:#f5a886;"/>
   </g>
   <g id="patch_43">
    <path clip-path="url(#pf992af3652)" d="M 521.842861 454.085953 
L 536.332295 455.571901 
L 532.379328 459.851892 
L 915.678899 813.864436 
L 913.702415 816.004431 
L 911.725931 818.144427 
L 528.42636 464.131884 
L 524.473393 468.411876 
z
" style="fill:#f8bfa4;"/>
   </g>
   <g id="patch_44">
    <path clip-path="url(#pf992af3652)" d="M 955.525207 947.789081 
L 940.999199 948.859993 
L 944.142749 943.954652 
L 684.761808 777.732372 
L 686.333583 775.279701 
L 687.905358 772.827031 
L 947.286299 939.04931 
L 950.42985 934.143969 
z
" style="fill:#bebebe;"/>
   </g>
   <g id="patch_45">
    <path clip-path="url(#pf992af3652)" d="M 1071.112603 840.946011 
L 1056.589447 842.054923 
L 1059.720153 837.141374 
L 717.088677 618.831074 
L 718.65403 616.374299 
L 720.219383 613.917525 
L 1062.850858 832.227825 
L 1065.981564 827.314276 
z
" style="fill:#fcfcfc;"/>
   </g>
   <g id="patch_46">
    <path clip-path="url(#pf992af3652)" d="M 361.937118 601.125249 
L 373.952078 592.891629 
L 373.703246 598.712485 
L 718.778446 613.463871 
L 718.65403 616.374299 
L 718.529614 619.284727 
L 373.454414 604.533341 
L 373.205582 610.354197 
z
" style="fill:#fee8db;"/>
   </g>
   <g id="patch_47">
    <path clip-path="url(#pf992af3652)" d="M 484.897526 1222.583918 
L 478.990505 1209.270059 
L 484.668625 1210.575138 
L 554.227128 907.941119 
L 557.066188 908.593659 
L 559.905248 909.246199 
L 490.346745 1211.880218 
L 496.024865 1213.185298 
z
" style="fill:#fef2ea;"/>
   </g>
   <g id="patch_48">
    <path clip-path="url(#pf992af3652)" d="M 357.075503 588.266177 
L 359.41985 573.890649 
L 363.457375 578.090967 
L 506.984123 440.126892 
L 509.002886 442.227051 
L 511.021649 444.32721 
L 367.494901 582.291284 
L 371.532427 586.491602 
z
" style="fill:#5a5a5a;"/>
   </g>
   <g id="patch_49">
    <path clip-path="url(#pf992af3652)" d="M 496.435841 1076.824727 
L 507.268891 1067.088363 
L 507.784595 1072.891666 
L 873.227426 1040.416947 
L 873.485279 1043.318599 
L 873.743131 1046.22025 
L 508.3003 1078.694969 
L 508.816005 1084.498272 
z
" style="fill:#858585;"/>
   </g>
   <g id="patch_50">
    <path clip-path="url(#pf992af3652)" d="M 476.592692 1222.699946 
L 465.207129 1213.615855 
L 470.846573 1212.152656 
L 372.821316 834.344687 
L 375.641038 833.613088 
L 378.46076 832.881489 
L 476.486017 1210.689458 
L 482.125462 1209.22626 
z
" style="fill:#fbceb7;"/>
   </g>
   <g id="patch_51">
    <path clip-path="url(#pf992af3652)" d="M 253.305253 929.983369 
L 267.248821 934.193913 
L 262.55499 937.645324 
L 483.329202 1237.892573 
L 480.982287 1239.618279 
L 478.635371 1241.343984 
L 257.86116 941.096735 
L 253.16733 944.548146 
z
" style="fill:#a9a9a9;"/>
   </g>
   <g id="patch_52">
    <path clip-path="url(#pf992af3652)" d="M 894.656507 636.517672 
L 906.196968 627.631193 
L 900.583584 626.071 
L 959.35984 414.601143 
L 956.553148 413.821047 
z
" style="fill:#fddbc7;"/>
   </g>
   <g id="patch_53">
    <path clip-path="url(#pf992af3652)" d="M 674.166314 787.827852 
L 672.328877 802.276921 
L 668.14616 798.221164 
L 559.157547 910.621537 
L 557.066188 908.593659 
L 554.97483 906.565781 
L 663.963443 794.165408 
L 659.780726 790.109652 
z
" style="fill:#fbfbfb;"/>
   </g>
   <g id="patch_54">
    <path clip-path="url(#pf992af3652)" d="M 965.642957 940.356921 
L 954.146035 931.414183 
L 959.766972 929.881425 
L 884.358768 653.344107 
L 887.169237 652.577728 
L 889.979705 651.811349 
L 965.387909 928.348668 
L 971.008847 926.81591 
z
" style="fill:#1a1a1a;"/>
   </g>
   <g id="patch_55">
    <path clip-path="url(#pf992af3652)" d="M 684.197652 757.932185 
L 674.09994 747.435139 
L 679.882446 746.723162 
L 634.823688 380.766727 
L 637.71494 380.410739 
L 640.606193 380.05475 
L 685.664951 746.011185 
L 691.447457 745.299209 
z
" style="fill:#f9c2a7;"/>
   </g>
   <g id="patch_56">
    <path clip-path="url(#pf992af3652)" d="M 171.753546 500.612974 
L 185.291266 505.987162 
L 180.322473 509.029427 
L 378.125435 832.091955 
L 375.641038 833.613088 
L 373.156642 835.13422 
L 175.353681 512.071693 
L 170.384888 515.113958 
z
" style="fill:#fee8db;"/>
   </g>
   <g id="patch_57">
    <path clip-path="url(#pf992af3652)" d="M 361.181155 595.241838 
L 369.750433 583.463925 
L 371.462738 589.032793 
L 952.890304 410.256517 
L 953.746456 413.040951 
L 954.602609 415.825385 
L 373.175043 594.601661 
L 374.887349 600.170529 
z
" style="fill:#a51429;"/>
   </g>
   <g id="patch_58">
    <path clip-path="url(#pf992af3652)" d="M 1075.520371 835.943122 
L 1073.426921 821.52892 
L 1069.316804 825.658232 
L 891.279354 648.448415 
L 889.224295 650.513071 
z
" style="fill:#f8f8f8;"/>
   </g>
   <g id="patch_59">
    <path clip-path="url(#pf992af3652)" d="M 869.745613 653.961874 
L 858.821937 663.59645 
L 858.360555 657.788576 
L 441.951046 690.868475 
L 441.720355 687.964538 
L 441.489664 685.060601 
L 857.899173 651.980701 
L 857.437791 646.172826 
z
" style="fill:#da6853;"/>
   </g>
   <g id="patch_60">
    <path clip-path="url(#pf992af3652)" d="M 446.336062 671.10649 
L 440.984175 657.559938 
L 446.603525 659.098507 
L 506.193211 441.457766 
L 509.002886 442.227051 
L 511.81256 442.996335 
L 452.222874 660.637076 
L 457.842223 662.175645 
z
" style="fill:#fddbc7;"/>
   </g>
   <g id="patch_61">
    <path clip-path="url(#pf992af3652)" d="M 1069.282074 844.062723 
L 1059.564072 833.213198 
L 1058.424544 838.926844 
L 914.841942 810.290785 
L 914.272179 813.147608 
z
" style="fill:#8b8b8b;"/>
   </g>
   <g id="patch_62">
    <path clip-path="url(#pf992af3652)" d="M 678.119126 759.851765 
L 664.928853 753.673703 
L 670.071498 750.93555 
L 506.431563 443.596127 
L 509.002886 442.227051 
L 511.574208 440.857975 
L 675.214144 748.197398 
L 680.356789 745.459245 
z
" style="fill:#feece1;"/>
   </g>
   <g id="patch_63">
    <path clip-path="url(#pf992af3652)" d="M 872.254115 661.690228 
L 866.86695 675.222789 
L 863.82945 670.251081 
L 687.852333 777.765555 
L 686.333583 775.279701 
L 684.814833 772.793848 
L 860.79195 665.279374 
L 857.75445 660.307667 
z
" style="fill:#919191;"/>
   </g>
   <g id="matplotlib.axis_1"/>
   <g id="matplotlib.axis_2"/>
   <g id="patch_64">
    <path clip-path="url(#pf992af3652)" d="M 718.65403 633.852816 
C 723.289386 633.852816 727.735515 632.011169 731.013207 628.733477 
C 734.290899 625.455785 736.132546 621.009656 736.132546 616.374299 
C 736.132546 611.738943 734.290899 607.292814 731.013207 604.015122 
C 727.735515 600.73743 723.289386 598.895783 718.65403 598.895783 
C 714.018673 598.895783 709.572545 600.73743 706.294852 604.015122 
C 703.01716 607.292814 701.175514 611.738943 701.175514 616.374299 
C 701.175514 621.009656 703.01716 625.455785 706.294852 628.733477 
C 709.572545 632.011169 714.018673 633.852816 718.65403 633.852816 
z
"/>
   </g>
   <g id="patch_65">
    <path clip-path="url(#pf992af3652)" d="M 162.62675 503.185112 
C 167.262107 503.185112 171.708235 501.343465 174.985927 498.065773 
C 178.26362 494.788081 180.105266 490.341952 180.105266 485.706596 
C 180.105266 481.071239 178.26362 476.625111 174.985927 473.347419 
C 171.708235 470.069726 167.262107 468.22808 162.62675 468.22808 
C 157.991394 468.22808 153.545265 470.069726 150.267573 473.347419 
C 146.989881 476.625111 145.148234 481.071239 145.148234 485.706596 
C 145.148234 490.341952 146.989881 494.788081 150.267573 498.065773 
C 153.545265 501.343465 157.991394 503.185112 162.62675 503.185112 
z
"/>
   </g>
   <g id="patch_66">
    <path clip-path="url(#pf992af3652)" d="M 375.641038 851.091604 
C 380.276395 851.091604 384.722523 849.249957 388.000216 845.972265 
C 391.277908 842.694573 393.119554 838.248444 393.119554 833.613088 
C 393.119554 828.977731 391.277908 824.531603 388.000216 821.25391 
C 384.722523 817.976218 380.276395 816.134572 375.641038 816.134572 
C 371.005682 816.134572 366.559553 817.976218 363.281861 821.25391 
C 360.004169 824.531603 358.162522 828.977731 358.162522 833.613088 
C 358.162522 838.248444 360.004169 842.694573 363.281861 845.972265 
C 366.559553 849.249957 371.005682 851.091604 375.641038 851.091604 
z
"/>
   </g>
   <g id="patch_67">
    <path clip-path="url(#pf992af3652)" d="M 479.025931 1095.850358 
C 483.661288 1095.850358 488.107417 1094.008711 491.385109 1090.731019 
C 494.662801 1087.453327 496.504447 1083.007198 496.504447 1078.371842 
C 496.504447 1073.736485 494.662801 1069.290357 491.385109 1066.012665 
C 488.107417 1062.734972 483.661288 1060.893326 479.025931 1060.893326 
C 474.390575 1060.893326 469.944446 1062.734972 466.666754 1066.012665 
C 463.389062 1069.290357 461.547415 1073.736485 461.547415 1078.371842 
C 461.547415 1083.007198 463.389062 1087.453327 466.666754 1090.731019 
C 469.944446 1094.008711 474.390575 1095.850358 479.025931 1095.850358 
z
"/>
   </g>
   <g id="patch_68">
    <path clip-path="url(#pf992af3652)" d="M 970.241231 974.698248 
C 974.876587 974.698248 979.322716 972.856601 982.600408 969.578909 
C 985.8781 966.301217 987.719747 961.855089 987.719747 957.219732 
C 987.719747 952.584375 985.8781 948.138247 982.600408 944.860555 
C 979.322716 941.582863 974.876587 939.741216 970.241231 939.741216 
C 965.605874 939.741216 961.159745 941.582863 957.882053 944.860555 
C 954.604361 948.138247 952.762714 952.584375 952.762714 957.219732 
C 952.762714 961.855089 954.604361 966.301217 957.882053 969.578909 
C 961.159745 972.856601 965.605874 974.698248 970.241231 974.698248 
z
"/>
   </g>
   <g id="patch_69">
    <path clip-path="url(#pf992af3652)" d="M 913.702415 833.482948 
C 918.337771 833.482948 922.7839 831.641301 926.061592 828.363609 
C 929.339284 825.085917 931.180931 820.639788 931.180931 816.004431 
C 931.180931 811.369075 929.339284 806.922946 926.061592 803.645254 
C 922.7839 800.367562 918.337771 798.525915 913.702415 798.525915 
C 909.067058 798.525915 904.62093 800.367562 901.343237 803.645254 
C 898.065545 806.922946 896.223899 811.369075 896.223899 816.004431 
C 896.223899 820.639788 898.065545 825.085917 901.343237 828.363609 
C 904.62093 831.641301 909.067058 833.482948 913.702415 833.482948 
z
"/>
   </g>
   <g id="patch_70">
    <path clip-path="url(#pf992af3652)" d="M 441.720355 705.443054 
C 446.355712 705.443054 450.80184 703.601407 454.079532 700.323715 
C 457.357224 697.046023 459.198871 692.599895 459.198871 687.964538 
C 459.198871 683.329181 457.357224 678.883053 454.079532 675.605361 
C 450.80184 672.327669 446.355712 670.486022 441.720355 670.486022 
C 437.084998 670.486022 432.63887 672.327669 429.361178 675.605361 
C 426.083486 678.883053 424.241839 683.329181 424.241839 687.964538 
C 424.241839 692.599895 426.083486 697.046023 429.361178 700.323715 
C 432.63887 703.601407 437.084998 705.443054 441.720355 705.443054 
z
"/>
   </g>
   <g id="patch_71">
    <path clip-path="url(#pf992af3652)" d="M 557.066188 926.072175 
C 561.701545 926.072175 566.147673 924.230529 569.425366 920.952837 
C 572.703058 917.675144 574.544704 913.229016 574.544704 908.593659 
C 574.544704 903.958303 572.703058 899.512174 569.425366 896.234482 
C 566.147673 892.95679 561.701545 891.115143 557.066188 891.115143 
C 552.430832 891.115143 547.984703 892.95679 544.707011 896.234482 
C 541.429319 899.512174 539.587672 903.958303 539.587672 908.593659 
C 539.587672 913.229016 541.429319 917.675144 544.707011 920.952837 
C 547.984703 924.230529 552.430832 926.072175 557.066188 926.072175 
z
"/>
   </g>
   <g id="patch_72">
    <path clip-path="url(#pf992af3652)" d="M 480.982287 1257.096795 
C 485.617643 1257.096795 490.063772 1255.255148 493.341464 1251.977456 
C 496.619156 1248.699764 498.460803 1244.253635 498.460803 1239.618279 
C 498.460803 1234.982922 496.619156 1230.536793 493.341464 1227.259101 
C 490.063772 1223.981409 485.617643 1222.139762 480.982287 1222.139762 
C 476.34693 1222.139762 471.900801 1223.981409 468.623109 1227.259101 
C 465.345417 1230.536793 463.50377 1234.982922 463.50377 1239.618279 
C 463.50377 1244.253635 465.345417 1248.699764 468.623109 1251.977456 
C 471.900801 1255.255148 476.34693 1257.096795 480.982287 1257.096795 
z
"/>
   </g>
   <g id="patch_73">
    <path clip-path="url(#pf992af3652)" d="M 242.95102 933.380394 
C 247.586377 933.380394 252.032505 931.538748 255.310197 928.261055 
C 258.587889 924.983363 260.429536 920.537235 260.429536 915.901878 
C 260.429536 911.266522 258.587889 906.820393 255.310197 903.542701 
C 252.032505 900.265009 247.586377 898.423362 242.95102 898.423362 
C 238.315663 898.423362 233.869535 900.265009 230.591843 903.542701 
C 227.314151 906.820393 225.472504 911.266522 225.472504 915.901878 
C 225.472504 920.537235 227.314151 924.983363 230.591843 928.261055 
C 233.869535 931.538748 238.315663 933.380394 242.95102 933.380394 
z
"/>
   </g>
   <g id="patch_74">
    <path clip-path="url(#pf992af3652)" d="M 873.485279 1060.797115 
C 878.120635 1060.797115 882.566764 1058.955468 885.844456 1055.677776 
C 889.122148 1052.400084 890.963795 1047.953955 890.963795 1043.318599 
C 890.963795 1038.683242 889.122148 1034.237113 885.844456 1030.959421 
C 882.566764 1027.681729 878.120635 1025.840083 873.485279 1025.840083 
C 868.849922 1025.840083 864.403793 1027.681729 861.126101 1030.959421 
C 857.848409 1034.237113 856.006763 1038.683242 856.006763 1043.318599 
C 856.006763 1047.953955 857.848409 1052.400084 861.126101 1055.677776 
C 864.403793 1058.955468 868.849922 1060.797115 873.485279 1060.797115 
z
"/>
   </g>
   <g id="patch_75">
    <path clip-path="url(#pf992af3652)" d="M 509.002886 459.705567 
C 513.638242 459.705567 518.084371 457.86392 521.362063 454.586228 
C 524.639755 451.308536 526.481402 446.862407 526.481402 442.227051 
C 526.481402 437.591694 524.639755 433.145566 521.362063 429.867873 
C 518.084371 426.590181 513.638242 424.748535 509.002886 424.748535 
C 504.367529 424.748535 499.921401 426.590181 496.643708 429.867873 
C 493.366016 433.145566 491.52437 437.591694 491.52437 442.227051 
C 491.52437 446.862407 493.366016 451.308536 496.643708 454.586228 
C 499.921401 457.86392 504.367529 459.705567 509.002886 459.705567 
z
"/>
   </g>
   <g id="patch_76">
    <path clip-path="url(#pf992af3652)" d="M 953.746456 430.519467 
C 958.381813 430.519467 962.827941 428.67782 966.105633 425.400128 
C 969.383326 422.122436 971.224972 417.676307 971.224972 413.040951 
C 971.224972 408.405594 969.383326 403.959466 966.105633 400.681774 
C 962.827941 397.404081 958.381813 395.562435 953.746456 395.562435 
C 949.1111 395.562435 944.664971 397.404081 941.387279 400.681774 
C 938.109587 403.959466 936.26794 408.405594 936.26794 413.040951 
C 936.26794 417.676307 938.109587 422.122436 941.387279 425.400128 
C 944.664971 428.67782 949.1111 430.519467 953.746456 430.519467 
z
"/>
   </g>
   <g id="patch_77">
    <path clip-path="url(#pf992af3652)" d="M 344.474551 617.85727 
C 349.109907 617.85727 353.556036 616.015623 356.833728 612.737931 
C 360.11142 609.460239 361.953067 605.01411 361.953067 600.378754 
C 361.953067 595.743397 360.11142 591.297268 356.833728 588.019576 
C 353.556036 584.741884 349.109907 582.900237 344.474551 582.900237 
C 339.839194 582.900237 335.393065 584.741884 332.115373 588.019576 
C 328.837681 591.297268 326.996035 595.743397 326.996035 600.378754 
C 326.996035 605.01411 328.837681 609.460239 332.115373 612.737931 
C 335.393065 616.015623 339.839194 617.85727 344.474551 617.85727 
z
"/>
   </g>
   <g id="patch_78">
    <path clip-path="url(#pf992af3652)" d="M 1085.85325 867.816645 
C 1090.488606 867.816645 1094.934735 865.974998 1098.212427 862.697306 
C 1101.490119 859.419614 1103.331766 854.973485 1103.331766 850.338128 
C 1103.331766 845.702772 1101.490119 841.256643 1098.212427 837.978951 
C 1094.934735 834.701259 1090.488606 832.859612 1085.85325 832.859612 
C 1081.217893 832.859612 1076.771765 834.701259 1073.494073 837.978951 
C 1070.21638 841.256643 1068.374734 845.702772 1068.374734 850.338128 
C 1068.374734 854.973485 1070.21638 859.419614 1073.494073 862.697306 
C 1076.771765 865.974998 1081.217893 867.816645 1085.85325 867.816645 
z
"/>
   </g>
   <g id="patch_79">
    <path clip-path="url(#pf992af3652)" d="M 686.333583 792.758217 
C 690.96894 792.758217 695.415068 790.916571 698.69276 787.638879 
C 701.970452 784.361186 703.812099 779.915058 703.812099 775.279701 
C 703.812099 770.644345 701.970452 766.198216 698.69276 762.920524 
C 695.415068 759.642832 690.96894 757.801185 686.333583 757.801185 
C 681.698226 757.801185 677.252098 759.642832 673.974406 762.920524 
C 670.696714 766.198216 668.855067 770.644345 668.855067 775.279701 
C 668.855067 779.915058 670.696714 784.361186 673.974406 787.638879 
C 677.252098 790.916571 681.698226 792.758217 686.333583 792.758217 
z
"/>
   </g>
   <g id="patch_80">
    <path clip-path="url(#pf992af3652)" d="M 637.71494 397.889255 
C 642.350297 397.889255 646.796426 396.047608 650.074118 392.769916 
C 653.35181 389.492224 655.193457 385.046095 655.193457 380.410739 
C 655.193457 375.775382 653.35181 371.329253 650.074118 368.051561 
C 646.796426 364.773869 642.350297 362.932222 637.71494 362.932222 
C 633.079584 362.932222 628.633455 364.773869 625.355763 368.051561 
C 622.078071 371.329253 620.236424 375.775382 620.236424 380.410739 
C 620.236424 385.046095 622.078071 389.492224 625.355763 392.769916 
C 628.633455 396.047608 633.079584 397.889255 637.71494 397.889255 
z
"/>
   </g>
   <g id="patch_81">
    <path clip-path="url(#pf992af3652)" d="M 272.544115 360.21717 
C 277.179472 360.21717 281.6256 358.375523 284.903293 355.097831 
C 288.180985 351.820139 290.022631 347.374011 290.022631 342.738654 
C 290.022631 338.103297 288.180985 333.657169 284.903293 330.379477 
C 281.6256 327.101785 277.179472 325.260138 272.544115 325.260138 
C 267.908759 325.260138 263.46263 327.101785 260.184938 330.379477 
C 256.907246 333.657169 255.065599 338.103297 255.065599 342.738654 
C 255.065599 347.374011 256.907246 351.820139 260.184938 355.097831 
C 263.46263 358.375523 267.908759 360.21717 272.544115 360.21717 
z
"/>
   </g>
   <g id="patch_82">
    <path clip-path="url(#pf992af3652)" d="M 887.169237 670.056244 
C 891.804594 670.056244 896.250722 668.214597 899.528414 664.936905 
C 902.806106 661.659213 904.647753 657.213084 904.647753 652.577728 
C 904.647753 647.942371 902.806106 643.496242 899.528414 640.21855 
C 896.250722 636.940858 891.804594 635.099211 887.169237 635.099211 
C 882.53388 635.099211 878.087752 636.940858 874.81006 640.21855 
C 871.532367 643.496242 869.690721 647.942371 869.690721 652.577728 
C 869.690721 657.213084 871.532367 661.659213 874.81006 664.936905 
C 878.087752 668.214597 882.53388 670.056244 887.169237 670.056244 
z
"/>
   </g>
   <g id="patch_83">
    <path clip-path="url(#pf992af3652)" d="M 1014.825377 746.28843 
C 1019.460734 746.28843 1023.906862 744.446783 1027.184554 741.169091 
C 1030.462246 737.891399 1032.303893 733.44527 1032.303893 728.809913 
C 1032.303893 724.174557 1030.462246 719.728428 1027.184554 716.450736 
C 1023.906862 713.173044 1019.460734 711.331397 1014.825377 711.331397 
C 1010.19002 711.331397 1005.743892 713.173044 1002.4662 716.450736 
C 999.188508 719.728428 997.346861 724.174557 997.346861 728.809913 
C 997.346861 733.44527 999.188508 737.891399 1002.4662 741.169091 
C 1005.743892 744.446783 1010.19002 746.28843 1014.825377 746.28843 
z
"/>
   </g>
   <g id="patch_84">
    <path clip-path="url(#pf992af3652)" d="M 718.65403 630.939729 
C 722.516827 630.939729 726.221934 629.405024 728.953344 626.673614 
C 731.684754 623.942204 733.21946 620.237097 733.21946 616.374299 
C 733.21946 612.511502 731.684754 608.806395 728.953344 606.074985 
C 726.221934 603.343575 722.516827 601.808869 718.65403 601.808869 
C 714.791232 601.808869 711.086125 603.343575 708.354715 606.074985 
C 705.623305 608.806395 704.0886 612.511502 704.0886 616.374299 
C 704.0886 620.237097 705.623305 623.942204 708.354715 626.673614 
C 711.086125 629.405024 714.791232 630.939729 718.65403 630.939729 
z
" style="fill:#ffffff;"/>
   </g>
   <g id="patch_85">
    <path clip-path="url(#pf992af3652)" d="M 162.62675 500.272026 
C 166.489547 500.272026 170.194654 498.73732 172.926065 496.00591 
C 175.657475 493.2745 177.19218 489.569393 177.19218 485.706596 
C 177.19218 481.843799 175.657475 478.138692 172.926065 475.407281 
C 170.194654 472.675871 166.489547 471.141166 162.62675 471.141166 
C 158.763953 471.141166 155.058846 472.675871 152.327436 475.407281 
C 149.596026 478.138692 148.06132 481.843799 148.06132 485.706596 
C 148.06132 489.569393 149.596026 493.2745 152.327436 496.00591 
C 155.058846 498.73732 158.763953 500.272026 162.62675 500.272026 
z
" style="fill:#ffffff;"/>
   </g>
   <g id="patch_86">
    <path clip-path="url(#pf992af3652)" d="M 375.641038 848.178518 
C 379.503835 848.178518 383.208943 846.643812 385.940353 843.912402 
C 388.671763 841.180992 390.206468 837.475885 390.206468 833.613088 
C 390.206468 829.75029 388.671763 826.045183 385.940353 823.313773 
C 383.208943 820.582363 379.503835 819.047658 375.641038 819.047658 
C 371.778241 819.047658 368.073134 820.582363 365.341724 823.313773 
C 362.610314 826.045183 361.075608 829.75029 361.075608 833.613088 
C 361.075608 837.475885 362.610314 841.180992 365.341724 843.912402 
C 368.073134 846.643812 371.778241 848.178518 375.641038 848.178518 
z
" style="fill:#ffffff;"/>
   </g>
   <g id="patch_87">
    <path clip-path="url(#pf992af3652)" d="M 479.025931 1092.937272 
C 482.888729 1092.937272 486.593836 1091.402566 489.325246 1088.671156 
C 492.056656 1085.939746 493.591361 1082.234639 493.591361 1078.371842 
C 493.591361 1074.509045 492.056656 1070.803938 489.325246 1068.072527 
C 486.593836 1065.341117 482.888729 1063.806412 479.025931 1063.806412 
C 475.163134 1063.806412 471.458027 1065.341117 468.726617 1068.072527 
C 465.995207 1070.803938 464.460501 1074.509045 464.460501 1078.371842 
C 464.460501 1082.234639 465.995207 1085.939746 468.726617 1088.671156 
C 471.458027 1091.402566 475.163134 1092.937272 479.025931 1092.937272 
z
" style="fill:#ffffff;"/>
   </g>
   <g id="patch_88">
    <path clip-path="url(#pf992af3652)" d="M 970.241231 971.785162 
C 974.104028 971.785162 977.809135 970.250456 980.540545 967.519046 
C 983.271955 964.787636 984.806661 961.082529 984.806661 957.219732 
C 984.806661 953.356935 983.271955 949.651828 980.540545 946.920418 
C 977.809135 944.189007 974.104028 942.654302 970.241231 942.654302 
C 966.378433 942.654302 962.673326 944.189007 959.941916 946.920418 
C 957.210506 949.651828 955.6758 953.356935 955.6758 957.219732 
C 955.6758 961.082529 957.210506 964.787636 959.941916 967.519046 
C 962.673326 970.250456 966.378433 971.785162 970.241231 971.785162 
z
" style="fill:#ffffff;"/>
   </g>
   <g id="patch_89">
    <path clip-path="url(#pf992af3652)" d="M 913.702415 830.569862 
C 917.565212 830.569862 921.270319 829.035156 924.001729 826.303746 
C 926.733139 823.572336 928.267845 819.867229 928.267845 816.004431 
C 928.267845 812.141634 926.733139 808.436527 924.001729 805.705117 
C 921.270319 802.973707 917.565212 801.439001 913.702415 801.439001 
C 909.839618 801.439001 906.13451 802.973707 903.4031 805.705117 
C 900.67169 808.436527 899.136985 812.141634 899.136985 816.004431 
C 899.136985 819.867229 900.67169 823.572336 903.4031 826.303746 
C 906.13451 829.035156 909.839618 830.569862 913.702415 830.569862 
z
" style="fill:#ffffff;"/>
   </g>
   <g id="patch_90">
    <path clip-path="url(#pf992af3652)" d="M 441.720355 702.529968 
C 445.583152 702.529968 449.288259 700.995262 452.019669 698.263852 
C 454.75108 695.532442 456.285785 691.827335 456.285785 687.964538 
C 456.285785 684.101741 454.75108 680.396634 452.019669 677.665224 
C 449.288259 674.933813 445.583152 673.399108 441.720355 673.399108 
C 437.857558 673.399108 434.152451 674.933813 431.421041 677.665224 
C 428.689631 680.396634 427.154925 684.101741 427.154925 687.964538 
C 427.154925 691.827335 428.689631 695.532442 431.421041 698.263852 
C 434.152451 700.995262 437.857558 702.529968 441.720355 702.529968 
z
" style="fill:#ffffff;"/>
   </g>
   <g id="patch_91">
    <path clip-path="url(#pf992af3652)" d="M 557.066188 923.159089 
C 560.928986 923.159089 564.634093 921.624384 567.365503 918.892974 
C 570.096913 916.161564 571.631618 912.456456 571.631618 908.593659 
C 571.631618 904.730862 570.096913 901.025755 567.365503 898.294345 
C 564.634093 895.562935 560.928986 894.028229 557.066188 894.028229 
C 553.203391 894.028229 549.498284 895.562935 546.766874 898.294345 
C 544.035464 901.025755 542.500758 904.730862 542.500758 908.593659 
C 542.500758 912.456456 544.035464 916.161564 546.766874 918.892974 
C 549.498284 921.624384 553.203391 923.159089 557.066188 923.159089 
z
" style="fill:#ffffff;"/>
   </g>
   <g id="patch_92">
    <path clip-path="url(#pf992af3652)" d="M 480.982287 1254.183709 
C 484.845084 1254.183709 488.550191 1252.649003 491.281601 1249.917593 
C 494.013011 1247.186183 495.547717 1243.481076 495.547717 1239.618279 
C 495.547717 1235.755481 494.013011 1232.050374 491.281601 1229.318964 
C 488.550191 1226.587554 484.845084 1225.052848 480.982287 1225.052848 
C 477.119489 1225.052848 473.414382 1226.587554 470.682972 1229.318964 
C 467.951562 1232.050374 466.416856 1235.755481 466.416856 1239.618279 
C 466.416856 1243.481076 467.951562 1247.186183 470.682972 1249.917593 
C 473.414382 1252.649003 477.119489 1254.183709 480.982287 1254.183709 
z
" style="fill:#ffffff;"/>
   </g>
   <g id="patch_93">
    <path clip-path="url(#pf992af3652)" d="M 242.95102 930.467308 
C 246.813817 930.467308 250.518924 928.932603 253.250334 926.201193 
C 255.981745 923.469782 257.51645 919.764675 257.51645 915.901878 
C 257.51645 912.039081 255.981745 908.333974 253.250334 905.602564 
C 250.518924 902.871154 246.813817 901.336448 242.95102 901.336448 
C 239.088223 901.336448 235.383116 902.871154 232.651706 905.602564 
C 229.920296 908.333974 228.38559 912.039081 228.38559 915.901878 
C 228.38559 919.764675 229.920296 923.469782 232.651706 926.201193 
C 235.383116 928.932603 239.088223 930.467308 242.95102 930.467308 
z
" style="fill:#ffffff;"/>
   </g>
   <g id="patch_94">
    <path clip-path="url(#pf992af3652)" d="M 873.485279 1057.884029 
C 877.348076 1057.884029 881.053183 1056.349323 883.784593 1053.617913 
C 886.516003 1050.886503 888.050709 1047.181396 888.050709 1043.318599 
C 888.050709 1039.455801 886.516003 1035.750694 883.784593 1033.019284 
C 881.053183 1030.287874 877.348076 1028.753169 873.485279 1028.753169 
C 869.622481 1028.753169 865.917374 1030.287874 863.185964 1033.019284 
C 860.454554 1035.750694 858.919849 1039.455801 858.919849 1043.318599 
C 858.919849 1047.181396 860.454554 1050.886503 863.185964 1053.617913 
C 865.917374 1056.349323 869.622481 1057.884029 873.485279 1057.884029 
z
" style="fill:#ffffff;"/>
   </g>
   <g id="patch_95">
    <path clip-path="url(#pf992af3652)" d="M 509.002886 456.792481 
C 512.865683 456.792481 516.57079 455.257775 519.3022 452.526365 
C 522.03361 449.794955 523.568316 446.089848 523.568316 442.227051 
C 523.568316 438.364254 522.03361 434.659146 519.3022 431.927736 
C 516.57079 429.196326 512.865683 427.661621 509.002886 427.661621 
C 505.140089 427.661621 501.434981 429.196326 498.703571 431.927736 
C 495.972161 434.659146 494.437456 438.364254 494.437456 442.227051 
C 494.437456 446.089848 495.972161 449.794955 498.703571 452.526365 
C 501.434981 455.257775 505.140089 456.792481 509.002886 456.792481 
z
" style="fill:#ffffff;"/>
   </g>
   <g id="patch_96">
    <path clip-path="url(#pf992af3652)" d="M 953.746456 427.606381 
C 957.609253 427.606381 961.314361 426.071675 964.045771 423.340265 
C 966.777181 420.608855 968.311886 416.903748 968.311886 413.040951 
C 968.311886 409.178154 966.777181 405.473047 964.045771 402.741636 
C 961.314361 400.010226 957.609253 398.475521 953.746456 398.475521 
C 949.883659 398.475521 946.178552 400.010226 943.447142 402.741636 
C 940.715732 405.473047 939.181026 409.178154 939.181026 413.040951 
C 939.181026 416.903748 940.715732 420.608855 943.447142 423.340265 
C 946.178552 426.071675 949.883659 427.606381 953.746456 427.606381 
z
" style="fill:#ffffff;"/>
   </g>
   <g id="patch_97">
    <path clip-path="url(#pf992af3652)" d="M 344.474551 614.944184 
C 348.337348 614.944184 352.042455 613.409478 354.773865 610.678068 
C 357.505275 607.946658 359.039981 604.241551 359.039981 600.378754 
C 359.039981 596.515956 357.505275 592.810849 354.773865 590.079439 
C 352.042455 587.348029 348.337348 585.813323 344.474551 585.813323 
C 340.611753 585.813323 336.906646 587.348029 334.175236 590.079439 
C 331.443826 592.810849 329.909121 596.515956 329.909121 600.378754 
C 329.909121 604.241551 331.443826 607.946658 334.175236 610.678068 
C 336.906646 613.409478 340.611753 614.944184 344.474551 614.944184 
z
" style="fill:#ffffff;"/>
   </g>
   <g id="patch_98">
    <path clip-path="url(#pf992af3652)" d="M 1085.85325 864.903558 
C 1089.716047 864.903558 1093.421154 863.368853 1096.152564 860.637443 
C 1098.883974 857.906033 1100.41868 854.200926 1100.41868 850.338128 
C 1100.41868 846.475331 1098.883974 842.770224 1096.152564 840.038814 
C 1093.421154 837.307404 1089.716047 835.772698 1085.85325 835.772698 
C 1081.990453 835.772698 1078.285346 837.307404 1075.553935 840.038814 
C 1072.822525 842.770224 1071.28782 846.475331 1071.28782 850.338128 
C 1071.28782 854.200926 1072.822525 857.906033 1075.553935 860.637443 
C 1078.285346 863.368853 1081.990453 864.903558 1085.85325 864.903558 
z
" style="fill:#ffffff;"/>
   </g>
   <g id="patch_99">
    <path clip-path="url(#pf992af3652)" d="M 686.333583 789.845131 
C 690.19638 789.845131 693.901487 788.310426 696.632897 785.579016 
C 699.364308 782.847606 700.899013 779.142498 700.899013 775.279701 
C 700.899013 771.416904 699.364308 767.711797 696.632897 764.980387 
C 693.901487 762.248977 690.19638 760.714271 686.333583 760.714271 
C 682.470786 760.714271 678.765679 762.248977 676.034269 764.980387 
C 673.302859 767.711797 671.768153 771.416904 671.768153 775.279701 
C 671.768153 779.142498 673.302859 782.847606 676.034269 785.579016 
C 678.765679 788.310426 682.470786 789.845131 686.333583 789.845131 
z
" style="fill:#ffffff;"/>
   </g>
   <g id="patch_100">
    <path clip-path="url(#pf992af3652)" d="M 637.71494 394.976169 
C 641.577738 394.976169 645.282845 393.441463 648.014255 390.710053 
C 650.745665 387.978643 652.280371 384.273536 652.280371 380.410739 
C 652.280371 376.547941 650.745665 372.842834 648.014255 370.111424 
C 645.282845 367.380014 641.577738 365.845308 637.71494 365.845308 
C 633.852143 365.845308 630.147036 367.380014 627.415626 370.111424 
C 624.684216 372.842834 623.14951 376.547941 623.14951 380.410739 
C 623.14951 384.273536 624.684216 387.978643 627.415626 390.710053 
C 630.147036 393.441463 633.852143 394.976169 637.71494 394.976169 
z
" style="fill:#ffffff;"/>
   </g>
   <g id="patch_101">
    <path clip-path="url(#pf992af3652)" d="M 272.544115 357.304084 
C 276.406913 357.304084 280.11202 355.769379 282.84343 353.037968 
C 285.57484 350.306558 287.109545 346.601451 287.109545 342.738654 
C 287.109545 338.875857 285.57484 335.17075 282.84343 332.43934 
C 280.11202 329.70793 276.406913 328.173224 272.544115 328.173224 
C 268.681318 328.173224 264.976211 329.70793 262.244801 332.43934 
C 259.513391 335.17075 257.978685 338.875857 257.978685 342.738654 
C 257.978685 346.601451 259.513391 350.306558 262.244801 353.037968 
C 264.976211 355.769379 268.681318 357.304084 272.544115 357.304084 
z
" style="fill:#ffffff;"/>
   </g>
   <g id="patch_102">
    <path clip-path="url(#pf992af3652)" d="M 887.169237 667.143158 
C 891.032034 667.143158 894.737141 665.608452 897.468551 662.877042 
C 900.199961 660.145632 901.734667 656.440525 901.734667 652.577728 
C 901.734667 648.71493 900.199961 645.009823 897.468551 642.278413 
C 894.737141 639.547003 891.032034 638.012297 887.169237 638.012297 
C 883.30644 638.012297 879.601333 639.547003 876.869922 642.278413 
C 874.138512 645.009823 872.603807 648.71493 872.603807 652.577728 
C 872.603807 656.440525 874.138512 660.145632 876.869922 662.877042 
C 879.601333 665.608452 883.30644 667.143158 887.169237 667.143158 
z
" style="fill:#ffffff;"/>
   </g>
   <g id="patch_103">
    <path clip-path="url(#pf992af3652)" d="M 1014.825377 743.375344 
C 1018.688174 743.375344 1022.393281 741.840638 1025.124691 739.109228 
C 1027.856101 736.377818 1029.390807 732.672711 1029.390807 728.809913 
C 1029.390807 724.947116 1027.856101 721.242009 1025.124691 718.510599 
C 1022.393281 715.779189 1018.688174 714.244483 1014.825377 714.244483 
C 1010.96258 714.244483 1007.257473 715.779189 1004.526063 718.510599 
C 1001.794652 721.242009 1000.259947 724.947116 1000.259947 728.809913 
C 1000.259947 732.672711 1001.794652 736.377818 1004.526063 739.109228 
C 1007.257473 741.840638 1010.96258 743.375344 1014.825377 743.375344 
z
" style="fill:#ffffff;"/>
   </g>
  </g>
 </g>
 <defs>
  <clipPath id="pf992af3652">
   <rect height="1292.783307" width="1317.6" x="32.4" y="81.528346"/>
  </clipPath>
 </defs>
</svg>
