<?xml version="1.0" encoding="utf-8" standalone="no"?>
<!DOCTYPE svg PUBLIC "-//W3C//DTD SVG 1.1//EN"
  "http://www.w3.org/Graphics/SVG/1.1/DTD/svg11.dtd">
<!-- Created with matplotlib (http://matplotlib.org/) -->
<svg height="1455pt" version="1.1" viewBox="0 0 1382 1455" width="1382pt" xmlns="http://www.w3.org/2000/svg" xmlns:xlink="http://www.w3.org/1999/xlink">
 <defs>
  <style type="text/css">
*{stroke-linecap:butt;stroke-linejoin:round;}
  </style>
 </defs>
 <g id="figure_1">
  <g id="patch_1">
   <path d="M 0 1455.84 
L 1382.4 1455.84 
L 1382.4 0 
L 0 0 
z
" style="fill:#ffffff;"/>
  </g>
  <g id="axes_1">
   <g id="patch_2">
    <path clip-path="url(#p706ecd0ce1)" d="M 836.250729 995.331495 
L 822.070501 995.553685 
L 825.402655 990.962687 
L 465.937635 730.062432 
L 467.603711 727.766932 
L 469.269788 725.471433 
L 828.734808 986.371689 
L 832.066962 981.78069 
z
" style="fill:#d7d7d7;"/>
   </g>
   <g id="patch_3">
    <path clip-path="url(#p706ecd0ce1)" d="M 773.264345 1107.92609 
L 762.565663 1117.235571 
L 762.154313 1111.577717 
L 652.162315 1119.574605 
L 651.95664 1116.745679 
L 651.750965 1113.916752 
L 761.742963 1105.919864 
L 761.331613 1100.26201 
z
" style="fill:#cbcbcb;"/>
   </g>
   <g id="patch_4">
    <path clip-path="url(#p706ecd0ce1)" d="M 654.959527 1099.994341 
L 648.585782 1087.32534 
L 654.169561 1088.326302 
L 701.506476 824.261472 
L 704.298366 824.761953 
L 707.090255 825.262434 
L 659.75334 1089.327264 
L 665.337119 1090.328226 
z
" style="fill:#cbcbcb;"/>
   </g>
   <g id="patch_5">
    <path clip-path="url(#p706ecd0ce1)" d="M 835.189533 996.987008 
L 821.129599 998.843471 
L 823.909915 993.898741 
L 491.767816 807.142346 
L 493.157974 804.669981 
L 494.548132 802.197616 
L 826.690231 988.954011 
L 829.470547 984.00928 
z
" style="fill:#e4e4e4;"/>
   </g>
   <g id="patch_6">
    <path clip-path="url(#p706ecd0ce1)" d="M 647.455304 584.475352 
L 654.932817 596.525872 
L 649.282047 596.026551 
L 615.393097 979.544896 
L 612.567712 979.295236 
L 609.742327 979.045575 
L 643.631278 595.52723 
L 637.980509 595.027909 
z
" style="fill:#444444;"/>
   </g>
   <g id="patch_7">
    <path clip-path="url(#p706ecd0ce1)" d="M 635.674148 578.166805 
L 632.143282 591.902205 
L 628.595362 587.475832 
L 418.457065 755.910335 
L 416.683105 753.697148 
L 414.909145 751.483962 
L 625.047442 583.049459 
L 621.499522 578.623086 
z
" style="fill:#cacaca;"/>
   </g>
   <g id="patch_8">
    <path clip-path="url(#p706ecd0ce1)" d="M 483.513707 790.648115 
L 470.073262 786.122337 
L 474.747218 782.907582 
L 336.787903 582.32759 
L 339.124881 580.720212 
L 341.461859 579.112834 
L 479.421173 779.692826 
L 484.095128 776.47807 
z
" style="fill:#c4c4c4;"/>
   </g>
   <g id="patch_9">
    <path clip-path="url(#p706ecd0ce1)" d="M 601.409958 966.444977 
L 587.546326 963.457014 
L 591.829746 959.737763 
L 414.541396 755.556774 
L 416.683105 753.697148 
L 418.824815 751.837523 
L 596.113165 956.018512 
L 600.396585 952.299261 
z
" style="fill:#e0e0e0;"/>
   </g>
   <g id="patch_10">
    <path clip-path="url(#p706ecd0ce1)" d="M 352.213116 591.597837 
L 366.377419 592.30547 
L 362.751544 596.668215 
L 851.836661 1003.146583 
L 850.023724 1005.327956 
L 848.210786 1007.509328 
L 359.125669 601.03096 
L 355.499794 605.393705 
z
" style="fill:#dddddd;"/>
   </g>
   <g id="patch_11">
    <path clip-path="url(#p706ecd0ce1)" d="M 776.407541 1096.775102 
L 762.228829 1097.078993 
L 765.534475 1092.468871 
L 610.914889 981.600297 
L 612.567712 979.295236 
L 614.220535 976.990175 
L 768.840121 1087.85875 
L 772.145767 1083.248628 
z
" style="fill:#d1d1d1;"/>
   </g>
   <g id="patch_12">
    <path clip-path="url(#p706ecd0ce1)" d="M 167.056634 620.01396 
L 178.445357 628.465304 
L 173.007633 630.081373 
L 250.731084 891.60405 
L 248.012222 892.412084 
L 245.29336 893.220118 
L 167.56991 631.697442 
L 162.132186 633.31351 
z
" style="fill:#c8c8c8;"/>
   </g>
   <g id="patch_13">
    <path clip-path="url(#p706ecd0ce1)" d="M 453.98758 737.976026 
L 450.014706 751.590154 
L 446.611674 747.051443 
L 249.713738 894.681439 
L 248.012222 892.412084 
L 246.310707 890.142729 
L 443.208643 742.512733 
L 439.805612 737.974022 
z
" style="fill:#cbcbcb;"/>
   </g>
   <g id="patch_14">
    <path clip-path="url(#p706ecd0ce1)" d="M 930.494773 539.605654 
L 916.608413 536.725168 
L 919.019384 541.86012 
L 706.334999 641.720044 
L 707.540485 644.28752 
z
" style="fill:#c8c8c8;"/>
   </g>
   <g id="patch_15">
    <path clip-path="url(#p706ecd0ce1)" d="M 622.803603 965.699238 
L 622.829532 951.517294 
L 627.361531 954.929258 
L 944.839115 533.234234 
L 947.105115 534.940216 
L 949.371115 536.646198 
L 631.893531 958.341222 
L 636.42553 961.753185 
z
" style="fill:#bebebe;"/>
   </g>
   <g id="patch_16">
    <path clip-path="url(#p706ecd0ce1)" d="M 259.097155 879.498956 
L 260.030547 865.347737 
L 264.334923 869.042715 
L 629.474558 443.682019 
L 631.626746 445.529508 
L 633.778934 447.376996 
L 268.639299 872.737692 
L 272.943675 876.43267 
z
" style="fill:#a3a3a3;"/>
   </g>
   <g id="patch_17">
    <path clip-path="url(#p706ecd0ce1)" d="M 179.241566 600.954529 
L 192.71028 605.395471 
L 190.89889 600.019657 
L 633.438136 450.905322 
L 632.532441 448.217415 
z
" style="fill:#b9b9b9;"/>
   </g>
   <g id="patch_18">
    <path clip-path="url(#p706ecd0ce1)" d="M 355.377626 586.509688 
L 365.047125 596.884128 
L 366.046266 591.300023 
L 707.74683 652.439101 
L 708.2464 649.647049 
z
" style="fill:#f6f6f6;"/>
   </g>
   <g id="patch_19">
    <path clip-path="url(#p706ecd0ce1)" d="M 649.759924 584.757285 
L 643.827502 597.638845 
L 649.373382 596.445646 
L 698.752485 825.955152 
L 701.525425 825.358552 
z
" style="fill:#c8c8c8;"/>
   </g>
   <g id="patch_20">
    <path clip-path="url(#p706ecd0ce1)" d="M 264.566928 896.357505 
L 277.576109 890.710433 
L 276.260968 896.228669 
L 613.225282 976.536118 
L 612.567712 979.295236 
L 611.910142 982.054353 
L 274.945828 901.746904 
L 273.630687 907.265139 
z
" style="fill:#363636;"/>
   </g>
   <g id="patch_21">
    <path clip-path="url(#p706ecd0ce1)" d="M 1044.952347 630.872495 
L 1039.301173 643.879894 
L 1036.495087 638.949743 
L 705.701409 827.227028 
L 704.298366 824.761953 
L 702.895322 822.296877 
L 1033.689001 634.019591 
L 1030.882915 629.08944 
z
" style="fill:#e2e2e2;"/>
   </g>
   <g id="patch_22">
    <path clip-path="url(#p706ecd0ce1)" d="M 850.720251 988.323854 
L 842.682552 976.639522 
L 848.350586 976.871698 
L 861.3158 660.356135 
L 864.149817 660.472223 
L 866.983834 660.588311 
L 854.01862 977.103874 
L 859.686654 977.33605 
z
" style="fill:#fbfbfb;"/>
   </g>
   <g id="patch_23">
    <path clip-path="url(#p706ecd0ce1)" d="M 263.030691 884.407696 
L 269.04081 871.562204 
L 271.708939 876.56836 
L 707.411906 644.351918 
L 708.745971 646.854996 
L 710.080035 649.358074 
L 274.377068 881.574516 
L 277.045197 886.580672 
z
" style="fill:#737373;"/>
   </g>
   <g id="patch_24">
    <path clip-path="url(#p706ecd0ce1)" d="M 621.890891 459.487937 
L 622.379535 473.661484 
L 617.726725 470.416199 
L 419.00951 755.319791 
L 416.683105 753.697148 
L 414.3567 752.074506 
L 613.073915 467.170914 
L 608.421106 463.925629 
z
" style="fill:#fdfdfd;"/>
   </g>
   <g id="patch_25">
    <path clip-path="url(#p706ecd0ce1)" d="M 487.791435 788.519907 
L 476.138705 780.436461 
L 481.522063 778.647614 
L 464.912032 728.661356 
L 467.603711 727.766932 
L 470.29539 726.872509 
L 486.905421 776.858768 
L 492.288779 775.069922 
z
" style="fill:#ebebeb;"/>
   </g>
   <g id="patch_26">
    <path clip-path="url(#p706ecd0ce1)" d="M 703.491708 807.527712 
L 709.424129 794.646152 
L 703.878249 795.839351 
L 654.499146 566.329845 
L 651.726206 566.926445 
z
" style="fill:#9f9f9f;"/>
   </g>
   <g id="patch_27">
    <path clip-path="url(#p706ecd0ce1)" d="M 439.191189 1016.592104 
L 448.493457 1005.887151 
L 449.686498 1011.433066 
L 611.971192 976.522279 
L 612.567712 979.295236 
L 613.164232 982.068193 
L 450.879539 1016.97898 
L 452.07258 1022.524895 
z
" style="fill:#f0f0f0;"/>
   </g>
   <g id="patch_28">
    <path clip-path="url(#p706ecd0ce1)" d="M 858.199395 990.402038 
L 856.186884 976.36359 
L 861.16219 979.088814 
L 1057.255149 621.091624 
L 1059.742802 622.454236 
L 1062.230455 623.816848 
L 866.137496 981.814038 
L 871.112802 984.539262 
z
" style="fill:#b7b7b7;"/>
   </g>
   <g id="patch_29">
    <path clip-path="url(#p706ecd0ce1)" d="M 1011.659389 435.286489 
L 1000.547198 444.098267 
L 1000.394355 438.427539 
L 631.703168 448.364871 
L 631.626746 445.529508 
L 631.550325 442.694144 
L 1000.241512 432.756812 
L 1000.088669 427.086084 
z
" style="fill:#f7f7f7;"/>
   </g>
   <g id="patch_30">
    <path clip-path="url(#p706ecd0ce1)" d="M 1028.653692 452.081059 
L 1022.112444 464.664393 
L 1027.70901 463.737592 
L 1054.146236 623.381037 
L 1056.944519 622.917637 
z
" style="fill:#d7d7d7;"/>
   </g>
   <g id="patch_31">
    <path clip-path="url(#p706ecd0ce1)" d="M 261.744829 902.463956 
L 275.925836 902.298901 
L 272.575212 906.876436 
L 424.228758 1017.882459 
L 422.553446 1020.171226 
L 420.878134 1022.459994 
L 269.224588 911.453972 
L 265.873964 916.031508 
z
" style="fill:#d6d6d6;"/>
   </g>
   <g id="patch_32">
    <path clip-path="url(#p706ecd0ce1)" d="M 725.920064 648.504319 
L 737.828443 656.206184 
L 737.435029 650.547055 
L 1060.136216 628.113365 
L 1059.939509 625.283801 
z
" style="fill:#a5a5a5;"/>
   </g>
   <g id="patch_33">
    <path clip-path="url(#p706ecd0ce1)" d="M 831.679381 861.66852 
L 825.707892 874.532016 
L 823.024731 869.5339 
L 613.909293 981.794294 
L 612.567712 979.295236 
L 611.226131 976.796178 
L 820.341569 864.535784 
L 817.658408 859.537669 
z
" style="fill:#f7f7f7;"/>
   </g>
   <g id="patch_34">
    <path clip-path="url(#p706ecd0ce1)" d="M 706.70405 663.750415 
L 713.790479 676.034988 
L 708.158673 675.354348 
L 654.772544 1117.085999 
L 651.95664 1116.745679 
L 649.140737 1116.405359 
L 702.526866 674.673708 
L 696.89506 673.993068 
z
" style="fill:#959595;"/>
   </g>
   <g id="patch_35">
    <path clip-path="url(#p706ecd0ce1)" d="M 687.464023 827.257855 
L 677.489078 837.338961 
L 676.657111 831.727513 
L 248.428206 895.217808 
L 248.012222 892.412084 
L 247.596238 889.60636 
L 675.825144 826.116066 
L 674.993176 820.504618 
z
" style="fill:#424242;"/>
   </g>
   <g id="patch_36">
    <path clip-path="url(#p706ecd0ce1)" d="M 692.76346 652.701703 
L 685.031806 664.590762 
L 683.082904 659.263259 
L 417.657556 756.3609 
L 416.683105 753.697148 
L 415.708654 751.033397 
L 681.134002 653.935755 
L 679.185099 648.608252 
z
" style="fill:#5a5a5a;"/>
   </g>
   <g id="patch_37">
    <path clip-path="url(#p706ecd0ce1)" d="M 634.019817 462.378776 
L 644.039832 472.415086 
L 638.423409 473.212776 
L 651.761477 567.124199 
L 648.953266 567.523044 
L 646.145055 567.921889 
L 632.806986 474.010466 
L 627.190563 474.808157 
z
" style="fill:#cacaca;"/>
   </g>
   <g id="patch_38">
    <path clip-path="url(#p706ecd0ce1)" d="M 801.326828 1093.474417 
L 814.420007 1088.024933 
L 809.533809 1085.142992 
L 854.909922 1008.209897 
L 852.466823 1006.768926 
z
" style="fill:#a5a5a5;"/>
   </g>
   <g id="patch_39">
    <path clip-path="url(#p706ecd0ce1)" d="M 177.975383 610.10608 
L 191.689332 606.492796 
L 189.554235 611.748448 
L 468.67126 725.139106 
L 467.603711 727.766932 
L 466.536163 730.394758 
L 187.419139 617.004099 
L 185.284042 622.259751 
z
" style="fill:#a5a5a5;"/>
   </g>
   <g id="patch_40">
    <path clip-path="url(#p706ecd0ce1)" d="M 409.720385 738.168299 
L 397.314147 731.297093 
L 402.490431 728.976186 
L 336.536739 581.880666 
L 339.124881 580.720212 
L 341.713023 579.559759 
L 407.666714 726.65528 
L 412.842997 724.334373 
z
" style="fill:#7c7c7c;"/>
   </g>
   <g id="patch_41">
    <path clip-path="url(#p706ecd0ce1)" d="M 425.144862 1003.351322 
L 418.46252 990.842344 
L 424.069155 991.706149 
L 464.800394 727.33503 
L 467.603711 727.766932 
L 470.407029 728.198835 
L 429.67579 992.569955 
L 435.282425 993.43376 
z
" style="fill:#c8c8c8;"/>
   </g>
   <g id="patch_42">
    <path clip-path="url(#p706ecd0ce1)" d="M 438.23857 1026.77437 
L 451.996891 1023.333904 
L 449.795843 1028.562279 
L 653.057164 1114.131491 
L 651.95664 1116.745679 
L 650.856116 1119.359866 
L 447.594795 1033.790653 
L 445.393748 1039.019028 
z
" style="fill:#d1d1d1;"/>
   </g>
   <g id="patch_43">
    <path clip-path="url(#p706ecd0ce1)" d="M 718.190091 661.01244 
L 731.564893 665.728676 
L 726.845745 668.876716 
L 849.033302 852.045016 
L 846.673728 853.619036 
L 844.314154 855.193056 
L 722.126597 672.024756 
L 717.407449 675.172796 
z
" style="fill:#dcdcdc;"/>
   </g>
   <g id="patch_44">
    <path clip-path="url(#p706ecd0ce1)" d="M 433.204619 757.779331 
L 446.260053 752.24003 
L 444.899325 757.747201 
L 704.978729 822.008367 
L 704.298366 824.761953 
L 703.618002 827.515538 
L 443.538597 763.254372 
L 442.17787 768.761543 
z
" style="fill:#f8f8f8;"/>
   </g>
   <g id="patch_45">
    <path clip-path="url(#p706ecd0ce1)" d="M 179.085008 601.508605 
L 189.239969 591.608859 
L 189.970697 597.234386 
L 338.759517 577.907449 
L 339.124881 580.720212 
L 339.490245 583.532976 
L 190.701425 602.859912 
L 191.432154 608.485439 
z
" style="fill:#bfbfbf;"/>
   </g>
   <g id="patch_46">
    <path clip-path="url(#p706ecd0ce1)" d="M 429.052485 765.385736 
L 443.143032 766.993437 
L 439.246836 771.116564 
L 792.186003 1104.630477 
L 790.237905 1106.69204 
L 788.289807 1108.753603 
L 435.35064 775.23969 
L 431.454445 779.362817 
z
" style="fill:#c2c2c2;"/>
   </g>
   <g id="patch_47">
    <path clip-path="url(#p706ecd0ce1)" d="M 176.754818 612.534089 
L 190.86906 611.14976 
L 187.924627 615.998557 
L 494.630191 802.245582 
L 493.157974 804.669981 
L 491.685758 807.094379 
L 184.980195 620.847353 
L 182.035762 625.69615 
z
" style="fill:#fafafa;"/>
   </g>
   <g id="patch_48">
    <path clip-path="url(#p706ecd0ce1)" d="M 641.340386 582.743711 
L 643.875466 596.697262 
L 638.801911 594.159635 
L 425.090224 1021.44004 
L 422.553446 1020.171226 
L 420.016668 1018.902413 
L 633.728355 591.622009 
L 628.6548 589.084382 
z
" style="fill:#b3b3b3;"/>
   </g>
   <g id="patch_49">
    <path clip-path="url(#p706ecd0ce1)" d="M 688.697766 832.1302 
L 674.52556 831.604099 
L 677.758538 836.265469 
L 419.320468 1015.509856 
L 420.936957 1017.840541 
z
" style="fill:#d0d0d0;"/>
   </g>
   <g id="patch_50">
    <path clip-path="url(#p706ecd0ce1)" d="M 483.755185 733.129258 
L 497.203996 728.628405 
L 495.416555 734.01223 
L 847.567449 850.927124 
L 846.673728 853.619036 
L 845.780007 856.310949 
L 493.629113 739.396054 
L 491.841671 744.779878 
z
" style="fill:#f0f0f0;"/>
   </g>
   <g id="patch_51">
    <path clip-path="url(#p706ecd0ce1)" d="M 438.154045 1012.802979 
L 452.326251 1013.32908 
L 449.093274 1008.66771 
L 707.531343 829.423323 
L 705.914854 827.092638 
z
" style="fill:#fefefe;"/>
   </g>
   <g id="patch_52">
    <path clip-path="url(#p706ecd0ce1)" d="M 774.410616 1100.437318 
L 760.731729 1104.181148 
L 762.816636 1098.905385 
L 246.969768 895.049965 
L 248.012222 892.412084 
L 249.054676 889.774202 
L 764.901543 1093.629622 
L 766.986451 1088.353859 
z
" style="fill:#fbfbfb;"/>
   </g>
   <g id="patch_53">
    <path clip-path="url(#p706ecd0ce1)" d="M 1017.922048 448.021608 
L 1017.352522 462.192136 
L 1012.95464 458.608961 
L 949.304056 536.731803 
L 947.105115 534.940216 
L 944.906174 533.148629 
L 1008.556757 455.025786 
L 1004.158874 451.442612 
z
" style="fill:#fbfbfb;"/>
   </g>
   <g id="patch_54">
    <path clip-path="url(#p706ecd0ce1)" d="M 644.123696 457.081601 
L 658.231043 458.534522 
L 654.380345 462.700172 
L 866.075166 658.389398 
L 864.149817 660.472223 
L 862.224468 662.555048 
L 650.529647 466.865822 
L 646.678949 471.031472 
z
" style="fill:#c5c5c5;"/>
   </g>
   <g id="patch_55">
    <path clip-path="url(#p706ecd0ce1)" d="M 692.493225 641.065521 
L 682.823727 630.691081 
L 681.824585 636.275186 
L 340.124022 575.136107 
L 339.624452 577.92816 
z
" style="fill:#e9e9e9;"/>
   </g>
   <g id="patch_56">
    <path clip-path="url(#p706ecd0ce1)" d="M 614.593608 448.275769 
L 601.124894 443.834827 
L 602.936284 449.210641 
L 160.397038 598.324976 
L 161.302733 601.012883 
z
" style="fill:#1a1a1a;"/>
   </g>
   <g id="patch_57">
    <path clip-path="url(#p706ecd0ce1)" d="M 725.699372 648.340534 
L 737.744408 640.854192 
L 737.249229 646.505326 
L 864.397406 657.646657 
L 864.149817 660.472223 
L 863.902227 663.29779 
L 736.754049 652.15646 
L 736.25887 657.807593 
z
" style="fill:#d9d9d9;"/>
   </g>
   <g id="patch_58">
    <path clip-path="url(#p706ecd0ce1)" d="M 431.848399 745.974551 
L 438.097295 733.243506 
L 440.671495 738.298604 
L 466.316612 725.239383 
L 467.603711 727.766932 
L 468.890811 730.294481 
L 443.245694 743.353702 
L 445.819893 748.4088 
z
" style="fill:#d1d1d1;"/>
   </g>
   <g id="patch_59">
    <path clip-path="url(#p706ecd0ce1)" d="M 1059.760682 605.201137 
L 1066.30193 592.617803 
L 1060.705364 593.544604 
L 1034.268139 433.901159 
L 1031.469855 434.36456 
z
" style="fill:#dddddd;"/>
   </g>
   <g id="patch_60">
    <path clip-path="url(#p706ecd0ce1)" d="M 692.611629 652.26865 
L 684.562229 663.944924 
L 682.757677 658.56681 
L 468.505987 730.455989 
L 467.603711 727.766932 
L 466.701436 725.077875 
L 680.953126 653.188696 
L 679.148574 647.810582 
z
" style="fill:#e5e5e5;"/>
   </g>
   <g id="patch_61">
    <path clip-path="url(#p706ecd0ce1)" d="M 725.356312 642.189559 
L 739.242673 645.070044 
L 736.831702 639.935092 
L 949.516086 540.075168 
L 948.310601 537.507692 
z
" style="fill:#e5e5e5;"/>
   </g>
   <g id="patch_62">
    <path clip-path="url(#p706ecd0ce1)" d="M 623.075638 460.243555 
L 624.731923 474.328473 
L 619.827241 471.478104 
L 470.056053 729.192117 
L 467.603711 727.766932 
L 465.15137 726.341748 
L 614.922558 468.627735 
L 610.017876 465.777365 
z
" style="fill:#f0f0f0;"/>
   </g>
   <g id="patch_63">
    <path clip-path="url(#p706ecd0ce1)" d="M 1042.568708 620.804914 
L 1030.66033 613.103048 
L 1031.053744 618.762177 
L 708.352557 641.195867 
L 708.549264 644.025432 
z
" style="fill:#e1e1e1;"/>
   </g>
   <g id="patch_64">
    <path clip-path="url(#p706ecd0ce1)" d="M 838.934801 1018.545578 
L 825.841622 1023.995062 
L 830.72782 1026.877003 
L 785.351707 1103.810099 
L 787.794806 1105.251069 
z
" style="fill:#f8f8f8;"/>
   </g>
   <g id="patch_65">
    <path clip-path="url(#p706ecd0ce1)" d="M 930.187475 536.789021 
L 919.83345 546.480377 
L 919.217182 540.841164 
L 649.2614 570.342651 
L 648.953266 567.523044 
L 648.645132 564.703438 
L 918.600914 535.201951 
L 917.984646 529.562737 
z
" style="fill:#c1c1c1;"/>
   </g>
   <g id="patch_66">
    <path clip-path="url(#p706ecd0ce1)" d="M 849.648021 988.313742 
L 840.890445 977.158784 
L 846.561849 977.03355 
L 843.838026 853.681654 
L 846.673728 853.619036 
L 849.509431 853.556419 
L 852.233254 976.908315 
L 857.904659 976.783081 
z
" style="fill:#e4e4e4;"/>
   </g>
   <g id="matplotlib.axis_1"/>
   <g id="matplotlib.axis_2"/>
   <g id="patch_67">
    <path clip-path="url(#p706ecd0ce1)" d="M 708.745971 663.873358 
C 713.259293 663.873358 717.588369 662.080196 720.779769 658.888795 
C 723.97117 655.697394 725.764332 651.368318 725.764332 646.854996 
C 725.764332 642.341674 723.97117 638.012598 720.779769 634.821197 
C 717.588369 631.629797 713.259293 629.836635 708.745971 629.836635 
C 704.232648 629.836635 699.903573 631.629797 696.712172 634.821197 
C 693.520771 638.012598 691.727609 642.341674 691.727609 646.854996 
C 691.727609 651.368318 693.520771 655.697394 696.712172 658.888795 
C 699.903573 662.080196 704.232648 663.873358 708.745971 663.873358 
z
"/>
   </g>
   <g id="patch_68">
    <path clip-path="url(#p706ecd0ce1)" d="M 850.023724 1022.346317 
C 854.537046 1022.346317 858.866122 1020.553155 862.057523 1017.361755 
C 865.248923 1014.170354 867.042085 1009.841278 867.042085 1005.327956 
C 867.042085 1000.814634 865.248923 996.485558 862.057523 993.294157 
C 858.866122 990.102756 854.537046 988.309594 850.023724 988.309594 
C 845.510402 988.309594 841.181326 990.102756 837.989925 993.294157 
C 834.798524 996.485558 833.005362 1000.814634 833.005362 1005.327956 
C 833.005362 1009.841278 834.798524 1014.170354 837.989925 1017.361755 
C 841.181326 1020.553155 845.510402 1022.346317 850.023724 1022.346317 
z
"/>
   </g>
   <g id="patch_69">
    <path clip-path="url(#p706ecd0ce1)" d="M 162.208428 620.719152 
C 166.72175 620.719152 171.050826 618.92599 174.242227 615.734589 
C 177.433627 612.543188 179.226789 608.214112 179.226789 603.70079 
C 179.226789 599.187468 177.433627 594.858392 174.242227 591.666991 
C 171.050826 588.475591 166.72175 586.682429 162.208428 586.682429 
C 157.695106 586.682429 153.36603 588.475591 150.174629 591.666991 
C 146.983228 594.858392 145.190066 599.187468 145.190066 603.70079 
C 145.190066 608.214112 146.983228 612.543188 150.174629 615.734589 
C 153.36603 618.92599 157.695106 620.719152 162.208428 620.719152 
z
"/>
   </g>
   <g id="patch_70">
    <path clip-path="url(#p706ecd0ce1)" d="M 339.124881 597.738574 
C 343.638203 597.738574 347.967279 595.945412 351.15868 592.754011 
C 354.350081 589.56261 356.143242 585.233534 356.143242 580.720212 
C 356.143242 576.20689 354.350081 571.877814 351.15868 568.686413 
C 347.967279 565.495013 343.638203 563.701851 339.124881 563.701851 
C 334.611559 563.701851 330.282483 565.495013 327.091082 568.686413 
C 323.899681 571.877814 322.10652 576.20689 322.10652 580.720212 
C 322.10652 585.233534 323.899681 589.56261 327.091082 592.754011 
C 330.282483 595.945412 334.611559 597.738574 339.124881 597.738574 
z
"/>
   </g>
   <g id="patch_71">
    <path clip-path="url(#p706ecd0ce1)" d="M 1059.742802 639.472598 
C 1064.256124 639.472598 1068.5852 637.679436 1071.776601 634.488035 
C 1074.968001 631.296634 1076.761163 626.967559 1076.761163 622.454236 
C 1076.761163 617.940914 1074.968001 613.611838 1071.776601 610.420438 
C 1068.5852 607.229037 1064.256124 605.435875 1059.742802 605.435875 
C 1055.22948 605.435875 1050.900404 607.229037 1047.709003 610.420438 
C 1044.517602 613.611838 1042.72444 617.940914 1042.72444 622.454236 
C 1042.72444 626.967559 1044.517602 631.296634 1047.709003 634.488035 
C 1050.900404 637.679436 1055.22948 639.472598 1059.742802 639.472598 
z
"/>
   </g>
   <g id="patch_72">
    <path clip-path="url(#p706ecd0ce1)" d="M 651.95664 1133.76404 
C 656.469963 1133.76404 660.799038 1131.970878 663.990439 1128.779478 
C 667.18184 1125.588077 668.975002 1121.259001 668.975002 1116.745679 
C 668.975002 1112.232357 667.18184 1107.903281 663.990439 1104.71188 
C 660.799038 1101.520479 656.469963 1099.727317 651.95664 1099.727317 
C 647.443318 1099.727317 643.114242 1101.520479 639.922842 1104.71188 
C 636.731441 1107.903281 634.938279 1112.232357 634.938279 1116.745679 
C 634.938279 1121.259001 636.731441 1125.588077 639.922842 1128.779478 
C 643.114242 1131.970878 647.443318 1133.76404 651.95664 1133.76404 
z
"/>
   </g>
   <g id="patch_73">
    <path clip-path="url(#p706ecd0ce1)" d="M 493.157974 821.688342 
C 497.671296 821.688342 502.000372 819.89518 505.191773 816.70378 
C 508.383174 813.512379 510.176336 809.183303 510.176336 804.669981 
C 510.176336 800.156659 508.383174 795.827583 505.191773 792.636182 
C 502.000372 789.444781 497.671296 787.651619 493.157974 787.651619 
C 488.644652 787.651619 484.315576 789.444781 481.124175 792.636182 
C 477.932775 795.827583 476.139613 800.156659 476.139613 804.669981 
C 476.139613 809.183303 477.932775 813.512379 481.124175 816.70378 
C 484.315576 819.89518 488.644652 821.688342 493.157974 821.688342 
z
"/>
   </g>
   <g id="patch_74">
    <path clip-path="url(#p706ecd0ce1)" d="M 422.553446 1037.189588 
C 427.066768 1037.189588 431.395844 1035.396426 434.587245 1032.205025 
C 437.778645 1029.013624 439.571807 1024.684549 439.571807 1020.171226 
C 439.571807 1015.657904 437.778645 1011.328828 434.587245 1008.137428 
C 431.395844 1004.946027 427.066768 1003.152865 422.553446 1003.152865 
C 418.040124 1003.152865 413.711048 1004.946027 410.519647 1008.137428 
C 407.328246 1011.328828 405.535084 1015.657904 405.535084 1020.171226 
C 405.535084 1024.684549 407.328246 1029.013624 410.519647 1032.205025 
C 413.711048 1035.396426 418.040124 1037.189588 422.553446 1037.189588 
z
"/>
   </g>
   <g id="patch_75">
    <path clip-path="url(#p706ecd0ce1)" d="M 648.953266 584.541406 
C 653.466588 584.541406 657.795664 582.748244 660.987065 579.556843 
C 664.178466 576.365442 665.971628 572.036367 665.971628 567.523044 
C 665.971628 563.009722 664.178466 558.680646 660.987065 555.489246 
C 657.795664 552.297845 653.466588 550.504683 648.953266 550.504683 
C 644.439944 550.504683 640.110868 552.297845 636.919467 555.489246 
C 633.728067 558.680646 631.934905 563.009722 631.934905 567.523044 
C 631.934905 572.036367 633.728067 576.365442 636.919467 579.556843 
C 640.110868 582.748244 644.439944 584.541406 648.953266 584.541406 
z
"/>
   </g>
   <g id="patch_76">
    <path clip-path="url(#p706ecd0ce1)" d="M 1028.671572 451.846322 
C 1033.184894 451.846322 1037.51397 450.05316 1040.705371 446.861759 
C 1043.896772 443.670358 1045.689934 439.341282 1045.689934 434.82796 
C 1045.689934 430.314638 1043.896772 425.985562 1040.705371 422.794161 
C 1037.51397 419.602761 1033.184894 417.809599 1028.671572 417.809599 
C 1024.15825 417.809599 1019.829174 419.602761 1016.637773 422.794161 
C 1013.446373 425.985562 1011.653211 430.314638 1011.653211 434.82796 
C 1011.653211 439.341282 1013.446373 443.670358 1016.637773 446.861759 
C 1019.829174 450.05316 1024.15825 451.846322 1028.671572 451.846322 
z
"/>
   </g>
   <g id="patch_77">
    <path clip-path="url(#p706ecd0ce1)" d="M 248.012222 909.430445 
C 252.525544 909.430445 256.85462 907.637283 260.046021 904.445883 
C 263.237422 901.254482 265.030584 896.925406 265.030584 892.412084 
C 265.030584 887.898762 263.237422 883.569686 260.046021 880.378285 
C 256.85462 877.186884 252.525544 875.393722 248.012222 875.393722 
C 243.4989 875.393722 239.169824 877.186884 235.978423 880.378285 
C 232.787023 883.569686 230.993861 887.898762 230.993861 892.412084 
C 230.993861 896.925406 232.787023 901.254482 235.978423 904.445883 
C 239.169824 907.637283 243.4989 909.430445 248.012222 909.430445 
z
"/>
   </g>
   <g id="patch_78">
    <path clip-path="url(#p706ecd0ce1)" d="M 467.603711 744.785294 
C 472.117034 744.785294 476.446109 742.992132 479.63751 739.800731 
C 482.828911 736.60933 484.622073 732.280255 484.622073 727.766932 
C 484.622073 723.25361 482.828911 718.924534 479.63751 715.733134 
C 476.446109 712.541733 472.117034 710.748571 467.603711 710.748571 
C 463.090389 710.748571 458.761313 712.541733 455.569913 715.733134 
C 452.378512 718.924534 450.58535 723.25361 450.58535 727.766932 
C 450.58535 732.280255 452.378512 736.60933 455.569913 739.800731 
C 458.761313 742.992132 463.090389 744.785294 467.603711 744.785294 
z
"/>
   </g>
   <g id="patch_79">
    <path clip-path="url(#p706ecd0ce1)" d="M 947.105115 551.958578 
C 951.618437 551.958578 955.947513 550.165416 959.138914 546.974015 
C 962.330314 543.782614 964.123476 539.453538 964.123476 534.940216 
C 964.123476 530.426894 962.330314 526.097818 959.138914 522.906417 
C 955.947513 519.715017 951.618437 517.921855 947.105115 517.921855 
C 942.591793 517.921855 938.262717 519.715017 935.071316 522.906417 
C 931.879915 526.097818 930.086753 530.426894 930.086753 534.940216 
C 930.086753 539.453538 931.879915 543.782614 935.071316 546.974015 
C 938.262717 550.165416 942.591793 551.958578 947.105115 551.958578 
z
"/>
   </g>
   <g id="patch_80">
    <path clip-path="url(#p706ecd0ce1)" d="M 864.149817 677.490585 
C 868.663139 677.490585 872.992215 675.697423 876.183615 672.506022 
C 879.375016 669.314621 881.168178 664.985546 881.168178 660.472223 
C 881.168178 655.958901 879.375016 651.629825 876.183615 648.438425 
C 872.992215 645.247024 868.663139 643.453862 864.149817 643.453862 
C 859.636494 643.453862 855.307419 645.247024 852.116018 648.438425 
C 848.924617 651.629825 847.131455 655.958901 847.131455 660.472223 
C 847.131455 664.985546 848.924617 669.314621 852.116018 672.506022 
C 855.307419 675.697423 859.636494 677.490585 864.149817 677.490585 
z
"/>
   </g>
   <g id="patch_81">
    <path clip-path="url(#p706ecd0ce1)" d="M 704.298366 841.780314 
C 708.811688 841.780314 713.140764 839.987152 716.332164 836.795751 
C 719.523565 833.604351 721.316727 829.275275 721.316727 824.761953 
C 721.316727 820.24863 719.523565 815.919555 716.332164 812.728154 
C 713.140764 809.536753 708.811688 807.743591 704.298366 807.743591 
C 699.785043 807.743591 695.455967 809.536753 692.264567 812.728154 
C 689.073166 815.919555 687.280004 820.24863 687.280004 824.761953 
C 687.280004 829.275275 689.073166 833.604351 692.264567 836.795751 
C 695.455967 839.987152 699.785043 841.780314 704.298366 841.780314 
z
"/>
   </g>
   <g id="patch_82">
    <path clip-path="url(#p706ecd0ce1)" d="M 631.626746 462.547869 
C 636.140068 462.547869 640.469144 460.754707 643.660545 457.563306 
C 646.851946 454.371906 648.645108 450.04283 648.645108 445.529508 
C 648.645108 441.016185 646.851946 436.687109 643.660545 433.495709 
C 640.469144 430.304308 636.140068 428.511146 631.626746 428.511146 
C 627.113424 428.511146 622.784348 430.304308 619.592947 433.495709 
C 616.401547 436.687109 614.608385 441.016185 614.608385 445.529508 
C 614.608385 450.04283 616.401547 454.371906 619.592947 457.563306 
C 622.784348 460.754707 627.113424 462.547869 631.626746 462.547869 
z
"/>
   </g>
   <g id="patch_83">
    <path clip-path="url(#p706ecd0ce1)" d="M 612.567712 996.313597 
C 617.081034 996.313597 621.41011 994.520435 624.601511 991.329035 
C 627.792911 988.137634 629.586073 983.808558 629.586073 979.295236 
C 629.586073 974.781914 627.792911 970.452838 624.601511 967.261437 
C 621.41011 964.070036 617.081034 962.276874 612.567712 962.276874 
C 608.05439 962.276874 603.725314 964.070036 600.533913 967.261437 
C 597.342512 970.452838 595.54935 974.781914 595.54935 979.295236 
C 595.54935 983.808558 597.342512 988.137634 600.533913 991.329035 
C 603.725314 994.520435 608.05439 996.313597 612.567712 996.313597 
z
"/>
   </g>
   <g id="patch_84">
    <path clip-path="url(#p706ecd0ce1)" d="M 790.237905 1123.710401 
C 794.751227 1123.710401 799.080303 1121.917239 802.271704 1118.725839 
C 805.463105 1115.534438 807.256266 1111.205362 807.256266 1106.69204 
C 807.256266 1102.178718 805.463105 1097.849642 802.271704 1094.658241 
C 799.080303 1091.46684 794.751227 1089.673678 790.237905 1089.673678 
C 785.724583 1089.673678 781.395507 1091.46684 778.204106 1094.658241 
C 775.012705 1097.849642 773.219544 1102.178718 773.219544 1106.69204 
C 773.219544 1111.205362 775.012705 1115.534438 778.204106 1118.725839 
C 781.395507 1121.917239 785.724583 1123.710401 790.237905 1123.710401 
z
"/>
   </g>
   <g id="patch_85">
    <path clip-path="url(#p706ecd0ce1)" d="M 846.673728 870.637398 
C 851.187051 870.637398 855.516126 868.844236 858.707527 865.652835 
C 861.898928 862.461434 863.69209 858.132359 863.69209 853.619036 
C 863.69209 849.105714 861.898928 844.776638 858.707527 841.585237 
C 855.516126 838.393837 851.187051 836.600675 846.673728 836.600675 
C 842.160406 836.600675 837.83133 838.393837 834.63993 841.585237 
C 831.448529 844.776638 829.655367 849.105714 829.655367 853.619036 
C 829.655367 858.132359 831.448529 862.461434 834.63993 865.652835 
C 837.83133 868.844236 842.160406 870.637398 846.673728 870.637398 
z
"/>
   </g>
   <g id="patch_86">
    <path clip-path="url(#p706ecd0ce1)" d="M 416.683105 770.71551 
C 421.196428 770.71551 425.525503 768.922348 428.716904 765.730947 
C 431.908305 762.539546 433.701467 758.210471 433.701467 753.697148 
C 433.701467 749.183826 431.908305 744.85475 428.716904 741.66335 
C 425.525503 738.471949 421.196428 736.678787 416.683105 736.678787 
C 412.169783 736.678787 407.840707 738.471949 404.649307 741.66335 
C 401.457906 744.85475 399.664744 749.183826 399.664744 753.697148 
C 399.664744 758.210471 401.457906 762.539546 404.649307 765.730947 
C 407.840707 768.922348 412.169783 770.71551 416.683105 770.71551 
z
"/>
   </g>
   <g id="patch_87">
    <path clip-path="url(#p706ecd0ce1)" d="M 708.745971 661.036964 
C 712.507073 661.036964 716.114636 659.542663 718.774136 656.883162 
C 721.433637 654.223661 722.927939 650.616098 722.927939 646.854996 
C 722.927939 643.093894 721.433637 639.486331 718.774136 636.826831 
C 716.114636 634.16733 712.507073 632.673028 708.745971 632.673028 
C 704.984869 632.673028 701.377306 634.16733 698.717805 636.826831 
C 696.058304 639.486331 694.564003 643.093894 694.564003 646.854996 
C 694.564003 650.616098 696.058304 654.223661 698.717805 656.883162 
C 701.377306 659.542663 704.984869 661.036964 708.745971 661.036964 
z
" style="fill:#ffffff;"/>
   </g>
   <g id="patch_88">
    <path clip-path="url(#p706ecd0ce1)" d="M 850.023724 1019.509924 
C 853.784826 1019.509924 857.392389 1018.015622 860.051889 1015.356121 
C 862.71139 1012.696621 864.205692 1009.089058 864.205692 1005.327956 
C 864.205692 1001.566854 862.71139 997.959291 860.051889 995.29979 
C 857.392389 992.640289 853.784826 991.145988 850.023724 991.145988 
C 846.262622 991.145988 842.655059 992.640289 839.995558 995.29979 
C 837.336058 997.959291 835.841756 1001.566854 835.841756 1005.327956 
C 835.841756 1009.089058 837.336058 1012.696621 839.995558 1015.356121 
C 842.655059 1018.015622 846.262622 1019.509924 850.023724 1019.509924 
z
" style="fill:#ffffff;"/>
   </g>
   <g id="patch_89">
    <path clip-path="url(#p706ecd0ce1)" d="M 162.208428 617.882758 
C 165.96953 617.882758 169.577093 616.388457 172.236593 613.728956 
C 174.896094 611.069455 176.390396 607.461892 176.390396 603.70079 
C 176.390396 599.939688 174.896094 596.332125 172.236593 593.672625 
C 169.577093 591.013124 165.96953 589.518822 162.208428 589.518822 
C 158.447326 589.518822 154.839763 591.013124 152.180262 593.672625 
C 149.520761 596.332125 148.02646 599.939688 148.02646 603.70079 
C 148.02646 607.461892 149.520761 611.069455 152.180262 613.728956 
C 154.839763 616.388457 158.447326 617.882758 162.208428 617.882758 
z
" style="fill:#ffffff;"/>
   </g>
   <g id="patch_90">
    <path clip-path="url(#p706ecd0ce1)" d="M 339.124881 594.90218 
C 342.885983 594.90218 346.493546 593.407878 349.153047 590.748378 
C 351.812547 588.088877 353.306849 584.481314 353.306849 580.720212 
C 353.306849 576.95911 351.812547 573.351547 349.153047 570.692047 
C 346.493546 568.032546 342.885983 566.538244 339.124881 566.538244 
C 335.363779 566.538244 331.756216 568.032546 329.096715 570.692047 
C 326.437215 573.351547 324.942913 576.95911 324.942913 580.720212 
C 324.942913 584.481314 326.437215 588.088877 329.096715 590.748378 
C 331.756216 593.407878 335.363779 594.90218 339.124881 594.90218 
z
" style="fill:#ffffff;"/>
   </g>
   <g id="patch_91">
    <path clip-path="url(#p706ecd0ce1)" d="M 1059.742802 636.636204 
C 1063.503904 636.636204 1067.111467 635.141903 1069.770968 632.482402 
C 1072.430468 629.822901 1073.92477 626.215338 1073.92477 622.454236 
C 1073.92477 618.693135 1072.430468 615.085571 1069.770968 612.426071 
C 1067.111467 609.76657 1063.503904 608.272268 1059.742802 608.272268 
C 1055.9817 608.272268 1052.374137 609.76657 1049.714636 612.426071 
C 1047.055136 615.085571 1045.560834 618.693135 1045.560834 622.454236 
C 1045.560834 626.215338 1047.055136 629.822901 1049.714636 632.482402 
C 1052.374137 635.141903 1055.9817 636.636204 1059.742802 636.636204 
z
" style="fill:#ffffff;"/>
   </g>
   <g id="patch_92">
    <path clip-path="url(#p706ecd0ce1)" d="M 651.95664 1130.927647 
C 655.717742 1130.927647 659.325305 1129.433345 661.984806 1126.773844 
C 664.644307 1124.114344 666.138608 1120.506781 666.138608 1116.745679 
C 666.138608 1112.984577 664.644307 1109.377014 661.984806 1106.717513 
C 659.325305 1104.058012 655.717742 1102.563711 651.95664 1102.563711 
C 648.195538 1102.563711 644.587975 1104.058012 641.928475 1106.717513 
C 639.268974 1109.377014 637.774672 1112.984577 637.774672 1116.745679 
C 637.774672 1120.506781 639.268974 1124.114344 641.928475 1126.773844 
C 644.587975 1129.433345 648.195538 1130.927647 651.95664 1130.927647 
z
" style="fill:#ffffff;"/>
   </g>
   <g id="patch_93">
    <path clip-path="url(#p706ecd0ce1)" d="M 493.157974 818.851949 
C 496.919076 818.851949 500.526639 817.357647 503.18614 814.698146 
C 505.84564 812.038646 507.339942 808.431083 507.339942 804.669981 
C 507.339942 800.908879 505.84564 797.301316 503.18614 794.641815 
C 500.526639 791.982315 496.919076 790.488013 493.157974 790.488013 
C 489.396872 790.488013 485.789309 791.982315 483.129809 794.641815 
C 480.470308 797.301316 478.976006 800.908879 478.976006 804.669981 
C 478.976006 808.431083 480.470308 812.038646 483.129809 814.698146 
C 485.789309 817.357647 489.396872 818.851949 493.157974 818.851949 
z
" style="fill:#ffffff;"/>
   </g>
   <g id="patch_94">
    <path clip-path="url(#p706ecd0ce1)" d="M 422.553446 1034.353194 
C 426.314548 1034.353194 429.922111 1032.858893 432.581612 1030.199392 
C 435.241112 1027.539891 436.735414 1023.932328 436.735414 1020.171226 
C 436.735414 1016.410124 435.241112 1012.802561 432.581612 1010.143061 
C 429.922111 1007.48356 426.314548 1005.989258 422.553446 1005.989258 
C 418.792344 1005.989258 415.184781 1007.48356 412.52528 1010.143061 
C 409.86578 1012.802561 408.371478 1016.410124 408.371478 1020.171226 
C 408.371478 1023.932328 409.86578 1027.539891 412.52528 1030.199392 
C 415.184781 1032.858893 418.792344 1034.353194 422.553446 1034.353194 
z
" style="fill:#ffffff;"/>
   </g>
   <g id="patch_95">
    <path clip-path="url(#p706ecd0ce1)" d="M 648.953266 581.705012 
C 652.714368 581.705012 656.321931 580.210711 658.981432 577.55121 
C 661.640932 574.891709 663.135234 571.284146 663.135234 567.523044 
C 663.135234 563.761942 661.640932 560.154379 658.981432 557.494879 
C 656.321931 554.835378 652.714368 553.341076 648.953266 553.341076 
C 645.192164 553.341076 641.584601 554.835378 638.9251 557.494879 
C 636.2656 560.154379 634.771298 563.761942 634.771298 567.523044 
C 634.771298 571.284146 636.2656 574.891709 638.9251 577.55121 
C 641.584601 580.210711 645.192164 581.705012 648.953266 581.705012 
z
" style="fill:#ffffff;"/>
   </g>
   <g id="patch_96">
    <path clip-path="url(#p706ecd0ce1)" d="M 1028.671572 449.009928 
C 1032.432674 449.009928 1036.040237 447.515626 1038.699738 444.856126 
C 1041.359239 442.196625 1042.85354 438.589062 1042.85354 434.82796 
C 1042.85354 431.066858 1041.359239 427.459295 1038.699738 424.799794 
C 1036.040237 422.140294 1032.432674 420.645992 1028.671572 420.645992 
C 1024.91047 420.645992 1021.302907 422.140294 1018.643407 424.799794 
C 1015.983906 427.459295 1014.489604 431.066858 1014.489604 434.82796 
C 1014.489604 438.589062 1015.983906 442.196625 1018.643407 444.856126 
C 1021.302907 447.515626 1024.91047 449.009928 1028.671572 449.009928 
z
" style="fill:#ffffff;"/>
   </g>
   <g id="patch_97">
    <path clip-path="url(#p706ecd0ce1)" d="M 248.012222 906.594052 
C 251.773324 906.594052 255.380887 905.09975 258.040388 902.44025 
C 260.699888 899.780749 262.19419 896.173186 262.19419 892.412084 
C 262.19419 888.650982 260.699888 885.043419 258.040388 882.383918 
C 255.380887 879.724418 251.773324 878.230116 248.012222 878.230116 
C 244.25112 878.230116 240.643557 879.724418 237.984056 882.383918 
C 235.324556 885.043419 233.830254 888.650982 233.830254 892.412084 
C 233.830254 896.173186 235.324556 899.780749 237.984056 902.44025 
C 240.643557 905.09975 244.25112 906.594052 248.012222 906.594052 
z
" style="fill:#ffffff;"/>
   </g>
   <g id="patch_98">
    <path clip-path="url(#p706ecd0ce1)" d="M 467.603711 741.9489 
C 471.364813 741.9489 474.972376 740.454599 477.631877 737.795098 
C 480.291378 735.135597 481.785679 731.528034 481.785679 727.766932 
C 481.785679 724.00583 480.291378 720.398267 477.631877 717.738767 
C 474.972376 715.079266 471.364813 713.584964 467.603711 713.584964 
C 463.84261 713.584964 460.235046 715.079266 457.575546 717.738767 
C 454.916045 720.398267 453.421743 724.00583 453.421743 727.766932 
C 453.421743 731.528034 454.916045 735.135597 457.575546 737.795098 
C 460.235046 740.454599 463.84261 741.9489 467.603711 741.9489 
z
" style="fill:#ffffff;"/>
   </g>
   <g id="patch_99">
    <path clip-path="url(#p706ecd0ce1)" d="M 947.105115 549.122184 
C 950.866217 549.122184 954.47378 547.627882 957.133281 544.968382 
C 959.792781 542.308881 961.287083 538.701318 961.287083 534.940216 
C 961.287083 531.179114 959.792781 527.571551 957.133281 524.91205 
C 954.47378 522.25255 950.866217 520.758248 947.105115 520.758248 
C 943.344013 520.758248 939.73645 522.25255 937.076949 524.91205 
C 934.417449 527.571551 932.923147 531.179114 932.923147 534.940216 
C 932.923147 538.701318 934.417449 542.308881 937.076949 544.968382 
C 939.73645 547.627882 943.344013 549.122184 947.105115 549.122184 
z
" style="fill:#ffffff;"/>
   </g>
   <g id="patch_100">
    <path clip-path="url(#p706ecd0ce1)" d="M 864.149817 674.654191 
C 867.910918 674.654191 871.518482 673.15989 874.177982 670.500389 
C 876.837483 667.840888 878.331784 664.233325 878.331784 660.472223 
C 878.331784 656.711122 876.837483 653.103558 874.177982 650.444058 
C 871.518482 647.784557 867.910918 646.290255 864.149817 646.290255 
C 860.388715 646.290255 856.781152 647.784557 854.121651 650.444058 
C 851.46215 653.103558 849.967849 656.711122 849.967849 660.472223 
C 849.967849 664.233325 851.46215 667.840888 854.121651 670.500389 
C 856.781152 673.15989 860.388715 674.654191 864.149817 674.654191 
z
" style="fill:#ffffff;"/>
   </g>
   <g id="patch_101">
    <path clip-path="url(#p706ecd0ce1)" d="M 704.298366 838.943921 
C 708.059467 838.943921 711.667031 837.449619 714.326531 834.790118 
C 716.986032 832.130618 718.480333 828.523054 718.480333 824.761953 
C 718.480333 821.000851 716.986032 817.393288 714.326531 814.733787 
C 711.667031 812.074286 708.059467 810.579985 704.298366 810.579985 
C 700.537264 810.579985 696.9297 812.074286 694.2702 814.733787 
C 691.610699 817.393288 690.116398 821.000851 690.116398 824.761953 
C 690.116398 828.523054 691.610699 832.130618 694.2702 834.790118 
C 696.9297 837.449619 700.537264 838.943921 704.298366 838.943921 
z
" style="fill:#ffffff;"/>
   </g>
   <g id="patch_102">
    <path clip-path="url(#p706ecd0ce1)" d="M 631.626746 459.711475 
C 635.387848 459.711475 638.995411 458.217174 641.654912 455.557673 
C 644.314412 452.898173 645.808714 449.290609 645.808714 445.529508 
C 645.808714 441.768406 644.314412 438.160842 641.654912 435.501342 
C 638.995411 432.841841 635.387848 431.34754 631.626746 431.34754 
C 627.865644 431.34754 624.258081 432.841841 621.59858 435.501342 
C 618.93908 438.160842 617.444778 441.768406 617.444778 445.529508 
C 617.444778 449.290609 618.93908 452.898173 621.59858 455.557673 
C 624.258081 458.217174 627.865644 459.711475 631.626746 459.711475 
z
" style="fill:#ffffff;"/>
   </g>
   <g id="patch_103">
    <path clip-path="url(#p706ecd0ce1)" d="M 612.567712 993.477204 
C 616.328814 993.477204 619.936377 991.982902 622.595878 989.323401 
C 625.255378 986.663901 626.74968 983.056338 626.74968 979.295236 
C 626.74968 975.534134 625.255378 971.926571 622.595878 969.26707 
C 619.936377 966.60757 616.328814 965.113268 612.567712 965.113268 
C 608.80661 965.113268 605.199047 966.60757 602.539546 969.26707 
C 599.880046 971.926571 598.385744 975.534134 598.385744 979.295236 
C 598.385744 983.056338 599.880046 986.663901 602.539546 989.323401 
C 605.199047 991.982902 608.80661 993.477204 612.567712 993.477204 
z
" style="fill:#ffffff;"/>
   </g>
   <g id="patch_104">
    <path clip-path="url(#p706ecd0ce1)" d="M 790.237905 1120.874008 
C 793.999007 1120.874008 797.60657 1119.379706 800.266071 1116.720206 
C 802.925571 1114.060705 804.419873 1110.453142 804.419873 1106.69204 
C 804.419873 1102.930938 802.925571 1099.323375 800.266071 1096.663874 
C 797.60657 1094.004374 793.999007 1092.510072 790.237905 1092.510072 
C 786.476803 1092.510072 782.86924 1094.004374 780.209739 1096.663874 
C 777.550239 1099.323375 776.055937 1102.930938 776.055937 1106.69204 
C 776.055937 1110.453142 777.550239 1114.060705 780.209739 1116.720206 
C 782.86924 1119.379706 786.476803 1120.874008 790.237905 1120.874008 
z
" style="fill:#ffffff;"/>
   </g>
   <g id="patch_105">
    <path clip-path="url(#p706ecd0ce1)" d="M 846.673728 867.801004 
C 850.43483 867.801004 854.042393 866.306703 856.701894 863.647202 
C 859.361395 860.987701 860.855696 857.380138 860.855696 853.619036 
C 860.855696 849.857934 859.361395 846.250371 856.701894 843.590871 
C 854.042393 840.93137 850.43483 839.437068 846.673728 839.437068 
C 842.912627 839.437068 839.305063 840.93137 836.645563 843.590871 
C 833.986062 846.250371 832.49176 849.857934 832.49176 853.619036 
C 832.49176 857.380138 833.986062 860.987701 836.645563 863.647202 
C 839.305063 866.306703 842.912627 867.801004 846.673728 867.801004 
z
" style="fill:#ffffff;"/>
   </g>
   <g id="patch_106">
    <path clip-path="url(#p706ecd0ce1)" d="M 416.683105 767.879116 
C 420.444207 767.879116 424.05177 766.384815 426.711271 763.725314 
C 429.370772 761.065813 430.865073 757.45825 430.865073 753.697148 
C 430.865073 749.936047 429.370772 746.328483 426.711271 743.668983 
C 424.05177 741.009482 420.444207 739.515181 416.683105 739.515181 
C 412.922004 739.515181 409.31444 741.009482 406.65494 743.668983 
C 403.995439 746.328483 402.501137 749.936047 402.501137 753.697148 
C 402.501137 757.45825 403.995439 761.065813 406.65494 763.725314 
C 409.31444 766.384815 412.922004 767.879116 416.683105 767.879116 
z
" style="fill:#ffffff;"/>
   </g>
  </g>
 </g>
 <defs>
  <clipPath id="p706ecd0ce1">
   <rect height="1220.655932" width="1317.6" x="32.4" y="117.592034"/>
  </clipPath>
 </defs>
</svg>
