<?xml version="1.0" encoding="utf-8" standalone="no"?>
<!DOCTYPE svg PUBLIC "-//W3C//DTD SVG 1.1//EN"
  "http://www.w3.org/Graphics/SVG/1.1/DTD/svg11.dtd">
<!-- Created with matplotlib (http://matplotlib.org/) -->
<svg height="1455pt" version="1.1" viewBox="0 0 1382 1455" width="1382pt" xmlns="http://www.w3.org/2000/svg" xmlns:xlink="http://www.w3.org/1999/xlink">
 <defs>
  <style type="text/css">
*{stroke-linecap:butt;stroke-linejoin:round;}
  </style>
 </defs>
 <g id="figure_1">
  <g id="patch_1">
   <path d="M 0 1455.84 
L 1382.4 1455.84 
L 1382.4 0 
L 0 0 
z
" style="fill:#ffffff;"/>
  </g>
  <g id="axes_1">
   <g id="patch_2">
    <path clip-path="url(#pf269dea4c8)" d="M 254.782849 850.492103 
L 245.205793 840.46018 
L 250.714502 839.803184 
L 223.614557 612.578648 
L 226.368912 612.25015 
L 229.123266 611.921652 
L 256.223211 839.146187 
L 261.73192 838.489191 
z
" style="fill:#fefefe;"/>
   </g>
   <g id="patch_3">
    <path clip-path="url(#pf269dea4c8)" d="M 666.089749 939.354804 
L 659.939064 926.923852 
L 665.393133 927.939061 
L 742.127035 515.696914 
L 744.854069 516.204519 
L 747.581103 516.712123 
L 670.847202 928.95427 
L 676.301271 929.969479 
z
" style="fill:#d9d9d9;"/>
   </g>
   <g id="patch_4">
    <path clip-path="url(#pf269dea4c8)" d="M 845.275737 734.072259 
L 857.567193 740.497179 
L 852.561269 742.888464 
L 966.570818 981.556444 
L 964.067856 982.752086 
L 961.564894 983.947729 
L 847.555345 745.279749 
L 842.549421 747.671034 
z
" style="fill:#7e7e7e;"/>
   </g>
   <g id="patch_5">
    <path clip-path="url(#pf269dea4c8)" d="M 470.491382 652.092959 
L 475.377072 639.112608 
L 470.050794 640.664471 
L 390.19001 366.56771 
L 387.526871 367.343642 
z
" style="fill:#e58368;"/>
   </g>
   <g id="patch_6">
    <path clip-path="url(#pf269dea4c8)" d="M 563.10956 202.239753 
L 575.87024 207.673401 
L 571.068909 210.452744 
L 747.254734 514.814848 
L 744.854069 516.204519 
L 742.453404 517.59419 
L 566.267578 213.232086 
L 561.466248 216.011428 
z
" style="fill:#feece1;"/>
   </g>
   <g id="patch_7">
    <path clip-path="url(#pf269dea4c8)" d="M 615.533778 653.583952 
L 629.380527 654.375803 
L 625.803915 658.616718 
L 745.636253 759.678346 
L 743.847947 761.798803 
L 742.059641 763.919261 
L 622.227303 662.857634 
L 618.650691 667.098549 
z
" style="fill:#9b9b9b;"/>
   </g>
   <g id="patch_8">
    <path clip-path="url(#pf269dea4c8)" d="M 242.947482 609.112786 
L 256.232468 613.096331 
L 254.318806 607.889084 
L 580.583722 487.986771 
L 579.626891 485.383148 
z
" style="fill:#fddcc9;"/>
   </g>
   <g id="patch_9">
    <path clip-path="url(#pf269dea4c8)" d="M 912.327343 1071.707176 
L 925.240397 1066.646295 
L 920.521782 1063.728729 
L 968.786471 985.669652 
L 966.427163 984.210869 
z
" style="fill:#ee9677;"/>
   </g>
   <g id="patch_10">
    <path clip-path="url(#pf269dea4c8)" d="M 562.09149 485.916889 
L 548.806503 481.933344 
L 550.720166 487.14059 
L 224.45525 607.042903 
L 225.412081 609.646527 
z
" style="fill:#1a1a1a;"/>
   </g>
   <g id="patch_11">
    <path clip-path="url(#pf269dea4c8)" d="M 898.810533 408.984373 
L 901.967701 422.489623 
L 896.888301 420.258657 
L 746.387647 762.914287 
L 743.847947 761.798803 
L 741.308247 760.68332 
L 891.808901 418.027691 
L 886.7295 415.796725 
z
" style="fill:#e9e9e9;"/>
   </g>
   <g id="patch_12">
    <path clip-path="url(#pf269dea4c8)" d="M 577.325906 466.190646 
L 568.135364 455.80347 
L 573.66499 455.355419 
L 552.00672 188.059787 
L 554.771533 187.835761 
L 557.536347 187.611736 
L 579.194617 454.907367 
L 584.724243 454.459316 
z
" style="fill:#fcd3bc;"/>
   </g>
   <g id="patch_13">
    <path clip-path="url(#pf269dea4c8)" d="M 884.388864 1083.154524 
L 872.58295 1075.875796 
L 873.087176 1081.400583 
L 785.093416 1089.431438 
L 785.345529 1092.193832 
z
" style="fill:#e5e5e5;"/>
   </g>
   <g id="patch_14">
    <path clip-path="url(#pf269dea4c8)" d="M 890.423818 653.743601 
L 878.770138 646.223546 
L 879.160604 651.757536 
L 799.764037 657.359569 
L 799.959269 660.126565 
z
" style="fill:#e27b62;"/>
   </g>
   <g id="patch_15">
    <path clip-path="url(#pf269dea4c8)" d="M 526.950881 769.141571 
L 525.530775 755.345094 
L 530.286473 758.201814 
L 600.433183 641.425754 
L 602.811032 642.854115 
L 605.188881 644.282475 
L 535.042172 761.058535 
L 539.79787 763.915256 
z
" style="fill:#606060;"/>
   </g>
   <g id="patch_16">
    <path clip-path="url(#pf269dea4c8)" d="M 730.944163 772.310227 
L 727.597353 785.769735 
L 724.093545 781.468474 
L 441.74707 1011.467949 
L 439.995166 1009.317318 
L 438.243262 1007.166688 
L 720.589737 777.167213 
L 717.085929 772.865951 
z
" style="fill:#fee5d6;"/>
   </g>
   <g id="patch_17">
    <path clip-path="url(#pf269dea4c8)" d="M 799.594083 679.527369 
L 807.537375 690.896784 
L 801.992772 690.709978 
L 788.369943 1095.049629 
L 785.597642 1094.956226 
L 782.82534 1094.862823 
L 796.448169 690.523171 
L 790.903566 690.336365 
z
" style="fill:#eaeaea;"/>
   </g>
   <g id="patch_18">
    <path clip-path="url(#pf269dea4c8)" d="M 386.856183 384.874339 
L 381.970493 397.854691 
L 387.296771 396.302827 
L 467.157555 670.399588 
L 469.820694 669.623657 
z
" style="fill:#d86551;"/>
   </g>
   <g id="patch_19">
    <path clip-path="url(#pf269dea4c8)" d="M 609.871391 741.885709 
L 600.282927 731.864688 
L 605.790885 731.201425 
L 575.916081 483.111157 
L 578.67006 482.779525 
L 581.424039 482.447893 
L 611.298843 730.538162 
L 616.806801 729.874898 
z
" style="fill:#991027;"/>
   </g>
   <g id="patch_20">
    <path clip-path="url(#pf269dea4c8)" d="M 850.339071 707.774023 
L 852.856965 694.135119 
L 856.61712 698.214182 
L 905.340946 653.29967 
L 907.221023 655.339201 
L 909.1011 657.378733 
L 860.377275 702.293245 
L 864.137429 706.372308 
z
" style="fill:#feede4;"/>
   </g>
   <g id="patch_21">
    <path clip-path="url(#pf269dea4c8)" d="M 489.348167 668.312662 
L 501.857029 674.303309 
L 500.771909 668.862718 
L 603.896152 648.294706 
L 603.353592 645.57441 
z
" style="fill:#dfdfdf;"/>
   </g>
   <g id="patch_22">
    <path clip-path="url(#pf269dea4c8)" d="M 802.424117 1096.20594 
L 814.230031 1103.484669 
L 813.725804 1097.959881 
L 901.719565 1089.929026 
L 901.467452 1087.166632 
z
" style="fill:#f6b394;"/>
   </g>
   <g id="patch_23">
    <path clip-path="url(#pf269dea4c8)" d="M 585.946699 643.389178 
L 573.437837 637.398531 
L 574.522956 642.839122 
L 471.398714 663.407134 
L 471.941273 666.127429 
z
" style="fill:#facab1;"/>
   </g>
   <g id="patch_24">
    <path clip-path="url(#pf269dea4c8)" d="M 605.957448 659.19724 
L 616.226622 668.519448 
L 610.778913 669.568253 
L 665.767976 955.192608 
L 663.044122 955.717011 
L 660.320267 956.241413 
L 605.331205 670.617059 
L 599.883497 671.665864 
z
" style="fill:#fddecb;"/>
   </g>
   <g id="patch_25">
    <path clip-path="url(#pf269dea4c8)" d="M 822.268272 713.926676 
L 809.148626 718.42494 
L 810.857897 713.14707 
L 601.956397 645.49305 
L 602.811032 642.854115 
L 603.665667 640.21518 
L 812.567167 707.8692 
L 814.276437 702.59133 
z
" style="fill:#fddecb;"/>
   </g>
   <g id="patch_26">
    <path clip-path="url(#pf269dea4c8)" d="M 590.974959 493.98609 
L 604.781508 495.304684 
L 601.045987 499.406317 
L 839.969643 717.00367 
L 838.101882 719.054487 
L 836.234122 721.105303 
L 597.310465 503.50795 
L 593.574943 507.609584 
z
" style="fill:#cbcbcb;"/>
   </g>
   <g id="patch_27">
    <path clip-path="url(#pf269dea4c8)" d="M 892.486427 647.60038 
L 878.793953 649.808464 
L 881.37356 644.896932 
L 577.380256 485.235291 
L 578.67006 482.779525 
L 579.959863 480.323759 
L 883.953167 639.9854 
L 886.532774 635.073868 
z
" style="fill:#707070;"/>
   </g>
   <g id="patch_28">
    <path clip-path="url(#pf269dea4c8)" d="M 794.283494 647.32022 
L 782.582819 639.873496 
L 787.773933 637.916494 
L 742.258512 517.18302 
L 744.854069 516.204519 
L 747.449626 515.226017 
L 792.965046 635.959491 
L 798.156159 634.002489 
z
" style="fill:#fee9dd;"/>
   </g>
   <g id="patch_29">
    <path clip-path="url(#pf269dea4c8)" d="M 456.177719 1005.428532 
L 465.021694 994.744731 
L 466.317956 1000.138915 
L 662.39599 953.019918 
L 663.044122 955.717011 
L 663.692253 958.414103 
L 467.614218 1005.533099 
L 468.91048 1010.927283 
z
" style="fill:#9d9d9d;"/>
   </g>
   <g id="patch_30">
    <path clip-path="url(#pf269dea4c8)" d="M 565.758329 471.9177 
L 560.446134 459.105984 
L 557.621312 463.880698 
L 387.688554 363.344859 
L 386.276143 365.732216 
z
" style="fill:#c5c5c5;"/>
   </g>
   <g id="patch_31">
    <path clip-path="url(#pf269dea4c8)" d="M 610.561683 741.817146 
L 601.399133 731.40527 
L 606.929945 730.972104 
L 600.045626 643.070698 
L 602.811032 642.854115 
L 605.576438 642.637532 
L 612.460758 730.538938 
L 617.99157 730.105772 
z
" style="fill:#fddfce;"/>
   </g>
   <g id="patch_32">
    <path clip-path="url(#pf269dea4c8)" d="M 755.59692 773.586903 
L 769.323618 775.571149 
L 765.394252 779.487474 
L 966.032539 980.793924 
L 964.067856 982.752086 
L 962.103173 984.710249 
L 761.464885 783.403798 
L 757.535519 787.320123 
z
" style="fill:#d6604d;"/>
   </g>
   <g id="patch_33">
    <path clip-path="url(#pf269dea4c8)" d="M 564.790597 201.125458 
L 578.114821 204.975724 
L 573.684922 208.315411 
L 909.435972 653.669357 
L 907.221023 655.339201 
L 905.006074 657.009045 
L 569.255023 211.655099 
L 564.825124 214.994787 
z
" style="fill:#e98b6e;"/>
   </g>
   <g id="patch_34">
    <path clip-path="url(#pf269dea4c8)" d="M 487.330139 676.86516 
L 495.130305 688.333241 
L 496.928051 683.084848 
L 742.050201 767.047196 
L 742.949074 764.423 
z
" style="fill:#f7b99c;"/>
   </g>
   <g id="patch_35">
    <path clip-path="url(#pf269dea4c8)" d="M 831.150463 703.932469 
L 818.955175 697.326833 
L 823.995848 695.009693 
L 742.333733 517.363088 
L 744.854069 516.204519 
L 747.374405 515.045949 
L 829.03652 692.692553 
L 834.077193 690.375414 
z
" style="fill:#fef3ec;"/>
   </g>
   <g id="patch_36">
    <path clip-path="url(#pf269dea4c8)" d="M 397.775463 378.981398 
L 403.087657 391.793115 
L 405.91248 387.018401 
L 575.845237 487.554239 
L 577.257648 485.166882 
z
" style="fill:#737373;"/>
   </g>
   <g id="patch_37">
    <path clip-path="url(#pf269dea4c8)" d="M 891.413123 660.545733 
L 883.477789 671.920703 
L 881.742279 666.651404 
L 519.248474 786.043315 
L 518.380719 783.408666 
L 517.512964 780.774016 
L 880.006768 661.382104 
L 878.271258 656.112804 
z
" style="fill:#fcfcfc;"/>
   </g>
   <g id="patch_38">
    <path clip-path="url(#pf269dea4c8)" d="M 729.001641 753.781369 
L 721.201475 742.313287 
L 719.403729 747.56168 
L 474.281579 663.599332 
L 473.382706 666.223529 
z
" style="fill:#fee8db;"/>
   </g>
   <g id="patch_39">
    <path clip-path="url(#pf269dea4c8)" d="M 901.448274 1067.762622 
L 893.282755 1056.551743 
L 898.829961 1056.629388 
L 904.44742 655.300379 
L 907.221023 655.339201 
L 909.994626 655.378024 
L 904.377167 1056.707033 
L 909.924372 1056.784678 
z
" style="fill:#eaeaea;"/>
   </g>
   <g id="patch_40">
    <path clip-path="url(#pf269dea4c8)" d="M 816.951707 664.48916 
L 828.605387 672.009216 
L 828.214921 666.475225 
L 907.611488 660.873192 
L 907.416256 658.106197 
z
" style="fill:#e48066;"/>
   </g>
   <g id="patch_41">
    <path clip-path="url(#pf269dea4c8)" d="M 240.727454 620.666202 
L 254.507841 619.097633 
L 251.70249 623.883814 
L 519.783395 781.015575 
L 518.380719 783.408666 
L 516.978044 785.801756 
L 248.897139 628.669994 
L 246.091789 633.456175 
z
" style="fill:#fcd7c2;"/>
   </g>
   <g id="patch_42">
    <path clip-path="url(#pf269dea4c8)" d="M 909.885562 638.678101 
L 918.134156 627.528204 
L 912.586527 627.564629 
L 911.05106 393.709747 
L 908.277246 393.72796 
z
" style="fill:#e17860;"/>
   </g>
   <g id="patch_43">
    <path clip-path="url(#pf269dea4c8)" d="M 628.498943 758.836815 
L 639.804401 750.802756 
L 639.66199 756.348677 
L 743.919152 759.025843 
L 743.847947 761.798803 
L 743.776741 764.571764 
L 639.519579 761.894597 
L 639.377168 767.440518 
z
" style="fill:#f7f7f7;"/>
   </g>
   <g id="patch_44">
    <path clip-path="url(#pf269dea4c8)" d="M 396.278578 356.00764 
L 397.832509 342.225594 
L 401.86982 346.030543 
L 552.752878 185.933287 
L 554.771533 187.835761 
L 556.790189 189.738236 
L 405.907132 349.835492 
L 409.944443 353.64044 
z
" style="fill:#ededed;"/>
   </g>
   <g id="patch_45">
    <path clip-path="url(#pf269dea4c8)" d="M 595.945684 763.277296 
L 587.769209 774.480186 
L 586.146638 769.17502 
L 257.565124 869.670813 
L 256.753839 867.01823 
L 255.942553 864.365647 
L 584.524067 763.869855 
L 582.901496 758.564689 
z
" style="fill:#e8896c;"/>
   </g>
   <g id="patch_46">
    <path clip-path="url(#pf269dea4c8)" d="M 544.586402 200.998617 
L 544.377742 214.86642 
L 539.990124 211.471376 
L 228.562721 613.947672 
L 226.368912 612.25015 
L 224.175103 610.552628 
L 535.602505 208.076332 
L 531.214887 204.681288 
z
" style="fill:#fffdfc;"/>
   </g>
   <g id="patch_47">
    <path clip-path="url(#pf269dea4c8)" d="M 785.311757 670.422876 
L 779.181252 682.863792 
L 776.67148 677.916211 
L 613.116066 760.883373 
L 611.86118 758.409583 
L 610.606294 755.935792 
L 774.161708 672.968629 
L 771.651936 668.021048 
z
" style="fill:#f2f2f2;"/>
   </g>
   <g id="patch_48">
    <path clip-path="url(#pf269dea4c8)" d="M 899.437125 409.244482 
L 903.142077 422.609841 
L 897.975973 420.587739 
L 802.737553 663.904611 
L 800.154502 662.89356 
L 797.57145 661.882509 
L 892.80987 418.565637 
L 887.643767 416.543535 
z
" style="fill:#bf3338;"/>
   </g>
   <g id="patch_49">
    <path clip-path="url(#pf269dea4c8)" d="M 594.728146 478.405108 
L 603.246329 467.459788 
L 604.704468 472.812483 
L 904.774362 391.069824 
L 905.503431 393.746172 
L 906.232501 396.42252 
L 606.162607 478.165179 
L 607.620745 483.517874 
z
" style="fill:#fef6f1;"/>
   </g>
   <g id="patch_50">
    <path clip-path="url(#pf269dea4c8)" d="M 445.450933 993.593696 
L 441.226299 980.383399 
L 446.467506 982.201988 
L 515.760116 782.499371 
L 518.380719 783.408666 
L 521.001323 784.31796 
L 451.708714 984.020576 
L 456.949921 985.839165 
z
" style="fill:#828282;"/>
   </g>
   <g id="patch_51">
    <path clip-path="url(#pf269dea4c8)" d="M 777.963121 1080.167319 
L 765.478988 1074.125308 
L 770.408623 1071.580468 
L 609.396363 759.682003 
L 611.86118 758.409583 
L 614.325998 757.137163 
L 775.338259 1069.035628 
L 780.267894 1066.490788 
z
" style="fill:#ededed;"/>
   </g>
   <g id="patch_52">
    <path clip-path="url(#pf269dea4c8)" d="M 902.838892 410.407273 
L 894.590298 421.557169 
L 900.137928 421.520744 
L 901.673394 655.375626 
L 904.447208 655.357414 
z
" style="fill:#f19e7d;"/>
   </g>
   <g id="patch_53">
    <path clip-path="url(#pf269dea4c8)" d="M 393.2313 382.506424 
L 406.003104 387.913873 
L 401.207487 390.703063 
L 614.258989 757.014988 
L 611.86118 758.409583 
L 609.463372 759.804177 
L 396.411871 393.492252 
L 391.616254 396.281442 
z
" style="fill:#7c0722;"/>
   </g>
   <g id="patch_54">
    <path clip-path="url(#pf269dea4c8)" d="M 952.955851 995.449149 
L 940.042797 1000.51003 
L 944.761412 1003.427596 
L 896.496724 1081.486673 
L 898.856031 1082.945456 
z
" style="fill:#464646;"/>
   </g>
   <g id="patch_55">
    <path clip-path="url(#pf269dea4c8)" d="M 947.491327 981.263341 
L 935.695935 988.559108 
L 936.192184 983.033599 
L 662.795997 958.479765 
L 663.044122 955.717011 
L 663.292246 952.954256 
L 936.688432 977.508089 
L 937.184681 971.98258 
z
" style="fill:#c8c8c8;"/>
   </g>
   <g id="patch_56">
    <path clip-path="url(#pf269dea4c8)" d="M 783.528176 1078.442142 
L 773.89149 1068.467485 
L 779.396184 1067.777663 
L 741.095599 762.143714 
L 743.847947 761.798803 
L 746.600294 761.453892 
L 784.900879 1067.087841 
L 790.405574 1066.398019 
z
" style="fill:#e6866a;"/>
   </g>
   <g id="patch_57">
    <path clip-path="url(#pf269dea4c8)" d="M 892.267202 403.835766 
L 888.487846 417.180276 
L 885.124648 412.768199 
L 746.535668 518.410557 
L 744.854069 516.204519 
L 743.17247 513.99848 
L 881.76145 408.356123 
L 878.398252 403.944047 
z
" style="fill:#f09c7b;"/>
   </g>
   <g id="patch_58">
    <path clip-path="url(#pf269dea4c8)" d="M 616.040237 774.519615 
L 626.881291 783.170109 
L 621.51128 784.563128 
L 665.729127 955.020501 
L 663.044122 955.717011 
L 660.359116 956.41352 
L 616.141269 785.956146 
L 610.771258 787.349165 
z
" style="fill:#e4e4e4;"/>
   </g>
   <g id="patch_59">
    <path clip-path="url(#pf269dea4c8)" d="M 653.83507 941.853713 
L 640.764053 937.21604 
L 645.385153 934.146356 
L 470.173284 670.382567 
L 472.483833 668.847725 
L 474.794383 667.312883 
L 650.006252 931.076672 
L 654.627351 928.006988 
z
" style="fill:#feefe6;"/>
   </g>
   <g id="patch_60">
    <path clip-path="url(#pf269dea4c8)" d="M 672.941591 942.336512 
L 672.849655 928.467444 
L 677.309821 931.766601 
L 835.871799 717.404909 
L 838.101882 719.054487 
L 840.331966 720.704065 
L 681.769988 935.065757 
L 686.230154 938.364914 
z
" style="fill:#e6866a;"/>
   </g>
   <g id="patch_61">
    <path clip-path="url(#pf269dea4c8)" d="M 652.342597 942.970441 
L 638.834962 939.823491 
L 643.083818 936.256316 
L 516.256291 785.192253 
L 518.380719 783.408666 
L 520.505147 781.625078 
L 647.332675 932.689141 
L 651.581531 929.121966 
z
" style="fill:#f7b799;"/>
   </g>
   <g id="matplotlib.axis_1"/>
   <g id="matplotlib.axis_2"/>
   <g id="patch_62">
    <path clip-path="url(#pf269dea4c8)" d="M 800.154502 679.536807 
C 804.568342 679.536807 808.801998 677.783169 811.923054 674.662113 
C 815.044111 671.541056 816.797749 667.307401 816.797749 662.89356 
C 816.797749 658.479719 815.044111 654.246064 811.923054 651.125007 
C 808.801998 648.003951 804.568342 646.250313 800.154502 646.250313 
C 795.740661 646.250313 791.507006 648.003951 788.385949 651.125007 
C 785.264893 654.246064 783.511255 658.479719 783.511255 662.89356 
C 783.511255 667.307401 785.264893 671.541056 788.385949 674.662113 
C 791.507006 677.783169 795.740661 679.536807 800.154502 679.536807 
z
"/>
   </g>
   <g id="patch_63">
    <path clip-path="url(#pf269dea4c8)" d="M 611.86118 775.052829 
C 616.275021 775.052829 620.508676 773.299192 623.629733 770.178135 
C 626.75079 767.057079 628.504427 762.823423 628.504427 758.409583 
C 628.504427 753.995742 626.75079 749.762087 623.629733 746.64103 
C 620.508676 743.519973 616.275021 741.766336 611.86118 741.766336 
C 607.44734 741.766336 603.213684 743.519973 600.092628 746.64103 
C 596.971571 749.762087 595.217934 753.995742 595.217934 758.409583 
C 595.217934 762.823423 596.971571 767.057079 600.092628 770.178135 
C 603.213684 773.299192 607.44734 775.052829 611.86118 775.052829 
z
"/>
   </g>
   <g id="patch_64">
    <path clip-path="url(#pf269dea4c8)" d="M 472.483833 685.490972 
C 476.897674 685.490972 481.131329 683.737334 484.252386 680.616278 
C 487.373443 677.495221 489.12708 673.261566 489.12708 668.847725 
C 489.12708 664.433884 487.373443 660.200229 484.252386 657.079172 
C 481.131329 653.958116 476.897674 652.204478 472.483833 652.204478 
C 468.069993 652.204478 463.836337 653.958116 460.715281 657.079172 
C 457.594224 660.200229 455.840587 664.433884 455.840587 668.847725 
C 455.840587 673.261566 457.594224 677.495221 460.715281 680.616278 
C 463.836337 683.737334 468.069993 685.490972 472.483833 685.490972 
z
"/>
   </g>
   <g id="patch_65">
    <path clip-path="url(#pf269dea4c8)" d="M 439.995166 1025.960565 
C 444.409007 1025.960565 448.642662 1024.206927 451.763719 1021.085871 
C 454.884776 1017.964814 456.638413 1013.731159 456.638413 1009.317318 
C 456.638413 1004.903477 454.884776 1000.669822 451.763719 997.548765 
C 448.642662 994.427709 444.409007 992.674071 439.995166 992.674071 
C 435.581326 992.674071 431.34767 994.427709 428.226614 997.548765 
C 425.105557 1000.669822 423.35192 1004.903477 423.35192 1009.317318 
C 423.35192 1013.731159 425.105557 1017.964814 428.226614 1021.085871 
C 431.34767 1024.206927 435.581326 1025.960565 439.995166 1025.960565 
z
"/>
   </g>
   <g id="patch_66">
    <path clip-path="url(#pf269dea4c8)" d="M 226.368912 628.893396 
C 230.782753 628.893396 235.016408 627.139759 238.137465 624.018702 
C 241.258521 620.897646 243.012159 616.66399 243.012159 612.25015 
C 243.012159 607.836309 241.258521 603.602654 238.137465 600.481597 
C 235.016408 597.36054 230.782753 595.606903 226.368912 595.606903 
C 221.955071 595.606903 217.721416 597.36054 214.600359 600.481597 
C 211.479303 603.602654 209.725665 607.836309 209.725665 612.25015 
C 209.725665 616.66399 211.479303 620.897646 214.600359 624.018702 
C 217.721416 627.139759 221.955071 628.893396 226.368912 628.893396 
z
"/>
   </g>
   <g id="patch_67">
    <path clip-path="url(#pf269dea4c8)" d="M 744.854069 532.847765 
C 749.26791 532.847765 753.501565 531.094128 756.622622 527.973071 
C 759.743678 524.852015 761.497316 520.618359 761.497316 516.204519 
C 761.497316 511.790678 759.743678 507.557023 756.622622 504.435966 
C 753.501565 501.314909 749.26791 499.561272 744.854069 499.561272 
C 740.440228 499.561272 736.206573 501.314909 733.085516 504.435966 
C 729.96446 507.557023 728.210822 511.790678 728.210822 516.204519 
C 728.210822 520.618359 729.96446 524.852015 733.085516 527.973071 
C 736.206573 531.094128 740.440228 532.847765 744.854069 532.847765 
z
"/>
   </g>
   <g id="patch_68">
    <path clip-path="url(#pf269dea4c8)" d="M 256.753839 883.661477 
C 261.167679 883.661477 265.401335 881.907839 268.522391 878.786783 
C 271.643448 875.665726 273.397085 871.432071 273.397085 867.01823 
C 273.397085 862.604389 271.643448 858.370734 268.522391 855.249677 
C 265.401335 852.128621 261.167679 850.374983 256.753839 850.374983 
C 252.339998 850.374983 248.106343 852.128621 244.985286 855.249677 
C 241.864229 858.370734 240.110592 862.604389 240.110592 867.01823 
C 240.110592 871.432071 241.864229 875.665726 244.985286 878.786783 
C 248.106343 881.907839 252.339998 883.661477 256.753839 883.661477 
z
"/>
   </g>
   <g id="patch_69">
    <path clip-path="url(#pf269dea4c8)" d="M 663.044122 972.360257 
C 667.457962 972.360257 671.691618 970.60662 674.812674 967.485563 
C 677.933731 964.364507 679.687368 960.130851 679.687368 955.717011 
C 679.687368 951.30317 677.933731 947.069515 674.812674 943.948458 
C 671.691618 940.827401 667.457962 939.073764 663.044122 939.073764 
C 658.630281 939.073764 654.396626 940.827401 651.275569 943.948458 
C 648.154512 947.069515 646.400875 951.30317 646.400875 955.717011 
C 646.400875 960.130851 648.154512 964.364507 651.275569 967.485563 
C 654.396626 970.60662 658.630281 972.360257 663.044122 972.360257 
z
"/>
   </g>
   <g id="patch_70">
    <path clip-path="url(#pf269dea4c8)" d="M 743.847947 778.44205 
C 748.261787 778.44205 752.495443 776.688413 755.616499 773.567356 
C 758.737556 770.446299 760.491193 766.212644 760.491193 761.798803 
C 760.491193 757.384963 758.737556 753.151307 755.616499 750.030251 
C 752.495443 746.909194 748.261787 745.155557 743.847947 745.155557 
C 739.434106 745.155557 735.200451 746.909194 732.079394 750.030251 
C 728.958337 753.151307 727.2047 757.384963 727.2047 761.798803 
C 727.2047 766.212644 728.958337 770.446299 732.079394 773.567356 
C 735.200451 776.688413 739.434106 778.44205 743.847947 778.44205 
z
"/>
   </g>
   <g id="patch_71">
    <path clip-path="url(#pf269dea4c8)" d="M 907.221023 671.982448 
C 911.634864 671.982448 915.868519 670.228811 918.989576 667.107754 
C 922.110632 663.986697 923.86427 659.753042 923.86427 655.339201 
C 923.86427 650.925361 922.110632 646.691705 918.989576 643.570649 
C 915.868519 640.449592 911.634864 638.695955 907.221023 638.695955 
C 902.807182 638.695955 898.573527 640.449592 895.45247 643.570649 
C 892.331414 646.691705 890.577776 650.925361 890.577776 655.339201 
C 890.577776 659.753042 892.331414 663.986697 895.45247 667.107754 
C 898.573527 670.228811 902.807182 671.982448 907.221023 671.982448 
z
"/>
   </g>
   <g id="patch_72">
    <path clip-path="url(#pf269dea4c8)" d="M 905.503431 410.389419 
C 909.917272 410.389419 914.150927 408.635781 917.271984 405.514725 
C 920.39304 402.393668 922.146678 398.160013 922.146678 393.746172 
C 922.146678 389.332331 920.39304 385.098676 917.271984 381.977619 
C 914.150927 378.856563 909.917272 377.102925 905.503431 377.102925 
C 901.08959 377.102925 896.855935 378.856563 893.734878 381.977619 
C 890.613822 385.098676 888.860184 389.332331 888.860184 393.746172 
C 888.860184 398.160013 890.613822 402.393668 893.734878 405.514725 
C 896.855935 408.635781 901.08959 410.389419 905.503431 410.389419 
z
"/>
   </g>
   <g id="patch_73">
    <path clip-path="url(#pf269dea4c8)" d="M 964.067856 999.395333 
C 968.481696 999.395333 972.715352 997.641696 975.836408 994.520639 
C 978.957465 991.399582 980.711102 987.165927 980.711102 982.752086 
C 980.711102 978.338246 978.957465 974.10459 975.836408 970.983534 
C 972.715352 967.862477 968.481696 966.10884 964.067856 966.10884 
C 959.654015 966.10884 955.42036 967.862477 952.299303 970.983534 
C 949.178246 974.10459 947.424609 978.338246 947.424609 982.752086 
C 947.424609 987.165927 949.178246 991.399582 952.299303 994.520639 
C 955.42036 997.641696 959.654015 999.395333 964.067856 999.395333 
z
"/>
   </g>
   <g id="patch_74">
    <path clip-path="url(#pf269dea4c8)" d="M 901.215339 1101.047485 
C 905.629179 1101.047485 909.862835 1099.293848 912.983891 1096.172791 
C 916.104948 1093.051734 917.858585 1088.818079 917.858585 1084.404239 
C 917.858585 1079.990398 916.104948 1075.756743 912.983891 1072.635686 
C 909.862835 1069.514629 905.629179 1067.760992 901.215339 1067.760992 
C 896.801498 1067.760992 892.567843 1069.514629 889.446786 1072.635686 
C 886.325729 1075.756743 884.572092 1079.990398 884.572092 1084.404239 
C 884.572092 1088.818079 886.325729 1093.051734 889.446786 1096.172791 
C 892.567843 1099.293848 896.801498 1101.047485 901.215339 1101.047485 
z
"/>
   </g>
   <g id="patch_75">
    <path clip-path="url(#pf269dea4c8)" d="M 785.597642 1111.599472 
C 790.011482 1111.599472 794.245138 1109.845835 797.366194 1106.724778 
C 800.487251 1103.603722 802.240889 1099.370066 802.240889 1094.956226 
C 802.240889 1090.542385 800.487251 1086.30873 797.366194 1083.187673 
C 794.245138 1080.066616 790.011482 1078.312979 785.597642 1078.312979 
C 781.183801 1078.312979 776.950146 1080.066616 773.829089 1083.187673 
C 770.708033 1086.30873 768.954395 1090.542385 768.954395 1094.956226 
C 768.954395 1099.370066 770.708033 1103.603722 773.829089 1106.724778 
C 776.950146 1109.845835 781.183801 1111.599472 785.597642 1111.599472 
z
"/>
   </g>
   <g id="patch_76">
    <path clip-path="url(#pf269dea4c8)" d="M 578.67006 499.422772 
C 583.0839 499.422772 587.317556 497.669134 590.438612 494.548078 
C 593.559669 491.427021 595.313306 487.193366 595.313306 482.779525 
C 595.313306 478.365684 593.559669 474.132029 590.438612 471.010972 
C 587.317556 467.889916 583.0839 466.136278 578.67006 466.136278 
C 574.256219 466.136278 570.022564 467.889916 566.901507 471.010972 
C 563.78045 474.132029 562.026813 478.365684 562.026813 482.779525 
C 562.026813 487.193366 563.78045 491.427021 566.901507 494.548078 
C 570.022564 497.669134 574.256219 499.422772 578.67006 499.422772 
z
"/>
   </g>
   <g id="patch_77">
    <path clip-path="url(#pf269dea4c8)" d="M 384.863732 384.76282 
C 389.277572 384.76282 393.511228 383.009183 396.632284 379.888126 
C 399.753341 376.76707 401.506978 372.533414 401.506978 368.119574 
C 401.506978 363.705733 399.753341 359.472078 396.632284 356.351021 
C 393.511228 353.229964 389.277572 351.476327 384.863732 351.476327 
C 380.449891 351.476327 376.216236 353.229964 373.095179 356.351021 
C 369.974122 359.472078 368.220485 363.705733 368.220485 368.119574 
C 368.220485 372.533414 369.974122 376.76707 373.095179 379.888126 
C 376.216236 383.009183 380.449891 384.76282 384.863732 384.76282 
z
"/>
   </g>
   <g id="patch_78">
    <path clip-path="url(#pf269dea4c8)" d="M 554.771533 204.479008 
C 559.185374 204.479008 563.419029 202.725371 566.540086 199.604314 
C 569.661143 196.483257 571.41478 192.249602 571.41478 187.835761 
C 571.41478 183.421921 569.661143 179.188266 566.540086 176.067209 
C 563.419029 172.946152 559.185374 171.192515 554.771533 171.192515 
C 550.357693 171.192515 546.124037 172.946152 543.002981 176.067209 
C 539.881924 179.188266 538.128287 183.421921 538.128287 187.835761 
C 538.128287 192.249602 539.881924 196.483257 543.002981 199.604314 
C 546.124037 202.725371 550.357693 204.479008 554.771533 204.479008 
z
"/>
   </g>
   <g id="patch_79">
    <path clip-path="url(#pf269dea4c8)" d="M 518.380719 800.051912 
C 522.79456 800.051912 527.028215 798.298275 530.149272 795.177218 
C 533.270329 792.056162 535.023966 787.822506 535.023966 783.408666 
C 535.023966 778.994825 533.270329 774.76117 530.149272 771.640113 
C 527.028215 768.519056 522.79456 766.765419 518.380719 766.765419 
C 513.966879 766.765419 509.733223 768.519056 506.612167 771.640113 
C 503.49111 774.76117 501.737473 778.994825 501.737473 783.408666 
C 501.737473 787.822506 503.49111 792.056162 506.612167 795.177218 
C 509.733223 798.298275 513.966879 800.051912 518.380719 800.051912 
z
"/>
   </g>
   <g id="patch_80">
    <path clip-path="url(#pf269dea4c8)" d="M 602.811032 659.497362 
C 607.224873 659.497362 611.458528 657.743724 614.579585 654.622667 
C 617.700641 651.501611 619.454279 647.267955 619.454279 642.854115 
C 619.454279 638.440274 617.700641 634.206619 614.579585 631.085562 
C 611.458528 627.964506 607.224873 626.210868 602.811032 626.210868 
C 598.397192 626.210868 594.163536 627.964506 591.04248 631.085562 
C 587.921423 634.206619 586.167785 638.440274 586.167785 642.854115 
C 586.167785 647.267955 587.921423 651.501611 591.04248 654.622667 
C 594.163536 657.743724 598.397192 659.497362 602.811032 659.497362 
z
"/>
   </g>
   <g id="patch_81">
    <path clip-path="url(#pf269dea4c8)" d="M 838.101882 735.697734 
C 842.515723 735.697734 846.749378 733.944096 849.870435 730.823039 
C 852.991492 727.701983 854.745129 723.468327 854.745129 719.054487 
C 854.745129 714.640646 852.991492 710.406991 849.870435 707.285934 
C 846.749378 704.164878 842.515723 702.41124 838.101882 702.41124 
C 833.688042 702.41124 829.454386 704.164878 826.33333 707.285934 
C 823.212273 710.406991 821.458636 714.640646 821.458636 719.054487 
C 821.458636 723.468327 823.212273 727.701983 826.33333 730.823039 
C 829.454386 733.944096 833.688042 735.697734 838.101882 735.697734 
z
"/>
   </g>
   <g id="patch_82">
    <path clip-path="url(#pf269dea4c8)" d="M 800.154502 676.762932 
C 803.832702 676.762932 807.360748 675.301568 809.961629 672.700687 
C 812.56251 670.099807 814.023874 666.571761 814.023874 662.89356 
C 814.023874 659.215359 812.56251 655.687313 809.961629 653.086433 
C 807.360748 650.485552 803.832702 649.024188 800.154502 649.024188 
C 796.476301 649.024188 792.948255 650.485552 790.347375 653.086433 
C 787.746494 655.687313 786.28513 659.215359 786.28513 662.89356 
C 786.28513 666.571761 787.746494 670.099807 790.347375 672.700687 
C 792.948255 675.301568 796.476301 676.762932 800.154502 676.762932 
z
" style="fill:#ffffff;"/>
   </g>
   <g id="patch_83">
    <path clip-path="url(#pf269dea4c8)" d="M 611.86118 772.278955 
C 615.539381 772.278955 619.067427 770.81759 621.668308 768.21671 
C 624.269188 765.615829 625.730553 762.087783 625.730553 758.409583 
C 625.730553 754.731382 624.269188 751.203336 621.668308 748.602456 
C 619.067427 746.001575 615.539381 744.54021 611.86118 744.54021 
C 608.18298 744.54021 604.654934 746.001575 602.054053 748.602456 
C 599.453173 751.203336 597.991808 754.731382 597.991808 758.409583 
C 597.991808 762.087783 599.453173 765.615829 602.054053 768.21671 
C 604.654934 770.81759 608.18298 772.278955 611.86118 772.278955 
z
" style="fill:#ffffff;"/>
   </g>
   <g id="patch_84">
    <path clip-path="url(#pf269dea4c8)" d="M 472.483833 682.717097 
C 476.162034 682.717097 479.69008 681.255733 482.29096 678.654852 
C 484.891841 676.053972 486.353206 672.525925 486.353206 668.847725 
C 486.353206 665.169524 484.891841 661.641478 482.29096 659.040598 
C 479.69008 656.439717 476.162034 654.978353 472.483833 654.978353 
C 468.805633 654.978353 465.277587 656.439717 462.676706 659.040598 
C 460.075826 661.641478 458.614461 665.169524 458.614461 668.847725 
C 458.614461 672.525925 460.075826 676.053972 462.676706 678.654852 
C 465.277587 681.255733 468.805633 682.717097 472.483833 682.717097 
z
" style="fill:#ffffff;"/>
   </g>
   <g id="patch_85">
    <path clip-path="url(#pf269dea4c8)" d="M 439.995166 1023.18669 
C 443.673367 1023.18669 447.201413 1021.725326 449.802294 1019.124445 
C 452.403174 1016.523565 453.864539 1012.995519 453.864539 1009.317318 
C 453.864539 1005.639118 452.403174 1002.111071 449.802294 999.510191 
C 447.201413 996.90931 443.673367 995.447946 439.995166 995.447946 
C 436.316966 995.447946 432.78892 996.90931 430.188039 999.510191 
C 427.587159 1002.111071 426.125794 1005.639118 426.125794 1009.317318 
C 426.125794 1012.995519 427.587159 1016.523565 430.188039 1019.124445 
C 432.78892 1021.725326 436.316966 1023.18669 439.995166 1023.18669 
z
" style="fill:#ffffff;"/>
   </g>
   <g id="patch_86">
    <path clip-path="url(#pf269dea4c8)" d="M 226.368912 626.119522 
C 230.047112 626.119522 233.575159 624.658157 236.176039 622.057277 
C 238.77692 619.456396 240.238284 615.92835 240.238284 612.25015 
C 240.238284 608.571949 238.77692 605.043903 236.176039 602.443023 
C 233.575159 599.842142 230.047112 598.380777 226.368912 598.380777 
C 222.690711 598.380777 219.162665 599.842142 216.561785 602.443023 
C 213.960904 605.043903 212.49954 608.571949 212.49954 612.25015 
C 212.49954 615.92835 213.960904 619.456396 216.561785 622.057277 
C 219.162665 624.658157 222.690711 626.119522 226.368912 626.119522 
z
" style="fill:#ffffff;"/>
   </g>
   <g id="patch_87">
    <path clip-path="url(#pf269dea4c8)" d="M 744.854069 530.073891 
C 748.53227 530.073891 752.060316 528.612526 754.661196 526.011646 
C 757.262077 523.410765 758.723441 519.882719 758.723441 516.204519 
C 758.723441 512.526318 757.262077 508.998272 754.661196 506.397391 
C 752.060316 503.796511 748.53227 502.335146 744.854069 502.335146 
C 741.175868 502.335146 737.647822 503.796511 735.046942 506.397391 
C 732.446061 508.998272 730.984697 512.526318 730.984697 516.204519 
C 730.984697 519.882719 732.446061 523.410765 735.046942 526.011646 
C 737.647822 528.612526 741.175868 530.073891 744.854069 530.073891 
z
" style="fill:#ffffff;"/>
   </g>
   <g id="patch_88">
    <path clip-path="url(#pf269dea4c8)" d="M 256.753839 880.887602 
C 260.432039 880.887602 263.960085 879.426238 266.560966 876.825357 
C 269.161846 874.224477 270.623211 870.696431 270.623211 867.01823 
C 270.623211 863.34003 269.161846 859.811983 266.560966 857.211103 
C 263.960085 854.610222 260.432039 853.148858 256.753839 853.148858 
C 253.075638 853.148858 249.547592 854.610222 246.946711 857.211103 
C 244.345831 859.811983 242.884466 863.34003 242.884466 867.01823 
C 242.884466 870.696431 244.345831 874.224477 246.946711 876.825357 
C 249.547592 879.426238 253.075638 880.887602 256.753839 880.887602 
z
" style="fill:#ffffff;"/>
   </g>
   <g id="patch_89">
    <path clip-path="url(#pf269dea4c8)" d="M 663.044122 969.586383 
C 666.722322 969.586383 670.250368 968.125018 672.851249 965.524138 
C 675.452129 962.923257 676.913494 959.395211 676.913494 955.717011 
C 676.913494 952.03881 675.452129 948.510764 672.851249 945.909883 
C 670.250368 943.309003 666.722322 941.847638 663.044122 941.847638 
C 659.365921 941.847638 655.837875 943.309003 653.236994 945.909883 
C 650.636114 948.510764 649.174749 952.03881 649.174749 955.717011 
C 649.174749 959.395211 650.636114 962.923257 653.236994 965.524138 
C 655.837875 968.125018 659.365921 969.586383 663.044122 969.586383 
z
" style="fill:#ffffff;"/>
   </g>
   <g id="patch_90">
    <path clip-path="url(#pf269dea4c8)" d="M 743.847947 775.668176 
C 747.526147 775.668176 751.054193 774.206811 753.655074 771.605931 
C 756.255954 769.00505 757.717319 765.477004 757.717319 761.798803 
C 757.717319 758.120603 756.255954 754.592557 753.655074 751.991676 
C 751.054193 749.390796 747.526147 747.929431 743.847947 747.929431 
C 740.169746 747.929431 736.6417 749.390796 734.04082 751.991676 
C 731.439939 754.592557 729.978574 758.120603 729.978574 761.798803 
C 729.978574 765.477004 731.439939 769.00505 734.04082 771.605931 
C 736.6417 774.206811 740.169746 775.668176 743.847947 775.668176 
z
" style="fill:#ffffff;"/>
   </g>
   <g id="patch_91">
    <path clip-path="url(#pf269dea4c8)" d="M 907.221023 669.208574 
C 910.899224 669.208574 914.42727 667.747209 917.02815 665.146328 
C 919.629031 662.545448 921.090395 659.017402 921.090395 655.339201 
C 921.090395 651.661001 919.629031 648.132955 917.02815 645.532074 
C 914.42727 642.931194 910.899224 641.469829 907.221023 641.469829 
C 903.542823 641.469829 900.014776 642.931194 897.413896 645.532074 
C 894.813015 648.132955 893.351651 651.661001 893.351651 655.339201 
C 893.351651 659.017402 894.813015 662.545448 897.413896 665.146328 
C 900.014776 667.747209 903.542823 669.208574 907.221023 669.208574 
z
" style="fill:#ffffff;"/>
   </g>
   <g id="patch_92">
    <path clip-path="url(#pf269dea4c8)" d="M 905.503431 407.615544 
C 909.181632 407.615544 912.709678 406.15418 915.310558 403.553299 
C 917.911439 400.952419 919.372803 397.424373 919.372803 393.746172 
C 919.372803 390.067972 917.911439 386.539925 915.310558 383.939045 
C 912.709678 381.338164 909.181632 379.8768 905.503431 379.8768 
C 901.825231 379.8768 898.297184 381.338164 895.696304 383.939045 
C 893.095423 386.539925 891.634059 390.067972 891.634059 393.746172 
C 891.634059 397.424373 893.095423 400.952419 895.696304 403.553299 
C 898.297184 406.15418 901.825231 407.615544 905.503431 407.615544 
z
" style="fill:#ffffff;"/>
   </g>
   <g id="patch_93">
    <path clip-path="url(#pf269dea4c8)" d="M 964.067856 996.621459 
C 967.746056 996.621459 971.274102 995.160094 973.874983 992.559214 
C 976.475863 989.958333 977.937228 986.430287 977.937228 982.752086 
C 977.937228 979.073886 976.475863 975.54584 973.874983 972.944959 
C 971.274102 970.344079 967.746056 968.882714 964.067856 968.882714 
C 960.389655 968.882714 956.861609 970.344079 954.260729 972.944959 
C 951.659848 975.54584 950.198483 979.073886 950.198483 982.752086 
C 950.198483 986.430287 951.659848 989.958333 954.260729 992.559214 
C 956.861609 995.160094 960.389655 996.621459 964.067856 996.621459 
z
" style="fill:#ffffff;"/>
   </g>
   <g id="patch_94">
    <path clip-path="url(#pf269dea4c8)" d="M 901.215339 1098.273611 
C 904.893539 1098.273611 908.421585 1096.812246 911.022466 1094.211366 
C 913.623346 1091.610485 915.084711 1088.082439 915.084711 1084.404239 
C 915.084711 1080.726038 913.623346 1077.197992 911.022466 1074.597111 
C 908.421585 1071.996231 904.893539 1070.534866 901.215339 1070.534866 
C 897.537138 1070.534866 894.009092 1071.996231 891.408211 1074.597111 
C 888.807331 1077.197992 887.345966 1080.726038 887.345966 1084.404239 
C 887.345966 1088.082439 888.807331 1091.610485 891.408211 1094.211366 
C 894.009092 1096.812246 897.537138 1098.273611 901.215339 1098.273611 
z
" style="fill:#ffffff;"/>
   </g>
   <g id="patch_95">
    <path clip-path="url(#pf269dea4c8)" d="M 785.597642 1108.825598 
C 789.275842 1108.825598 792.803888 1107.364233 795.404769 1104.763353 
C 798.00565 1102.162472 799.467014 1098.634426 799.467014 1094.956226 
C 799.467014 1091.278025 798.00565 1087.749979 795.404769 1085.149098 
C 792.803888 1082.548218 789.275842 1081.086853 785.597642 1081.086853 
C 781.919441 1081.086853 778.391395 1082.548218 775.790515 1085.149098 
C 773.189634 1087.749979 771.72827 1091.278025 771.72827 1094.956226 
C 771.72827 1098.634426 773.189634 1102.162472 775.790515 1104.763353 
C 778.391395 1107.364233 781.919441 1108.825598 785.597642 1108.825598 
z
" style="fill:#ffffff;"/>
   </g>
   <g id="patch_96">
    <path clip-path="url(#pf269dea4c8)" d="M 578.67006 496.648897 
C 582.34826 496.648897 585.876306 495.187533 588.477187 492.586652 
C 591.078067 489.985772 592.539432 486.457725 592.539432 482.779525 
C 592.539432 479.101324 591.078067 475.573278 588.477187 472.972398 
C 585.876306 470.371517 582.34826 468.910153 578.67006 468.910153 
C 574.991859 468.910153 571.463813 470.371517 568.862933 472.972398 
C 566.262052 475.573278 564.800687 479.101324 564.800687 482.779525 
C 564.800687 486.457725 566.262052 489.985772 568.862933 492.586652 
C 571.463813 495.187533 574.991859 496.648897 578.67006 496.648897 
z
" style="fill:#ffffff;"/>
   </g>
   <g id="patch_97">
    <path clip-path="url(#pf269dea4c8)" d="M 384.863732 381.988946 
C 388.541932 381.988946 392.069978 380.527581 394.670859 377.926701 
C 397.271739 375.32582 398.733104 371.797774 398.733104 368.119574 
C 398.733104 364.441373 397.271739 360.913327 394.670859 358.312446 
C 392.069978 355.711566 388.541932 354.250201 384.863732 354.250201 
C 381.185531 354.250201 377.657485 355.711566 375.056605 358.312446 
C 372.455724 360.913327 370.994359 364.441373 370.994359 368.119574 
C 370.994359 371.797774 372.455724 375.32582 375.056605 377.926701 
C 377.657485 380.527581 381.185531 381.988946 384.863732 381.988946 
z
" style="fill:#ffffff;"/>
   </g>
   <g id="patch_98">
    <path clip-path="url(#pf269dea4c8)" d="M 554.771533 201.705134 
C 558.449734 201.705134 561.97778 200.243769 564.578661 197.642889 
C 567.179541 195.042008 568.640906 191.513962 568.640906 187.835761 
C 568.640906 184.157561 567.179541 180.629515 564.578661 178.028634 
C 561.97778 175.427754 558.449734 173.966389 554.771533 173.966389 
C 551.093333 173.966389 547.565287 175.427754 544.964406 178.028634 
C 542.363526 180.629515 540.902161 184.157561 540.902161 187.835761 
C 540.902161 191.513962 542.363526 195.042008 544.964406 197.642889 
C 547.565287 200.243769 551.093333 201.705134 554.771533 201.705134 
z
" style="fill:#ffffff;"/>
   </g>
   <g id="patch_99">
    <path clip-path="url(#pf269dea4c8)" d="M 518.380719 797.278038 
C 522.05892 797.278038 525.586966 795.816673 528.187846 793.215793 
C 530.788727 790.614912 532.250092 787.086866 532.250092 783.408666 
C 532.250092 779.730465 530.788727 776.202419 528.187846 773.601538 
C 525.586966 771.000658 522.05892 769.539293 518.380719 769.539293 
C 514.702519 769.539293 511.174473 771.000658 508.573592 773.601538 
C 505.972712 776.202419 504.511347 779.730465 504.511347 783.408666 
C 504.511347 787.086866 505.972712 790.614912 508.573592 793.215793 
C 511.174473 795.816673 514.702519 797.278038 518.380719 797.278038 
z
" style="fill:#ffffff;"/>
   </g>
   <g id="patch_100">
    <path clip-path="url(#pf269dea4c8)" d="M 602.811032 656.723487 
C 606.489233 656.723487 610.017279 655.262123 612.618159 652.661242 
C 615.21904 650.060361 616.680404 646.532315 616.680404 642.854115 
C 616.680404 639.175914 615.21904 635.647868 612.618159 633.046988 
C 610.017279 630.446107 606.489233 628.984743 602.811032 628.984743 
C 599.132832 628.984743 595.604786 630.446107 593.003905 633.046988 
C 590.403024 635.647868 588.94166 639.175914 588.94166 642.854115 
C 588.94166 646.532315 590.403024 650.060361 593.003905 652.661242 
C 595.604786 655.262123 599.132832 656.723487 602.811032 656.723487 
z
" style="fill:#ffffff;"/>
   </g>
   <g id="patch_101">
    <path clip-path="url(#pf269dea4c8)" d="M 838.101882 732.923859 
C 841.780083 732.923859 845.308129 731.462495 847.90901 728.861614 
C 850.50989 726.260734 851.971255 722.732687 851.971255 719.054487 
C 851.971255 715.376286 850.50989 711.84824 847.90901 709.24736 
C 845.308129 706.646479 841.780083 705.185115 838.101882 705.185115 
C 834.423682 705.185115 830.895636 706.646479 828.294755 709.24736 
C 825.693875 711.84824 824.23251 715.376286 824.23251 719.054487 
C 824.23251 722.732687 825.693875 726.260734 828.294755 728.861614 
C 830.895636 731.462495 834.423682 732.923859 838.101882 732.923859 
z
" style="fill:#ffffff;"/>
   </g>
  </g>
 </g>
 <defs>
  <clipPath id="pf269dea4c8">
   <rect height="1343.619" width="1140.39042" x="121.00479" y="56.1105"/>
  </clipPath>
 </defs>
</svg>
