<?xml version="1.0" encoding="utf-8" standalone="no"?>
<!DOCTYPE svg PUBLIC "-//W3C//DTD SVG 1.1//EN"
  "http://www.w3.org/Graphics/SVG/1.1/DTD/svg11.dtd">
<!-- Created with matplotlib (http://matplotlib.org/) -->
<svg height="1455pt" version="1.1" viewBox="0 0 1382 1455" width="1382pt" xmlns="http://www.w3.org/2000/svg" xmlns:xlink="http://www.w3.org/1999/xlink">
 <defs>
  <style type="text/css">
*{stroke-linecap:butt;stroke-linejoin:round;}
  </style>
 </defs>
 <g id="figure_1">
  <g id="patch_1">
   <path d="M 0 1455.84 
L 1382.4 1455.84 
L 1382.4 0 
L 0 0 
z
" style="fill:#ffffff;"/>
  </g>
  <g id="axes_1">
   <g id="patch_2">
    <path clip-path="url(#p9b64b4f75a)" d="M 563.325703 438.041436 
L 576.590631 433.390196 
L 574.895445 438.75127 
L 898.99653 541.232899 
L 898.148937 543.913436 
L 897.301344 546.593974 
L 573.200259 444.112345 
L 571.505073 449.473419 
z
" style="fill:#ee9677;"/>
   </g>
   <g id="patch_3">
    <path clip-path="url(#p9b64b4f75a)" d="M 467.943725 1035.205997 
L 481.658578 1032.124578 
L 479.353068 1037.252872 
L 749.728406 1158.804652 
L 748.575651 1161.368799 
L 747.422896 1163.932946 
L 477.047557 1042.381166 
L 474.742046 1047.509459 
z
" style="fill:#fcd5bf;"/>
   </g>
   <g id="patch_4">
    <path clip-path="url(#p9b64b4f75a)" d="M 829.44156 760.981797 
L 836.884956 772.906066 
L 831.282775 772.426128 
L 819.772207 906.785832 
L 816.971116 906.545863 
L 814.170026 906.305894 
L 825.680594 771.946191 
L 820.078413 771.466253 
z
" style="fill:#efefef;"/>
   </g>
   <g id="patch_5">
    <path clip-path="url(#p9b64b4f75a)" d="M 626.756689 776.779177 
L 640.523786 773.940272 
L 638.128132 779.02708 
L 705.512691 810.76212 
L 704.314864 813.305525 
L 703.117038 815.848929 
L 635.732479 784.113888 
L 633.336825 789.200697 
z
" style="fill:#d05548;"/>
   </g>
   <g id="patch_6">
    <path clip-path="url(#p9b64b4f75a)" d="M 480.875626 841.648425 
L 490.970294 831.866297 
L 491.677855 837.444301 
L 703.961084 810.516522 
L 704.314864 813.305525 
L 704.668645 816.094527 
L 492.385415 843.022306 
L 493.092976 848.60031 
z
" style="fill:#b9b9b9;"/>
   </g>
   <g id="patch_7">
    <path clip-path="url(#p9b64b4f75a)" d="M 815.544001 737.153999 
L 801.80846 740.141849 
L 804.148878 735.029392 
L 564.04266 625.111813 
L 565.212869 622.555584 
L 566.383078 619.999355 
L 806.489296 729.916935 
L 808.829714 724.804477 
z
" style="fill:#fff7f3;"/>
   </g>
   <g id="patch_8">
    <path clip-path="url(#p9b64b4f75a)" d="M 732.597808 1166.776341 
L 724.649684 1178.370291 
L 722.84717 1173.044343 
L 538.625664 1235.392283 
L 537.724407 1232.729309 
L 536.82315 1230.066335 
L 721.044656 1167.718395 
L 719.242142 1162.392448 
z
" style="fill:#d05548;"/>
   </g>
   <g id="patch_9">
    <path clip-path="url(#p9b64b4f75a)" d="M 606.431599 753.502401 
L 595.010249 745.30819 
L 600.37352 743.619968 
L 562.531233 623.399695 
L 565.212869 622.555584 
L 567.894505 621.711473 
L 605.736792 741.931747 
L 611.100064 740.243525 
z
" style="fill:#dd7059;"/>
   </g>
   <g id="patch_10">
    <path clip-path="url(#p9b64b4f75a)" d="M 704.093278 602.05528 
L 694.373753 591.900321 
L 699.956026 591.227264 
L 657.162869 236.305178 
L 659.954006 235.968649 
L 662.745142 235.63212 
L 705.538299 590.554206 
L 711.120571 589.881148 
z
" style="fill:#d6d6d6;"/>
   </g>
   <g id="patch_11">
    <path clip-path="url(#p9b64b4f75a)" d="M 249.137177 999.704432 
L 241.617838 987.827906 
L 247.222968 988.272083 
L 274.575198 643.111131 
L 277.377763 643.33322 
L 280.180328 643.555308 
L 252.828098 988.716261 
L 258.433227 989.160439 
z
" style="fill:#dadada;"/>
   </g>
   <g id="patch_12">
    <path clip-path="url(#p9b64b4f75a)" d="M 758.47733 1147.712675 
L 758.250387 1133.657752 
L 762.802429 1136.958312 
L 1059.715031 727.464593 
L 1061.991052 729.114872 
L 1064.267072 730.765152 
L 767.35447 1140.258872 
L 771.906512 1143.559431 
z
" style="fill:#b9b9b9;"/>
   </g>
   <g id="patch_13">
    <path clip-path="url(#p9b64b4f75a)" d="M 648.406424 248.264435 
L 646.85593 262.235416 
L 642.757334 258.386222 
L 279.42706 645.257817 
L 277.377763 643.33322 
L 275.328465 641.408623 
L 638.658739 254.537028 
L 634.560144 250.687835 
z
" style="fill:#67001f;"/>
   </g>
   <g id="patch_14">
    <path clip-path="url(#p9b64b4f75a)" d="M 538.228007 447.213235 
L 539.347038 461.225377 
L 534.594585 458.220553 
L 315.864927 804.165023 
L 313.4887 802.662611 
L 311.112474 801.160199 
L 529.842132 455.215728 
L 525.08968 452.210904 
z
" style="fill:#fffdfc;"/>
   </g>
   <g id="patch_15">
    <path clip-path="url(#p9b64b4f75a)" d="M 294.202091 642.11874 
L 304.81107 632.896924 
L 305.215896 638.505033 
L 565.010456 619.751529 
L 565.212869 622.555584 
L 565.415282 625.359639 
L 305.620723 644.113142 
L 306.025549 649.721252 
z
" style="fill:#cdcdcd;"/>
   </g>
   <g id="patch_16">
    <path clip-path="url(#p9b64b4f75a)" d="M 1045.571671 732.979704 
L 1036.557834 743.765949 
L 1035.269556 738.292822 
L 704.959003 816.042088 
L 704.314864 813.305525 
L 703.670726 810.568961 
L 1033.981279 732.819696 
L 1032.693002 727.346569 
z
" style="fill:#fddfce;"/>
   </g>
   <g id="patch_17">
    <path clip-path="url(#p9b64b4f75a)" d="M 693.75879 630.287742 
L 691.265838 644.121669 
L 687.43729 640.003782 
L 466.055887 845.83005 
L 464.141613 843.771107 
L 462.227339 841.712163 
L 683.608742 635.885895 
L 679.780193 631.768008 
z
" style="fill:#eb9172;"/>
   </g>
   <g id="patch_18">
    <path clip-path="url(#p9b64b4f75a)" d="M 480.748915 846.725847 
L 493.29782 840.392022 
L 492.312907 845.927789 
L 817.463573 903.777979 
L 816.971116 906.545863 
L 816.47866 909.313747 
L 491.327994 851.463557 
L 490.34308 856.999324 
z
" style="fill:#d25849;"/>
   </g>
   <g id="patch_19">
    <path clip-path="url(#p9b64b4f75a)" d="M 322.339516 817.022139 
L 335.419823 822.16975 
L 330.633314 825.120022 
L 454.952099 1026.81433 
L 452.558844 1028.289466 
L 450.165589 1029.764601 
L 325.846805 828.070294 
L 321.060295 831.020566 
z
" style="fill:#fde2d2;"/>
   </g>
   <g id="patch_20">
    <path clip-path="url(#p9b64b4f75a)" d="M 881.493088 546.580958 
L 871.72295 556.687231 
L 870.833776 551.135281 
L 277.82235 646.109194 
L 277.377763 643.33322 
L 276.933176 640.557245 
L 869.944602 545.583332 
L 869.055428 540.031382 
z
" style="fill:#282828;"/>
   </g>
   <g id="patch_21">
    <path clip-path="url(#p9b64b4f75a)" d="M 541.14255 448.931719 
L 530.646336 458.281684 
L 536.157416 459.396481 
L 458.630533 842.65631 
L 461.386073 843.213708 
z
" style="fill:#d7634f;"/>
   </g>
   <g id="patch_22">
    <path clip-path="url(#p9b64b4f75a)" d="M 328.764795 795.509018 
L 335.372062 783.101908 
L 337.756593 788.19394 
L 704.920186 616.256082 
L 706.112451 618.802098 
L 707.304717 621.348114 
L 340.141124 793.285971 
L 342.525655 798.378003 
z
" style="fill:#f7b99c;"/>
   </g>
   <g id="patch_23">
    <path clip-path="url(#p9b64b4f75a)" d="M 1055.496395 713.547201 
L 1043.382787 706.416081 
L 1048.572011 704.251196 
L 941.200744 446.882621 
L 943.795356 445.800178 
L 946.389968 444.717736 
L 1053.761235 702.08631 
L 1058.950459 699.921424 
z
" style="fill:#bbbbbb;"/>
   </g>
   <g id="patch_24">
    <path clip-path="url(#p9b64b4f75a)" d="M 534.588927 1216.15518 
L 524.211543 1206.673501 
L 529.736252 1205.628341 
L 461.379258 844.293687 
L 464.141613 843.771107 
L 466.903968 843.248527 
L 535.260962 1204.583181 
L 540.785671 1203.538021 
z
" style="fill:#f5ac8b;"/>
   </g>
   <g id="patch_25">
    <path clip-path="url(#p9b64b4f75a)" d="M 709.574639 797.27843 
L 705.067608 783.963814 
L 710.409973 785.717072 
L 854.564677 346.462312 
L 857.235859 347.338941 
L 859.907041 348.21557 
L 715.752338 787.47033 
L 721.094702 789.223588 
z
" style="fill:#f9c6ac;"/>
   </g>
   <g id="patch_26">
    <path clip-path="url(#p9b64b4f75a)" d="M 840.976496 351.829608 
L 832.382253 362.953067 
L 830.885365 357.533279 
L 547.990925 435.665771 
L 547.24248 432.955877 
L 546.494036 430.245984 
L 829.388476 352.113491 
L 827.891587 346.693704 
z
" style="fill:#feede4;"/>
   </g>
   <g id="patch_27">
    <path clip-path="url(#p9b64b4f75a)" d="M 889.843821 558.595331 
L 891.648025 572.535818 
L 886.75406 569.767446 
L 674.162325 945.589945 
L 671.715343 944.205759 
L 669.26836 942.821573 
L 881.860095 566.999074 
L 876.96613 564.230702 
z
" style="fill:#7c0722;"/>
   </g>
   <g id="patch_28">
    <path clip-path="url(#p9b64b4f75a)" d="M 820.655961 890.085155 
L 814.882171 877.268928 
L 820.369074 878.49721 
L 895.405486 543.299295 
L 898.148937 543.913436 
L 900.892389 544.527577 
L 825.855976 879.725491 
L 831.342879 880.953773 
z
" style="fill:#8f8f8f;"/>
   </g>
   <g id="patch_29">
    <path clip-path="url(#p9b64b4f75a)" d="M 529.925812 1217.772207 
L 517.248197 1211.700104 
L 522.233898 1209.100572 
L 310.99585 803.962377 
L 313.4887 802.662611 
L 315.981551 801.362845 
L 527.219598 1206.501041 
L 532.205299 1203.901509 
z
" style="fill:#282828;"/>
   </g>
   <g id="patch_30">
    <path clip-path="url(#p9b64b4f75a)" d="M 847.713776 743.078361 
L 858.386933 733.930898 
L 858.752563 739.541699 
L 1061.808236 726.309472 
L 1061.991052 729.114872 
L 1062.173867 731.920273 
L 859.118194 745.1525 
L 859.483825 750.763301 
z
" style="fill:#ededed;"/>
   </g>
   <g id="patch_31">
    <path clip-path="url(#p9b64b4f75a)" d="M 1045.879234 724.120643 
L 1032.640909 728.847066 
L 1034.305652 723.47646 
L 705.28008 621.487401 
L 706.112451 618.802098 
L 706.944823 616.116795 
L 1035.970395 718.105854 
L 1037.635138 712.735249 
z
" style="fill:#be3036;"/>
   </g>
   <g id="patch_32">
    <path clip-path="url(#p9b64b4f75a)" d="M 816.077562 752.261053 
L 810.251255 765.053492 
L 807.555988 760.118888 
L 705.662498 815.772826 
L 704.314864 813.305525 
L 702.967231 810.838223 
L 804.860722 755.184285 
L 802.165455 750.249681 
z
" style="fill:#fafafa;"/>
   </g>
   <g id="patch_33">
    <path clip-path="url(#p9b64b4f75a)" d="M 666.413193 928.192634 
L 654.871864 920.168292 
L 660.209572 918.400909 
L 562.544015 623.439276 
L 565.212869 622.555584 
L 567.881723 621.671892 
L 665.54728 916.633525 
L 670.884989 914.866142 
z
" style="fill:#fddecb;"/>
   </g>
   <g id="patch_34">
    <path clip-path="url(#p9b64b4f75a)" d="M 546.40351 1218.265348 
L 544.957598 1204.283157 
L 549.778918 1207.176191 
L 828.470713 742.728736 
L 830.881373 744.175253 
L 833.292033 745.62177 
L 554.600238 1210.069225 
L 559.421559 1212.962259 
z
" style="fill:#f8bb9e;"/>
   </g>
   <g id="patch_35">
    <path clip-path="url(#p9b64b4f75a)" d="M 800.972224 911.890806 
L 792.978767 923.453547 
L 791.197119 918.120583 
L 453.449668 1030.955948 
L 452.558844 1028.289466 
L 451.66802 1025.622983 
L 789.415472 912.787619 
L 787.633824 907.454655 
z
" style="fill:#fbfbfb;"/>
   </g>
   <g id="patch_36">
    <path clip-path="url(#p9b64b4f75a)" d="M 281.106244 659.784098 
L 291.817337 668.88711 
L 286.333711 670.129937 
L 316.230513 802.041198 
L 313.4887 802.662611 
L 310.746887 803.284025 
L 280.850085 671.372764 
L 275.366459 672.615591 
z
" style="fill:#e2e2e2;"/>
   </g>
   <g id="patch_37">
    <path clip-path="url(#p9b64b4f75a)" d="M 470.241544 827.795265 
L 480.737757 818.4453 
L 475.226677 817.330504 
L 552.75356 434.070674 
L 549.99802 433.513276 
z
" style="fill:#fddecb;"/>
   </g>
   <g id="patch_38">
    <path clip-path="url(#p9b64b4f75a)" d="M 882.672952 551.188775 
L 868.626835 550.642027 
L 871.822943 555.268004 
L 460.945504 839.14513 
L 462.543559 841.458118 
z
" style="fill:#fee6d9;"/>
   </g>
   <g id="patch_39">
    <path clip-path="url(#p9b64b4f75a)" d="M 743.004801 1145.447159 
L 731.330081 1137.618158 
L 736.637294 1135.761208 
L 608.842658 770.520691 
L 611.496264 769.592216 
L 614.149871 768.663741 
L 741.944508 1133.904258 
L 747.251721 1132.047308 
z
" style="fill:#fcd5bf;"/>
   </g>
   <g id="patch_40">
    <path clip-path="url(#p9b64b4f75a)" d="M 479.617598 836.495769 
L 493.663716 837.042516 
L 490.467607 832.416539 
L 901.345046 548.539413 
L 899.746992 546.226425 
z
" style="fill:#f5a886;"/>
   </g>
   <g id="patch_41">
    <path clip-path="url(#p9b64b4f75a)" d="M 842.546751 339.046591 
L 828.607837 340.862911 
L 831.371953 335.966542 
L 658.571947 238.416834 
L 659.954006 235.968649 
L 661.336064 233.520465 
L 834.13607 331.070172 
L 836.900187 326.173803 
z
" style="fill:#707070;"/>
   </g>
   <g id="patch_42">
    <path clip-path="url(#p9b64b4f75a)" d="M 712.176705 634.542422 
L 724.089703 642.003844 
L 718.842929 644.025262 
L 819.594503 905.535154 
L 816.971116 906.545863 
L 814.347729 907.556572 
L 713.596154 646.04668 
L 708.349379 648.068098 
z
" style="fill:#fafafa;"/>
   </g>
   <g id="patch_43">
    <path clip-path="url(#p9b64b4f75a)" d="M 544.829222 1217.430466 
L 541.916343 1203.678831 
L 547.015957 1206.047102 
L 669.165536 943.021624 
L 671.715343 944.205759 
L 674.26515 945.389895 
L 552.115572 1208.415373 
L 557.215186 1210.783645 
z
" style="fill:#e27b62;"/>
   </g>
   <g id="patch_44">
    <path clip-path="url(#p9b64b4f75a)" d="M 261.326622 1026.603922 
L 275.383325 1026.565666 
L 272.021958 1031.072993 
L 539.405091 1230.475646 
L 537.724407 1232.729309 
L 536.043724 1234.982972 
L 268.660591 1035.580319 
L 265.299224 1040.087645 
z
" style="fill:#d35a4a;"/>
   </g>
   <g id="patch_45">
    <path clip-path="url(#p9b64b4f75a)" d="M 616.995722 785.538655 
L 628.635248 793.419886 
L 623.319768 795.253039 
L 674.373083 943.289183 
L 671.715343 944.205759 
L 669.057603 945.122336 
L 618.004288 797.086191 
L 612.688808 798.919344 
z
" style="fill:#eaeaea;"/>
   </g>
   <g id="patch_46">
    <path clip-path="url(#p9b64b4f75a)" d="M 628.25229 767.650939 
L 638.452336 757.978741 
L 639.099429 763.564083 
L 830.557827 741.382582 
L 830.881373 744.175253 
L 831.204919 746.967924 
L 639.746521 769.149425 
L 640.393613 774.734767 
z
" style="fill:#d4d4d4;"/>
   </g>
   <g id="patch_47">
    <path clip-path="url(#p9b64b4f75a)" d="M 465.386358 1017.335569 
L 468.461086 1003.619213 
L 472.112385 1007.895052 
L 702.489215 811.167606 
L 704.314864 813.305525 
L 706.140514 815.443444 
L 475.763684 1012.17089 
L 479.414983 1016.446728 
z
" style="fill:#fef0e8;"/>
   </g>
   <g id="patch_48">
    <path clip-path="url(#p9b64b4f75a)" d="M 806.00118 919.359663 
L 805.094789 933.387165 
L 800.823523 929.730519 
L 539.860041 1234.557632 
L 537.724407 1232.729309 
L 535.588774 1230.900986 
L 796.552256 926.073874 
L 792.280989 922.417229 
z
" style="fill:#c43b3c;"/>
   </g>
   <g id="patch_49">
    <path clip-path="url(#p9b64b4f75a)" d="M 888.297116 557.605573 
L 888.575304 571.659574 
L 884.011259 568.375634 
L 706.596887 814.947495 
L 704.314864 813.305525 
L 702.032842 811.663554 
L 879.447213 565.091694 
L 874.883168 561.807753 
z
" style="fill:#dddddd;"/>
   </g>
   <g id="patch_50">
    <path clip-path="url(#p9b64b4f75a)" d="M 435.718537 1027.321454 
L 424.007661 1035.096266 
L 424.330331 1029.482831 
L 247.643309 1019.326539 
L 247.804644 1016.519822 
L 247.965979 1013.713104 
L 424.653001 1023.869395 
L 424.975672 1018.25596 
z
" style="fill:#fafafa;"/>
   </g>
   <g id="patch_51">
    <path clip-path="url(#p9b64b4f75a)" d="M 555.619661 418.314982 
L 553.884001 404.365795 
L 558.764299 407.158188 
L 657.513856 234.572452 
L 659.954006 235.968649 
L 662.394155 237.364846 
L 563.644598 409.950582 
L 568.524896 412.742976 
z
" style="fill:#898989;"/>
   </g>
   <g id="patch_52">
    <path clip-path="url(#p9b64b4f75a)" d="M 752.948349 1145.077314 
L 747.717738 1132.029974 
L 753.148233 1133.48754 
L 814.255869 905.81708 
L 816.971116 906.545863 
L 819.686364 907.274646 
L 758.578728 1134.945106 
L 764.009223 1136.402672 
z
" style="fill:#f2f2f2;"/>
   </g>
   <g id="patch_53">
    <path clip-path="url(#p9b64b4f75a)" d="M 1050.8143 716.481061 
L 1037.046226 713.646895 
L 1041.257497 709.921311 
L 896.043302 545.776228 
L 898.148937 543.913436 
L 900.254573 542.050644 
L 1045.468768 706.195727 
L 1049.680038 702.470144 
z
" style="fill:#f8bb9e;"/>
   </g>
   <g id="patch_54">
    <path clip-path="url(#p9b64b4f75a)" d="M 293.156835 649.295924 
L 306.657569 645.381524 
L 304.670001 650.641215 
L 612.490048 766.96237 
L 611.496264 769.592216 
L 610.50248 772.222061 
L 302.682433 655.900906 
L 300.694865 661.160597 
z
" style="fill:#d3d3d3;"/>
   </g>
   <g id="patch_55">
    <path clip-path="url(#p9b64b4f75a)" d="M 577.488427 610.986502 
L 579.887592 597.136002 
L 583.743952 601.227855 
L 855.307679 345.293015 
L 857.235859 347.338941 
L 859.164039 349.384868 
L 587.600313 605.319707 
L 591.456673 609.41156 
z
" style="fill:#b7b7b7;"/>
   </g>
   <g id="matplotlib.axis_1"/>
   <g id="matplotlib.axis_2"/>
   <g id="patch_56">
    <path clip-path="url(#p9b64b4f75a)" d="M 1061.991052 745.982978 
C 1066.464525 745.982978 1070.75538 744.205648 1073.918603 741.042424 
C 1077.081827 737.8792 1078.859157 733.588346 1078.859157 729.114872 
C 1078.859157 724.641399 1077.081827 720.350544 1073.918603 717.187321 
C 1070.75538 714.024097 1066.464525 712.246767 1061.991052 712.246767 
C 1057.517578 712.246767 1053.226724 714.024097 1050.0635 717.187321 
C 1046.900276 720.350544 1045.122946 724.641399 1045.122946 729.114872 
C 1045.122946 733.588346 1046.900276 737.8792 1050.0635 741.042424 
C 1053.226724 744.205648 1057.517578 745.982978 1061.991052 745.982978 
z
"/>
   </g>
   <g id="patch_57">
    <path clip-path="url(#p9b64b4f75a)" d="M 277.377763 660.201325 
C 281.851237 660.201325 286.142091 658.423995 289.305314 655.260771 
C 292.468538 652.097548 294.245868 647.806693 294.245868 643.33322 
C 294.245868 638.859746 292.468538 634.568892 289.305314 631.405668 
C 286.142091 628.242444 281.851237 626.465114 277.377763 626.465114 
C 272.904289 626.465114 268.613435 628.242444 265.450211 631.405668 
C 262.286987 634.568892 260.509657 638.859746 260.509657 643.33322 
C 260.509657 647.806693 262.286987 652.097548 265.450211 655.260771 
C 268.613435 658.423995 272.904289 660.201325 277.377763 660.201325 
z
"/>
   </g>
   <g id="patch_58">
    <path clip-path="url(#p9b64b4f75a)" d="M 704.314864 830.17363 
C 708.788338 830.17363 713.079192 828.3963 716.242416 825.233076 
C 719.40564 822.069853 721.18297 817.778998 721.18297 813.305525 
C 721.18297 808.832051 719.40564 804.541197 716.242416 801.377973 
C 713.079192 798.214749 708.788338 796.437419 704.314864 796.437419 
C 699.841391 796.437419 695.550536 798.214749 692.387313 801.377973 
C 689.224089 804.541197 687.446759 808.832051 687.446759 813.305525 
C 687.446759 817.778998 689.224089 822.069853 692.387313 825.233076 
C 695.550536 828.3963 699.841391 830.17363 704.314864 830.17363 
z
"/>
   </g>
   <g id="patch_59">
    <path clip-path="url(#p9b64b4f75a)" d="M 816.971116 923.413968 
C 821.44459 923.413968 825.735444 921.636638 828.898668 918.473415 
C 832.061891 915.310191 833.839221 911.019337 833.839221 906.545863 
C 833.839221 902.072389 832.061891 897.781535 828.898668 894.618311 
C 825.735444 891.455088 821.44459 889.677758 816.971116 889.677758 
C 812.497642 889.677758 808.206788 891.455088 805.043565 894.618311 
C 801.880341 897.781535 800.103011 902.072389 800.103011 906.545863 
C 800.103011 911.019337 801.880341 915.310191 805.043565 918.473415 
C 808.206788 921.636638 812.497642 923.413968 816.971116 923.413968 
z
"/>
   </g>
   <g id="patch_60">
    <path clip-path="url(#p9b64b4f75a)" d="M 943.795356 462.668284 
C 948.26883 462.668284 952.559684 460.890954 955.722908 457.72773 
C 958.886131 454.564506 960.663461 450.273652 960.663461 445.800178 
C 960.663461 441.326705 958.886131 437.03585 955.722908 433.872627 
C 952.559684 430.709403 948.26883 428.932073 943.795356 428.932073 
C 939.321882 428.932073 935.031028 430.709403 931.867804 433.872627 
C 928.704581 437.03585 926.927251 441.326705 926.927251 445.800178 
C 926.927251 450.273652 928.704581 454.564506 931.867804 457.72773 
C 935.031028 460.890954 939.321882 462.668284 943.795356 462.668284 
z
"/>
   </g>
   <g id="patch_61">
    <path clip-path="url(#p9b64b4f75a)" d="M 659.954006 252.836755 
C 664.427479 252.836755 668.718333 251.059425 671.881557 247.896201 
C 675.044781 244.732977 676.822111 240.442123 676.822111 235.968649 
C 676.822111 231.495175 675.044781 227.204321 671.881557 224.041098 
C 668.718333 220.877874 664.427479 219.100544 659.954006 219.100544 
C 655.480532 219.100544 651.189678 220.877874 648.026454 224.041098 
C 644.86323 227.204321 643.0859 231.495175 643.0859 235.968649 
C 643.0859 240.442123 644.86323 244.732977 648.026454 247.896201 
C 651.189678 251.059425 655.480532 252.836755 659.954006 252.836755 
z
"/>
   </g>
   <g id="patch_62">
    <path clip-path="url(#p9b64b4f75a)" d="M 313.4887 819.530717 
C 317.962174 819.530717 322.253028 817.753387 325.416252 814.590163 
C 328.579476 811.426939 330.356806 807.136085 330.356806 802.662611 
C 330.356806 798.189137 328.579476 793.898283 325.416252 790.73506 
C 322.253028 787.571836 317.962174 785.794506 313.4887 785.794506 
C 309.015227 785.794506 304.724372 787.571836 301.561149 790.73506 
C 298.397925 793.898283 296.620595 798.189137 296.620595 802.662611 
C 296.620595 807.136085 298.397925 811.426939 301.561149 814.590163 
C 304.724372 817.753387 309.015227 819.530717 313.4887 819.530717 
z
"/>
   </g>
   <g id="patch_63">
    <path clip-path="url(#p9b64b4f75a)" d="M 547.24248 449.823983 
C 551.715954 449.823983 556.006808 448.046653 559.170032 444.883429 
C 562.333255 441.720205 564.110585 437.429351 564.110585 432.955877 
C 564.110585 428.482404 562.333255 424.191549 559.170032 421.028326 
C 556.006808 417.865102 551.715954 416.087772 547.24248 416.087772 
C 542.769006 416.087772 538.478152 417.865102 535.314928 421.028326 
C 532.151705 424.191549 530.374375 428.482404 530.374375 432.955877 
C 530.374375 437.429351 532.151705 441.720205 535.314928 444.883429 
C 538.478152 448.046653 542.769006 449.823983 547.24248 449.823983 
z
"/>
   </g>
   <g id="patch_64">
    <path clip-path="url(#p9b64b4f75a)" d="M 452.558844 1045.157571 
C 457.032318 1045.157571 461.323172 1043.380241 464.486396 1040.217017 
C 467.649619 1037.053793 469.426949 1032.762939 469.426949 1028.289466 
C 469.426949 1023.815992 467.649619 1019.525138 464.486396 1016.361914 
C 461.323172 1013.19869 457.032318 1011.42136 452.558844 1011.42136 
C 448.08537 1011.42136 443.794516 1013.19869 440.631292 1016.361914 
C 437.468069 1019.525138 435.690739 1023.815992 435.690739 1028.289466 
C 435.690739 1032.762939 437.468069 1037.053793 440.631292 1040.217017 
C 443.794516 1043.380241 448.08537 1045.157571 452.558844 1045.157571 
z
"/>
   </g>
   <g id="patch_65">
    <path clip-path="url(#p9b64b4f75a)" d="M 247.804644 1033.387927 
C 252.278118 1033.387927 256.568972 1031.610597 259.732196 1028.447373 
C 262.895419 1025.28415 264.672749 1020.993295 264.672749 1016.519822 
C 264.672749 1012.046348 262.895419 1007.755494 259.732196 1004.59227 
C 256.568972 1001.429046 252.278118 999.651716 247.804644 999.651716 
C 243.33117 999.651716 239.040316 1001.429046 235.877092 1004.59227 
C 232.713869 1007.755494 230.936539 1012.046348 230.936539 1016.519822 
C 230.936539 1020.993295 232.713869 1025.28415 235.877092 1028.447373 
C 239.040316 1031.610597 243.33117 1033.387927 247.804644 1033.387927 
z
"/>
   </g>
   <g id="patch_66">
    <path clip-path="url(#p9b64b4f75a)" d="M 830.881373 761.043359 
C 835.354847 761.043359 839.645701 759.266029 842.808925 756.102805 
C 845.972148 752.939581 847.749478 748.648727 847.749478 744.175253 
C 847.749478 739.70178 845.972148 735.410925 842.808925 732.247702 
C 839.645701 729.084478 835.354847 727.307148 830.881373 727.307148 
C 826.407899 727.307148 822.117045 729.084478 818.953821 732.247702 
C 815.790598 735.410925 814.013268 739.70178 814.013268 744.175253 
C 814.013268 748.648727 815.790598 752.939581 818.953821 756.102805 
C 822.117045 759.266029 826.407899 761.043359 830.881373 761.043359 
z
"/>
   </g>
   <g id="patch_67">
    <path clip-path="url(#p9b64b4f75a)" d="M 898.148937 560.781542 
C 902.622411 560.781542 906.913265 559.004212 910.076489 555.840988 
C 913.239713 552.677764 915.017043 548.38691 915.017043 543.913436 
C 915.017043 539.439962 913.239713 535.149108 910.076489 531.985885 
C 906.913265 528.822661 902.622411 527.045331 898.148937 527.045331 
C 893.675463 527.045331 889.384609 528.822661 886.221386 531.985885 
C 883.058162 535.149108 881.280832 539.439962 881.280832 543.913436 
C 881.280832 548.38691 883.058162 552.677764 886.221386 555.840988 
C 889.384609 559.004212 893.675463 560.781542 898.148937 560.781542 
z
"/>
   </g>
   <g id="patch_68">
    <path clip-path="url(#p9b64b4f75a)" d="M 565.212869 639.423689 
C 569.686343 639.423689 573.977197 637.646359 577.140421 634.483136 
C 580.303645 631.319912 582.080975 627.029058 582.080975 622.555584 
C 582.080975 618.08211 580.303645 613.791256 577.140421 610.628032 
C 573.977197 607.464809 569.686343 605.687479 565.212869 605.687479 
C 560.739395 605.687479 556.448541 607.464809 553.285318 610.628032 
C 550.122094 613.791256 548.344764 618.08211 548.344764 622.555584 
C 548.344764 627.029058 550.122094 631.319912 553.285318 634.483136 
C 556.448541 637.646359 560.739395 639.423689 565.212869 639.423689 
z
"/>
   </g>
   <g id="patch_69">
    <path clip-path="url(#p9b64b4f75a)" d="M 464.141613 860.639212 
C 468.615087 860.639212 472.905941 858.861882 476.069165 855.698658 
C 479.232388 852.535435 481.009718 848.244581 481.009718 843.771107 
C 481.009718 839.297633 479.232388 835.006779 476.069165 831.843555 
C 472.905941 828.680332 468.615087 826.903002 464.141613 826.903002 
C 459.668139 826.903002 455.377285 828.680332 452.214061 831.843555 
C 449.050838 835.006779 447.273508 839.297633 447.273508 843.771107 
C 447.273508 848.244581 449.050838 852.535435 452.214061 855.698658 
C 455.377285 858.861882 459.668139 860.639212 464.141613 860.639212 
z
"/>
   </g>
   <g id="patch_70">
    <path clip-path="url(#p9b64b4f75a)" d="M 671.715343 961.073865 
C 676.188817 961.073865 680.479671 959.296535 683.642894 956.133311 
C 686.806118 952.970087 688.583448 948.679233 688.583448 944.205759 
C 688.583448 939.732286 686.806118 935.441431 683.642894 932.278208 
C 680.479671 929.114984 676.188817 927.337654 671.715343 927.337654 
C 667.241869 927.337654 662.951015 929.114984 659.787791 932.278208 
C 656.624567 935.441431 654.847238 939.732286 654.847238 944.205759 
C 654.847238 948.679233 656.624567 952.970087 659.787791 956.133311 
C 662.951015 959.296535 667.241869 961.073865 671.715343 961.073865 
z
"/>
   </g>
   <g id="patch_71">
    <path clip-path="url(#p9b64b4f75a)" d="M 706.112451 635.670203 
C 710.585925 635.670203 714.876779 633.892873 718.040003 630.72965 
C 721.203227 627.566426 722.980557 623.275572 722.980557 618.802098 
C 722.980557 614.328624 721.203227 610.03777 718.040003 606.874546 
C 714.876779 603.711323 710.585925 601.933993 706.112451 601.933993 
C 701.638978 601.933993 697.348123 603.711323 694.1849 606.874546 
C 691.021676 610.03777 689.244346 614.328624 689.244346 618.802098 
C 689.244346 623.275572 691.021676 627.566426 694.1849 630.72965 
C 697.348123 633.892873 701.638978 635.670203 706.112451 635.670203 
z
"/>
   </g>
   <g id="patch_72">
    <path clip-path="url(#p9b64b4f75a)" d="M 748.575651 1178.236904 
C 753.049125 1178.236904 757.339979 1176.459574 760.503203 1173.29635 
C 763.666426 1170.133127 765.443756 1165.842273 765.443756 1161.368799 
C 765.443756 1156.895325 763.666426 1152.604471 760.503203 1149.441247 
C 757.339979 1146.278023 753.049125 1144.500693 748.575651 1144.500693 
C 744.102177 1144.500693 739.811323 1146.278023 736.648099 1149.441247 
C 733.484876 1152.604471 731.707546 1156.895325 731.707546 1161.368799 
C 731.707546 1165.842273 733.484876 1170.133127 736.648099 1173.29635 
C 739.811323 1176.459574 744.102177 1178.236904 748.575651 1178.236904 
z
"/>
   </g>
   <g id="patch_73">
    <path clip-path="url(#p9b64b4f75a)" d="M 537.724407 1249.597414 
C 542.197881 1249.597414 546.488735 1247.820084 549.651959 1244.656861 
C 552.815183 1241.493637 554.592513 1237.202783 554.592513 1232.729309 
C 554.592513 1228.255835 552.815183 1223.964981 549.651959 1220.801757 
C 546.488735 1217.638534 542.197881 1215.861204 537.724407 1215.861204 
C 533.250933 1215.861204 528.960079 1217.638534 525.796856 1220.801757 
C 522.633632 1223.964981 520.856302 1228.255835 520.856302 1232.729309 
C 520.856302 1237.202783 522.633632 1241.493637 525.796856 1244.656861 
C 528.960079 1247.820084 533.250933 1249.597414 537.724407 1249.597414 
z
"/>
   </g>
   <g id="patch_74">
    <path clip-path="url(#p9b64b4f75a)" d="M 611.496264 786.460321 
C 615.969738 786.460321 620.260592 784.682991 623.423816 781.519767 
C 626.587039 778.356544 628.364369 774.06569 628.364369 769.592216 
C 628.364369 765.118742 626.587039 760.827888 623.423816 757.664664 
C 620.260592 754.501441 615.969738 752.724111 611.496264 752.724111 
C 607.02279 752.724111 602.731936 754.501441 599.568712 757.664664 
C 596.405489 760.827888 594.628159 765.118742 594.628159 769.592216 
C 594.628159 774.06569 596.405489 778.356544 599.568712 781.519767 
C 602.731936 784.682991 607.02279 786.460321 611.496264 786.460321 
z
"/>
   </g>
   <g id="patch_75">
    <path clip-path="url(#p9b64b4f75a)" d="M 857.235859 364.207046 
C 861.709333 364.207046 866.000187 362.429717 869.163411 359.266493 
C 872.326634 356.103269 874.103964 351.812415 874.103964 347.338941 
C 874.103964 342.865467 872.326634 338.574613 869.163411 335.41139 
C 866.000187 332.248166 861.709333 330.470836 857.235859 330.470836 
C 852.762385 330.470836 848.471531 332.248166 845.308307 335.41139 
C 842.145084 338.574613 840.367754 342.865467 840.367754 347.338941 
C 840.367754 351.812415 842.145084 356.103269 845.308307 359.266493 
C 848.471531 362.429717 852.762385 364.207046 857.235859 364.207046 
z
"/>
   </g>
   <g id="patch_76">
    <path clip-path="url(#p9b64b4f75a)" d="M 1061.991052 743.171627 
C 1065.718946 743.171627 1069.294658 741.690519 1071.930678 739.054499 
C 1074.566698 736.418479 1076.047806 732.842767 1076.047806 729.114872 
C 1076.047806 725.386978 1074.566698 721.811266 1071.930678 719.175246 
C 1069.294658 716.539226 1065.718946 715.058118 1061.991052 715.058118 
C 1058.263157 715.058118 1054.687445 716.539226 1052.051425 719.175246 
C 1049.415406 721.811266 1047.934297 725.386978 1047.934297 729.114872 
C 1047.934297 732.842767 1049.415406 736.418479 1052.051425 739.054499 
C 1054.687445 741.690519 1058.263157 743.171627 1061.991052 743.171627 
z
" style="fill:#ffffff;"/>
   </g>
   <g id="patch_77">
    <path clip-path="url(#p9b64b4f75a)" d="M 277.377763 657.389974 
C 281.105658 657.389974 284.681369 655.908866 287.317389 653.272846 
C 289.953409 650.636826 291.434517 647.061114 291.434517 643.33322 
C 291.434517 639.605325 289.953409 636.029613 287.317389 633.393593 
C 284.681369 630.757574 281.105658 629.276465 277.377763 629.276465 
C 273.649868 629.276465 270.074156 630.757574 267.438136 633.393593 
C 264.802117 636.029613 263.321008 639.605325 263.321008 643.33322 
C 263.321008 647.061114 264.802117 650.636826 267.438136 653.272846 
C 270.074156 655.908866 273.649868 657.389974 277.377763 657.389974 
z
" style="fill:#ffffff;"/>
   </g>
   <g id="patch_78">
    <path clip-path="url(#p9b64b4f75a)" d="M 704.314864 827.362279 
C 708.042759 827.362279 711.618471 825.881171 714.254491 823.245151 
C 716.890511 820.609131 718.371619 817.033419 718.371619 813.305525 
C 718.371619 809.57763 716.890511 806.001918 714.254491 803.365898 
C 711.618471 800.729879 708.042759 799.24877 704.314864 799.24877 
C 700.58697 799.24877 697.011258 800.729879 694.375238 803.365898 
C 691.739218 806.001918 690.25811 809.57763 690.25811 813.305525 
C 690.25811 817.033419 691.739218 820.609131 694.375238 823.245151 
C 697.011258 825.881171 700.58697 827.362279 704.314864 827.362279 
z
" style="fill:#ffffff;"/>
   </g>
   <g id="patch_79">
    <path clip-path="url(#p9b64b4f75a)" d="M 816.971116 920.602617 
C 820.699011 920.602617 824.274723 919.121509 826.910743 916.485489 
C 829.546762 913.84947 831.027871 910.273758 831.027871 906.545863 
C 831.027871 902.817968 829.546762 899.242256 826.910743 896.606237 
C 824.274723 893.970217 820.699011 892.489109 816.971116 892.489109 
C 813.243221 892.489109 809.66751 893.970217 807.03149 896.606237 
C 804.39547 899.242256 802.914362 902.817968 802.914362 906.545863 
C 802.914362 910.273758 804.39547 913.84947 807.03149 916.485489 
C 809.66751 919.121509 813.243221 920.602617 816.971116 920.602617 
z
" style="fill:#ffffff;"/>
   </g>
   <g id="patch_80">
    <path clip-path="url(#p9b64b4f75a)" d="M 943.795356 459.856933 
C 947.523251 459.856933 951.098963 458.375824 953.734982 455.739805 
C 956.371002 453.103785 957.85211 449.528073 957.85211 445.800178 
C 957.85211 442.072284 956.371002 438.496572 953.734982 435.860552 
C 951.098963 433.224532 947.523251 431.743424 943.795356 431.743424 
C 940.067461 431.743424 936.491749 433.224532 933.85573 435.860552 
C 931.21971 438.496572 929.738602 442.072284 929.738602 445.800178 
C 929.738602 449.528073 931.21971 453.103785 933.85573 455.739805 
C 936.491749 458.375824 940.067461 459.856933 943.795356 459.856933 
z
" style="fill:#ffffff;"/>
   </g>
   <g id="patch_81">
    <path clip-path="url(#p9b64b4f75a)" d="M 659.954006 250.025404 
C 663.6819 250.025404 667.257612 248.544295 669.893632 245.908276 
C 672.529652 243.272256 674.01076 239.696544 674.01076 235.968649 
C 674.01076 232.240754 672.529652 228.665043 669.893632 226.029023 
C 667.257612 223.393003 663.6819 221.911895 659.954006 221.911895 
C 656.226111 221.911895 652.650399 223.393003 650.014379 226.029023 
C 647.378359 228.665043 645.897251 232.240754 645.897251 235.968649 
C 645.897251 239.696544 647.378359 243.272256 650.014379 245.908276 
C 652.650399 248.544295 656.226111 250.025404 659.954006 250.025404 
z
" style="fill:#ffffff;"/>
   </g>
   <g id="patch_82">
    <path clip-path="url(#p9b64b4f75a)" d="M 313.4887 816.719366 
C 317.216595 816.719366 320.792307 815.238257 323.428327 812.602238 
C 326.064346 809.966218 327.545455 806.390506 327.545455 802.662611 
C 327.545455 798.934716 326.064346 795.359005 323.428327 792.722985 
C 320.792307 790.086965 317.216595 788.605857 313.4887 788.605857 
C 309.760806 788.605857 306.185094 790.086965 303.549074 792.722985 
C 300.913054 795.359005 299.431946 798.934716 299.431946 802.662611 
C 299.431946 806.390506 300.913054 809.966218 303.549074 812.602238 
C 306.185094 815.238257 309.760806 816.719366 313.4887 816.719366 
z
" style="fill:#ffffff;"/>
   </g>
   <g id="patch_83">
    <path clip-path="url(#p9b64b4f75a)" d="M 547.24248 447.012632 
C 550.970375 447.012632 554.546087 445.531523 557.182106 442.895504 
C 559.818126 440.259484 561.299235 436.683772 561.299235 432.955877 
C 561.299235 429.227983 559.818126 425.652271 557.182106 423.016251 
C 554.546087 420.380231 550.970375 418.899123 547.24248 418.899123 
C 543.514585 418.899123 539.938873 420.380231 537.302854 423.016251 
C 534.666834 425.652271 533.185726 429.227983 533.185726 432.955877 
C 533.185726 436.683772 534.666834 440.259484 537.302854 442.895504 
C 539.938873 445.531523 543.514585 447.012632 547.24248 447.012632 
z
" style="fill:#ffffff;"/>
   </g>
   <g id="patch_84">
    <path clip-path="url(#p9b64b4f75a)" d="M 452.558844 1042.34622 
C 456.286739 1042.34622 459.862451 1040.865112 462.49847 1038.229092 
C 465.13449 1035.593072 466.615598 1032.01736 466.615598 1028.289466 
C 466.615598 1024.561571 465.13449 1020.985859 462.49847 1018.349839 
C 459.862451 1015.713819 456.286739 1014.232711 452.558844 1014.232711 
C 448.830949 1014.232711 445.255237 1015.713819 442.619218 1018.349839 
C 439.983198 1020.985859 438.50209 1024.561571 438.50209 1028.289466 
C 438.50209 1032.01736 439.983198 1035.593072 442.619218 1038.229092 
C 445.255237 1040.865112 448.830949 1042.34622 452.558844 1042.34622 
z
" style="fill:#ffffff;"/>
   </g>
   <g id="patch_85">
    <path clip-path="url(#p9b64b4f75a)" d="M 247.804644 1030.576576 
C 251.532539 1030.576576 255.108251 1029.095468 257.74427 1026.459448 
C 260.38029 1023.823428 261.861398 1020.247716 261.861398 1016.519822 
C 261.861398 1012.791927 260.38029 1009.216215 257.74427 1006.580195 
C 255.108251 1003.944176 251.532539 1002.463067 247.804644 1002.463067 
C 244.076749 1002.463067 240.501037 1003.944176 237.865018 1006.580195 
C 235.228998 1009.216215 233.74789 1012.791927 233.74789 1016.519822 
C 233.74789 1020.247716 235.228998 1023.823428 237.865018 1026.459448 
C 240.501037 1029.095468 244.076749 1030.576576 247.804644 1030.576576 
z
" style="fill:#ffffff;"/>
   </g>
   <g id="patch_86">
    <path clip-path="url(#p9b64b4f75a)" d="M 830.881373 758.232008 
C 834.609268 758.232008 838.18498 756.750899 840.820999 754.11488 
C 843.457019 751.47886 844.938127 747.903148 844.938127 744.175253 
C 844.938127 740.447358 843.457019 736.871647 840.820999 734.235627 
C 838.18498 731.599607 834.609268 730.118499 830.881373 730.118499 
C 827.153478 730.118499 823.577766 731.599607 820.941747 734.235627 
C 818.305727 736.871647 816.824619 740.447358 816.824619 744.175253 
C 816.824619 747.903148 818.305727 751.47886 820.941747 754.11488 
C 823.577766 756.750899 827.153478 758.232008 830.881373 758.232008 
z
" style="fill:#ffffff;"/>
   </g>
   <g id="patch_87">
    <path clip-path="url(#p9b64b4f75a)" d="M 898.148937 557.970191 
C 901.876832 557.970191 905.452544 556.489082 908.088564 553.853063 
C 910.724583 551.217043 912.205692 547.641331 912.205692 543.913436 
C 912.205692 540.185541 910.724583 536.60983 908.088564 533.97381 
C 905.452544 531.33779 901.876832 529.856682 898.148937 529.856682 
C 894.421042 529.856682 890.845331 531.33779 888.209311 533.97381 
C 885.573291 536.60983 884.092183 540.185541 884.092183 543.913436 
C 884.092183 547.641331 885.573291 551.217043 888.209311 553.853063 
C 890.845331 556.489082 894.421042 557.970191 898.148937 557.970191 
z
" style="fill:#ffffff;"/>
   </g>
   <g id="patch_88">
    <path clip-path="url(#p9b64b4f75a)" d="M 565.212869 636.612338 
C 568.940764 636.612338 572.516476 635.13123 575.152496 632.49521 
C 577.788515 629.859191 579.269624 626.283479 579.269624 622.555584 
C 579.269624 618.827689 577.788515 615.251977 575.152496 612.615958 
C 572.516476 609.979938 568.940764 608.49883 565.212869 608.49883 
C 561.484974 608.49883 557.909263 609.979938 555.273243 612.615958 
C 552.637223 615.251977 551.156115 618.827689 551.156115 622.555584 
C 551.156115 626.283479 552.637223 629.859191 555.273243 632.49521 
C 557.909263 635.13123 561.484974 636.612338 565.212869 636.612338 
z
" style="fill:#ffffff;"/>
   </g>
   <g id="patch_89">
    <path clip-path="url(#p9b64b4f75a)" d="M 464.141613 857.827861 
C 467.869508 857.827861 471.44522 856.346753 474.081239 853.710733 
C 476.717259 851.074713 478.198368 847.499002 478.198368 843.771107 
C 478.198368 840.043212 476.717259 836.4675 474.081239 833.83148 
C 471.44522 831.195461 467.869508 829.714352 464.141613 829.714352 
C 460.413718 829.714352 456.838006 831.195461 454.201987 833.83148 
C 451.565967 836.4675 450.084859 840.043212 450.084859 843.771107 
C 450.084859 847.499002 451.565967 851.074713 454.201987 853.710733 
C 456.838006 856.346753 460.413718 857.827861 464.141613 857.827861 
z
" style="fill:#ffffff;"/>
   </g>
   <g id="patch_90">
    <path clip-path="url(#p9b64b4f75a)" d="M 671.715343 958.262514 
C 675.443238 958.262514 679.018949 956.781405 681.654969 954.145386 
C 684.290989 951.509366 685.772097 947.933654 685.772097 944.205759 
C 685.772097 940.477864 684.290989 936.902153 681.654969 934.266133 
C 679.018949 931.630113 675.443238 930.149005 671.715343 930.149005 
C 667.987448 930.149005 664.411736 931.630113 661.775716 934.266133 
C 659.139697 936.902153 657.658588 940.477864 657.658588 944.205759 
C 657.658588 947.933654 659.139697 951.509366 661.775716 954.145386 
C 664.411736 956.781405 667.987448 958.262514 671.715343 958.262514 
z
" style="fill:#ffffff;"/>
   </g>
   <g id="patch_91">
    <path clip-path="url(#p9b64b4f75a)" d="M 706.112451 632.858853 
C 709.840346 632.858853 713.416058 631.377744 716.052078 628.741724 
C 718.688097 626.105705 720.169206 622.529993 720.169206 618.802098 
C 720.169206 615.074203 718.688097 611.498491 716.052078 608.862472 
C 713.416058 606.226452 709.840346 604.745344 706.112451 604.745344 
C 702.384556 604.745344 698.808845 606.226452 696.172825 608.862472 
C 693.536805 611.498491 692.055697 615.074203 692.055697 618.802098 
C 692.055697 622.529993 693.536805 626.105705 696.172825 628.741724 
C 698.808845 631.377744 702.384556 632.858853 706.112451 632.858853 
z
" style="fill:#ffffff;"/>
   </g>
   <g id="patch_92">
    <path clip-path="url(#p9b64b4f75a)" d="M 748.575651 1175.425553 
C 752.303546 1175.425553 755.879258 1173.944445 758.515277 1171.308425 
C 761.151297 1168.672405 762.632405 1165.096694 762.632405 1161.368799 
C 762.632405 1157.640904 761.151297 1154.065192 758.515277 1151.429172 
C 755.879258 1148.793153 752.303546 1147.312044 748.575651 1147.312044 
C 744.847756 1147.312044 741.272044 1148.793153 738.636025 1151.429172 
C 736.000005 1154.065192 734.518897 1157.640904 734.518897 1161.368799 
C 734.518897 1165.096694 736.000005 1168.672405 738.636025 1171.308425 
C 741.272044 1173.944445 744.847756 1175.425553 748.575651 1175.425553 
z
" style="fill:#ffffff;"/>
   </g>
   <g id="patch_93">
    <path clip-path="url(#p9b64b4f75a)" d="M 537.724407 1246.786063 
C 541.452302 1246.786063 545.028014 1245.304955 547.664034 1242.668935 
C 550.300053 1240.032916 551.781162 1236.457204 551.781162 1232.729309 
C 551.781162 1229.001414 550.300053 1225.425702 547.664034 1222.789683 
C 545.028014 1220.153663 541.452302 1218.672555 537.724407 1218.672555 
C 533.996512 1218.672555 530.420801 1220.153663 527.784781 1222.789683 
C 525.148761 1225.425702 523.667653 1229.001414 523.667653 1232.729309 
C 523.667653 1236.457204 525.148761 1240.032916 527.784781 1242.668935 
C 530.420801 1245.304955 533.996512 1246.786063 537.724407 1246.786063 
z
" style="fill:#ffffff;"/>
   </g>
   <g id="patch_94">
    <path clip-path="url(#p9b64b4f75a)" d="M 611.496264 783.64897 
C 615.224159 783.64897 618.799871 782.167862 621.43589 779.531842 
C 624.07191 776.895822 625.553019 773.320111 625.553019 769.592216 
C 625.553019 765.864321 624.07191 762.288609 621.43589 759.652589 
C 618.799871 757.01657 615.224159 755.535461 611.496264 755.535461 
C 607.768369 755.535461 604.192657 757.01657 601.556638 759.652589 
C 598.920618 762.288609 597.43951 765.864321 597.43951 769.592216 
C 597.43951 773.320111 598.920618 776.895822 601.556638 779.531842 
C 604.192657 782.167862 607.768369 783.64897 611.496264 783.64897 
z
" style="fill:#ffffff;"/>
   </g>
   <g id="patch_95">
    <path clip-path="url(#p9b64b4f75a)" d="M 857.235859 361.395696 
C 860.963754 361.395696 864.539466 359.914587 867.175485 357.278568 
C 869.811505 354.642548 871.292613 351.066836 871.292613 347.338941 
C 871.292613 343.611046 869.811505 340.035335 867.175485 337.399315 
C 864.539466 334.763295 860.963754 333.282187 857.235859 333.282187 
C 853.507964 333.282187 849.932252 334.763295 847.296233 337.399315 
C 844.660213 340.035335 843.179104 343.611046 843.179104 347.338941 
C 843.179104 351.066836 844.660213 354.642548 847.296233 357.278568 
C 849.932252 359.914587 853.507964 361.395696 857.235859 361.395696 
z
" style="fill:#ffffff;"/>
   </g>
   <g id="text_1">
    <g id="patch_96">
     <path clip-path="url(#p9b64b4f75a)" d="M 751.656258 760.622471 
L 757.500505 771.926028 
Q 758.878324 774.590913 761.54321 773.213095 
L 770.140242 768.768195 
Q 772.805128 767.390376 771.427309 764.72549 
L 765.583062 753.421933 
Q 764.205244 750.757048 761.540358 752.134866 
L 752.943325 756.579766 
Q 750.27844 757.957585 751.656258 760.622471 
z
" style="fill:#ffffff;stroke:#ffffff;stroke-linejoin:miter;"/>
    </g>
    <g clip-path="url(#p9b64b4f75a)">
     <!-- 13 -->
     <defs>
      <path d="M 12.40625 8.296875 
L 28.515625 8.296875 
L 28.515625 63.921875 
L 10.984375 60.40625 
L 10.984375 69.390625 
L 28.421875 72.90625 
L 38.28125 72.90625 
L 38.28125 8.296875 
L 54.390625 8.296875 
L 54.390625 0 
L 12.40625 0 
z
" id="DejaVuSans-31"/>
      <path d="M 40.578125 39.3125 
Q 47.65625 37.796875 51.625 33 
Q 55.609375 28.21875 55.609375 21.1875 
Q 55.609375 10.40625 48.1875 4.484375 
Q 40.765625 -1.421875 27.09375 -1.421875 
Q 22.515625 -1.421875 17.65625 -0.515625 
Q 12.796875 0.390625 7.625 2.203125 
L 7.625 11.71875 
Q 11.71875 9.328125 16.59375 8.109375 
Q 21.484375 6.890625 26.8125 6.890625 
Q 36.078125 6.890625 40.9375 10.546875 
Q 45.796875 14.203125 45.796875 21.1875 
Q 45.796875 27.640625 41.28125 31.265625 
Q 36.765625 34.90625 28.71875 34.90625 
L 20.21875 34.90625 
L 20.21875 43.015625 
L 29.109375 43.015625 
Q 36.375 43.015625 40.234375 45.921875 
Q 44.09375 48.828125 44.09375 54.296875 
Q 44.09375 59.90625 40.109375 62.90625 
Q 36.140625 65.921875 28.71875 65.921875 
Q 24.65625 65.921875 20.015625 65.03125 
Q 15.375 64.15625 9.8125 62.3125 
L 9.8125 71.09375 
Q 15.4375 72.65625 20.34375 73.4375 
Q 25.25 74.21875 29.59375 74.21875 
Q 40.828125 74.21875 47.359375 69.109375 
Q 53.90625 64.015625 53.90625 55.328125 
Q 53.90625 49.265625 50.4375 45.09375 
Q 46.96875 40.921875 40.578125 39.3125 
z
" id="DejaVuSans-33"/>
     </defs>
     <g transform="translate(756.168521 758.289508)rotate(-297.340196)scale(0.1 -0.1)">
      <use xlink:href="#DejaVuSans-31"/>
      <use x="63.623047" xlink:href="#DejaVuSans-33"/>
     </g>
    </g>
   </g>
   <g id="text_2">
    <g id="patch_97">
     <path clip-path="url(#p9b64b4f75a)" d="M 608.007475 1098.013423 
L 614.737911 1087.214031 
Q 616.324654 1084.668006 613.778628 1083.081262 
L 605.565044 1077.962363 
Q 603.019018 1076.37562 601.432275 1078.921645 
L 594.701839 1089.721037 
Q 593.115096 1092.267063 595.661122 1093.853806 
L 603.874706 1098.972705 
Q 606.420732 1100.559448 608.007475 1098.013423 
z
" style="fill:#ffffff;stroke:#ffffff;stroke-linejoin:miter;"/>
    </g>
    <g clip-path="url(#p9b64b4f75a)">
     <!-- 42 -->
     <defs>
      <path d="M 37.796875 64.3125 
L 12.890625 25.390625 
L 37.796875 25.390625 
z
M 35.203125 72.90625 
L 47.609375 72.90625 
L 47.609375 25.390625 
L 58.015625 25.390625 
L 58.015625 17.1875 
L 47.609375 17.1875 
L 47.609375 0 
L 37.796875 0 
L 37.796875 17.1875 
L 4.890625 17.1875 
L 4.890625 26.703125 
z
" id="DejaVuSans-34"/>
      <path d="M 19.1875 8.296875 
L 53.609375 8.296875 
L 53.609375 0 
L 7.328125 0 
L 7.328125 8.296875 
Q 12.9375 14.109375 22.625 23.890625 
Q 32.328125 33.6875 34.8125 36.53125 
Q 39.546875 41.84375 41.421875 45.53125 
Q 43.3125 49.21875 43.3125 52.78125 
Q 43.3125 58.59375 39.234375 62.25 
Q 35.15625 65.921875 28.609375 65.921875 
Q 23.96875 65.921875 18.8125 64.3125 
Q 13.671875 62.703125 7.8125 59.421875 
L 7.8125 69.390625 
Q 13.765625 71.78125 18.9375 73 
Q 24.125 74.21875 28.421875 74.21875 
Q 39.75 74.21875 46.484375 68.546875 
Q 53.21875 62.890625 53.21875 53.421875 
Q 53.21875 48.921875 51.53125 44.890625 
Q 49.859375 40.875 45.40625 35.40625 
Q 44.1875 33.984375 37.640625 27.21875 
Q 31.109375 20.453125 19.1875 8.296875 
z
" id="DejaVuSans-32"/>
     </defs>
     <g transform="translate(603.69647 1095.326703)rotate(-58.067867)scale(0.1 -0.1)">
      <use xlink:href="#DejaVuSans-34"/>
      <use x="63.623047" xlink:href="#DejaVuSans-32"/>
     </g>
    </g>
   </g>
   <g id="text_3">
    <g id="patch_98">
     <path clip-path="url(#p9b64b4f75a)" d="M 497.094122 633.071234 
L 498.744221 645.688793 
Q 499.133243 648.663463 502.107913 648.274441 
L 511.704322 647.019442 
Q 514.678993 646.630421 514.289971 643.655751 
L 512.639872 631.038192 
Q 512.250851 628.063521 509.276181 628.452543 
L 499.679771 629.707542 
Q 496.705101 630.096563 497.094122 633.071234 
z
" style="fill:#ffffff;stroke:#ffffff;stroke-linejoin:miter;"/>
    </g>
    <g clip-path="url(#p9b64b4f75a)">
     <!-- 22 -->
     <g transform="translate(502.13092 632.412531)rotate(-277.450743)scale(0.1 -0.1)">
      <use xlink:href="#DejaVuSans-32"/>
      <use x="63.623047" xlink:href="#DejaVuSans-32"/>
     </g>
    </g>
   </g>
   <g id="text_4">
    <g id="patch_99">
     <path clip-path="url(#p9b64b4f75a)" d="M 416.285506 641.709909 
L 428.842719 639.650295 
Q 431.803163 639.164728 431.317596 636.204285 
L 429.751137 626.653772 
Q 429.26557 623.693328 426.305126 624.178895 
L 413.747913 626.238508 
Q 410.787469 626.724075 411.273036 629.684519 
L 412.839495 639.235032 
Q 413.325062 642.195475 416.285506 641.709909 
z
" style="fill:#ffffff;stroke:#ffffff;stroke-linejoin:miter;"/>
    </g>
    <g clip-path="url(#p9b64b4f75a)">
     <!-- 33 -->
     <g transform="translate(415.46333 636.6972)rotate(-9.314621)scale(0.1 -0.1)">
      <use xlink:href="#DejaVuSans-33"/>
      <use x="63.623047" xlink:href="#DejaVuSans-33"/>
     </g>
    </g>
   </g>
   <g id="text_5">
    <g id="patch_100">
     <path clip-path="url(#p9b64b4f75a)" d="M 686.417963 998.324402 
L 694.398968 988.413338 
Q 696.280541 986.076742 693.943944 984.195169 
L 686.405987 978.125136 
Q 684.06939 976.243564 682.187817 978.58016 
L 674.206812 988.491224 
Q 672.325239 990.82782 674.661836 992.709393 
L 682.199794 998.779426 
Q 684.53639 1000.660999 686.417963 998.324402 
z
" style="fill:#ffffff;stroke:#ffffff;stroke-linejoin:miter;"/>
    </g>
    <g clip-path="url(#p9b64b4f75a)">
     <!-- 27 -->
     <defs>
      <path d="M 8.203125 72.90625 
L 55.078125 72.90625 
L 55.078125 68.703125 
L 28.609375 0 
L 18.3125 0 
L 43.21875 64.59375 
L 8.203125 64.59375 
z
" id="DejaVuSans-37"/>
     </defs>
     <g transform="translate(682.46157 995.138468)rotate(-51.156821)scale(0.1 -0.1)">
      <use xlink:href="#DejaVuSans-32"/>
      <use x="63.623047" xlink:href="#DejaVuSans-37"/>
     </g>
    </g>
   </g>
   <g id="text_6">
    <g id="patch_101">
     <path clip-path="url(#p9b64b4f75a)" d="M 649.778728 797.439433 
L 662.096143 800.634258 
Q 665.000052 801.387459 665.753253 798.48355 
L 668.183109 789.115417 
Q 668.93631 786.211508 666.0324 785.458308 
L 653.714985 782.263482 
Q 650.811076 781.510282 650.057876 784.414191 
L 647.628019 793.782323 
Q 646.874819 796.686232 649.778728 797.439433 
z
" style="fill:#ffffff;stroke:#ffffff;stroke-linejoin:miter;"/>
    </g>
    <g clip-path="url(#p9b64b4f75a)">
     <!-- 10 -->
     <defs>
      <path d="M 31.78125 66.40625 
Q 24.171875 66.40625 20.328125 58.90625 
Q 16.5 51.421875 16.5 36.375 
Q 16.5 21.390625 20.328125 13.890625 
Q 24.171875 6.390625 31.78125 6.390625 
Q 39.453125 6.390625 43.28125 13.890625 
Q 47.125 21.390625 47.125 36.375 
Q 47.125 51.421875 43.28125 58.90625 
Q 39.453125 66.40625 31.78125 66.40625 
z
M 31.78125 74.21875 
Q 44.046875 74.21875 50.515625 64.515625 
Q 56.984375 54.828125 56.984375 36.375 
Q 56.984375 17.96875 50.515625 8.265625 
Q 44.046875 -1.421875 31.78125 -1.421875 
Q 19.53125 -1.421875 13.0625 8.265625 
Q 6.59375 17.96875 6.59375 36.375 
Q 6.59375 54.828125 13.0625 64.515625 
Q 19.53125 74.21875 31.78125 74.21875 
z
" id="DejaVuSans-30"/>
     </defs>
     <g transform="translate(651.054069 792.522449)rotate(-345.459349)scale(0.1 -0.1)">
      <use xlink:href="#DejaVuSans-31"/>
      <use x="63.623047" xlink:href="#DejaVuSans-30"/>
     </g>
    </g>
   </g>
   <g id="text_7">
    <g id="patch_102">
     <path clip-path="url(#p9b64b4f75a)" d="M 579.777463 929.15058 
L 585.219367 925.854053 
Q 587.785294 924.299698 586.230939 921.733771 
L 581.216527 913.455983 
Q 579.662173 910.890056 577.096245 912.444411 
L 571.654342 915.740937 
Q 569.088414 917.295292 570.642769 919.861219 
L 575.657181 928.139007 
Q 577.211536 930.704934 579.777463 929.15058 
z
" style="fill:#ffffff;stroke:#ffffff;stroke-linejoin:miter;"/>
    </g>
    <g clip-path="url(#p9b64b4f75a)">
     <!-- 6 -->
     <defs>
      <path d="M 33.015625 40.375 
Q 26.375 40.375 22.484375 35.828125 
Q 18.609375 31.296875 18.609375 23.390625 
Q 18.609375 15.53125 22.484375 10.953125 
Q 26.375 6.390625 33.015625 6.390625 
Q 39.65625 6.390625 43.53125 10.953125 
Q 47.40625 15.53125 47.40625 23.390625 
Q 47.40625 31.296875 43.53125 35.828125 
Q 39.65625 40.375 33.015625 40.375 
z
M 52.59375 71.296875 
L 52.59375 62.3125 
Q 48.875 64.0625 45.09375 64.984375 
Q 41.3125 65.921875 37.59375 65.921875 
Q 27.828125 65.921875 22.671875 59.328125 
Q 17.53125 52.734375 16.796875 39.40625 
Q 19.671875 43.65625 24.015625 45.921875 
Q 28.375 48.1875 33.59375 48.1875 
Q 44.578125 48.1875 50.953125 41.515625 
Q 57.328125 34.859375 57.328125 23.390625 
Q 57.328125 12.15625 50.6875 5.359375 
Q 44.046875 -1.421875 33.015625 -1.421875 
Q 20.359375 -1.421875 13.671875 8.265625 
Q 6.984375 17.96875 6.984375 36.375 
Q 6.984375 53.65625 15.1875 63.9375 
Q 23.390625 74.21875 37.203125 74.21875 
Q 40.921875 74.21875 44.703125 73.484375 
Q 48.484375 72.75 52.59375 71.296875 
z
" id="DejaVuSans-36"/>
     </defs>
     <g transform="translate(577.145585 924.805877)rotate(-31.206106)scale(0.1 -0.1)">
      <use xlink:href="#DejaVuSans-36"/>
     </g>
    </g>
   </g>
   <g id="text_8">
    <g id="patch_103">
     <path clip-path="url(#p9b64b4f75a)" d="M 348.955022 1032.425994 
L 359.736386 1025.666718 
Q 362.278161 1024.073175 360.684619 1021.5314 
L 355.543784 1013.331526 
Q 353.950242 1010.789751 351.408466 1012.383293 
L 340.627102 1019.142569 
Q 338.085327 1020.736112 339.678869 1023.277887 
L 344.819704 1031.477761 
Q 346.413246 1034.019536 348.955022 1032.425994 
z
" style="fill:#ffffff;stroke:#ffffff;stroke-linejoin:miter;"/>
    </g>
    <g clip-path="url(#p9b64b4f75a)">
     <!-- 26 -->
     <g transform="translate(346.256789 1028.122185)rotate(-32.085274)scale(0.1 -0.1)">
      <use xlink:href="#DejaVuSans-32"/>
      <use x="63.623047" xlink:href="#DejaVuSans-36"/>
     </g>
    </g>
   </g>
   <g id="text_9">
    <g id="patch_104">
     <path clip-path="url(#p9b64b4f75a)" d="M 748.498788 291.640629 
L 756.505071 301.531284 
Q 758.392603 303.863069 760.724388 301.975537 
L 768.246824 295.886279 
Q 770.578609 293.998746 768.691077 291.666961 
L 760.684794 281.776306 
Q 758.797261 279.444521 756.465476 281.332054 
L 748.94304 287.421312 
Q 746.611255 289.308844 748.498788 291.640629 
z
" style="fill:#ffffff;stroke:#ffffff;stroke-linejoin:miter;"/>
    </g>
    <g clip-path="url(#p9b64b4f75a)">
     <!-- 18 -->
     <defs>
      <path d="M 31.78125 34.625 
Q 24.75 34.625 20.71875 30.859375 
Q 16.703125 27.09375 16.703125 20.515625 
Q 16.703125 13.921875 20.71875 10.15625 
Q 24.75 6.390625 31.78125 6.390625 
Q 38.8125 6.390625 42.859375 10.171875 
Q 46.921875 13.96875 46.921875 20.515625 
Q 46.921875 27.09375 42.890625 30.859375 
Q 38.875 34.625 31.78125 34.625 
z
M 21.921875 38.8125 
Q 15.578125 40.375 12.03125 44.71875 
Q 8.5 49.078125 8.5 55.328125 
Q 8.5 64.0625 14.71875 69.140625 
Q 20.953125 74.21875 31.78125 74.21875 
Q 42.671875 74.21875 48.875 69.140625 
Q 55.078125 64.0625 55.078125 55.328125 
Q 55.078125 49.078125 51.53125 44.71875 
Q 48 40.375 41.703125 38.8125 
Q 48.828125 37.15625 52.796875 32.3125 
Q 56.78125 27.484375 56.78125 20.515625 
Q 56.78125 9.90625 50.3125 4.234375 
Q 43.84375 -1.421875 31.78125 -1.421875 
Q 19.734375 -1.421875 13.25 4.234375 
Q 6.78125 9.90625 6.78125 20.515625 
Q 6.78125 27.484375 10.78125 32.3125 
Q 14.796875 37.15625 21.921875 38.8125 
z
M 18.3125 54.390625 
Q 18.3125 48.734375 21.84375 45.5625 
Q 25.390625 42.390625 31.78125 42.390625 
Q 38.140625 42.390625 41.71875 45.5625 
Q 45.3125 48.734375 45.3125 54.390625 
Q 45.3125 60.0625 41.71875 63.234375 
Q 38.140625 66.40625 31.78125 66.40625 
Q 25.390625 66.40625 21.84375 63.234375 
Q 18.3125 60.0625 18.3125 54.390625 
z
" id="DejaVuSans-38"/>
     </defs>
     <g transform="translate(752.447034 288.444604)rotate(-308.989463)scale(0.1 -0.1)">
      <use xlink:href="#DejaVuSans-31"/>
      <use x="63.623047" xlink:href="#DejaVuSans-38"/>
     </g>
    </g>
   </g>
   <g id="text_10">
    <g id="patch_105">
     <path clip-path="url(#p9b64b4f75a)" d="M 492.666012 1032.454601 
L 493.560681 1045.148111 
Q 493.771605 1048.140687 496.764181 1047.929763 
L 506.418356 1047.249314 
Q 509.410932 1047.03839 509.200008 1044.045814 
L 508.305339 1031.352305 
Q 508.094415 1028.359729 505.101839 1028.570652 
L 495.447665 1029.251102 
Q 492.455089 1029.462025 492.666012 1032.454601 
z
" style="fill:#ffffff;stroke:#ffffff;stroke-linejoin:miter;"/>
    </g>
    <g clip-path="url(#p9b64b4f75a)">
     <!-- 40 -->
     <g transform="translate(497.733129 1032.097459)rotate(-274.031675)scale(0.1 -0.1)">
      <use xlink:href="#DejaVuSans-34"/>
      <use x="63.623047" xlink:href="#DejaVuSans-30"/>
     </g>
    </g>
   </g>
   <g id="text_11">
    <g id="patch_106">
     <path clip-path="url(#p9b64b4f75a)" d="M 908.68308 952.988648 
L 913.12016 948.428634 
Q 915.2123 946.278529 913.062195 944.186389 
L 906.125867 937.437059 
Q 903.975763 935.344919 901.883623 937.495023 
L 897.446543 942.055037 
Q 895.354403 944.205142 897.504508 946.297282 
L 904.440835 953.046613 
Q 906.59094 955.138752 908.68308 952.988648 
z
" style="fill:#ffffff;stroke:#ffffff;stroke-linejoin:miter;"/>
    </g>
    <g clip-path="url(#p9b64b4f75a)">
     <!-- 1 -->
     <g transform="translate(905.04246 949.446175)rotate(-45.782825)scale(0.1 -0.1)">
      <use xlink:href="#DejaVuSans-31"/>
     </g>
    </g>
   </g>
   <g id="text_12">
    <g id="patch_107">
     <path clip-path="url(#p9b64b4f75a)" d="M 943.638914 744.629196 
L 949.993926 744.320604 
Q 952.990395 744.175099 952.84489 741.178629 
L 952.375485 731.511895 
Q 952.22998 728.515425 949.233511 728.66093 
L 942.878499 728.969522 
Q 939.882029 729.115027 940.027534 732.111496 
L 940.49694 741.778231 
Q 940.642445 744.774701 943.638914 744.629196 
z
" style="fill:#ffffff;stroke:#ffffff;stroke-linejoin:miter;"/>
    </g>
    <g clip-path="url(#p9b64b4f75a)">
     <!-- 0 -->
     <g transform="translate(943.392541 739.555486)rotate(-2.780032)scale(0.1 -0.1)">
      <use xlink:href="#DejaVuSans-30"/>
     </g>
    </g>
   </g>
   <g id="text_13">
    <g id="patch_108">
     <path clip-path="url(#p9b64b4f75a)" d="M 415.536029 1016.97705 
L 422.831314 1027.403192 
Q 424.551224 1029.861222 427.009254 1028.141311 
L 434.93896 1022.59281 
Q 437.396989 1020.872899 435.677079 1018.41487 
L 428.381793 1007.988728 
Q 426.661883 1005.530699 424.203854 1007.250609 
L 416.274148 1012.799111 
Q 413.816119 1014.519021 415.536029 1016.97705 
z
" style="fill:#ffffff;stroke:#ffffff;stroke-linejoin:miter;"/>
    </g>
    <g clip-path="url(#p9b64b4f75a)">
     <!-- 21 -->
     <g transform="translate(419.698036 1014.064848)rotate(-304.980904)scale(0.1 -0.1)">
      <use xlink:href="#DejaVuSans-32"/>
      <use x="63.623047" xlink:href="#DejaVuSans-31"/>
     </g>
    </g>
   </g>
   <g id="text_14">
    <g id="patch_109">
     <path clip-path="url(#p9b64b4f75a)" d="M 586.148244 601.927705 
L 592.392096 600.704709 
Q 595.336152 600.128051 594.759494 597.183995 
L 592.89917 587.686348 
Q 592.322512 584.742292 589.378456 585.31895 
L 583.134604 586.541947 
Q 580.190548 587.118605 580.767206 590.062661 
L 582.62753 599.560308 
Q 583.204188 602.504364 586.148244 601.927705 
z
" style="fill:#ffffff;stroke:#ffffff;stroke-linejoin:miter;"/>
    </g>
    <g clip-path="url(#p9b64b4f75a)">
     <!-- 4 -->
     <g transform="translate(585.17183 596.942744)rotate(-11.082336)scale(0.1 -0.1)">
      <use xlink:href="#DejaVuSans-34"/>
     </g>
    </g>
   </g>
   <g id="text_15">
    <g id="patch_110">
     <path clip-path="url(#p9b64b4f75a)" d="M 638.897626 1206.205984 
L 651.236298 1203.094264 
Q 654.145218 1202.360656 653.411611 1199.451736 
L 651.044961 1190.067436 
Q 650.311353 1187.158516 647.402433 1187.892124 
L 635.063761 1191.003843 
Q 632.15484 1191.737451 632.888448 1194.646372 
L 635.255097 1204.030671 
Q 635.988705 1206.939592 638.897626 1206.205984 
z
" style="fill:#ffffff;stroke:#ffffff;stroke-linejoin:miter;"/>
    </g>
    <g clip-path="url(#p9b64b4f75a)">
     <!-- 49 -->
     <defs>
      <path d="M 10.984375 1.515625 
L 10.984375 10.5 
Q 14.703125 8.734375 18.5 7.8125 
Q 22.3125 6.890625 25.984375 6.890625 
Q 35.75 6.890625 40.890625 13.453125 
Q 46.046875 20.015625 46.78125 33.40625 
Q 43.953125 29.203125 39.59375 26.953125 
Q 35.25 24.703125 29.984375 24.703125 
Q 19.046875 24.703125 12.671875 31.3125 
Q 6.296875 37.9375 6.296875 49.421875 
Q 6.296875 60.640625 12.9375 67.421875 
Q 19.578125 74.21875 30.609375 74.21875 
Q 43.265625 74.21875 49.921875 64.515625 
Q 56.59375 54.828125 56.59375 36.375 
Q 56.59375 19.140625 48.40625 8.859375 
Q 40.234375 -1.421875 26.421875 -1.421875 
Q 22.703125 -1.421875 18.890625 -0.6875 
Q 15.09375 0.046875 10.984375 1.515625 
z
M 30.609375 32.421875 
Q 37.25 32.421875 41.125 36.953125 
Q 45.015625 41.5 45.015625 49.421875 
Q 45.015625 57.28125 41.125 61.84375 
Q 37.25 66.40625 30.609375 66.40625 
Q 23.96875 66.40625 20.09375 61.84375 
Q 16.21875 57.28125 16.21875 49.421875 
Q 16.21875 41.5 20.09375 36.953125 
Q 23.96875 32.421875 30.609375 32.421875 
z
" id="DejaVuSans-39"/>
     </defs>
     <g transform="translate(637.65546 1201.280515)rotate(-14.154411)scale(0.1 -0.1)">
      <use xlink:href="#DejaVuSans-34"/>
      <use x="63.623047" xlink:href="#DejaVuSans-39"/>
     </g>
    </g>
   </g>
   <g id="text_16">
    <g id="patch_111">
     <path clip-path="url(#p9b64b4f75a)" d="M 436.288525 712.423795 
L 448.594283 715.663229 
Q 451.495445 716.426947 452.259162 713.525785 
L 454.722946 704.166519 
Q 455.486663 701.265358 452.585502 700.50164 
L 440.279743 697.262206 
Q 437.378582 696.498489 436.614865 699.39965 
L 434.151081 708.758917 
Q 433.387364 711.660078 436.288525 712.423795 
z
" style="fill:#ffffff;stroke:#ffffff;stroke-linejoin:miter;"/>
    </g>
    <g clip-path="url(#p9b64b4f75a)">
     <!-- 50 -->
     <defs>
      <path d="M 10.796875 72.90625 
L 49.515625 72.90625 
L 49.515625 64.59375 
L 19.828125 64.59375 
L 19.828125 46.734375 
Q 21.96875 47.46875 24.109375 47.828125 
Q 26.265625 48.1875 28.421875 48.1875 
Q 40.625 48.1875 47.75 41.5 
Q 54.890625 34.8125 54.890625 23.390625 
Q 54.890625 11.625 47.5625 5.09375 
Q 40.234375 -1.421875 26.90625 -1.421875 
Q 22.3125 -1.421875 17.546875 -0.640625 
Q 12.796875 0.140625 7.71875 1.703125 
L 7.71875 11.625 
Q 12.109375 9.234375 16.796875 8.0625 
Q 21.484375 6.890625 26.703125 6.890625 
Q 35.15625 6.890625 40.078125 11.328125 
Q 45.015625 15.765625 45.015625 23.390625 
Q 45.015625 31 40.078125 35.4375 
Q 35.15625 39.890625 26.703125 39.890625 
Q 22.75 39.890625 18.8125 39.015625 
Q 14.890625 38.140625 10.796875 36.28125 
z
" id="DejaVuSans-35"/>
     </defs>
     <g transform="translate(437.581673 707.511464)rotate(-345.251749)scale(0.1 -0.1)">
      <use xlink:href="#DejaVuSans-35"/>
      <use x="63.623047" xlink:href="#DejaVuSans-30"/>
     </g>
    </g>
   </g>
   <g id="text_17">
    <g id="patch_112">
     <path clip-path="url(#p9b64b4f75a)" d="M 1007.973963 596.1821 
L 1012.47638 584.280257 
Q 1013.537854 581.474321 1010.731918 580.412848 
L 1001.679854 576.988489 
Q 998.873918 575.927016 997.812445 578.732951 
L 993.310027 590.634794 
Q 992.248554 593.440729 995.054489 594.502203 
L 1004.106554 597.926561 
Q 1006.912489 598.988035 1007.973963 596.1821 
z
" style="fill:#ffffff;stroke:#ffffff;stroke-linejoin:miter;"/>
    </g>
    <g clip-path="url(#p9b64b4f75a)">
     <!-- 15 -->
     <g transform="translate(1003.222871 594.384781)rotate(-69.278579)scale(0.1 -0.1)">
      <use xlink:href="#DejaVuSans-31"/>
      <use x="63.623047" xlink:href="#DejaVuSans-35"/>
     </g>
    </g>
   </g>
   <g id="text_18">
    <g id="patch_113">
     <path clip-path="url(#p9b64b4f75a)" d="M 434.73009 626.913279 
L 440.172762 615.410977 
Q 441.455907 612.699236 438.744166 611.416091 
L 429.995976 607.276613 
Q 427.284235 605.993469 426.00109 608.70521 
L 420.558418 620.207512 
Q 419.275274 622.919253 421.987015 624.202397 
L 430.735205 628.341875 
Q 433.446946 629.62502 434.73009 626.913279 
z
" style="fill:#ffffff;stroke:#ffffff;stroke-linejoin:miter;"/>
    </g>
    <g clip-path="url(#p9b64b4f75a)">
     <!-- 20 -->
     <g transform="translate(430.138491 624.740621)rotate(-64.677372)scale(0.1 -0.1)">
      <use xlink:href="#DejaVuSans-32"/>
      <use x="63.623047" xlink:href="#DejaVuSans-30"/>
     </g>
    </g>
   </g>
   <g id="text_19">
    <g id="patch_114">
     <path clip-path="url(#p9b64b4f75a)" d="M 694.654259 396.81085 
L 707.199719 398.940887 
Q 710.157391 399.443057 710.659561 396.485385 
L 712.279582 386.943811 
Q 712.781752 383.986139 709.82408 383.483969 
L 697.27862 381.353931 
Q 694.320948 380.851761 693.818778 383.809433 
L 692.198757 393.351007 
Q 691.696587 396.30868 694.654259 396.81085 
z
" style="fill:#ffffff;stroke:#ffffff;stroke-linejoin:miter;"/>
    </g>
    <g clip-path="url(#p9b64b4f75a)">
     <!-- 23 -->
     <g transform="translate(695.504548 391.802833)rotate(-350.363897)scale(0.1 -0.1)">
      <use xlink:href="#DejaVuSans-32"/>
      <use x="63.623047" xlink:href="#DejaVuSans-33"/>
     </g>
    </g>
   </g>
   <g id="text_20">
    <g id="patch_115">
     <path clip-path="url(#p9b64b4f75a)" d="M 670.297398 962.817284 
L 675.426284 974.462891 
Q 676.635451 977.208417 679.380977 975.999249 
L 688.238159 972.098424 
Q 690.983685 970.889256 689.774518 968.14373 
L 684.645631 956.498124 
Q 683.436464 953.752598 680.690938 954.961765 
L 671.833756 958.862591 
Q 669.08823 960.071758 670.297398 962.817284 
z
" style="fill:#ffffff;stroke:#ffffff;stroke-linejoin:miter;"/>
    </g>
    <g clip-path="url(#p9b64b4f75a)">
     <!-- 51 -->
     <g transform="translate(674.946202 960.769886)rotate(-293.769356)scale(0.1 -0.1)">
      <use xlink:href="#DejaVuSans-35"/>
      <use x="63.623047" xlink:href="#DejaVuSans-31"/>
     </g>
    </g>
   </g>
   <g id="text_21">
    <g id="patch_116">
     <path clip-path="url(#p9b64b4f75a)" d="M 830.98731 832.576766 
L 832.440706 819.935039 
Q 832.783353 816.954671 829.802985 816.612024 
L 820.188194 815.506629 
Q 817.207826 815.163982 816.865179 818.14435 
L 815.411783 830.786077 
Q 815.069136 833.766445 818.049504 834.109092 
L 827.664295 835.214487 
Q 830.644663 835.557134 830.98731 832.576766 
z
" style="fill:#ffffff;stroke:#ffffff;stroke-linejoin:miter;"/>
    </g>
    <g clip-path="url(#p9b64b4f75a)">
     <!-- 11 -->
     <g transform="translate(825.940864 831.996586)rotate(-83.441606)scale(0.1 -0.1)">
      <use xlink:href="#DejaVuSans-31"/>
      <use x="63.623047" xlink:href="#DejaVuSans-31"/>
     </g>
    </g>
   </g>
   <g id="text_22">
    <g id="patch_117">
     <path clip-path="url(#p9b64b4f75a)" d="M 631.956755 853.927764 
L 636.713132 865.730413 
Q 637.834478 868.512962 640.617027 867.391616 
L 649.593649 863.774107 
Q 652.376198 862.65276 651.254852 859.870211 
L 646.498475 848.067562 
Q 645.377129 845.285013 642.594579 846.406359 
L 633.617958 850.023869 
Q 630.835409 851.145215 631.956755 853.927764 
z
" style="fill:#ffffff;stroke:#ffffff;stroke-linejoin:miter;"/>
    </g>
    <g clip-path="url(#p9b64b4f75a)">
     <!-- 43 -->
     <g transform="translate(636.668249 852.029068)rotate(-291.949057)scale(0.1 -0.1)">
      <use xlink:href="#DejaVuSans-34"/>
      <use x="63.623047" xlink:href="#DejaVuSans-33"/>
     </g>
    </g>
   </g>
   <g id="text_23">
    <g id="patch_118">
     <path clip-path="url(#p9b64b4f75a)" d="M 876.088258 680.164537 
L 888.486814 683.028355 
Q 891.409852 683.703518 892.085015 680.780479 
L 894.26312 671.350635 
Q 894.938283 668.427596 892.015245 667.752433 
L 879.616689 664.888616 
Q 876.693651 664.213453 876.018488 667.136491 
L 873.840383 676.566336 
Q 873.16522 679.489374 876.088258 680.164537 
z
" style="fill:#ffffff;stroke:#ffffff;stroke-linejoin:miter;"/>
    </g>
    <g clip-path="url(#p9b64b4f75a)">
     <!-- 44 -->
     <g transform="translate(877.231464 675.215163)rotate(-346.993923)scale(0.1 -0.1)">
      <use xlink:href="#DejaVuSans-34"/>
      <use x="63.623047" xlink:href="#DejaVuSans-34"/>
     </g>
    </g>
   </g>
   <g id="text_24">
    <g id="patch_119">
     <path clip-path="url(#p9b64b4f75a)" d="M 714.812934 764.711915 
L 727.537915 764.733657 
Q 730.537911 764.738782 730.543037 761.738787 
L 730.559573 752.060676 
Q 730.564699 749.06068 727.564703 749.055555 
L 714.839722 749.033812 
Q 711.839726 749.028687 711.8346 752.028682 
L 711.818064 761.706793 
Q 711.812938 764.706789 714.812934 764.711915 
z
" style="fill:#ffffff;stroke:#ffffff;stroke-linejoin:miter;"/>
    </g>
    <g clip-path="url(#p9b64b4f75a)">
     <!-- 28 -->
     <g transform="translate(714.821613 759.632235)rotate(-359.902104)scale(0.1 -0.1)">
      <use xlink:href="#DejaVuSans-32"/>
      <use x="63.623047" xlink:href="#DejaVuSans-38"/>
     </g>
    </g>
   </g>
   <g id="text_25">
    <g id="patch_120">
     <path clip-path="url(#p9b64b4f75a)" d="M 472.481654 447.201508 
L 476.664322 442.407064 
Q 478.636503 440.146422 476.375862 438.174241 
L 469.082938 431.811901 
Q 466.822296 429.83972 464.850115 432.100361 
L 460.667447 436.894805 
Q 458.695265 439.155447 460.955907 441.127628 
L 468.248831 447.489968 
Q 470.509472 449.462149 472.481654 447.201508 
z
" style="fill:#ffffff;stroke:#ffffff;stroke-linejoin:miter;"/>
    </g>
    <g clip-path="url(#p9b64b4f75a)">
     <!-- 2 -->
     <g transform="translate(468.653869 443.862152)rotate(-48.898588)scale(0.1 -0.1)">
      <use xlink:href="#DejaVuSans-32"/>
     </g>
    </g>
   </g>
   <g id="text_26">
    <g id="patch_121">
     <path clip-path="url(#p9b64b4f75a)" d="M 579.767944 835.726989 
L 586.038925 836.802253 
Q 588.995773 837.309254 589.502774 834.352406 
L 591.138381 824.813492 
Q 591.645382 821.856644 588.688534 821.349643 
L 582.417552 820.274378 
Q 579.460704 819.767377 578.953703 822.724225 
L 577.318097 832.26314 
Q 576.811096 835.219988 579.767944 835.726989 
z
" style="fill:#ffffff;stroke:#ffffff;stroke-linejoin:miter;"/>
    </g>
    <g clip-path="url(#p9b64b4f75a)">
     <!-- 9 -->
     <g transform="translate(580.626413 830.720368)rotate(-350.270298)scale(0.1 -0.1)">
      <use xlink:href="#DejaVuSans-39"/>
     </g>
    </g>
   </g>
   <g id="text_27">
    <g id="patch_122">
     <path clip-path="url(#p9b64b4f75a)" d="M 497.094122 633.071234 
L 498.744221 645.688793 
Q 499.133243 648.663463 502.107913 648.274441 
L 511.704322 647.019442 
Q 514.678993 646.630421 514.289971 643.655751 
L 512.639872 631.038192 
Q 512.250851 628.063521 509.276181 628.452543 
L 499.679771 629.707542 
Q 496.705101 630.096563 497.094122 633.071234 
z
" style="fill:#ffffff;stroke:#ffffff;stroke-linejoin:miter;"/>
    </g>
    <g clip-path="url(#p9b64b4f75a)">
     <!-- 37 -->
     <g transform="translate(502.13092 632.412531)rotate(-277.450743)scale(0.1 -0.1)">
      <use xlink:href="#DejaVuSans-33"/>
      <use x="63.623047" xlink:href="#DejaVuSans-37"/>
     </g>
    </g>
   </g>
   <g id="text_28">
    <g id="patch_123">
     <path clip-path="url(#p9b64b4f75a)" d="M 787.992459 1042.599874 
L 792.304738 1030.627829 
Q 793.321386 1027.805343 790.4989 1026.788695 
L 781.393442 1023.508949 
Q 778.570955 1022.492301 777.554308 1025.314787 
L 773.242029 1037.286833 
Q 772.225382 1040.109319 775.047868 1041.125966 
L 784.153326 1044.405713 
Q 786.975812 1045.42236 787.992459 1042.599874 
z
" style="fill:#ffffff;stroke:#ffffff;stroke-linejoin:miter;"/>
    </g>
    <g clip-path="url(#p9b64b4f75a)">
     <!-- 14 -->
     <g transform="translate(783.213343 1040.878457)rotate(-70.191199)scale(0.1 -0.1)">
      <use xlink:href="#DejaVuSans-31"/>
      <use x="63.623047" xlink:href="#DejaVuSans-34"/>
     </g>
    </g>
   </g>
   <g id="text_29">
    <g id="patch_124">
     <path clip-path="url(#p9b64b4f75a)" d="M 372.928055 915.569821 
L 381.03866 925.375111 
Q 382.950787 927.686771 385.262447 925.774644 
L 392.719957 919.606042 
Q 395.031617 917.693915 393.11949 915.382256 
L 385.008885 905.576966 
Q 383.096758 903.265306 380.785098 905.177433 
L 373.327587 911.346034 
Q 371.015928 913.258161 372.928055 915.569821 
z
" style="fill:#ffffff;stroke:#ffffff;stroke-linejoin:miter;"/>
    </g>
    <g clip-path="url(#p9b64b4f75a)">
     <!-- 25 -->
     <g transform="translate(376.842224 912.332152)rotate(-309.596406)scale(0.1 -0.1)">
      <use xlink:href="#DejaVuSans-32"/>
      <use x="63.623047" xlink:href="#DejaVuSans-35"/>
     </g>
    </g>
   </g>
   <g id="text_30">
    <g id="patch_125">
     <path clip-path="url(#p9b64b4f75a)" d="M 678.719924 703.642781 
L 690.237218 698.231906 
Q 692.952493 696.956257 691.676845 694.240982 
L 687.56155 685.48139 
Q 686.285902 682.766114 683.570626 684.041762 
L 672.053333 689.452638 
Q 669.338057 690.728286 670.613705 693.443561 
L 674.729 702.203153 
Q 676.004648 704.918429 678.719924 703.642781 
z
" style="fill:#ffffff;stroke:#ffffff;stroke-linejoin:miter;"/>
    </g>
    <g clip-path="url(#p9b64b4f75a)">
     <!-- 32 -->
     <g transform="translate(676.559959 699.045197)rotate(-25.164344)scale(0.1 -0.1)">
      <use xlink:href="#DejaVuSans-33"/>
      <use x="63.623047" xlink:href="#DejaVuSans-32"/>
     </g>
    </g>
   </g>
   <g id="text_31">
    <g id="patch_126">
     <path clip-path="url(#p9b64b4f75a)" d="M 608.716831 780.749525 
L 613.88403 792.378183 
Q 615.10223 795.119713 617.84376 793.901513 
L 626.688051 789.971548 
Q 629.429582 788.753348 628.211381 786.011818 
L 623.044182 774.38316 
Q 621.825982 771.64163 619.084452 772.85983 
L 610.240161 776.789795 
Q 607.498631 778.007995 608.716831 780.749525 
z
" style="fill:#ffffff;stroke:#ffffff;stroke-linejoin:miter;"/>
    </g>
    <g clip-path="url(#p9b64b4f75a)">
     <!-- 35 -->
     <g transform="translate(613.35887 778.686833)rotate(-293.957991)scale(0.1 -0.1)">
      <use xlink:href="#DejaVuSans-33"/>
      <use x="63.623047" xlink:href="#DejaVuSans-35"/>
     </g>
    </g>
   </g>
   <g id="text_32">
    <g id="patch_127">
     <path clip-path="url(#p9b64b4f75a)" d="M 631.674879 879.959685 
L 643.427774 884.837706 
Q 646.198594 885.98773 647.348619 883.21691 
L 651.058646 874.278129 
Q 652.20867 871.507309 649.43785 870.357285 
L 637.684955 865.479264 
Q 634.914135 864.32924 633.76411 867.10006 
L 630.054084 876.038841 
Q 628.904059 878.809661 631.674879 879.959685 
z
" style="fill:#ffffff;stroke:#ffffff;stroke-linejoin:miter;"/>
    </g>
    <g clip-path="url(#p9b64b4f75a)">
     <!-- 12 -->
     <g transform="translate(633.622134 875.268052)rotate(-337.459184)scale(0.1 -0.1)">
      <use xlink:href="#DejaVuSans-31"/>
      <use x="63.623047" xlink:href="#DejaVuSans-32"/>
     </g>
    </g>
   </g>
   <g id="text_33">
    <g id="patch_128">
     <path clip-path="url(#p9b64b4f75a)" d="M 582.549918 741.048303 
L 594.149775 735.816769 
Q 596.884516 734.583402 595.651148 731.848661 
L 591.672254 723.026275 
Q 590.438886 720.291535 587.704146 721.524902 
L 576.104289 726.756436 
Q 573.369549 727.989803 574.602916 730.724543 
L 578.581811 739.54693 
Q 579.815178 742.28167 582.549918 741.048303 
z
" style="fill:#ffffff;stroke:#ffffff;stroke-linejoin:miter;"/>
    </g>
    <g clip-path="url(#p9b64b4f75a)">
     <!-- 39 -->
     <g transform="translate(580.461545 736.417761)rotate(-24.275366)scale(0.1 -0.1)">
      <use xlink:href="#DejaVuSans-33"/>
      <use x="63.623047" xlink:href="#DejaVuSans-39"/>
     </g>
    </g>
   </g>
   <g id="text_34">
    <g id="patch_129">
     <path clip-path="url(#p9b64b4f75a)" d="M 767.567184 787.200312 
L 773.47142 784.829361 
Q 776.255343 783.711428 775.137409 780.927505 
L 771.530909 771.946455 
Q 770.412976 769.162533 767.629053 770.280466 
L 761.724817 772.651417 
Q 758.940895 773.76935 760.058828 776.553273 
L 763.665328 785.534323 
Q 764.783262 788.318245 767.567184 787.200312 
z
" style="fill:#ffffff;stroke:#ffffff;stroke-linejoin:miter;"/>
    </g>
    <g clip-path="url(#p9b64b4f75a)">
     <!-- 7 -->
     <g transform="translate(765.674267 782.486493)rotate(-21.878802)scale(0.1 -0.1)">
      <use xlink:href="#DejaVuSans-37"/>
     </g>
    </g>
   </g>
   <g id="text_35">
    <g id="patch_130">
     <path clip-path="url(#p9b64b4f75a)" d="M 970.830414 640.583854 
L 982.151882 646.393327 
Q 984.820991 647.762947 986.190611 645.093839 
L 990.609063 636.483183 
Q 991.978684 633.814075 989.309575 632.444455 
L 977.988107 626.634982 
Q 975.318998 625.265362 973.949378 627.93447 
L 969.530926 636.545125 
Q 968.161305 639.214234 970.830414 640.583854 
z
" style="fill:#ffffff;stroke:#ffffff;stroke-linejoin:miter;"/>
    </g>
    <g clip-path="url(#p9b64b4f75a)">
     <!-- 29 -->
     <g transform="translate(973.149495 636.064442)rotate(-332.835929)scale(0.1 -0.1)">
      <use xlink:href="#DejaVuSans-32"/>
      <use x="63.623047" xlink:href="#DejaVuSans-39"/>
     </g>
    </g>
   </g>
   <g id="text_36">
    <g id="patch_131">
     <path clip-path="url(#p9b64b4f75a)" d="M 578.475906 693.989584 
L 584.282596 705.31248 
Q 585.651561 707.981925 588.321006 706.612961 
L 596.932747 702.196625 
Q 599.602192 700.827661 598.233227 698.158216 
L 592.426537 686.83532 
Q 591.057573 684.165875 588.388128 685.534839 
L 579.776387 689.951175 
Q 577.106942 691.320139 578.475906 693.989584 
z
" style="fill:#ffffff;stroke:#ffffff;stroke-linejoin:miter;"/>
    </g>
    <g clip-path="url(#p9b64b4f75a)">
     <!-- 36 -->
     <g transform="translate(582.995888 691.671614)rotate(-297.14999)scale(0.1 -0.1)">
      <use xlink:href="#DejaVuSans-33"/>
      <use x="63.623047" xlink:href="#DejaVuSans-36"/>
     </g>
    </g>
   </g>
   <g id="text_37">
    <g id="patch_132">
     <path clip-path="url(#p9b64b4f75a)" d="M 788.076347 587.295605 
L 789.101537 574.611969 
Q 789.343232 571.621721 786.352984 571.380026 
L 776.706319 570.600308 
Q 773.716071 570.358613 773.474376 573.348861 
L 772.449186 586.032497 
Q 772.207491 589.022745 775.197739 589.26444 
L 784.844404 590.044158 
Q 787.834652 590.285853 788.076347 587.295605 
z
" style="fill:#ffffff;stroke:#ffffff;stroke-linejoin:miter;"/>
    </g>
    <g clip-path="url(#p9b64b4f75a)">
     <!-- 52 -->
     <g transform="translate(783.013172 586.88636)rotate(-85.378957)scale(0.1 -0.1)">
      <use xlink:href="#DejaVuSans-35"/>
      <use x="63.623047" xlink:href="#DejaVuSans-32"/>
     </g>
    </g>
   </g>
   <g id="text_38">
    <g id="patch_133">
     <path clip-path="url(#p9b64b4f75a)" d="M 674.278545 422.356673 
L 676.311075 434.918299 
Q 676.790257 437.879782 679.75174 437.4006 
L 689.30561 435.85474 
Q 692.267093 435.375558 691.787911 432.414075 
L 689.755382 419.852449 
Q 689.2762 416.890965 686.314716 417.370147 
L 676.760847 418.916007 
Q 673.799364 419.395189 674.278545 422.356673 
z
" style="fill:#ffffff;stroke:#ffffff;stroke-linejoin:miter;"/>
    </g>
    <g clip-path="url(#p9b64b4f75a)">
     <!-- 17 -->
     <g transform="translate(679.293016 421.545308)rotate(-279.191067)scale(0.1 -0.1)">
      <use xlink:href="#DejaVuSans-31"/>
      <use x="63.623047" xlink:href="#DejaVuSans-37"/>
     </g>
    </g>
   </g>
   <g id="text_39">
    <g id="patch_134">
     <path clip-path="url(#p9b64b4f75a)" d="M 268.30189 836.16826 
L 271.036576 830.423446 
Q 272.326016 827.714692 269.617262 826.425253 
L 260.87871 822.265467 
Q 258.169957 820.976027 256.880517 823.684781 
L 254.145831 829.429596 
Q 252.856391 832.138349 255.565145 833.427789 
L 264.303696 837.587574 
Q 267.01245 838.877014 268.30189 836.16826 
z
" style="fill:#ffffff;stroke:#ffffff;stroke-linejoin:miter;"/>
    </g>
    <g clip-path="url(#p9b64b4f75a)">
     <!-- 3 -->
     <g transform="translate(263.715349 833.984944)rotate(-64.544295)scale(0.1 -0.1)">
      <use xlink:href="#DejaVuSans-33"/>
     </g>
    </g>
   </g>
   <g id="text_40">
    <g id="patch_135">
     <path clip-path="url(#p9b64b4f75a)" d="M 689.494449 688.730501 
L 701.537996 692.838861 
Q 704.377339 693.807433 705.345911 690.96809 
L 708.470564 681.808251 
Q 709.439136 678.968908 706.599793 678.000336 
L 694.556247 673.891977 
Q 691.716904 672.923405 690.748332 675.762748 
L 687.623678 684.922586 
Q 686.655106 687.761929 689.494449 688.730501 
z
" style="fill:#ffffff;stroke:#ffffff;stroke-linejoin:miter;"/>
    </g>
    <g clip-path="url(#p9b64b4f75a)">
     <!-- 34 -->
     <g transform="translate(691.134464 683.922843)rotate(-341.164188)scale(0.1 -0.1)">
      <use xlink:href="#DejaVuSans-33"/>
      <use x="63.623047" xlink:href="#DejaVuSans-34"/>
     </g>
    </g>
   </g>
   <g id="text_41">
    <g id="patch_136">
     <path clip-path="url(#p9b64b4f75a)" d="M 789.437447 753.09478 
L 794.700899 741.509371 
Q 795.941791 738.778037 793.210457 737.537144 
L 784.399059 733.533974 
Q 781.667725 732.293082 780.426833 735.024416 
L 775.163381 746.609825 
Q 773.922489 749.341159 776.653823 750.582051 
L 785.465221 754.585222 
Q 788.196555 755.826114 789.437447 753.09478 
z
" style="fill:#ffffff;stroke:#ffffff;stroke-linejoin:miter;"/>
    </g>
    <g clip-path="url(#p9b64b4f75a)">
     <!-- 41 -->
     <g transform="translate(784.812673 750.993665)rotate(-65.56688)scale(0.1 -0.1)">
      <use xlink:href="#DejaVuSans-34"/>
      <use x="63.623047" xlink:href="#DejaVuSans-31"/>
     </g>
    </g>
   </g>
   <g id="text_42">
    <g id="patch_137">
     <path clip-path="url(#p9b64b4f75a)" d="M 713.642254 492.903131 
L 725.206131 498.213721 
Q 727.932389 499.465726 729.184394 496.739468 
L 733.223416 487.944447 
Q 734.475422 485.218189 731.749164 483.966183 
L 720.185286 478.655593 
Q 717.459029 477.403588 716.207023 480.129846 
L 712.168001 488.924867 
Q 710.915996 491.651125 713.642254 492.903131 
z
" style="fill:#ffffff;stroke:#ffffff;stroke-linejoin:miter;"/>
    </g>
    <g clip-path="url(#p9b64b4f75a)">
     <!-- 31 -->
     <g transform="translate(715.762186 488.286951)rotate(-335.333541)scale(0.1 -0.1)">
      <use xlink:href="#DejaVuSans-33"/>
      <use x="63.623047" xlink:href="#DejaVuSans-31"/>
     </g>
    </g>
   </g>
   <g id="text_43">
    <g id="patch_138">
     <path clip-path="url(#p9b64b4f75a)" d="M 630.484617 976.561558 
L 642.832739 973.487555 
Q 645.743888 972.762839 645.019172 969.85169 
L 642.681208 960.460203 
Q 641.956492 957.549054 639.045343 958.27377 
L 626.697221 961.347774 
Q 623.786072 962.07249 624.510788 964.983638 
L 626.848752 974.375125 
Q 627.573468 977.286274 630.484617 976.561558 
z
" style="fill:#ffffff;stroke:#ffffff;stroke-linejoin:miter;"/>
    </g>
    <g clip-path="url(#p9b64b4f75a)">
     <!-- 24 -->
     <g transform="translate(629.257507 971.632316)rotate(-13.979339)scale(0.1 -0.1)">
      <use xlink:href="#DejaVuSans-32"/>
      <use x="63.623047" xlink:href="#DejaVuSans-34"/>
     </g>
    </g>
   </g>
   <g id="text_44">
    <g id="patch_139">
     <path clip-path="url(#p9b64b4f75a)" d="M 592.044198 1100.24115 
L 604.110148 1104.283241 
Q 606.954772 1105.236189 607.907721 1102.391565 
L 610.981973 1093.214687 
Q 611.934921 1090.370063 609.090297 1089.417114 
L 597.024348 1085.375024 
Q 594.179723 1084.422075 593.226774 1087.2667 
L 590.152522 1096.443577 
Q 589.199574 1099.288202 592.044198 1100.24115 
z
" style="fill:#ffffff;stroke:#ffffff;stroke-linejoin:miter;"/>
    </g>
    <g clip-path="url(#p9b64b4f75a)">
     <!-- 46 -->
     <g transform="translate(593.657759 1095.424549)rotate(-341.479161)scale(0.1 -0.1)">
      <use xlink:href="#DejaVuSans-34"/>
      <use x="63.623047" xlink:href="#DejaVuSans-36"/>
     </g>
    </g>
   </g>
   <g id="text_45">
    <g id="patch_140">
     <path clip-path="url(#p9b64b4f75a)" d="M 386.970387 1132.892592 
L 399.663738 1131.995669 
Q 402.656277 1131.784214 402.444821 1128.791676 
L 401.762658 1119.137622 
Q 401.551203 1116.145083 398.558664 1116.356538 
L 385.865313 1117.253461 
Q 382.872775 1117.464917 383.08423 1120.457455 
L 383.766394 1130.111509 
Q 383.977849 1133.104047 386.970387 1132.892592 
z
" style="fill:#ffffff;stroke:#ffffff;stroke-linejoin:miter;"/>
    </g>
    <g clip-path="url(#p9b64b4f75a)">
     <!-- 48 -->
     <g transform="translate(386.612345 1127.825539)rotate(-4.04185)scale(0.1 -0.1)">
      <use xlink:href="#DejaVuSans-34"/>
      <use x="63.623047" xlink:href="#DejaVuSans-38"/>
     </g>
    </g>
   </g>
   <g id="text_46">
    <g id="patch_141">
     <path clip-path="url(#p9b64b4f75a)" d="M 298.457516 732.630465 
L 305.481905 722.019924 
Q 307.13795 719.518421 304.636447 717.862377 
L 296.566495 712.519908 
Q 294.064992 710.863863 292.408947 713.365366 
L 285.384558 723.975907 
Q 283.728513 726.477409 286.230016 728.133454 
L 294.299968 733.475923 
Q 296.801471 735.131968 298.457516 732.630465 
z
" style="fill:#ffffff;stroke:#ffffff;stroke-linejoin:miter;"/>
    </g>
    <g clip-path="url(#p9b64b4f75a)">
     <!-- 19 -->
     <g transform="translate(294.221898 729.826402)rotate(-56.494647)scale(0.1 -0.1)">
      <use xlink:href="#DejaVuSans-31"/>
      <use x="63.623047" xlink:href="#DejaVuSans-39"/>
     </g>
    </g>
   </g>
   <g id="text_47">
    <g id="patch_142">
     <path clip-path="url(#p9b64b4f75a)" d="M 601.000375 344.218461 
L 612.611331 339.011608 
Q 615.348689 337.78406 614.12114 335.046702 
L 610.161017 326.215874 
Q 608.933468 323.478517 606.196111 324.706066 
L 594.585154 329.912918 
Q 591.847797 331.140467 593.075346 333.877824 
L 597.035469 342.708652 
Q 598.263018 345.44601 601.000375 344.218461 
z
" style="fill:#ffffff;stroke:#ffffff;stroke-linejoin:miter;"/>
    </g>
    <g clip-path="url(#p9b64b4f75a)">
     <!-- 16 -->
     <g transform="translate(598.921854 339.583488)rotate(-24.153517)scale(0.1 -0.1)">
      <use xlink:href="#DejaVuSans-31"/>
      <use x="63.623047" xlink:href="#DejaVuSans-36"/>
     </g>
    </g>
   </g>
   <g id="text_48">
    <g id="patch_143">
     <path clip-path="url(#p9b64b4f75a)" d="M 807.663507 684.105451 
L 809.674608 678.069154 
Q 810.622867 675.222963 807.776676 674.274704 
L 798.594745 671.215578 
Q 795.748554 670.267319 794.800295 673.11351 
L 792.789194 679.149807 
Q 791.840934 681.995998 794.687125 682.944257 
L 803.869056 686.003383 
Q 806.715247 686.951642 807.663507 684.105451 
z
" style="fill:#ffffff;stroke:#ffffff;stroke-linejoin:miter;"/>
    </g>
    <g clip-path="url(#p9b64b4f75a)">
     <!-- 8 -->
     <g transform="translate(802.844253 682.49983)rotate(-71.573579)scale(0.1 -0.1)">
      <use xlink:href="#DejaVuSans-38"/>
     </g>
    </g>
   </g>
   <g id="text_49">
    <g id="patch_144">
     <path clip-path="url(#p9b64b4f75a)" d="M 849.430918 719.242172 
L 850.028296 731.953142 
Q 850.169132 734.949834 853.165825 734.808998 
L 862.833279 734.354656 
Q 865.829972 734.21382 865.689136 731.217128 
L 865.091757 718.506157 
Q 864.950921 715.509465 861.954229 715.650301 
L 852.286774 716.104643 
Q 849.290082 716.245479 849.430918 719.242172 
z
" style="fill:#ffffff;stroke:#ffffff;stroke-linejoin:miter;"/>
    </g>
    <g clip-path="url(#p9b64b4f75a)">
     <!-- 30 -->
     <g transform="translate(854.505005 719.003704)rotate(-272.690756)scale(0.1 -0.1)">
      <use xlink:href="#DejaVuSans-33"/>
      <use x="63.623047" xlink:href="#DejaVuSans-30"/>
     </g>
    </g>
   </g>
   <g id="text_50">
    <g id="patch_145">
     <path clip-path="url(#p9b64b4f75a)" d="M 881.120763 779.422472 
L 887.418385 778.516181 
Q 890.387794 778.088854 889.960467 775.119445 
L 888.58189 765.540007 
Q 888.154563 762.570598 885.185153 762.997925 
L 878.887531 763.904216 
Q 875.918122 764.331543 876.34545 767.300952 
L 877.724026 776.88039 
Q 878.151354 779.8498 881.120763 779.422472 
z
" style="fill:#ffffff;stroke:#ffffff;stroke-linejoin:miter;"/>
    </g>
    <g clip-path="url(#p9b64b4f75a)">
     <!-- 5 -->
     <g transform="translate(880.397199 774.394582)rotate(-8.189209)scale(0.1 -0.1)">
      <use xlink:href="#DejaVuSans-35"/>
     </g>
    </g>
   </g>
   <g id="text_51">
    <g id="patch_146">
     <path clip-path="url(#p9b64b4f75a)" d="M 506.376019 720.229971 
L 518.390548 716.037511 
Q 521.22305 715.049112 520.234651 712.21661 
L 517.046034 703.078841 
Q 516.057634 700.246339 513.225133 701.234738 
L 501.210604 705.427198 
Q 498.378102 706.415597 499.366501 709.248099 
L 502.555118 718.385868 
Q 503.543517 721.21837 506.376019 720.229971 
z
" style="fill:#ffffff;stroke:#ffffff;stroke-linejoin:miter;"/>
    </g>
    <g clip-path="url(#p9b64b4f75a)">
     <!-- 45 -->
     <g transform="translate(504.702433 715.433896)rotate(-19.236392)scale(0.1 -0.1)">
      <use xlink:href="#DejaVuSans-34"/>
      <use x="63.623047" xlink:href="#DejaVuSans-35"/>
     </g>
    </g>
   </g>
   <g id="text_52">
    <g id="patch_147">
     <path clip-path="url(#p9b64b4f75a)" d="M 677.695265 1079.727757 
L 687.293602 1071.373263 
Q 689.556471 1069.403638 687.586846 1067.140769 
L 681.232753 1059.840659 
Q 679.263128 1057.57779 677.000259 1059.547415 
L 667.401922 1067.901908 
Q 665.139053 1069.871534 667.108678 1072.134403 
L 673.462771 1079.434513 
Q 675.432396 1081.697382 677.695265 1079.727757 
z
" style="fill:#ffffff;stroke:#ffffff;stroke-linejoin:miter;"/>
    </g>
    <g clip-path="url(#p9b64b4f75a)">
     <!-- 47 -->
     <g transform="translate(674.360238 1075.896201)rotate(-41.036655)scale(0.1 -0.1)">
      <use xlink:href="#DejaVuSans-34"/>
      <use x="63.623047" xlink:href="#DejaVuSans-37"/>
     </g>
    </g>
   </g>
   <g id="text_53">
    <g id="patch_148">
     <path clip-path="url(#p9b64b4f75a)" d="M 710.919826 495.038822 
L 721.037424 487.321321 
Q 723.422713 485.501871 721.603263 483.116582 
L 715.733641 475.421542 
Q 713.914191 473.036254 711.528902 474.855704 
L 701.411304 482.573204 
Q 699.026015 484.392654 700.845465 486.777943 
L 706.715087 494.472983 
Q 708.534537 496.858272 710.919826 495.038822 
z
" style="fill:#ffffff;stroke:#ffffff;stroke-linejoin:miter;"/>
    </g>
    <g clip-path="url(#p9b64b4f75a)">
     <!-- 53 -->
     <g transform="translate(707.83908 490.999982)rotate(-37.335659)scale(0.1 -0.1)">
      <use xlink:href="#DejaVuSans-35"/>
      <use x="63.623047" xlink:href="#DejaVuSans-33"/>
     </g>
    </g>
   </g>
   <g id="text_54">
    <g id="patch_149">
     <path clip-path="url(#p9b64b4f75a)" d="M 678.719924 703.642781 
L 690.237218 698.231906 
Q 692.952493 696.956257 691.676845 694.240982 
L 687.56155 685.48139 
Q 686.285902 682.766114 683.570626 684.041762 
L 672.053333 689.452638 
Q 669.338057 690.728286 670.613705 693.443561 
L 674.729 702.203153 
Q 676.004648 704.918429 678.719924 703.642781 
z
" style="fill:#ffffff;stroke:#ffffff;stroke-linejoin:miter;"/>
    </g>
    <g clip-path="url(#p9b64b4f75a)">
     <!-- 38 -->
     <g transform="translate(676.559959 699.045197)rotate(-25.164344)scale(0.1 -0.1)">
      <use xlink:href="#DejaVuSans-33"/>
      <use x="63.623047" xlink:href="#DejaVuSans-38"/>
     </g>
    </g>
   </g>
  </g>
 </g>
 <defs>
  <clipPath id="p9b64b4f75a">
   <rect height="1343.619" width="1303.532993" x="39.433503" y="56.1105"/>
  </clipPath>
 </defs>
</svg>
