<?xml version="1.0" encoding="utf-8" standalone="no"?>
<!DOCTYPE svg PUBLIC "-//W3C//DTD SVG 1.1//EN"
  "http://www.w3.org/Graphics/SVG/1.1/DTD/svg11.dtd">
<!-- Created with matplotlib (http://matplotlib.org/) -->
<svg height="1455pt" version="1.1" viewBox="0 0 1382 1455" width="1382pt" xmlns="http://www.w3.org/2000/svg" xmlns:xlink="http://www.w3.org/1999/xlink">
 <defs>
  <style type="text/css">
*{stroke-linecap:butt;stroke-linejoin:round;}
  </style>
 </defs>
 <g id="figure_1">
  <g id="patch_1">
   <path d="M 0 1455.84 
L 1382.4 1455.84 
L 1382.4 0 
L 0 0 
z
" style="fill:#ffffff;"/>
  </g>
  <g id="axes_1">
   <g id="patch_2">
    <path clip-path="url(#pac40fd483e)" d="M 454.299204 1135.864745 
L 454.299204 1135.864745 
L 453.097765 1133.349659 
L 1006.847199 868.827364 
L 1008.048638 871.34245 
L 1009.250078 873.857536 
L 455.500643 1138.379831 
L 454.299204 1135.864745 
z
" style="fill:#f6b394;"/>
   </g>
   <g id="patch_3">
    <path clip-path="url(#pac40fd483e)" d="M 616.088982 612.6182 
L 616.088982 612.6182 
L 618.153212 614.491184 
L 497.029134 747.982864 
L 494.964905 746.109879 
L 492.900675 744.236895 
L 614.024753 610.745215 
L 616.088982 612.6182 
z
" style="fill:#b7b7b7;"/>
   </g>
   <g id="patch_4">
    <path clip-path="url(#pac40fd483e)" d="M 304.152021 564.111596 
L 304.152021 564.111597 
L 306.881619 563.547319 
L 378.647846 910.704484 
L 375.918248 911.268761 
L 373.188651 911.833039 
L 301.422424 564.675874 
L 304.152021 564.111597 
z
" style="fill:#d7634f;"/>
   </g>
   <g id="patch_5">
    <path clip-path="url(#pac40fd483e)" d="M 454.299204 1135.864745 
L 454.299204 1135.864745 
L 451.667545 1136.783159 
L 373.286589 912.187175 
L 375.918248 911.268761 
L 378.549908 910.350348 
L 456.930863 1134.946332 
L 454.299204 1135.864745 
z
" style="fill:#e6866a;"/>
   </g>
   <g id="patch_6">
    <path clip-path="url(#pac40fd483e)" d="M 304.152021 564.111597 
L 304.152021 564.111597 
L 306.21058 562.232381 
L 640.019027 927.89797 
L 637.960468 929.777185 
L 635.90191 931.6564 
L 302.093463 565.990812 
L 304.152021 564.111597 
z
" style="fill:#d7d7d7;"/>
   </g>
   <g id="patch_7">
    <path clip-path="url(#pac40fd483e)" d="M 552.18399 451.56612 
L 552.18399 451.56612 
L 554.774797 450.538095 
L 618.679789 611.590175 
L 616.088982 612.6182 
L 613.498176 613.646224 
L 549.593184 452.594144 
L 552.18399 451.56612 
z
" style="fill:#e58368;"/>
   </g>
   <g id="patch_8">
    <path clip-path="url(#pac40fd483e)" d="M 951.430622 980.48435 
L 951.430622 980.48435 
L 952.560194 983.032522 
L 632.799258 1124.778377 
L 631.669686 1122.230205 
L 630.540115 1119.682032 
L 950.301051 977.936178 
L 951.430622 980.48435 
z
" style="fill:#fde3d4;"/>
   </g>
   <g id="patch_9">
    <path clip-path="url(#pac40fd483e)" d="M 951.430622 980.48435 
L 951.430622 980.48435 
L 951.097797 983.251721 
L 375.585423 914.036132 
L 375.918248 911.268761 
L 376.251074 908.501391 
L 951.763448 977.716979 
L 951.430622 980.48435 
z
" style="fill:#e4e4e4;"/>
   </g>
   <g id="patch_10">
    <path clip-path="url(#pac40fd483e)" d="M 631.669686 1122.230205 
L 631.669686 1122.230205 
L 628.89978 1122.541222 
L 600.463492 869.289126 
L 603.233398 868.978108 
L 606.003304 868.667091 
L 634.439593 1121.919187 
L 631.669686 1122.230205 
z
" style="fill:#fddfce;"/>
   </g>
   <g id="patch_11">
    <path clip-path="url(#pac40fd483e)" d="M 718.133394 751.344326 
L 718.133394 751.344325 
L 715.554656 750.286393 
L 882.793557 342.637298 
L 885.372295 343.695231 
L 887.951034 344.753164 
L 720.712132 752.402258 
L 718.133394 751.344326 
z
" style="fill:#cbcbcb;"/>
   </g>
   <g id="patch_12">
    <path clip-path="url(#pac40fd483e)" d="M 337.224081 1092.272522 
L 337.224081 1092.272522 
L 335.084468 1090.486138 
L 757.00529 585.137359 
L 759.144903 586.923744 
L 761.284516 588.710128 
L 339.363694 1094.058907 
L 337.224081 1092.272522 
z
" style="fill:#67001f;"/>
   </g>
   <g id="patch_13">
    <path clip-path="url(#pac40fd483e)" d="M 1091.078133 948.593737 
L 1091.078133 948.593737 
L 1089.774974 951.057654 
L 716.830235 753.808243 
L 718.133394 751.344325 
L 719.436553 748.880408 
L 1092.381292 946.129819 
L 1091.078133 948.593737 
z
" style="fill:#dddddd;"/>
   </g>
   <g id="patch_14">
    <path clip-path="url(#pac40fd483e)" d="M 718.133394 751.344325 
L 718.133394 751.344326 
L 718.068035 754.130872 
L 494.899546 748.896426 
L 494.964905 746.109879 
L 495.030263 743.323333 
L 718.198753 748.557779 
L 718.133394 751.344325 
z
" style="fill:#f4a683;"/>
   </g>
   <g id="patch_15">
    <path clip-path="url(#pac40fd483e)" d="M 161.940715 859.452972 
L 161.940715 859.452972 
L 162.000864 856.666308 
L 603.293547 866.191445 
L 603.233398 868.978108 
L 603.173249 871.764772 
L 161.880566 862.239636 
L 161.940715 859.452972 
z
" style="fill:#e9e9e9;"/>
   </g>
   <g id="patch_16">
    <path clip-path="url(#pac40fd483e)" d="M 915.988332 705.82786 
L 915.988332 705.82786 
L 917.277485 708.299134 
L 604.522551 871.449383 
L 603.233398 868.978108 
L 601.944245 866.506834 
L 914.699178 703.356586 
L 915.988332 705.82786 
z
" style="fill:#fdd9c4;"/>
   </g>
   <g id="patch_17">
    <path clip-path="url(#pac40fd483e)" d="M 951.430622 980.48435 
L 951.430622 980.48435 
L 949.370738 982.362112 
L 614.029098 614.495961 
L 616.088982 612.6182 
L 618.148867 610.740438 
L 953.490507 978.606588 
L 951.430622 980.48435 
z
" style="fill:#dcdcdc;"/>
   </g>
   <g id="patch_18">
    <path clip-path="url(#pac40fd483e)" d="M 1091.078133 948.593737 
L 1091.078133 948.593737 
L 1088.817451 950.224206 
L 913.72765 707.45833 
L 915.988332 705.82786 
L 918.249014 704.197391 
L 1093.338815 946.963267 
L 1091.078133 948.593737 
z
" style="fill:#de735c;"/>
   </g>
   <g id="patch_19">
    <path clip-path="url(#pac40fd483e)" d="M 1123.014845 1056.311084 
L 1123.014845 1056.311084 
L 1120.614941 1057.72868 
L 913.588428 707.245456 
L 915.988332 705.82786 
L 918.388235 704.410264 
L 1125.414748 1054.893488 
L 1123.014845 1056.311084 
z
" style="fill:#e6e6e6;"/>
   </g>
   <g id="patch_20">
    <path clip-path="url(#pac40fd483e)" d="M 637.960468 929.777185 
L 637.960468 929.777185 
L 638.405561 927.025638 
L 951.875714 977.732804 
L 951.430622 980.48435 
L 950.98553 983.235896 
L 637.515376 932.528731 
L 637.960468 929.777185 
z
" style="fill:#a5a5a5;"/>
   </g>
   <g id="patch_21">
    <path clip-path="url(#pac40fd483e)" d="M 637.960468 929.777185 
L 637.960468 929.777185 
L 635.418008 928.634814 
L 715.590934 750.201955 
L 718.133394 751.344325 
L 720.675854 752.486696 
L 640.502928 930.919555 
L 637.960468 929.777185 
z
" style="fill:#b9b9b9;"/>
   </g>
   <g id="patch_22">
    <path clip-path="url(#pac40fd483e)" d="M 161.940715 859.452972 
L 161.940715 859.452972 
L 162.596718 856.743955 
L 376.574251 908.559744 
L 375.918248 911.268761 
L 375.262246 913.977778 
L 161.284713 862.161989 
L 161.940715 859.452972 
z
" style="fill:#dadada;"/>
   </g>
   <g id="patch_23">
    <path clip-path="url(#pac40fd483e)" d="M 337.224081 1092.272522 
L 337.224081 1092.272522 
L 336.352173 1089.625091 
L 1007.176731 868.695019 
L 1008.048638 871.34245 
L 1008.920546 873.989881 
L 338.095989 1094.919953 
L 337.224081 1092.272522 
z
" style="fill:#ebebeb;"/>
   </g>
   <g id="patch_24">
    <path clip-path="url(#pac40fd483e)" d="M 454.299204 1135.864745 
L 454.299204 1135.864745 
L 453.512783 1133.190674 
L 1090.291713 945.919665 
L 1091.078133 948.593737 
L 1091.864554 951.267808 
L 455.085624 1138.538816 
L 454.299204 1135.864745 
z
" style="fill:#fffefe;"/>
   </g>
   <g id="patch_25">
    <path clip-path="url(#pac40fd483e)" d="M 885.372295 343.695231 
L 885.372295 343.695231 
L 887.118797 341.522941 
L 1222.205786 610.929854 
L 1220.459285 613.102144 
L 1218.712783 615.274435 
L 883.625793 345.867521 
L 885.372295 343.695231 
z
" style="fill:#e8896c;"/>
   </g>
   <g id="patch_26">
    <path clip-path="url(#pac40fd483e)" d="M 603.233398 868.978108 
L 603.233398 868.978108 
L 604.083478 866.323588 
L 952.280702 977.82983 
L 951.430622 980.48435 
L 950.580542 983.13887 
L 602.383318 871.632629 
L 603.233398 868.978108 
z
" style="fill:#cecece;"/>
   </g>
   <g id="patch_27">
    <path clip-path="url(#pac40fd483e)" d="M 494.964905 746.109879 
L 494.964905 746.109879 
L 495.862964 748.748554 
L 162.838775 862.091646 
L 161.940715 859.452972 
L 161.042656 856.814297 
L 494.066845 743.471205 
L 494.964905 746.109879 
z
" style="fill:#ababab;"/>
   </g>
   <g id="patch_28">
    <path clip-path="url(#pac40fd483e)" d="M 454.299204 1135.864745 
L 454.299204 1135.864745 
L 451.52694 1135.575497 
L 492.19264 745.820631 
L 494.964905 746.109879 
L 497.737169 746.399128 
L 457.071468 1136.153994 
L 454.299204 1135.864745 
z
" style="fill:#e98b6e;"/>
   </g>
   <g id="patch_29">
    <path clip-path="url(#pac40fd483e)" d="M 718.133394 751.344325 
L 718.133394 751.344326 
L 720.431717 752.921293 
L 456.597527 1137.441713 
L 454.299204 1135.864745 
L 452.000881 1134.287778 
L 715.835071 749.767358 
L 718.133394 751.344325 
z
" style="fill:#fee6d9;"/>
   </g>
   <g id="patch_30">
    <path clip-path="url(#pac40fd483e)" d="M 637.960468 929.777185 
L 637.960468 929.777185 
L 635.540141 931.159621 
L 600.813071 870.360545 
L 603.233398 868.978108 
L 605.653725 867.595672 
L 640.380795 928.394748 
L 637.960468 929.777185 
z
" style="fill:#feece1;"/>
   </g>
   <g id="patch_31">
    <path clip-path="url(#pac40fd483e)" d="M 631.669686 1122.230205 
L 631.669686 1122.230205 
L 629.896055 1124.380402 
L 374.144618 913.418958 
L 375.918248 911.268761 
L 377.691879 909.118564 
L 633.443317 1120.080008 
L 631.669686 1122.230205 
z
" style="fill:#f9c6ac;"/>
   </g>
   <g id="patch_32">
    <path clip-path="url(#pac40fd483e)" d="M 718.133394 751.344325 
L 718.133394 751.344325 
L 720.086525 749.35576 
L 953.383753 978.495784 
L 951.430622 980.48435 
L 949.477491 982.472916 
L 716.180263 753.332891 
L 718.133394 751.344326 
z
" style="fill:#fffbfa;"/>
   </g>
   <g id="patch_33">
    <path clip-path="url(#pac40fd483e)" d="M 337.224081 1092.272522 
L 337.224081 1092.272522 
L 337.506213 1089.499525 
L 631.951818 1119.457207 
L 631.669686 1122.230205 
L 631.387554 1125.003202 
L 336.941949 1095.04552 
L 337.224081 1092.272522 
z
" style="fill:#9d9d9d;"/>
   </g>
   <g id="patch_34">
    <path clip-path="url(#pac40fd483e)" d="M 304.152021 564.111597 
L 304.152021 564.111597 
L 304.78098 561.396173 
L 916.61729 703.112437 
L 915.988332 705.82786 
L 915.359373 708.543284 
L 303.523063 566.82702 
L 304.152021 564.111597 
z
" style="fill:#feece1;"/>
   </g>
   <g id="patch_35">
    <path clip-path="url(#pac40fd483e)" d="M 337.224081 1092.272522 
L 337.224081 1092.272522 
L 336.702234 1089.534496 
L 1090.556286 945.85571 
L 1091.078133 948.593737 
L 1091.59998 951.331763 
L 337.745928 1095.010549 
L 337.224081 1092.272522 
z
" style="fill:#fcd3bc;"/>
   </g>
   <g id="patch_36">
    <path clip-path="url(#pac40fd483e)" d="M 161.940715 859.452972 
L 161.940715 859.452972 
L 163.301537 857.020426 
L 633.030508 1119.797659 
L 631.669686 1122.230205 
L 630.308864 1124.66275 
L 160.579893 861.885517 
L 161.940715 859.452972 
z
" style="fill:#fef4ef;"/>
   </g>
   <g id="patch_37">
    <path clip-path="url(#pac40fd483e)" d="M 885.372295 343.695231 
L 885.372295 343.695231 
L 886.230825 346.347031 
L 553.04252 454.217919 
L 552.18399 451.56612 
L 551.325461 448.91432 
L 884.513766 341.043432 
L 885.372295 343.695231 
z
" style="fill:#fddfce;"/>
   </g>
   <g id="patch_38">
    <path clip-path="url(#pac40fd483e)" d="M 304.152021 564.111597 
L 304.152021 564.111597 
L 304.580305 561.357384 
L 616.517266 609.863987 
L 616.088982 612.6182 
L 615.660699 615.372412 
L 303.723738 566.865809 
L 304.152021 564.111597 
z
" style="fill:#9c1127;"/>
   </g>
   <g id="patch_39">
    <path clip-path="url(#pac40fd483e)" d="M 718.133394 751.344326 
L 718.133394 751.344325 
L 715.428941 750.669752 
L 756.440451 586.249171 
L 759.144903 586.923744 
L 761.849356 587.598317 
L 720.837847 752.018899 
L 718.133394 751.344326 
z
" style="fill:#e48066;"/>
   </g>
   <g id="patch_40">
    <path clip-path="url(#pac40fd483e)" d="M 161.940715 859.452972 
L 161.940715 859.452972 
L 164.167492 857.776494 
L 339.450858 1090.596044 
L 337.224081 1092.272522 
L 334.997304 1093.949001 
L 159.713939 861.12945 
L 161.940715 859.452972 
z
" style="fill:#b9b9b9;"/>
   </g>
   <g id="patch_41">
    <path clip-path="url(#pac40fd483e)" d="M 885.372295 343.695231 
L 885.372295 343.695231 
L 887.846292 344.979152 
L 761.6189 588.207665 
L 759.144903 586.923744 
L 756.670906 585.639823 
L 882.898298 342.41131 
L 885.372295 343.695231 
z
" style="fill:#f0f0f0;"/>
   </g>
   <g id="patch_42">
    <path clip-path="url(#pac40fd483e)" d="M 161.940715 859.452972 
L 161.940715 859.452972 
L 163.855631 857.427581 
L 456.21412 1133.839354 
L 454.299204 1135.864745 
L 452.384288 1137.890137 
L 160.025799 861.478363 
L 161.940715 859.452972 
z
" style="fill:#e5e5e5;"/>
   </g>
   <g id="patch_43">
    <path clip-path="url(#pac40fd483e)" d="M 759.144903 586.923744 
L 759.144903 586.923744 
L 759.00533 589.70756 
L 304.012448 566.895413 
L 304.152021 564.111597 
L 304.291595 561.32778 
L 759.284477 584.139928 
L 759.144903 586.923744 
z
" style="fill:#fde1d0;"/>
   </g>
   <g id="patch_44">
    <path clip-path="url(#pac40fd483e)" d="M 161.940715 859.452972 
L 161.940715 859.452972 
L 159.429375 858.243723 
L 301.640681 562.902348 
L 304.152021 564.111597 
L 306.663362 565.320845 
L 164.452056 860.66222 
L 161.940715 859.452972 
z
" style="fill:#fffdfc;"/>
   </g>
   <g id="patch_45">
    <path clip-path="url(#pac40fd483e)" d="M 304.152021 564.111597 
L 304.152021 564.111597 
L 305.300635 561.571951 
L 719.282008 748.80468 
L 718.133394 751.344325 
L 716.98478 753.883971 
L 303.003407 566.651242 
L 304.152021 564.111597 
z
" style="fill:#c7c7c7;"/>
   </g>
   <g id="patch_46">
    <path clip-path="url(#pac40fd483e)" d="M 603.233398 868.978108 
L 603.233398 868.978108 
L 601.239437 867.030486 
L 716.139433 749.396703 
L 718.133394 751.344325 
L 720.127355 753.291948 
L 605.227359 870.92573 
L 603.233398 868.978108 
z
" style="fill:#fffdfc;"/>
   </g>
   <g id="patch_47">
    <path clip-path="url(#pac40fd483e)" d="M 337.224081 1092.272522 
L 337.224081 1092.272522 
L 335.432025 1090.137657 
L 601.441342 866.843243 
L 603.233398 868.978108 
L 605.025454 871.112974 
L 339.016137 1094.407388 
L 337.224081 1092.272522 
z
" style="fill:#fee5d6;"/>
   </g>
   <g id="patch_48">
    <path clip-path="url(#pac40fd483e)" d="M 375.918248 911.268761 
L 375.918248 911.268761 
L 373.315694 910.270853 
L 549.581436 450.568211 
L 552.18399 451.56612 
L 554.786545 452.564029 
L 378.520803 912.26667 
L 375.918248 911.268761 
z
" style="fill:#fef6f1;"/>
   </g>
   <g id="patch_49">
    <path clip-path="url(#pac40fd483e)" d="M 1220.459285 613.102144 
L 1220.459285 613.102144 
L 1221.271329 615.768546 
L 916.800376 708.494262 
L 915.988332 705.82786 
L 915.176287 703.161459 
L 1219.64724 610.435743 
L 1220.459285 613.102144 
z
" style="fill:#939393;"/>
   </g>
   <g id="patch_50">
    <path clip-path="url(#pac40fd483e)" d="M 454.299204 1135.864745 
L 454.299204 1135.864745 
L 453.326598 1138.476862 
L 336.251475 1094.884639 
L 337.224081 1092.272522 
L 338.196687 1089.660406 
L 455.27181 1133.252629 
L 454.299204 1135.864745 
z
" style="fill:#e5e5e5;"/>
   </g>
   <g id="patch_51">
    <path clip-path="url(#pac40fd483e)" d="M 603.233398 868.978108 
L 603.233398 868.978108 
L 605.667373 870.336371 
L 456.733179 1137.223008 
L 454.299204 1135.864745 
L 451.865228 1134.506483 
L 600.799423 867.619846 
L 603.233398 868.978108 
z
" style="fill:#f2f2f2;"/>
   </g>
   <g id="patch_52">
    <path clip-path="url(#pac40fd483e)" d="M 1091.078133 948.593736 
L 1091.078133 948.593737 
L 1093.750465 947.801427 
L 1125.687177 1055.518774 
L 1123.014845 1056.311084 
L 1120.342513 1057.103394 
L 1088.405801 949.386046 
L 1091.078133 948.593737 
z
" style="fill:#d1d1d1;"/>
   </g>
   <g id="patch_53">
    <path clip-path="url(#pac40fd483e)" d="M 1123.014845 1056.311084 
L 1123.014845 1056.311084 
L 1120.292552 1055.712557 
L 1217.736992 612.503618 
L 1220.459285 613.102144 
L 1223.181578 613.700671 
L 1125.737138 1056.909611 
L 1123.014845 1056.311084 
z
" style="fill:#feefe6;"/>
   </g>
   <g id="patch_54">
    <path clip-path="url(#pac40fd483e)" d="M 631.669686 1122.230205 
L 631.669686 1122.230205 
L 628.883861 1122.139143 
L 635.174643 929.686123 
L 637.960468 929.777185 
L 640.746293 929.868246 
L 634.455511 1122.321266 
L 631.669686 1122.230205 
z
" style="fill:#f5f5f5;"/>
   </g>
   <g id="patch_55">
    <path clip-path="url(#pac40fd483e)" d="M 375.918248 911.268761 
L 375.918248 911.268761 
L 376.449463 908.532537 
L 1123.546059 1053.574859 
L 1123.014845 1056.311084 
L 1122.48363 1059.047309 
L 375.387034 914.004986 
L 375.918248 911.268761 
z
" style="fill:#eaeaea;"/>
   </g>
   <g id="matplotlib.axis_1"/>
   <g id="matplotlib.axis_2"/>
   <g id="patch_56">
    <path clip-path="url(#pac40fd483e)" d="M 375.918248 927.992639 
C 380.353473 927.992639 384.607639 926.230506 387.743816 923.094329 
C 390.879993 919.958152 392.642126 915.703986 392.642126 911.268761 
C 392.642126 906.833537 390.879993 902.579371 387.743816 899.443194 
C 384.607639 896.307017 380.353473 894.544884 375.918248 894.544884 
C 371.483024 894.544884 367.228858 896.307017 364.092681 899.443194 
C 360.956504 902.579371 359.194371 906.833537 359.194371 911.268761 
C 359.194371 915.703986 360.956504 919.958152 364.092681 923.094329 
C 367.228858 926.230506 371.483024 927.992639 375.918248 927.992639 
z
"/>
   </g>
   <g id="patch_57">
    <path clip-path="url(#pac40fd483e)" d="M 304.152021 580.835474 
C 308.587246 580.835474 312.841412 579.073341 315.977589 575.937164 
C 319.113766 572.800987 320.875899 568.546821 320.875899 564.111597 
C 320.875899 559.676372 319.113766 555.422206 315.977589 552.286029 
C 312.841412 549.149852 308.587246 547.387719 304.152021 547.387719 
C 299.716797 547.387719 295.462631 549.149852 292.326454 552.286029 
C 289.190277 555.422206 287.428144 559.676372 287.428144 564.111597 
C 287.428144 568.546821 289.190277 572.800987 292.326454 575.937164 
C 295.462631 579.073341 299.716797 580.835474 304.152021 580.835474 
z
"/>
   </g>
   <g id="patch_58">
    <path clip-path="url(#pac40fd483e)" d="M 1123.014845 1073.034962 
C 1127.450069 1073.034962 1131.704235 1071.272829 1134.840412 1068.136651 
C 1137.976589 1065.000474 1139.738722 1060.746308 1139.738722 1056.311084 
C 1139.738722 1051.87586 1137.976589 1047.621694 1134.840412 1044.485517 
C 1131.704235 1041.34934 1127.450069 1039.587206 1123.014845 1039.587206 
C 1118.57962 1039.587206 1114.325454 1041.34934 1111.189277 1044.485517 
C 1108.0531 1047.621694 1106.290967 1051.87586 1106.290967 1056.311084 
C 1106.290967 1060.746308 1108.0531 1065.000474 1111.189277 1068.136651 
C 1114.325454 1071.272829 1118.57962 1073.034962 1123.014845 1073.034962 
z
"/>
   </g>
   <g id="patch_59">
    <path clip-path="url(#pac40fd483e)" d="M 631.669686 1138.954082 
C 636.10491 1138.954082 640.359076 1137.191949 643.495254 1134.055772 
C 646.631431 1130.919595 648.393564 1126.665429 648.393564 1122.230205 
C 648.393564 1117.79498 646.631431 1113.540814 643.495254 1110.404637 
C 640.359076 1107.26846 636.10491 1105.506327 631.669686 1105.506327 
C 627.234462 1105.506327 622.980296 1107.26846 619.844119 1110.404637 
C 616.707942 1113.540814 614.945808 1117.79498 614.945808 1122.230205 
C 614.945808 1126.665429 616.707942 1130.919595 619.844119 1134.055772 
C 622.980296 1137.191949 627.234462 1138.954082 631.669686 1138.954082 
z
"/>
   </g>
   <g id="patch_60">
    <path clip-path="url(#pac40fd483e)" d="M 552.18399 468.289998 
C 556.619215 468.289998 560.873381 466.527864 564.009558 463.391687 
C 567.145735 460.25551 568.907868 456.001344 568.907868 451.56612 
C 568.907868 447.130896 567.145735 442.87673 564.009558 439.740552 
C 560.873381 436.604375 556.619215 434.842242 552.18399 434.842242 
C 547.748766 434.842242 543.4946 436.604375 540.358423 439.740552 
C 537.222246 442.87673 535.460113 447.130896 535.460113 451.56612 
C 535.460113 456.001344 537.222246 460.25551 540.358423 463.391687 
C 543.4946 466.527864 547.748766 468.289998 552.18399 468.289998 
z
"/>
   </g>
   <g id="patch_61">
    <path clip-path="url(#pac40fd483e)" d="M 637.960468 946.501062 
C 642.395693 946.501062 646.649859 944.738929 649.786036 941.602752 
C 652.922213 938.466575 654.684346 934.212409 654.684346 929.777185 
C 654.684346 925.34196 652.922213 921.087794 649.786036 917.951617 
C 646.649859 914.81544 642.395693 913.053307 637.960468 913.053307 
C 633.525244 913.053307 629.271078 914.81544 626.134901 917.951617 
C 622.998724 921.087794 621.236591 925.34196 621.236591 929.777185 
C 621.236591 934.212409 622.998724 938.466575 626.134901 941.602752 
C 629.271078 944.738929 633.525244 946.501062 637.960468 946.501062 
z
"/>
   </g>
   <g id="patch_62">
    <path clip-path="url(#pac40fd483e)" d="M 1008.048638 888.066328 
C 1012.483863 888.066328 1016.738029 886.304195 1019.874206 883.168018 
C 1023.010383 880.03184 1024.772516 875.777674 1024.772516 871.34245 
C 1024.772516 866.907226 1023.010383 862.65306 1019.874206 859.516883 
C 1016.738029 856.380706 1012.483863 854.618572 1008.048638 854.618572 
C 1003.613414 854.618572 999.359248 856.380706 996.223071 859.516883 
C 993.086894 862.65306 991.324761 866.907226 991.324761 871.34245 
C 991.324761 875.777674 993.086894 880.03184 996.223071 883.168018 
C 999.359248 886.304195 1003.613414 888.066328 1008.048638 888.066328 
z
"/>
   </g>
   <g id="patch_63">
    <path clip-path="url(#pac40fd483e)" d="M 718.133394 768.068203 
C 722.568618 768.068203 726.822784 766.30607 729.958961 763.169893 
C 733.095139 760.033716 734.857272 755.77955 734.857272 751.344325 
C 734.857272 746.909101 733.095139 742.654935 729.958961 739.518758 
C 726.822784 736.382581 722.568618 734.620448 718.133394 734.620448 
C 713.69817 734.620448 709.444004 736.382581 706.307827 739.518758 
C 703.17165 742.654935 701.409516 746.909101 701.409516 751.344325 
C 701.409516 755.77955 703.17165 760.033716 706.307827 763.169893 
C 709.444004 766.30607 713.69817 768.068203 718.133394 768.068203 
z
"/>
   </g>
   <g id="patch_64">
    <path clip-path="url(#pac40fd483e)" d="M 951.430622 997.208228 
C 955.865846 997.208228 960.120012 995.446095 963.25619 992.309917 
C 966.392367 989.17374 968.1545 984.919574 968.1545 980.48435 
C 968.1545 976.049126 966.392367 971.79496 963.25619 968.658783 
C 960.120012 965.522606 955.865846 963.760472 951.430622 963.760472 
C 946.995398 963.760472 942.741232 965.522606 939.605055 968.658783 
C 936.468878 971.79496 934.706744 976.049126 934.706744 980.48435 
C 934.706744 984.919574 936.468878 989.17374 939.605055 992.309917 
C 942.741232 995.446095 946.995398 997.208228 951.430622 997.208228 
z
"/>
   </g>
   <g id="patch_65">
    <path clip-path="url(#pac40fd483e)" d="M 337.224081 1108.9964 
C 341.659305 1108.9964 345.913471 1107.234267 349.049648 1104.09809 
C 352.185826 1100.961913 353.947959 1096.707747 353.947959 1092.272522 
C 353.947959 1087.837298 352.185826 1083.583132 349.049648 1080.446955 
C 345.913471 1077.310778 341.659305 1075.548645 337.224081 1075.548645 
C 332.788857 1075.548645 328.534691 1077.310778 325.398514 1080.446955 
C 322.262337 1083.583132 320.500203 1087.837298 320.500203 1092.272522 
C 320.500203 1096.707747 322.262337 1100.961913 325.398514 1104.09809 
C 328.534691 1107.234267 332.788857 1108.9964 337.224081 1108.9964 
z
"/>
   </g>
   <g id="patch_66">
    <path clip-path="url(#pac40fd483e)" d="M 603.233398 885.701986 
C 607.668622 885.701986 611.922788 883.939853 615.058965 880.803676 
C 618.195142 877.667499 619.957276 873.413333 619.957276 868.978108 
C 619.957276 864.542884 618.195142 860.288718 615.058965 857.152541 
C 611.922788 854.016364 607.668622 852.254231 603.233398 852.254231 
C 598.798174 852.254231 594.544008 854.016364 591.407831 857.152541 
C 588.271653 860.288718 586.50952 864.542884 586.50952 868.978108 
C 586.50952 873.413333 588.271653 877.667499 591.407831 880.803676 
C 594.544008 883.939853 598.798174 885.701986 603.233398 885.701986 
z
"/>
   </g>
   <g id="patch_67">
    <path clip-path="url(#pac40fd483e)" d="M 885.372295 360.419109 
C 889.807519 360.419109 894.061685 358.656976 897.197863 355.520798 
C 900.33404 352.384621 902.096173 348.130455 902.096173 343.695231 
C 902.096173 339.260007 900.33404 335.005841 897.197863 331.869664 
C 894.061685 328.733487 889.807519 326.971353 885.372295 326.971353 
C 880.937071 326.971353 876.682905 328.733487 873.546728 331.869664 
C 870.410551 335.005841 868.648417 339.260007 868.648417 343.695231 
C 868.648417 348.130455 870.410551 352.384621 873.546728 355.520798 
C 876.682905 358.656976 880.937071 360.419109 885.372295 360.419109 
z
"/>
   </g>
   <g id="patch_68">
    <path clip-path="url(#pac40fd483e)" d="M 1091.078133 965.317614 
C 1095.513357 965.317614 1099.767523 963.555481 1102.903701 960.419304 
C 1106.039878 957.283127 1107.802011 953.028961 1107.802011 948.593737 
C 1107.802011 944.158512 1106.039878 939.904346 1102.903701 936.768169 
C 1099.767523 933.631992 1095.513357 931.869859 1091.078133 931.869859 
C 1086.642909 931.869859 1082.388743 933.631992 1079.252566 936.768169 
C 1076.116389 939.904346 1074.354255 944.158512 1074.354255 948.593737 
C 1074.354255 953.028961 1076.116389 957.283127 1079.252566 960.419304 
C 1082.388743 963.555481 1086.642909 965.317614 1091.078133 965.317614 
z
"/>
   </g>
   <g id="patch_69">
    <path clip-path="url(#pac40fd483e)" d="M 1220.459285 629.826022 
C 1224.894509 629.826022 1229.148675 628.063889 1232.284852 624.927712 
C 1235.421029 621.791535 1237.183162 617.537369 1237.183162 613.102144 
C 1237.183162 608.66692 1235.421029 604.412754 1232.284852 601.276577 
C 1229.148675 598.1404 1224.894509 596.378267 1220.459285 596.378267 
C 1216.02406 596.378267 1211.769894 598.1404 1208.633717 601.276577 
C 1205.49754 604.412754 1203.735407 608.66692 1203.735407 613.102144 
C 1203.735407 617.537369 1205.49754 621.791535 1208.633717 624.927712 
C 1211.769894 628.063889 1216.02406 629.826022 1220.459285 629.826022 
z
"/>
   </g>
   <g id="patch_70">
    <path clip-path="url(#pac40fd483e)" d="M 454.299204 1152.588623 
C 458.734428 1152.588623 462.988594 1150.82649 466.124771 1147.690313 
C 469.260948 1144.554136 471.023082 1140.29997 471.023082 1135.864745 
C 471.023082 1131.429521 469.260948 1127.175355 466.124771 1124.039178 
C 462.988594 1120.903001 458.734428 1119.140868 454.299204 1119.140868 
C 449.86398 1119.140868 445.609814 1120.903001 442.473636 1124.039178 
C 439.337459 1127.175355 437.575326 1131.429521 437.575326 1135.864745 
C 437.575326 1140.29997 439.337459 1144.554136 442.473636 1147.690313 
C 445.609814 1150.82649 449.86398 1152.588623 454.299204 1152.588623 
z
"/>
   </g>
   <g id="patch_71">
    <path clip-path="url(#pac40fd483e)" d="M 161.940715 876.17685 
C 166.37594 876.17685 170.630106 874.414716 173.766283 871.278539 
C 176.90246 868.142362 178.664593 863.888196 178.664593 859.452972 
C 178.664593 855.017748 176.90246 850.763582 173.766283 847.627404 
C 170.630106 844.491227 166.37594 842.729094 161.940715 842.729094 
C 157.505491 842.729094 153.251325 844.491227 150.115148 847.627404 
C 146.978971 850.763582 145.216838 855.017748 145.216838 859.452972 
C 145.216838 863.888196 146.978971 868.142362 150.115148 871.278539 
C 153.251325 874.414716 157.505491 876.17685 161.940715 876.17685 
z
"/>
   </g>
   <g id="patch_72">
    <path clip-path="url(#pac40fd483e)" d="M 759.144903 603.647622 
C 763.580128 603.647622 767.834294 601.885488 770.970471 598.749311 
C 774.106648 595.613134 775.868781 591.358968 775.868781 586.923744 
C 775.868781 582.48852 774.106648 578.234354 770.970471 575.098176 
C 767.834294 571.961999 763.580128 570.199866 759.144903 570.199866 
C 754.709679 570.199866 750.455513 571.961999 747.319336 575.098176 
C 744.183159 578.234354 742.421026 582.48852 742.421026 586.923744 
C 742.421026 591.358968 744.183159 595.613134 747.319336 598.749311 
C 750.455513 601.885488 754.709679 603.647622 759.144903 603.647622 
z
"/>
   </g>
   <g id="patch_73">
    <path clip-path="url(#pac40fd483e)" d="M 616.088982 629.342077 
C 620.524207 629.342077 624.778373 627.579944 627.91455 624.443767 
C 631.050727 621.30759 632.81286 617.053424 632.81286 612.6182 
C 632.81286 608.182975 631.050727 603.928809 627.91455 600.792632 
C 624.778373 597.656455 620.524207 595.894322 616.088982 595.894322 
C 611.653758 595.894322 607.399592 597.656455 604.263415 600.792632 
C 601.127238 603.928809 599.365105 608.182975 599.365105 612.6182 
C 599.365105 617.053424 601.127238 621.30759 604.263415 624.443767 
C 607.399592 627.579944 611.653758 629.342077 616.088982 629.342077 
z
"/>
   </g>
   <g id="patch_74">
    <path clip-path="url(#pac40fd483e)" d="M 494.964905 762.833757 
C 499.400129 762.833757 503.654295 761.071624 506.790472 757.935447 
C 509.926649 754.79927 511.688782 750.545103 511.688782 746.109879 
C 511.688782 741.674655 509.926649 737.420489 506.790472 734.284312 
C 503.654295 731.148135 499.400129 729.386002 494.964905 729.386002 
C 490.52968 729.386002 486.275514 731.148135 483.139337 734.284312 
C 480.00316 737.420489 478.241027 741.674655 478.241027 746.109879 
C 478.241027 750.545103 480.00316 754.79927 483.139337 757.935447 
C 486.275514 761.071624 490.52968 762.833757 494.964905 762.833757 
z
"/>
   </g>
   <g id="patch_75">
    <path clip-path="url(#pac40fd483e)" d="M 915.988332 722.551738 
C 920.423556 722.551738 924.677722 720.789605 927.813899 717.653427 
C 930.950076 714.51725 932.712209 710.263084 932.712209 705.82786 
C 932.712209 701.392636 930.950076 697.13847 927.813899 694.002293 
C 924.677722 690.866116 920.423556 689.103982 915.988332 689.103982 
C 911.553107 689.103982 907.298941 690.866116 904.162764 694.002293 
C 901.026587 697.13847 899.264454 701.392636 899.264454 705.82786 
C 899.264454 710.263084 901.026587 714.51725 904.162764 717.653427 
C 907.298941 720.789605 911.553107 722.551738 915.988332 722.551738 
z
"/>
   </g>
   <g id="patch_76">
    <path clip-path="url(#pac40fd483e)" d="M 375.918248 925.205326 
C 379.614269 925.205326 383.159407 923.736882 385.772888 921.123401 
C 388.386369 918.50992 389.854813 914.964781 389.854813 911.268761 
C 389.854813 907.572741 388.386369 904.027603 385.772888 901.414122 
C 383.159407 898.800641 379.614269 897.332196 375.918248 897.332196 
C 372.222228 897.332196 368.67709 898.800641 366.063609 901.414122 
C 363.450128 904.027603 361.981684 907.572741 361.981684 911.268761 
C 361.981684 914.964781 363.450128 918.50992 366.063609 921.123401 
C 368.67709 923.736882 372.222228 925.205326 375.918248 925.205326 
z
" style="fill:#ffffff;"/>
   </g>
   <g id="patch_77">
    <path clip-path="url(#pac40fd483e)" d="M 304.152021 578.048161 
C 307.848042 578.048161 311.39318 576.579717 314.006661 573.966236 
C 316.620142 571.352755 318.088586 567.807617 318.088586 564.111597 
C 318.088586 560.415576 316.620142 556.870438 314.006661 554.256957 
C 311.39318 551.643476 307.848042 550.175032 304.152021 550.175032 
C 300.456001 550.175032 296.910863 551.643476 294.297382 554.256957 
C 291.683901 556.870438 290.215457 560.415576 290.215457 564.111597 
C 290.215457 567.807617 291.683901 571.352755 294.297382 573.966236 
C 296.910863 576.579717 300.456001 578.048161 304.152021 578.048161 
z
" style="fill:#ffffff;"/>
   </g>
   <g id="patch_78">
    <path clip-path="url(#pac40fd483e)" d="M 1123.014845 1070.247649 
C 1126.710865 1070.247649 1130.256003 1068.779204 1132.869484 1066.165724 
C 1135.482965 1063.552243 1136.951409 1060.007104 1136.951409 1056.311084 
C 1136.951409 1052.615064 1135.482965 1049.069925 1132.869484 1046.456445 
C 1130.256003 1043.842964 1126.710865 1042.374519 1123.014845 1042.374519 
C 1119.318824 1042.374519 1115.773686 1043.842964 1113.160205 1046.456445 
C 1110.546724 1049.069925 1109.07828 1052.615064 1109.07828 1056.311084 
C 1109.07828 1060.007104 1110.546724 1063.552243 1113.160205 1066.165724 
C 1115.773686 1068.779204 1119.318824 1070.247649 1123.014845 1070.247649 
z
" style="fill:#ffffff;"/>
   </g>
   <g id="patch_79">
    <path clip-path="url(#pac40fd483e)" d="M 631.669686 1136.166769 
C 635.365706 1136.166769 638.910845 1134.698325 641.524326 1132.084844 
C 644.137807 1129.471363 645.606251 1125.926225 645.606251 1122.230205 
C 645.606251 1118.534184 644.137807 1114.989046 641.524326 1112.375565 
C 638.910845 1109.762084 635.365706 1108.29364 631.669686 1108.29364 
C 627.973666 1108.29364 624.428528 1109.762084 621.815047 1112.375565 
C 619.201566 1114.989046 617.733121 1118.534184 617.733121 1122.230205 
C 617.733121 1125.926225 619.201566 1129.471363 621.815047 1132.084844 
C 624.428528 1134.698325 627.973666 1136.166769 631.669686 1136.166769 
z
" style="fill:#ffffff;"/>
   </g>
   <g id="patch_80">
    <path clip-path="url(#pac40fd483e)" d="M 552.18399 465.502685 
C 555.880011 465.502685 559.425149 464.03424 562.03863 461.420759 
C 564.652111 458.807278 566.120555 455.26214 566.120555 451.56612 
C 566.120555 447.8701 564.652111 444.324961 562.03863 441.71148 
C 559.425149 439.097999 555.880011 437.629555 552.18399 437.629555 
C 548.48797 437.629555 544.942832 439.097999 542.329351 441.71148 
C 539.71587 444.324961 538.247426 447.8701 538.247426 451.56612 
C 538.247426 455.26214 539.71587 458.807278 542.329351 461.420759 
C 544.942832 464.03424 548.48797 465.502685 552.18399 465.502685 
z
" style="fill:#ffffff;"/>
   </g>
   <g id="patch_81">
    <path clip-path="url(#pac40fd483e)" d="M 637.960468 943.713749 
C 641.656489 943.713749 645.201627 942.245305 647.815108 939.631824 
C 650.428589 937.018343 651.897033 933.473205 651.897033 929.777185 
C 651.897033 926.081164 650.428589 922.536026 647.815108 919.922545 
C 645.201627 917.309064 641.656489 915.84062 637.960468 915.84062 
C 634.264448 915.84062 630.71931 917.309064 628.105829 919.922545 
C 625.492348 922.536026 624.023904 926.081164 624.023904 929.777185 
C 624.023904 933.473205 625.492348 937.018343 628.105829 939.631824 
C 630.71931 942.245305 634.264448 943.713749 637.960468 943.713749 
z
" style="fill:#ffffff;"/>
   </g>
   <g id="patch_82">
    <path clip-path="url(#pac40fd483e)" d="M 1008.048638 885.279015 
C 1011.744658 885.279015 1015.289797 883.810571 1017.903278 881.19709 
C 1020.516759 878.583609 1021.985203 875.03847 1021.985203 871.34245 
C 1021.985203 867.64643 1020.516759 864.101292 1017.903278 861.487811 
C 1015.289797 858.87433 1011.744658 857.405885 1008.048638 857.405885 
C 1004.352618 857.405885 1000.80748 858.87433 998.193999 861.487811 
C 995.580518 864.101292 994.112074 867.64643 994.112074 871.34245 
C 994.112074 875.03847 995.580518 878.583609 998.193999 881.19709 
C 1000.80748 883.810571 1004.352618 885.279015 1008.048638 885.279015 
z
" style="fill:#ffffff;"/>
   </g>
   <g id="patch_83">
    <path clip-path="url(#pac40fd483e)" d="M 718.133394 765.28089 
C 721.829414 765.28089 725.374553 763.812446 727.988033 761.198965 
C 730.601514 758.585484 732.069959 755.040346 732.069959 751.344325 
C 732.069959 747.648305 730.601514 744.103167 727.988033 741.489686 
C 725.374553 738.876205 721.829414 737.407761 718.133394 737.407761 
C 714.437374 737.407761 710.892235 738.876205 708.278755 741.489686 
C 705.665274 744.103167 704.196829 747.648305 704.196829 751.344325 
C 704.196829 755.040346 705.665274 758.585484 708.278755 761.198965 
C 710.892235 763.812446 714.437374 765.28089 718.133394 765.28089 
z
" style="fill:#ffffff;"/>
   </g>
   <g id="patch_84">
    <path clip-path="url(#pac40fd483e)" d="M 951.430622 994.420915 
C 955.126642 994.420915 958.671781 992.952471 961.285262 990.33899 
C 963.898743 987.725509 965.367187 984.18037 965.367187 980.48435 
C 965.367187 976.78833 963.898743 973.243192 961.285262 970.629711 
C 958.671781 968.01623 955.126642 966.547785 951.430622 966.547785 
C 947.734602 966.547785 944.189464 968.01623 941.575983 970.629711 
C 938.962502 973.243192 937.494057 976.78833 937.494057 980.48435 
C 937.494057 984.18037 938.962502 987.725509 941.575983 990.33899 
C 944.189464 992.952471 947.734602 994.420915 951.430622 994.420915 
z
" style="fill:#ffffff;"/>
   </g>
   <g id="patch_85">
    <path clip-path="url(#pac40fd483e)" d="M 337.224081 1106.209087 
C 340.920101 1106.209087 344.46524 1104.740643 347.078721 1102.127162 
C 349.692201 1099.513681 351.160646 1095.968543 351.160646 1092.272522 
C 351.160646 1088.576502 349.692201 1085.031364 347.078721 1082.417883 
C 344.46524 1079.804402 340.920101 1078.335958 337.224081 1078.335958 
C 333.528061 1078.335958 329.982923 1079.804402 327.369442 1082.417883 
C 324.755961 1085.031364 323.287516 1088.576502 323.287516 1092.272522 
C 323.287516 1095.968543 324.755961 1099.513681 327.369442 1102.127162 
C 329.982923 1104.740643 333.528061 1106.209087 337.224081 1106.209087 
z
" style="fill:#ffffff;"/>
   </g>
   <g id="patch_86">
    <path clip-path="url(#pac40fd483e)" d="M 603.233398 882.914673 
C 606.929418 882.914673 610.474556 881.446229 613.088037 878.832748 
C 615.701518 876.219267 617.169963 872.674129 617.169963 868.978108 
C 617.169963 865.282088 615.701518 861.73695 613.088037 859.123469 
C 610.474556 856.509988 606.929418 855.041544 603.233398 855.041544 
C 599.537378 855.041544 595.992239 856.509988 593.378758 859.123469 
C 590.765278 861.73695 589.296833 865.282088 589.296833 868.978108 
C 589.296833 872.674129 590.765278 876.219267 593.378758 878.832748 
C 595.992239 881.446229 599.537378 882.914673 603.233398 882.914673 
z
" style="fill:#ffffff;"/>
   </g>
   <g id="patch_87">
    <path clip-path="url(#pac40fd483e)" d="M 885.372295 357.631796 
C 889.068315 357.631796 892.613454 356.163351 895.226935 353.549871 
C 897.840416 350.93639 899.30886 347.391251 899.30886 343.695231 
C 899.30886 339.999211 897.840416 336.454072 895.226935 333.840592 
C 892.613454 331.227111 889.068315 329.758666 885.372295 329.758666 
C 881.676275 329.758666 878.131137 331.227111 875.517656 333.840592 
C 872.904175 336.454072 871.43573 339.999211 871.43573 343.695231 
C 871.43573 347.391251 872.904175 350.93639 875.517656 353.549871 
C 878.131137 356.163351 881.676275 357.631796 885.372295 357.631796 
z
" style="fill:#ffffff;"/>
   </g>
   <g id="patch_88">
    <path clip-path="url(#pac40fd483e)" d="M 1091.078133 962.530301 
C 1094.774153 962.530301 1098.319292 961.061857 1100.932773 958.448376 
C 1103.546254 955.834895 1105.014698 952.289757 1105.014698 948.593737 
C 1105.014698 944.897716 1103.546254 941.352578 1100.932773 938.739097 
C 1098.319292 936.125616 1094.774153 934.657172 1091.078133 934.657172 
C 1087.382113 934.657172 1083.836975 936.125616 1081.223494 938.739097 
C 1078.610013 941.352578 1077.141568 944.897716 1077.141568 948.593737 
C 1077.141568 952.289757 1078.610013 955.834895 1081.223494 958.448376 
C 1083.836975 961.061857 1087.382113 962.530301 1091.078133 962.530301 
z
" style="fill:#ffffff;"/>
   </g>
   <g id="patch_89">
    <path clip-path="url(#pac40fd483e)" d="M 1220.459285 627.038709 
C 1224.155305 627.038709 1227.700443 625.570265 1230.313924 622.956784 
C 1232.927405 620.343303 1234.395849 616.798165 1234.395849 613.102144 
C 1234.395849 609.406124 1232.927405 605.860986 1230.313924 603.247505 
C 1227.700443 600.634024 1224.155305 599.16558 1220.459285 599.16558 
C 1216.763264 599.16558 1213.218126 600.634024 1210.604645 603.247505 
C 1207.991164 605.860986 1206.52272 609.406124 1206.52272 613.102144 
C 1206.52272 616.798165 1207.991164 620.343303 1210.604645 622.956784 
C 1213.218126 625.570265 1216.763264 627.038709 1220.459285 627.038709 
z
" style="fill:#ffffff;"/>
   </g>
   <g id="patch_90">
    <path clip-path="url(#pac40fd483e)" d="M 454.299204 1149.80131 
C 457.995224 1149.80131 461.540362 1148.332866 464.153843 1145.719385 
C 466.767324 1143.105904 468.235769 1139.560766 468.235769 1135.864745 
C 468.235769 1132.168725 466.767324 1128.623587 464.153843 1126.010106 
C 461.540362 1123.396625 457.995224 1121.928181 454.299204 1121.928181 
C 450.603184 1121.928181 447.058045 1123.396625 444.444564 1126.010106 
C 441.831083 1128.623587 440.362639 1132.168725 440.362639 1135.864745 
C 440.362639 1139.560766 441.831083 1143.105904 444.444564 1145.719385 
C 447.058045 1148.332866 450.603184 1149.80131 454.299204 1149.80131 
z
" style="fill:#ffffff;"/>
   </g>
   <g id="patch_91">
    <path clip-path="url(#pac40fd483e)" d="M 161.940715 873.389537 
C 165.636736 873.389537 169.181874 871.921092 171.795355 869.307611 
C 174.408836 866.69413 175.87728 863.148992 175.87728 859.452972 
C 175.87728 855.756952 174.408836 852.211813 171.795355 849.598332 
C 169.181874 846.984851 165.636736 845.516407 161.940715 845.516407 
C 158.244695 845.516407 154.699557 846.984851 152.086076 849.598332 
C 149.472595 852.211813 148.004151 855.756952 148.004151 859.452972 
C 148.004151 863.148992 149.472595 866.69413 152.086076 869.307611 
C 154.699557 871.921092 158.244695 873.389537 161.940715 873.389537 
z
" style="fill:#ffffff;"/>
   </g>
   <g id="patch_92">
    <path clip-path="url(#pac40fd483e)" d="M 759.144903 600.860309 
C 762.840923 600.860309 766.386062 599.391864 768.999543 596.778383 
C 771.613024 594.164902 773.081468 590.619764 773.081468 586.923744 
C 773.081468 583.227724 771.613024 579.682585 768.999543 577.069104 
C 766.386062 574.455623 762.840923 572.987179 759.144903 572.987179 
C 755.448883 572.987179 751.903745 574.455623 749.290264 577.069104 
C 746.676783 579.682585 745.208338 583.227724 745.208338 586.923744 
C 745.208338 590.619764 746.676783 594.164902 749.290264 596.778383 
C 751.903745 599.391864 755.448883 600.860309 759.144903 600.860309 
z
" style="fill:#ffffff;"/>
   </g>
   <g id="patch_93">
    <path clip-path="url(#pac40fd483e)" d="M 616.088982 626.554764 
C 619.785003 626.554764 623.330141 625.08632 625.943622 622.472839 
C 628.557103 619.859358 630.025547 616.31422 630.025547 612.6182 
C 630.025547 608.922179 628.557103 605.377041 625.943622 602.76356 
C 623.330141 600.150079 619.785003 598.681635 616.088982 598.681635 
C 612.392962 598.681635 608.847824 600.150079 606.234343 602.76356 
C 603.620862 605.377041 602.152418 608.922179 602.152418 612.6182 
C 602.152418 616.31422 603.620862 619.859358 606.234343 622.472839 
C 608.847824 625.08632 612.392962 626.554764 616.088982 626.554764 
z
" style="fill:#ffffff;"/>
   </g>
   <g id="patch_94">
    <path clip-path="url(#pac40fd483e)" d="M 494.964905 760.046444 
C 498.660925 760.046444 502.206063 758.578 504.819544 755.964519 
C 507.433025 753.351038 508.901469 749.805899 508.901469 746.109879 
C 508.901469 742.413859 507.433025 738.868721 504.819544 736.25524 
C 502.206063 733.641759 498.660925 732.173314 494.964905 732.173314 
C 491.268884 732.173314 487.723746 733.641759 485.110265 736.25524 
C 482.496784 738.868721 481.02834 742.413859 481.02834 746.109879 
C 481.02834 749.805899 482.496784 753.351038 485.110265 755.964519 
C 487.723746 758.578 491.268884 760.046444 494.964905 760.046444 
z
" style="fill:#ffffff;"/>
   </g>
   <g id="patch_95">
    <path clip-path="url(#pac40fd483e)" d="M 915.988332 719.764425 
C 919.684352 719.764425 923.22949 718.29598 925.842971 715.6825 
C 928.456452 713.069019 929.924896 709.52388 929.924896 705.82786 
C 929.924896 702.13184 928.456452 698.586702 925.842971 695.973221 
C 923.22949 693.35974 919.684352 691.891295 915.988332 691.891295 
C 912.292311 691.891295 908.747173 693.35974 906.133692 695.973221 
C 903.520211 698.586702 902.051767 702.13184 902.051767 705.82786 
C 902.051767 709.52388 903.520211 713.069019 906.133692 715.6825 
C 908.747173 718.29598 912.292311 719.764425 915.988332 719.764425 
z
" style="fill:#ffffff;"/>
   </g>
   <g id="text_1">
    <g id="patch_96">
     <path d="M 368.140748 921.035636 
L 383.695748 921.035636 
L 383.695748 901.501886 
L 368.140748 901.501886 
z
" style="fill:none;opacity:0;"/>
    </g>
    <!-- 0 -->
    <defs>
     <path d="M 31.78125 66.40625 
Q 24.171875 66.40625 20.328125 58.90625 
Q 16.5 51.421875 16.5 36.375 
Q 16.5 21.390625 20.328125 13.890625 
Q 24.171875 6.390625 31.78125 6.390625 
Q 39.453125 6.390625 43.28125 13.890625 
Q 47.125 21.390625 47.125 36.375 
Q 47.125 51.421875 43.28125 58.90625 
Q 39.453125 66.40625 31.78125 66.40625 
z
M 31.78125 74.21875 
Q 44.046875 74.21875 50.515625 64.515625 
Q 56.984375 54.828125 56.984375 36.375 
Q 56.984375 17.96875 50.515625 8.265625 
Q 44.046875 -1.421875 31.78125 -1.421875 
Q 19.53125 -1.421875 13.0625 8.265625 
Q 6.59375 17.96875 6.59375 36.375 
Q 6.59375 54.828125 13.0625 64.515625 
Q 19.53125 74.21875 31.78125 74.21875 
z
" id="DejaVuSans-30"/>
    </defs>
    <g transform="translate(372.100748 914.580011)scale(0.12 -0.12)">
     <use xlink:href="#DejaVuSans-30"/>
    </g>
   </g>
   <g id="text_2">
    <g id="patch_97">
     <path d="M 296.374521 573.878472 
L 311.929521 573.878472 
L 311.929521 554.344722 
L 296.374521 554.344722 
z
" style="fill:none;opacity:0;"/>
    </g>
    <!-- 1 -->
    <defs>
     <path d="M 12.40625 8.296875 
L 28.515625 8.296875 
L 28.515625 63.921875 
L 10.984375 60.40625 
L 10.984375 69.390625 
L 28.421875 72.90625 
L 38.28125 72.90625 
L 38.28125 8.296875 
L 54.390625 8.296875 
L 54.390625 0 
L 12.40625 0 
z
" id="DejaVuSans-31"/>
    </defs>
    <g transform="translate(300.334521 567.422847)scale(0.12 -0.12)">
     <use xlink:href="#DejaVuSans-31"/>
    </g>
   </g>
   <g id="text_3">
    <g id="patch_98">
     <path d="M 1115.237345 1066.077959 
L 1130.792345 1066.077959 
L 1130.792345 1046.544209 
L 1115.237345 1046.544209 
z
" style="fill:none;opacity:0;"/>
    </g>
    <!-- 2 -->
    <defs>
     <path d="M 19.1875 8.296875 
L 53.609375 8.296875 
L 53.609375 0 
L 7.328125 0 
L 7.328125 8.296875 
Q 12.9375 14.109375 22.625 23.890625 
Q 32.328125 33.6875 34.8125 36.53125 
Q 39.546875 41.84375 41.421875 45.53125 
Q 43.3125 49.21875 43.3125 52.78125 
Q 43.3125 58.59375 39.234375 62.25 
Q 35.15625 65.921875 28.609375 65.921875 
Q 23.96875 65.921875 18.8125 64.3125 
Q 13.671875 62.703125 7.8125 59.421875 
L 7.8125 69.390625 
Q 13.765625 71.78125 18.9375 73 
Q 24.125 74.21875 28.421875 74.21875 
Q 39.75 74.21875 46.484375 68.546875 
Q 53.21875 62.890625 53.21875 53.421875 
Q 53.21875 48.921875 51.53125 44.890625 
Q 49.859375 40.875 45.40625 35.40625 
Q 44.1875 33.984375 37.640625 27.21875 
Q 31.109375 20.453125 19.1875 8.296875 
z
" id="DejaVuSans-32"/>
    </defs>
    <g transform="translate(1119.197345 1059.622334)scale(0.12 -0.12)">
     <use xlink:href="#DejaVuSans-32"/>
    </g>
   </g>
   <g id="text_4">
    <g id="patch_99">
     <path d="M 623.892186 1131.99708 
L 639.447186 1131.99708 
L 639.447186 1112.46333 
L 623.892186 1112.46333 
z
" style="fill:none;opacity:0;"/>
    </g>
    <!-- 3 -->
    <defs>
     <path d="M 40.578125 39.3125 
Q 47.65625 37.796875 51.625 33 
Q 55.609375 28.21875 55.609375 21.1875 
Q 55.609375 10.40625 48.1875 4.484375 
Q 40.765625 -1.421875 27.09375 -1.421875 
Q 22.515625 -1.421875 17.65625 -0.515625 
Q 12.796875 0.390625 7.625 2.203125 
L 7.625 11.71875 
Q 11.71875 9.328125 16.59375 8.109375 
Q 21.484375 6.890625 26.8125 6.890625 
Q 36.078125 6.890625 40.9375 10.546875 
Q 45.796875 14.203125 45.796875 21.1875 
Q 45.796875 27.640625 41.28125 31.265625 
Q 36.765625 34.90625 28.71875 34.90625 
L 20.21875 34.90625 
L 20.21875 43.015625 
L 29.109375 43.015625 
Q 36.375 43.015625 40.234375 45.921875 
Q 44.09375 48.828125 44.09375 54.296875 
Q 44.09375 59.90625 40.109375 62.90625 
Q 36.140625 65.921875 28.71875 65.921875 
Q 24.65625 65.921875 20.015625 65.03125 
Q 15.375 64.15625 9.8125 62.3125 
L 9.8125 71.09375 
Q 15.4375 72.65625 20.34375 73.4375 
Q 25.25 74.21875 29.59375 74.21875 
Q 40.828125 74.21875 47.359375 69.109375 
Q 53.90625 64.015625 53.90625 55.328125 
Q 53.90625 49.265625 50.4375 45.09375 
Q 46.96875 40.921875 40.578125 39.3125 
z
" id="DejaVuSans-33"/>
    </defs>
    <g transform="translate(627.852186 1125.541455)scale(0.12 -0.12)">
     <use xlink:href="#DejaVuSans-33"/>
    </g>
   </g>
   <g id="text_5">
    <g id="patch_100">
     <path d="M 544.40649 461.332995 
L 559.96149 461.332995 
L 559.96149 441.799245 
L 544.40649 441.799245 
z
" style="fill:none;opacity:0;"/>
    </g>
    <!-- 4 -->
    <defs>
     <path d="M 37.796875 64.3125 
L 12.890625 25.390625 
L 37.796875 25.390625 
z
M 35.203125 72.90625 
L 47.609375 72.90625 
L 47.609375 25.390625 
L 58.015625 25.390625 
L 58.015625 17.1875 
L 47.609375 17.1875 
L 47.609375 0 
L 37.796875 0 
L 37.796875 17.1875 
L 4.890625 17.1875 
L 4.890625 26.703125 
z
" id="DejaVuSans-34"/>
    </defs>
    <g transform="translate(548.36649 454.87737)scale(0.12 -0.12)">
     <use xlink:href="#DejaVuSans-34"/>
    </g>
   </g>
   <g id="text_6">
    <g id="patch_101">
     <path d="M 630.182968 939.54406 
L 645.737968 939.54406 
L 645.737968 920.01031 
L 630.182968 920.01031 
z
" style="fill:none;opacity:0;"/>
    </g>
    <!-- 5 -->
    <defs>
     <path d="M 10.796875 72.90625 
L 49.515625 72.90625 
L 49.515625 64.59375 
L 19.828125 64.59375 
L 19.828125 46.734375 
Q 21.96875 47.46875 24.109375 47.828125 
Q 26.265625 48.1875 28.421875 48.1875 
Q 40.625 48.1875 47.75 41.5 
Q 54.890625 34.8125 54.890625 23.390625 
Q 54.890625 11.625 47.5625 5.09375 
Q 40.234375 -1.421875 26.90625 -1.421875 
Q 22.3125 -1.421875 17.546875 -0.640625 
Q 12.796875 0.140625 7.71875 1.703125 
L 7.71875 11.625 
Q 12.109375 9.234375 16.796875 8.0625 
Q 21.484375 6.890625 26.703125 6.890625 
Q 35.15625 6.890625 40.078125 11.328125 
Q 45.015625 15.765625 45.015625 23.390625 
Q 45.015625 31 40.078125 35.4375 
Q 35.15625 39.890625 26.703125 39.890625 
Q 22.75 39.890625 18.8125 39.015625 
Q 14.890625 38.140625 10.796875 36.28125 
z
" id="DejaVuSans-35"/>
    </defs>
    <g transform="translate(634.142968 933.088435)scale(0.12 -0.12)">
     <use xlink:href="#DejaVuSans-35"/>
    </g>
   </g>
   <g id="text_7">
    <g id="patch_102">
     <path d="M 1000.271138 881.109325 
L 1015.826138 881.109325 
L 1015.826138 861.575575 
L 1000.271138 861.575575 
z
" style="fill:none;opacity:0;"/>
    </g>
    <!-- 6 -->
    <defs>
     <path d="M 33.015625 40.375 
Q 26.375 40.375 22.484375 35.828125 
Q 18.609375 31.296875 18.609375 23.390625 
Q 18.609375 15.53125 22.484375 10.953125 
Q 26.375 6.390625 33.015625 6.390625 
Q 39.65625 6.390625 43.53125 10.953125 
Q 47.40625 15.53125 47.40625 23.390625 
Q 47.40625 31.296875 43.53125 35.828125 
Q 39.65625 40.375 33.015625 40.375 
z
M 52.59375 71.296875 
L 52.59375 62.3125 
Q 48.875 64.0625 45.09375 64.984375 
Q 41.3125 65.921875 37.59375 65.921875 
Q 27.828125 65.921875 22.671875 59.328125 
Q 17.53125 52.734375 16.796875 39.40625 
Q 19.671875 43.65625 24.015625 45.921875 
Q 28.375 48.1875 33.59375 48.1875 
Q 44.578125 48.1875 50.953125 41.515625 
Q 57.328125 34.859375 57.328125 23.390625 
Q 57.328125 12.15625 50.6875 5.359375 
Q 44.046875 -1.421875 33.015625 -1.421875 
Q 20.359375 -1.421875 13.671875 8.265625 
Q 6.984375 17.96875 6.984375 36.375 
Q 6.984375 53.65625 15.1875 63.9375 
Q 23.390625 74.21875 37.203125 74.21875 
Q 40.921875 74.21875 44.703125 73.484375 
Q 48.484375 72.75 52.59375 71.296875 
z
" id="DejaVuSans-36"/>
    </defs>
    <g transform="translate(1004.231138 874.6537)scale(0.12 -0.12)">
     <use xlink:href="#DejaVuSans-36"/>
    </g>
   </g>
   <g id="text_8">
    <g id="patch_103">
     <path d="M 710.355894 761.1112 
L 725.910894 761.1112 
L 725.910894 741.57745 
L 710.355894 741.57745 
z
" style="fill:none;opacity:0;"/>
    </g>
    <!-- 7 -->
    <defs>
     <path d="M 8.203125 72.90625 
L 55.078125 72.90625 
L 55.078125 68.703125 
L 28.609375 0 
L 18.3125 0 
L 43.21875 64.59375 
L 8.203125 64.59375 
z
" id="DejaVuSans-37"/>
    </defs>
    <g transform="translate(714.315894 754.655575)scale(0.12 -0.12)">
     <use xlink:href="#DejaVuSans-37"/>
    </g>
   </g>
   <g id="text_9">
    <g id="patch_104">
     <path d="M 943.653122 990.251225 
L 959.208122 990.251225 
L 959.208122 970.717475 
L 943.653122 970.717475 
z
" style="fill:none;opacity:0;"/>
    </g>
    <!-- 8 -->
    <defs>
     <path d="M 31.78125 34.625 
Q 24.75 34.625 20.71875 30.859375 
Q 16.703125 27.09375 16.703125 20.515625 
Q 16.703125 13.921875 20.71875 10.15625 
Q 24.75 6.390625 31.78125 6.390625 
Q 38.8125 6.390625 42.859375 10.171875 
Q 46.921875 13.96875 46.921875 20.515625 
Q 46.921875 27.09375 42.890625 30.859375 
Q 38.875 34.625 31.78125 34.625 
z
M 21.921875 38.8125 
Q 15.578125 40.375 12.03125 44.71875 
Q 8.5 49.078125 8.5 55.328125 
Q 8.5 64.0625 14.71875 69.140625 
Q 20.953125 74.21875 31.78125 74.21875 
Q 42.671875 74.21875 48.875 69.140625 
Q 55.078125 64.0625 55.078125 55.328125 
Q 55.078125 49.078125 51.53125 44.71875 
Q 48 40.375 41.703125 38.8125 
Q 48.828125 37.15625 52.796875 32.3125 
Q 56.78125 27.484375 56.78125 20.515625 
Q 56.78125 9.90625 50.3125 4.234375 
Q 43.84375 -1.421875 31.78125 -1.421875 
Q 19.734375 -1.421875 13.25 4.234375 
Q 6.78125 9.90625 6.78125 20.515625 
Q 6.78125 27.484375 10.78125 32.3125 
Q 14.796875 37.15625 21.921875 38.8125 
z
M 18.3125 54.390625 
Q 18.3125 48.734375 21.84375 45.5625 
Q 25.390625 42.390625 31.78125 42.390625 
Q 38.140625 42.390625 41.71875 45.5625 
Q 45.3125 48.734375 45.3125 54.390625 
Q 45.3125 60.0625 41.71875 63.234375 
Q 38.140625 66.40625 31.78125 66.40625 
Q 25.390625 66.40625 21.84375 63.234375 
Q 18.3125 60.0625 18.3125 54.390625 
z
" id="DejaVuSans-38"/>
    </defs>
    <g transform="translate(947.613122 983.7956)scale(0.12 -0.12)">
     <use xlink:href="#DejaVuSans-38"/>
    </g>
   </g>
   <g id="text_10">
    <g id="patch_105">
     <path d="M 329.446581 1102.039397 
L 345.001581 1102.039397 
L 345.001581 1082.505647 
L 329.446581 1082.505647 
z
" style="fill:none;opacity:0;"/>
    </g>
    <!-- 9 -->
    <defs>
     <path d="M 10.984375 1.515625 
L 10.984375 10.5 
Q 14.703125 8.734375 18.5 7.8125 
Q 22.3125 6.890625 25.984375 6.890625 
Q 35.75 6.890625 40.890625 13.453125 
Q 46.046875 20.015625 46.78125 33.40625 
Q 43.953125 29.203125 39.59375 26.953125 
Q 35.25 24.703125 29.984375 24.703125 
Q 19.046875 24.703125 12.671875 31.3125 
Q 6.296875 37.9375 6.296875 49.421875 
Q 6.296875 60.640625 12.9375 67.421875 
Q 19.578125 74.21875 30.609375 74.21875 
Q 43.265625 74.21875 49.921875 64.515625 
Q 56.59375 54.828125 56.59375 36.375 
Q 56.59375 19.140625 48.40625 8.859375 
Q 40.234375 -1.421875 26.421875 -1.421875 
Q 22.703125 -1.421875 18.890625 -0.6875 
Q 15.09375 0.046875 10.984375 1.515625 
z
M 30.609375 32.421875 
Q 37.25 32.421875 41.125 36.953125 
Q 45.015625 41.5 45.015625 49.421875 
Q 45.015625 57.28125 41.125 61.84375 
Q 37.25 66.40625 30.609375 66.40625 
Q 23.96875 66.40625 20.09375 61.84375 
Q 16.21875 57.28125 16.21875 49.421875 
Q 16.21875 41.5 20.09375 36.953125 
Q 23.96875 32.421875 30.609375 32.421875 
z
" id="DejaVuSans-39"/>
    </defs>
    <g transform="translate(333.406581 1095.583772)scale(0.12 -0.12)">
     <use xlink:href="#DejaVuSans-39"/>
    </g>
   </g>
   <g id="text_11">
    <g id="patch_106">
     <path d="M 591.638398 878.744983 
L 614.828398 878.744983 
L 614.828398 859.211233 
L 591.638398 859.211233 
z
" style="fill:none;opacity:0;"/>
    </g>
    <!-- 10 -->
    <g transform="translate(595.598398 872.289358)scale(0.12 -0.12)">
     <use xlink:href="#DejaVuSans-31"/>
     <use x="63.623047" xlink:href="#DejaVuSans-30"/>
    </g>
   </g>
   <g id="text_12">
    <g id="patch_107">
     <path d="M 873.777295 353.462106 
L 896.967295 353.462106 
L 896.967295 333.928356 
L 873.777295 333.928356 
z
" style="fill:none;opacity:0;"/>
    </g>
    <!-- 11 -->
    <g transform="translate(877.737295 347.006481)scale(0.12 -0.12)">
     <use xlink:href="#DejaVuSans-31"/>
     <use x="63.623047" xlink:href="#DejaVuSans-31"/>
    </g>
   </g>
   <g id="text_13">
    <g id="patch_108">
     <path d="M 1079.483133 958.360612 
L 1102.673133 958.360612 
L 1102.673133 938.826862 
L 1079.483133 938.826862 
z
" style="fill:none;opacity:0;"/>
    </g>
    <!-- 12 -->
    <g transform="translate(1083.443133 951.904987)scale(0.12 -0.12)">
     <use xlink:href="#DejaVuSans-31"/>
     <use x="63.623047" xlink:href="#DejaVuSans-32"/>
    </g>
   </g>
   <g id="text_14">
    <g id="patch_109">
     <path d="M 1208.864285 622.869019 
L 1232.054285 622.869019 
L 1232.054285 603.335269 
L 1208.864285 603.335269 
z
" style="fill:none;opacity:0;"/>
    </g>
    <!-- 13 -->
    <g transform="translate(1212.824285 616.413394)scale(0.12 -0.12)">
     <use xlink:href="#DejaVuSans-31"/>
     <use x="63.623047" xlink:href="#DejaVuSans-33"/>
    </g>
   </g>
   <g id="text_15">
    <g id="patch_110">
     <path d="M 442.704204 1145.63162 
L 465.894204 1145.63162 
L 465.894204 1126.09787 
L 442.704204 1126.09787 
z
" style="fill:none;opacity:0;"/>
    </g>
    <!-- 14 -->
    <g transform="translate(446.664204 1139.175995)scale(0.12 -0.12)">
     <use xlink:href="#DejaVuSans-31"/>
     <use x="63.623047" xlink:href="#DejaVuSans-34"/>
    </g>
   </g>
   <g id="text_16">
    <g id="patch_111">
     <path d="M 150.345715 869.219847 
L 173.535715 869.219847 
L 173.535715 849.686097 
L 150.345715 849.686097 
z
" style="fill:none;opacity:0;"/>
    </g>
    <!-- 15 -->
    <g transform="translate(154.305715 862.764222)scale(0.12 -0.12)">
     <use xlink:href="#DejaVuSans-31"/>
     <use x="63.623047" xlink:href="#DejaVuSans-35"/>
    </g>
   </g>
   <g id="text_17">
    <g id="patch_112">
     <path d="M 747.549903 596.690619 
L 770.739903 596.690619 
L 770.739903 577.156869 
L 747.549903 577.156869 
z
" style="fill:none;opacity:0;"/>
    </g>
    <!-- 16 -->
    <g transform="translate(751.509903 590.234994)scale(0.12 -0.12)">
     <use xlink:href="#DejaVuSans-31"/>
     <use x="63.623047" xlink:href="#DejaVuSans-36"/>
    </g>
   </g>
   <g id="text_18">
    <g id="patch_113">
     <path d="M 604.493982 622.385075 
L 627.683982 622.385075 
L 627.683982 602.851325 
L 604.493982 602.851325 
z
" style="fill:none;opacity:0;"/>
    </g>
    <!-- 17 -->
    <g transform="translate(608.453982 615.92945)scale(0.12 -0.12)">
     <use xlink:href="#DejaVuSans-31"/>
     <use x="63.623047" xlink:href="#DejaVuSans-37"/>
    </g>
   </g>
   <g id="text_19">
    <g id="patch_114">
     <path d="M 483.369905 755.876754 
L 506.559905 755.876754 
L 506.559905 736.343004 
L 483.369905 736.343004 
z
" style="fill:none;opacity:0;"/>
    </g>
    <!-- 18 -->
    <g transform="translate(487.329905 749.421129)scale(0.12 -0.12)">
     <use xlink:href="#DejaVuSans-31"/>
     <use x="63.623047" xlink:href="#DejaVuSans-38"/>
    </g>
   </g>
   <g id="text_20">
    <g id="patch_115">
     <path d="M 904.393332 715.594735 
L 927.583332 715.594735 
L 927.583332 696.060985 
L 904.393332 696.060985 
z
" style="fill:none;opacity:0;"/>
    </g>
    <!-- 19 -->
    <g transform="translate(908.353332 709.13911)scale(0.12 -0.12)">
     <use xlink:href="#DejaVuSans-31"/>
     <use x="63.623047" xlink:href="#DejaVuSans-39"/>
    </g>
   </g>
  </g>
 </g>
 <defs>
  <clipPath id="pac40fd483e">
   <rect height="1066.421028" width="1317.6" x="32.4" y="194.709486"/>
  </clipPath>
 </defs>
</svg>
