<?xml version="1.0" encoding="utf-8" standalone="no"?>
<!DOCTYPE svg PUBLIC "-//W3C//DTD SVG 1.1//EN"
  "http://www.w3.org/Graphics/SVG/1.1/DTD/svg11.dtd">
<!-- Created with matplotlib (http://matplotlib.org/) -->
<svg height="1455pt" version="1.1" viewBox="0 0 1382 1455" width="1382pt" xmlns="http://www.w3.org/2000/svg" xmlns:xlink="http://www.w3.org/1999/xlink">
 <defs>
  <style type="text/css">
*{stroke-linecap:butt;stroke-linejoin:round;}
  </style>
 </defs>
 <g id="figure_1">
  <g id="patch_1">
   <path d="M 0 1455.84 
L 1382.4 1455.84 
L 1382.4 0 
L 0 0 
z
" style="fill:#ffffff;"/>
  </g>
  <g id="axes_1">
   <g id="patch_2">
    <path clip-path="url(#p7de7eeb986)" d="M 592.43943 951.803733 
L 592.43943 951.803733 
L 590.478195 953.844669 
L 364.226578 736.428512 
L 366.187813 734.387576 
L 368.149047 732.34664 
L 594.400664 949.762797 
L 592.43943 951.803733 
z
" style="fill:#f7f7f7;"/>
   </g>
   <g id="patch_3">
    <path clip-path="url(#p7de7eeb986)" d="M 802.199465 831.940708 
L 802.199465 831.940708 
L 799.435898 832.552719 
L 729.492482 516.719674 
L 732.256049 516.107663 
L 735.019616 515.495652 
L 804.963032 831.328697 
L 802.199465 831.940708 
z
" style="fill:#fafafa;"/>
   </g>
   <g id="patch_4">
    <path clip-path="url(#p7de7eeb986)" d="M 514.836139 757.124727 
L 514.83614 757.124727 
L 514.094733 754.393029 
L 738.118192 693.591147 
L 738.859599 696.322846 
L 739.601005 699.054544 
L 515.577546 759.856426 
L 514.83614 757.124727 
z
" style="fill:#cc4c44;"/>
   </g>
   <g id="patch_5">
    <path clip-path="url(#p7de7eeb986)" d="M 968.746642 838.083172 
L 968.746642 838.083172 
L 968.64232 840.911772 
L 802.095143 834.769308 
L 802.199465 831.940708 
L 802.303787 829.112108 
L 968.850965 835.254572 
L 968.746642 838.083172 
z
" style="fill:#939393;"/>
   </g>
   <g id="patch_6">
    <path clip-path="url(#p7de7eeb986)" d="M 951.885796 524.243233 
L 951.885796 524.243233 
L 953.664444 526.445113 
L 740.638246 698.524725 
L 738.859599 696.322846 
L 737.080951 694.120967 
L 950.107149 522.041354 
L 951.885796 524.243233 
z
" style="fill:#fef6f1;"/>
   </g>
   <g id="patch_7">
    <path clip-path="url(#p7de7eeb986)" d="M 802.199465 831.940708 
L 802.199465 831.940708 
L 801.486303 834.679916 
L 514.122978 759.863935 
L 514.83614 757.124727 
L 515.549301 754.385519 
L 802.912627 829.2015 
L 802.199465 831.940708 
z
" style="fill:#feefe6;"/>
   </g>
   <g id="patch_8">
    <path clip-path="url(#p7de7eeb986)" d="M 732.256049 516.107663 
L 732.256049 516.107663 
L 734.357771 518.003613 
L 516.937861 759.020677 
L 514.83614 757.124727 
L 512.734418 755.228778 
L 730.154327 514.211714 
L 732.256049 516.107663 
z
" style="fill:#fac8af;"/>
   </g>
   <g id="patch_9">
    <path clip-path="url(#p7de7eeb986)" d="M 592.43943 951.803733 
L 592.43943 951.803733 
L 591.895979 954.581596 
L 466.384013 930.026906 
L 466.927464 927.249043 
L 467.470914 924.47118 
L 592.98288 949.02587 
L 592.43943 951.803733 
z
" style="fill:#7c7c7c;"/>
   </g>
   <g id="patch_10">
    <path clip-path="url(#p7de7eeb986)" d="M 968.746642 838.083172 
L 968.746642 838.083172 
L 970.410916 840.372725 
L 821.352637 948.723028 
L 819.688363 946.433475 
L 818.024089 944.143922 
L 967.082369 835.793619 
L 968.746642 838.083172 
z
" style="fill:#fee9dd;"/>
   </g>
   <g id="patch_11">
    <path clip-path="url(#p7de7eeb986)" d="M 1014.032062 728.364913 
L 1014.032062 728.364913 
L 1013.546187 731.153423 
L 830.345715 699.232212 
L 830.83159 696.443703 
L 831.317466 693.655193 
L 1014.517938 725.576404 
L 1014.032062 728.364913 
z
" style="fill:#bcbcbc;"/>
   </g>
   <g id="patch_12">
    <path clip-path="url(#p7de7eeb986)" d="M 1130.417457 712.444808 
L 1130.417457 712.444808 
L 1130.671196 715.263935 
L 643.090959 759.149112 
L 642.837221 756.329985 
L 642.583482 753.510858 
L 1130.163719 709.625681 
L 1130.417457 712.444808 
z
" style="fill:#fdfdfd;"/>
   </g>
   <g id="patch_13">
    <path clip-path="url(#p7de7eeb986)" d="M 424.651647 617.969413 
L 424.651647 617.969413 
L 427.181125 619.239688 
L 368.717291 735.657851 
L 366.187813 734.387576 
L 363.658334 733.117302 
L 422.122168 616.699139 
L 424.651647 617.969413 
z
" style="fill:#da6853;"/>
   </g>
   <g id="patch_14">
    <path clip-path="url(#p7de7eeb986)" d="M 424.651647 617.969413 
L 424.651647 617.969413 
L 423.76185 615.282385 
L 731.366252 513.420635 
L 732.256049 516.107663 
L 733.145846 518.794692 
L 425.541443 620.656442 
L 424.651647 617.969413 
z
" style="fill:#f7f7f7;"/>
   </g>
   <g id="patch_15">
    <path clip-path="url(#p7de7eeb986)" d="M 642.837221 756.329985 
L 642.837221 756.329985 
L 645.578111 757.036652 
L 595.18032 952.5104 
L 592.43943 951.803733 
L 589.698539 951.097066 
L 640.09633 755.623318 
L 642.83722 756.329985 
z
" style="fill:#d3d3d3;"/>
   </g>
   <g id="patch_16">
    <path clip-path="url(#p7de7eeb986)" d="M 610.532558 1083.151661 
L 610.532558 1083.151661 
L 609.505789 1080.513934 
L 740.649564 1029.464545 
L 741.676333 1032.102272 
L 742.703103 1034.739999 
L 611.559327 1085.789389 
L 610.532558 1083.151661 
z
" style="fill:#fddbc7;"/>
   </g>
   <g id="patch_17">
    <path clip-path="url(#p7de7eeb986)" d="M 738.859599 696.322846 
L 738.859599 696.322846 
L 740.691787 698.480379 
L 468.759652 929.406576 
L 466.927464 927.249043 
L 465.095276 925.09151 
L 737.027411 694.165313 
L 738.859599 696.322846 
z
" style="fill:#fac8af;"/>
   </g>
   <g id="patch_18">
    <path clip-path="url(#p7de7eeb986)" d="M 1014.032062 728.364913 
L 1014.032062 728.364913 
L 1016.648483 729.444822 
L 971.363063 839.163081 
L 968.746642 838.083172 
L 966.130222 837.003263 
L 1011.415642 727.285004 
L 1014.032062 728.364913 
z
" style="fill:#f7b99c;"/>
   </g>
   <g id="patch_19">
    <path clip-path="url(#p7de7eeb986)" d="M 610.532558 1083.151661 
L 610.532558 1083.151661 
L 607.728514 1083.537917 
L 589.635385 952.189989 
L 592.43943 951.803733 
L 595.243474 951.417477 
L 613.336603 1082.765405 
L 610.532558 1083.151661 
z
" style="fill:#e58368;"/>
   </g>
   <g id="patch_20">
    <path clip-path="url(#p7de7eeb986)" d="M 1022.769134 1005.017378 
L 1022.769134 1005.017378 
L 1020.367304 1006.515068 
L 876.361286 775.57403 
L 878.763116 774.076341 
L 881.164945 772.578651 
L 1025.170964 1003.519689 
L 1022.769134 1005.017378 
z
" style="fill:#ededed;"/>
   </g>
   <g id="patch_21">
    <path clip-path="url(#p7de7eeb986)" d="M 424.651647 617.969413 
L 424.651647 617.969413 
L 425.571825 615.292637 
L 879.683294 771.399564 
L 878.763116 774.076341 
L 877.842938 776.753117 
L 423.731469 620.64619 
L 424.651647 617.969413 
z
" style="fill:#e2e2e2;"/>
   </g>
   <g id="patch_22">
    <path clip-path="url(#p7de7eeb986)" d="M 1014.032062 728.364913 
L 1014.032062 728.364913 
L 1012.329001 730.625763 
L 730.552988 518.368513 
L 732.256049 516.107663 
L 733.95911 513.846813 
L 1015.735124 726.104063 
L 1014.032062 728.364913 
z
" style="fill:#eaeaea;"/>
   </g>
   <g id="patch_23">
    <path clip-path="url(#p7de7eeb986)" d="M 741.676333 1032.102272 
L 741.676333 1032.102272 
L 738.84591 1032.126015 
L 736.029175 696.346589 
L 738.859599 696.322846 
L 741.690022 696.299102 
L 744.506757 1032.078529 
L 741.676333 1032.102272 
z
" style="fill:#939393;"/>
   </g>
   <g id="patch_24">
    <path clip-path="url(#p7de7eeb986)" d="M 802.199465 831.940708 
L 802.199465 831.940708 
L 804.90884 832.759945 
L 744.385708 1032.921509 
L 741.676333 1032.102272 
L 738.966959 1031.283035 
L 799.490091 831.121471 
L 802.199465 831.940708 
z
" style="fill:#1a1a1a;"/>
   </g>
   <g id="patch_25">
    <path clip-path="url(#p7de7eeb986)" d="M 802.199465 831.940708 
L 802.199465 831.940708 
L 799.430097 831.355508 
L 828.062222 695.858502 
L 830.83159 696.443703 
L 833.600958 697.028903 
L 804.968833 832.525908 
L 802.199465 831.940708 
z
" style="fill:#df765e;"/>
   </g>
   <g id="patch_26">
    <path clip-path="url(#p7de7eeb986)" d="M 343.665253 872.124239 
L 343.665253 872.124239 
L 344.820814 869.540339 
L 468.083025 924.665143 
L 466.927464 927.249043 
L 465.771903 929.832943 
L 342.509692 874.708139 
L 343.665253 872.124239 
z
" style="fill:#c7c7c7;"/>
   </g>
   <g id="patch_27">
    <path clip-path="url(#p7de7eeb986)" d="M 514.836139 757.124727 
L 514.83614 757.124727 
L 516.329365 754.72012 
L 821.181589 944.028867 
L 819.688363 946.433475 
L 818.195137 948.838082 
L 513.342914 759.529335 
L 514.83614 757.124727 
z
" style="fill:#7e7e7e;"/>
   </g>
   <g id="patch_28">
    <path clip-path="url(#p7de7eeb986)" d="M 1130.417457 712.444808 
L 1130.417457 712.444808 
L 1130.801066 715.249216 
L 1014.415671 731.169321 
L 1014.032062 728.364913 
L 1013.648453 725.560505 
L 1130.033848 709.6404 
L 1130.417457 712.444808 
z
" style="fill:#a7a7a7;"/>
   </g>
   <g id="patch_29">
    <path clip-path="url(#p7de7eeb986)" d="M 1022.769134 1005.017378 
L 1022.769134 1005.017378 
L 1021.984588 1007.737001 
L 818.903817 949.153098 
L 819.688363 946.433475 
L 820.472908 943.713852 
L 1023.55368 1002.297755 
L 1022.769134 1005.017378 
z
" style="fill:#676767;"/>
   </g>
   <g id="patch_30">
    <path clip-path="url(#p7de7eeb986)" d="M 343.665253 872.124239 
L 343.665253 872.124239 
L 342.64356 869.484541 
L 641.815528 753.690287 
L 642.837221 756.329985 
L 643.858913 758.969682 
L 344.686946 874.763936 
L 343.665253 872.124239 
z
" style="fill:#fafafa;"/>
   </g>
   <g id="patch_31">
    <path clip-path="url(#p7de7eeb986)" d="M 343.665253 872.124239 
L 343.665253 872.124239 
L 342.086756 869.774727 
L 513.257642 754.775215 
L 514.83614 757.124727 
L 516.414637 759.47424 
L 345.24375 874.473751 
L 343.665253 872.124239 
z
" style="fill:#e7e7e7;"/>
   </g>
   <g id="matplotlib.axis_1"/>
   <g id="matplotlib.axis_2"/>
   <g id="patch_32">
    <path clip-path="url(#p7de7eeb986)" d="M 466.927464 944.232181 
C 471.431444 944.232181 475.75156 942.44273 478.936355 939.257935 
C 482.121151 936.073139 483.910601 931.753024 483.910601 927.249043 
C 483.910601 922.745062 482.121151 918.424947 478.936355 915.240151 
C 475.75156 912.055356 471.431444 910.265905 466.927464 910.265905 
C 462.423483 910.265905 458.103367 912.055356 454.918572 915.240151 
C 451.733777 918.424947 449.944326 922.745062 449.944326 927.249043 
C 449.944326 931.753024 451.733777 936.073139 454.918572 939.257935 
C 458.103367 942.44273 462.423483 944.232181 466.927464 944.232181 
z
"/>
   </g>
   <g id="patch_33">
    <path clip-path="url(#p7de7eeb986)" d="M 366.187813 751.370714 
C 370.691793 751.370714 375.011909 749.581263 378.196704 746.396468 
C 381.3815 743.211673 383.17095 738.891557 383.17095 734.387576 
C 383.17095 729.883596 381.3815 725.56348 378.196704 722.378685 
C 375.011909 719.193889 370.691793 717.404439 366.187813 717.404439 
C 361.683832 717.404439 357.363716 719.193889 354.178921 722.378685 
C 350.994126 725.56348 349.204675 729.883596 349.204675 734.387576 
C 349.204675 738.891557 350.994126 743.211673 354.178921 746.396468 
C 357.363716 749.581263 361.683832 751.370714 366.187813 751.370714 
z
"/>
   </g>
   <g id="patch_34">
    <path clip-path="url(#p7de7eeb986)" d="M 819.688363 963.416612 
C 824.192344 963.416612 828.512459 961.627162 831.697255 958.442366 
C 834.88205 955.257571 836.6715 950.937455 836.6715 946.433475 
C 836.6715 941.929494 834.88205 937.609378 831.697255 934.424583 
C 828.512459 931.239788 824.192344 929.450337 819.688363 929.450337 
C 815.184382 929.450337 810.864266 931.239788 807.679471 934.424583 
C 804.494676 937.609378 802.705225 941.929494 802.705225 946.433475 
C 802.705225 950.937455 804.494676 955.257571 807.679471 958.442366 
C 810.864266 961.627162 815.184382 963.416612 819.688363 963.416612 
z
"/>
   </g>
   <g id="patch_35">
    <path clip-path="url(#p7de7eeb986)" d="M 878.763116 791.059478 
C 883.267096 791.059478 887.587212 789.270028 890.772007 786.085233 
C 893.956803 782.900437 895.746253 778.580322 895.746253 774.076341 
C 895.746253 769.57236 893.956803 765.252244 890.772007 762.067449 
C 887.587212 758.882654 883.267096 757.093203 878.763116 757.093203 
C 874.259135 757.093203 869.939019 758.882654 866.754224 762.067449 
C 863.569429 765.252244 861.779978 769.57236 861.779978 774.076341 
C 861.779978 778.580322 863.569429 782.900437 866.754224 786.085233 
C 869.939019 789.270028 874.259135 791.059478 878.763116 791.059478 
z
"/>
   </g>
   <g id="patch_36">
    <path clip-path="url(#p7de7eeb986)" d="M 738.859599 713.305983 
C 743.363579 713.305983 747.683695 711.516533 750.86849 708.331738 
C 754.053286 705.146942 755.842736 700.826827 755.842736 696.322846 
C 755.842736 691.818865 754.053286 687.498749 750.86849 684.313954 
C 747.683695 681.129159 743.363579 679.339708 738.859599 679.339708 
C 734.355618 679.339708 730.035502 681.129159 726.850707 684.313954 
C 723.665912 687.498749 721.876461 691.818865 721.876461 696.322846 
C 721.876461 700.826827 723.665912 705.146942 726.850707 708.331738 
C 730.035502 711.516533 734.355618 713.305983 738.859599 713.305983 
z
"/>
   </g>
   <g id="patch_37">
    <path clip-path="url(#p7de7eeb986)" d="M 592.43943 968.786871 
C 596.94341 968.786871 601.263526 966.99742 604.448321 963.812625 
C 607.633117 960.627829 609.422567 956.307714 609.422567 951.803733 
C 609.422567 947.299752 607.633117 942.979637 604.448321 939.794841 
C 601.263526 936.610046 596.94341 934.820595 592.43943 934.820595 
C 587.935449 934.820595 583.615333 936.610046 580.430538 939.794841 
C 577.245743 942.979637 575.456292 947.299752 575.456292 951.803733 
C 575.456292 956.307714 577.245743 960.627829 580.430538 963.812625 
C 583.615333 966.99742 587.935449 968.786871 592.43943 968.786871 
z
"/>
   </g>
   <g id="patch_38">
    <path clip-path="url(#p7de7eeb986)" d="M 830.83159 713.42684 
C 835.335571 713.42684 839.655687 711.63739 842.840482 708.452595 
C 846.025277 705.267799 847.814728 700.947684 847.814728 696.443703 
C 847.814728 691.939722 846.025277 687.619606 842.840482 684.434811 
C 839.655687 681.250016 835.335571 679.460565 830.83159 679.460565 
C 826.327609 679.460565 822.007494 681.250016 818.822698 684.434811 
C 815.637903 687.619606 813.848453 691.939722 813.848453 696.443703 
C 813.848453 700.947684 815.637903 705.267799 818.822698 708.452595 
C 822.007494 711.63739 826.327609 713.42684 830.83159 713.42684 
z
"/>
   </g>
   <g id="patch_39">
    <path clip-path="url(#p7de7eeb986)" d="M 514.83614 774.107865 
C 519.34012 774.107865 523.660236 772.318414 526.845031 769.133619 
C 530.029827 765.948824 531.819277 761.628708 531.819277 757.124727 
C 531.819277 752.620747 530.029827 748.300631 526.845031 745.115836 
C 523.660236 741.93104 519.34012 740.14159 514.83614 740.14159 
C 510.332159 740.14159 506.012043 741.93104 502.827248 745.115836 
C 499.642453 748.300631 497.853002 752.620747 497.853002 757.124727 
C 497.853002 761.628708 499.642453 765.948824 502.827248 769.133619 
C 506.012043 772.318414 510.332159 774.107865 514.83614 774.107865 
z
"/>
   </g>
   <g id="patch_40">
    <path clip-path="url(#p7de7eeb986)" d="M 642.837221 773.313122 
C 647.341201 773.313122 651.661317 771.523672 654.846112 768.338876 
C 658.030908 765.154081 659.820358 760.833965 659.820358 756.329985 
C 659.820358 751.826004 658.030908 747.505888 654.846112 744.321093 
C 651.661317 741.136298 647.341201 739.346847 642.837221 739.346847 
C 638.33324 739.346847 634.013124 741.136298 630.828329 744.321093 
C 627.643534 747.505888 625.854083 751.826004 625.854083 756.329985 
C 625.854083 760.833965 627.643534 765.154081 630.828329 768.338876 
C 634.013124 771.523672 638.33324 773.313122 642.837221 773.313122 
z
"/>
   </g>
   <g id="patch_41">
    <path clip-path="url(#p7de7eeb986)" d="M 741.676333 1049.08541 
C 746.180314 1049.08541 750.50043 1047.295959 753.685225 1044.111164 
C 756.87002 1040.926368 758.659471 1036.606253 758.659471 1032.102272 
C 758.659471 1027.598291 756.87002 1023.278176 753.685225 1020.09338 
C 750.50043 1016.908585 746.180314 1015.119135 741.676333 1015.119135 
C 737.172353 1015.119135 732.852237 1016.908585 729.667442 1020.09338 
C 726.482646 1023.278176 724.693196 1027.598291 724.693196 1032.102272 
C 724.693196 1036.606253 726.482646 1040.926368 729.667442 1044.111164 
C 732.852237 1047.295959 737.172353 1049.08541 741.676333 1049.08541 
z
"/>
   </g>
   <g id="patch_42">
    <path clip-path="url(#p7de7eeb986)" d="M 732.256049 533.090801 
C 736.76003 533.090801 741.080145 531.30135 744.264941 528.116555 
C 747.449736 524.93176 749.239187 520.611644 749.239187 516.107663 
C 749.239187 511.603682 747.449736 507.283567 744.264941 504.098771 
C 741.080145 500.913976 736.76003 499.124526 732.256049 499.124526 
C 727.752068 499.124526 723.431953 500.913976 720.247157 504.098771 
C 717.062362 507.283567 715.272912 511.603682 715.272912 516.107663 
C 715.272912 520.611644 717.062362 524.93176 720.247157 528.116555 
C 723.431953 531.30135 727.752068 533.090801 732.256049 533.090801 
z
"/>
   </g>
   <g id="patch_43">
    <path clip-path="url(#p7de7eeb986)" d="M 802.199465 848.923845 
C 806.703446 848.923845 811.023561 847.134395 814.208357 843.9496 
C 817.393152 840.764804 819.182603 836.444689 819.182603 831.940708 
C 819.182603 827.436727 817.393152 823.116612 814.208357 819.931816 
C 811.023561 816.747021 806.703446 814.95757 802.199465 814.95757 
C 797.695484 814.95757 793.375369 816.747021 790.190573 819.931816 
C 787.005778 823.116612 785.216327 827.436727 785.216327 831.940708 
C 785.216327 836.444689 787.005778 840.764804 790.190573 843.9496 
C 793.375369 847.134395 797.695484 848.923845 802.199465 848.923845 
z
"/>
   </g>
   <g id="patch_44">
    <path clip-path="url(#p7de7eeb986)" d="M 968.746642 855.06631 
C 973.250623 855.06631 977.570739 853.276859 980.755534 850.092064 
C 983.940329 846.907269 985.72978 842.587153 985.72978 838.083172 
C 985.72978 833.579192 983.940329 829.259076 980.755534 826.074281 
C 977.570739 822.889485 973.250623 821.100035 968.746642 821.100035 
C 964.242662 821.100035 959.922546 822.889485 956.737751 826.074281 
C 953.552955 829.259076 951.763505 833.579192 951.763505 838.083172 
C 951.763505 842.587153 953.552955 846.907269 956.737751 850.092064 
C 959.922546 853.276859 964.242662 855.06631 968.746642 855.06631 
z
"/>
   </g>
   <g id="patch_45">
    <path clip-path="url(#p7de7eeb986)" d="M 343.665253 889.107376 
C 348.169234 889.107376 352.489349 887.317926 355.674145 884.13313 
C 358.85894 880.948335 360.64839 876.628219 360.64839 872.124239 
C 360.64839 867.620258 358.85894 863.300142 355.674145 860.115347 
C 352.489349 856.930552 348.169234 855.141101 343.665253 855.141101 
C 339.161272 855.141101 334.841156 856.930552 331.656361 860.115347 
C 328.471566 863.300142 326.682115 867.620258 326.682115 872.124239 
C 326.682115 876.628219 328.471566 880.948335 331.656361 884.13313 
C 334.841156 887.317926 339.161272 889.107376 343.665253 889.107376 
z
"/>
   </g>
   <g id="patch_46">
    <path clip-path="url(#p7de7eeb986)" d="M 1014.032062 745.348051 
C 1018.536043 745.348051 1022.856159 743.5586 1026.040954 740.373805 
C 1029.225749 737.18901 1031.0152 732.868894 1031.0152 728.364913 
C 1031.0152 723.860933 1029.225749 719.540817 1026.040954 716.356022 
C 1022.856159 713.171226 1018.536043 711.381776 1014.032062 711.381776 
C 1009.528082 711.381776 1005.207966 713.171226 1002.023171 716.356022 
C 998.838375 719.540817 997.048925 723.860933 997.048925 728.364913 
C 997.048925 732.868894 998.838375 737.18901 1002.023171 740.373805 
C 1005.207966 743.5586 1009.528082 745.348051 1014.032062 745.348051 
z
"/>
   </g>
   <g id="patch_47">
    <path clip-path="url(#p7de7eeb986)" d="M 1022.769134 1022.000516 
C 1027.273115 1022.000516 1031.59323 1020.211065 1034.778026 1017.02627 
C 1037.962821 1013.841475 1039.752272 1009.521359 1039.752272 1005.017378 
C 1039.752272 1000.513397 1037.962821 996.193282 1034.778026 993.008486 
C 1031.59323 989.823691 1027.273115 988.034241 1022.769134 988.034241 
C 1018.265153 988.034241 1013.945038 989.823691 1010.760242 993.008486 
C 1007.575447 996.193282 1005.785997 1000.513397 1005.785997 1005.017378 
C 1005.785997 1009.521359 1007.575447 1013.841475 1010.760242 1017.02627 
C 1013.945038 1020.211065 1018.265153 1022.000516 1022.769134 1022.000516 
z
"/>
   </g>
   <g id="patch_48">
    <path clip-path="url(#p7de7eeb986)" d="M 951.885796 541.226371 
C 956.389777 541.226371 960.709893 539.43692 963.894688 536.252125 
C 967.079483 533.06733 968.868934 528.747214 968.868934 524.243233 
C 968.868934 519.739252 967.079483 515.419137 963.894688 512.234341 
C 960.709893 509.049546 956.389777 507.260096 951.885796 507.260096 
C 947.381815 507.260096 943.0617 509.049546 939.876905 512.234341 
C 936.692109 515.419137 934.902659 519.739252 934.902659 524.243233 
C 934.902659 528.747214 936.692109 533.06733 939.876905 536.252125 
C 943.0617 539.43692 947.381815 541.226371 951.885796 541.226371 
z
"/>
   </g>
   <g id="patch_49">
    <path clip-path="url(#p7de7eeb986)" d="M 610.532558 1100.134799 
C 615.036539 1100.134799 619.356655 1098.345348 622.54145 1095.160553 
C 625.726245 1091.975758 627.515696 1087.655642 627.515696 1083.151661 
C 627.515696 1078.647681 625.726245 1074.327565 622.54145 1071.14277 
C 619.356655 1067.957974 615.036539 1066.168524 610.532558 1066.168524 
C 606.028577 1066.168524 601.708462 1067.957974 598.523666 1071.14277 
C 595.338871 1074.327565 593.549421 1078.647681 593.549421 1083.151661 
C 593.549421 1087.655642 595.338871 1091.975758 598.523666 1095.160553 
C 601.708462 1098.345348 606.028577 1100.134799 610.532558 1100.134799 
z
"/>
   </g>
   <g id="patch_50">
    <path clip-path="url(#p7de7eeb986)" d="M 424.651647 634.952551 
C 429.155627 634.952551 433.475743 633.1631 436.660538 629.978305 
C 439.845334 626.79351 441.634784 622.473394 441.634784 617.969413 
C 441.634784 613.465432 439.845334 609.145317 436.660538 605.960521 
C 433.475743 602.775726 429.155627 600.986276 424.651647 600.986276 
C 420.147666 600.986276 415.82755 602.775726 412.642755 605.960521 
C 409.45796 609.145317 407.668509 613.465432 407.668509 617.969413 
C 407.668509 622.473394 409.45796 626.79351 412.642755 629.978305 
C 415.82755 633.1631 420.147666 634.952551 424.651647 634.952551 
z
"/>
   </g>
   <g id="patch_51">
    <path clip-path="url(#p7de7eeb986)" d="M 1130.417457 729.427946 
C 1134.921438 729.427946 1139.241553 727.638495 1142.426349 724.4537 
C 1145.611144 721.268905 1147.400595 716.948789 1147.400595 712.444808 
C 1147.400595 707.940828 1145.611144 703.620712 1142.426349 700.435917 
C 1139.241553 697.251121 1134.921438 695.461671 1130.417457 695.461671 
C 1125.913476 695.461671 1121.593361 697.251121 1118.408565 700.435917 
C 1115.22377 703.620712 1113.43432 707.940828 1113.43432 712.444808 
C 1113.43432 716.948789 1115.22377 721.268905 1118.408565 724.4537 
C 1121.593361 727.638495 1125.913476 729.427946 1130.417457 729.427946 
z
"/>
   </g>
   <g id="patch_52">
    <path clip-path="url(#p7de7eeb986)" d="M 466.927464 941.401658 
C 470.680781 941.401658 474.280877 939.910449 476.934873 937.256453 
C 479.58887 934.602457 481.080078 931.00236 481.080078 927.249043 
C 481.080078 923.495726 479.58887 919.895629 476.934873 917.241633 
C 474.280877 914.587637 470.680781 913.096428 466.927464 913.096428 
C 463.174146 913.096428 459.57405 914.587637 456.920054 917.241633 
C 454.266058 919.895629 452.774849 923.495726 452.774849 927.249043 
C 452.774849 931.00236 454.266058 934.602457 456.920054 937.256453 
C 459.57405 939.910449 463.174146 941.401658 466.927464 941.401658 
z
" style="fill:#ffffff;"/>
   </g>
   <g id="patch_53">
    <path clip-path="url(#p7de7eeb986)" d="M 366.187813 748.540191 
C 369.94113 748.540191 373.541226 747.048982 376.195222 744.394986 
C 378.849218 741.74099 380.340427 738.140894 380.340427 734.387576 
C 380.340427 730.634259 378.849218 727.034163 376.195222 724.380167 
C 373.541226 721.726171 369.94113 720.234962 366.187813 720.234962 
C 362.434495 720.234962 358.834399 721.726171 356.180403 724.380167 
C 353.526407 727.034163 352.035198 730.634259 352.035198 734.387576 
C 352.035198 738.140894 353.526407 741.74099 356.180403 744.394986 
C 358.834399 747.048982 362.434495 748.540191 366.187813 748.540191 
z
" style="fill:#ffffff;"/>
   </g>
   <g id="patch_54">
    <path clip-path="url(#p7de7eeb986)" d="M 819.688363 960.586089 
C 823.44168 960.586089 827.041777 959.094881 829.695773 956.440885 
C 832.349769 953.786888 833.840977 950.186792 833.840977 946.433475 
C 833.840977 942.680158 832.349769 939.080061 829.695773 936.426065 
C 827.041777 933.772069 823.44168 932.28086 819.688363 932.28086 
C 815.935046 932.28086 812.334949 933.772069 809.680953 936.426065 
C 807.026957 939.080061 805.535748 942.680158 805.535748 946.433475 
C 805.535748 950.186792 807.026957 953.786888 809.680953 956.440885 
C 812.334949 959.094881 815.935046 960.586089 819.688363 960.586089 
z
" style="fill:#ffffff;"/>
   </g>
   <g id="patch_55">
    <path clip-path="url(#p7de7eeb986)" d="M 878.763116 788.228955 
C 882.516433 788.228955 886.116529 786.737747 888.770525 784.083751 
C 891.424521 781.429754 892.91573 777.829658 892.91573 774.076341 
C 892.91573 770.323024 891.424521 766.722927 888.770525 764.068931 
C 886.116529 761.414935 882.516433 759.923726 878.763116 759.923726 
C 875.009798 759.923726 871.409702 761.414935 868.755706 764.068931 
C 866.10171 766.722927 864.610501 770.323024 864.610501 774.076341 
C 864.610501 777.829658 866.10171 781.429754 868.755706 784.083751 
C 871.409702 786.737747 875.009798 788.228955 878.763116 788.228955 
z
" style="fill:#ffffff;"/>
   </g>
   <g id="patch_56">
    <path clip-path="url(#p7de7eeb986)" d="M 738.859599 710.47546 
C 742.612916 710.47546 746.213012 708.984252 748.867008 706.330256 
C 751.521005 703.67626 753.012213 700.076163 753.012213 696.322846 
C 753.012213 692.569529 751.521005 688.969432 748.867008 686.315436 
C 746.213012 683.66144 742.612916 682.170231 738.859599 682.170231 
C 735.106281 682.170231 731.506185 683.66144 728.852189 686.315436 
C 726.198193 688.969432 724.706984 692.569529 724.706984 696.322846 
C 724.706984 700.076163 726.198193 703.67626 728.852189 706.330256 
C 731.506185 708.984252 735.106281 710.47546 738.859599 710.47546 
z
" style="fill:#ffffff;"/>
   </g>
   <g id="patch_57">
    <path clip-path="url(#p7de7eeb986)" d="M 592.43943 965.956348 
C 596.192747 965.956348 599.792843 964.465139 602.446839 961.811143 
C 605.100835 959.157147 606.592044 955.55705 606.592044 951.803733 
C 606.592044 948.050416 605.100835 944.450319 602.446839 941.796323 
C 599.792843 939.142327 596.192747 937.651118 592.43943 937.651118 
C 588.686112 937.651118 585.086016 939.142327 582.43202 941.796323 
C 579.778024 944.450319 578.286815 948.050416 578.286815 951.803733 
C 578.286815 955.55705 579.778024 959.157147 582.43202 961.811143 
C 585.086016 964.465139 588.686112 965.956348 592.43943 965.956348 
z
" style="fill:#ffffff;"/>
   </g>
   <g id="patch_58">
    <path clip-path="url(#p7de7eeb986)" d="M 830.83159 710.596317 
C 834.584907 710.596317 838.185004 709.105109 840.839 706.451113 
C 843.492996 703.797116 844.984205 700.19702 844.984205 696.443703 
C 844.984205 692.690386 843.492996 689.090289 840.839 686.436293 
C 838.185004 683.782297 834.584907 682.291088 830.83159 682.291088 
C 827.078273 682.291088 823.478177 683.782297 820.82418 686.436293 
C 818.170184 689.090289 816.678976 692.690386 816.678976 696.443703 
C 816.678976 700.19702 818.170184 703.797116 820.82418 706.451113 
C 823.478177 709.105109 827.078273 710.596317 830.83159 710.596317 
z
" style="fill:#ffffff;"/>
   </g>
   <g id="patch_59">
    <path clip-path="url(#p7de7eeb986)" d="M 514.83614 771.277342 
C 518.589457 771.277342 522.189553 769.786133 524.843549 767.132137 
C 527.497545 764.478141 528.988754 760.878045 528.988754 757.124727 
C 528.988754 753.37141 527.497545 749.771314 524.843549 747.117318 
C 522.189553 744.463322 518.589457 742.972113 514.83614 742.972113 
C 511.082822 742.972113 507.482726 744.463322 504.82873 747.117318 
C 502.174734 749.771314 500.683525 753.37141 500.683525 757.124727 
C 500.683525 760.878045 502.174734 764.478141 504.82873 767.132137 
C 507.482726 769.786133 511.082822 771.277342 514.83614 771.277342 
z
" style="fill:#ffffff;"/>
   </g>
   <g id="patch_60">
    <path clip-path="url(#p7de7eeb986)" d="M 642.837221 770.482599 
C 646.590538 770.482599 650.190634 768.99139 652.84463 766.337394 
C 655.498626 763.683398 656.989835 760.083302 656.989835 756.329985 
C 656.989835 752.576667 655.498626 748.976571 652.84463 746.322575 
C 650.190634 743.668579 646.590538 742.17737 642.837221 742.17737 
C 639.083903 742.17737 635.483807 743.668579 632.829811 746.322575 
C 630.175815 748.976571 628.684606 752.576667 628.684606 756.329985 
C 628.684606 760.083302 630.175815 763.683398 632.829811 766.337394 
C 635.483807 768.99139 639.083903 770.482599 642.837221 770.482599 
z
" style="fill:#ffffff;"/>
   </g>
   <g id="patch_61">
    <path clip-path="url(#p7de7eeb986)" d="M 741.676333 1046.254887 
C 745.429651 1046.254887 749.029747 1044.763678 751.683743 1042.109682 
C 754.337739 1039.455686 755.828948 1035.855589 755.828948 1032.102272 
C 755.828948 1028.348955 754.337739 1024.748858 751.683743 1022.094862 
C 749.029747 1019.440866 745.429651 1017.949657 741.676333 1017.949657 
C 737.923016 1017.949657 734.32292 1019.440866 731.668924 1022.094862 
C 729.014928 1024.748858 727.523719 1028.348955 727.523719 1032.102272 
C 727.523719 1035.855589 729.014928 1039.455686 731.668924 1042.109682 
C 734.32292 1044.763678 737.923016 1046.254887 741.676333 1046.254887 
z
" style="fill:#ffffff;"/>
   </g>
   <g id="patch_62">
    <path clip-path="url(#p7de7eeb986)" d="M 732.256049 530.260278 
C 736.009366 530.260278 739.609463 528.769069 742.263459 526.115073 
C 744.917455 523.461077 746.408664 519.86098 746.408664 516.107663 
C 746.408664 512.354346 744.917455 508.754249 742.263459 506.100253 
C 739.609463 503.446257 736.009366 501.955049 732.256049 501.955049 
C 728.502732 501.955049 724.902635 503.446257 722.248639 506.100253 
C 719.594643 508.754249 718.103434 512.354346 718.103434 516.107663 
C 718.103434 519.86098 719.594643 523.461077 722.248639 526.115073 
C 724.902635 528.769069 728.502732 530.260278 732.256049 530.260278 
z
" style="fill:#ffffff;"/>
   </g>
   <g id="patch_63">
    <path clip-path="url(#p7de7eeb986)" d="M 802.199465 846.093323 
C 805.952782 846.093323 809.552879 844.602114 812.206875 841.948118 
C 814.860871 839.294122 816.35208 835.694025 816.35208 831.940708 
C 816.35208 828.187391 814.860871 824.587294 812.206875 821.933298 
C 809.552879 819.279302 805.952782 817.788093 802.199465 817.788093 
C 798.446148 817.788093 794.846051 819.279302 792.192055 821.933298 
C 789.538059 824.587294 788.04685 828.187391 788.04685 831.940708 
C 788.04685 835.694025 789.538059 839.294122 792.192055 841.948118 
C 794.846051 844.602114 798.446148 846.093323 802.199465 846.093323 
z
" style="fill:#ffffff;"/>
   </g>
   <g id="patch_64">
    <path clip-path="url(#p7de7eeb986)" d="M 968.746642 852.235787 
C 972.49996 852.235787 976.100056 850.744578 978.754052 848.090582 
C 981.408048 845.436586 982.899257 841.83649 982.899257 838.083172 
C 982.899257 834.329855 981.408048 830.729759 978.754052 828.075762 
C 976.100056 825.421766 972.49996 823.930558 968.746642 823.930558 
C 964.993325 823.930558 961.393229 825.421766 958.739233 828.075762 
C 956.085236 830.729759 954.594028 834.329855 954.594028 838.083172 
C 954.594028 841.83649 956.085236 845.436586 958.739233 848.090582 
C 961.393229 850.744578 964.993325 852.235787 968.746642 852.235787 
z
" style="fill:#ffffff;"/>
   </g>
   <g id="patch_65">
    <path clip-path="url(#p7de7eeb986)" d="M 343.665253 886.276853 
C 347.41857 886.276853 351.018667 884.785645 353.672663 882.131648 
C 356.326659 879.477652 357.817867 875.877556 357.817867 872.124239 
C 357.817867 868.370921 356.326659 864.770825 353.672663 862.116829 
C 351.018667 859.462833 347.41857 857.971624 343.665253 857.971624 
C 339.911936 857.971624 336.311839 859.462833 333.657843 862.116829 
C 331.003847 864.770825 329.512638 868.370921 329.512638 872.124239 
C 329.512638 875.877556 331.003847 879.477652 333.657843 882.131648 
C 336.311839 884.785645 339.911936 886.276853 343.665253 886.276853 
z
" style="fill:#ffffff;"/>
   </g>
   <g id="patch_66">
    <path clip-path="url(#p7de7eeb986)" d="M 1014.032062 742.517528 
C 1017.78538 742.517528 1021.385476 741.026319 1024.039472 738.372323 
C 1026.693468 735.718327 1028.184677 732.118231 1028.184677 728.364913 
C 1028.184677 724.611596 1026.693468 721.0115 1024.039472 718.357503 
C 1021.385476 715.703507 1017.78538 714.212299 1014.032062 714.212299 
C 1010.278745 714.212299 1006.678649 715.703507 1004.024653 718.357503 
C 1001.370656 721.0115 999.879448 724.611596 999.879448 728.364913 
C 999.879448 732.118231 1001.370656 735.718327 1004.024653 738.372323 
C 1006.678649 741.026319 1010.278745 742.517528 1014.032062 742.517528 
z
" style="fill:#ffffff;"/>
   </g>
   <g id="patch_67">
    <path clip-path="url(#p7de7eeb986)" d="M 1022.769134 1019.169993 
C 1026.522451 1019.169993 1030.122548 1017.678784 1032.776544 1015.024788 
C 1035.43054 1012.370792 1036.921749 1008.770695 1036.921749 1005.017378 
C 1036.921749 1001.264061 1035.43054 997.663965 1032.776544 995.009968 
C 1030.122548 992.355972 1026.522451 990.864764 1022.769134 990.864764 
C 1019.015817 990.864764 1015.41572 992.355972 1012.761724 995.009968 
C 1010.107728 997.663965 1008.616519 1001.264061 1008.616519 1005.017378 
C 1008.616519 1008.770695 1010.107728 1012.370792 1012.761724 1015.024788 
C 1015.41572 1017.678784 1019.015817 1019.169993 1022.769134 1019.169993 
z
" style="fill:#ffffff;"/>
   </g>
   <g id="patch_68">
    <path clip-path="url(#p7de7eeb986)" d="M 951.885796 538.395848 
C 955.639113 538.395848 959.23921 536.904639 961.893206 534.250643 
C 964.547202 531.596647 966.038411 527.99655 966.038411 524.243233 
C 966.038411 520.489916 964.547202 516.88982 961.893206 514.235823 
C 959.23921 511.581827 955.639113 510.090619 951.885796 510.090619 
C 948.132479 510.090619 944.532383 511.581827 941.878386 514.235823 
C 939.22439 516.88982 937.733182 520.489916 937.733182 524.243233 
C 937.733182 527.99655 939.22439 531.596647 941.878386 534.250643 
C 944.532383 536.904639 948.132479 538.395848 951.885796 538.395848 
z
" style="fill:#ffffff;"/>
   </g>
   <g id="patch_69">
    <path clip-path="url(#p7de7eeb986)" d="M 610.532558 1097.304276 
C 614.285875 1097.304276 617.885972 1095.813067 620.539968 1093.159071 
C 623.193964 1090.505075 624.685173 1086.904979 624.685173 1083.151661 
C 624.685173 1079.398344 623.193964 1075.798248 620.539968 1073.144252 
C 617.885972 1070.490255 614.285875 1068.999047 610.532558 1068.999047 
C 606.779241 1068.999047 603.179144 1070.490255 600.525148 1073.144252 
C 597.871152 1075.798248 596.379944 1079.398344 596.379944 1083.151661 
C 596.379944 1086.904979 597.871152 1090.505075 600.525148 1093.159071 
C 603.179144 1095.813067 606.779241 1097.304276 610.532558 1097.304276 
z
" style="fill:#ffffff;"/>
   </g>
   <g id="patch_70">
    <path clip-path="url(#p7de7eeb986)" d="M 424.651647 632.122028 
C 428.404964 632.122028 432.00506 630.630819 434.659056 627.976823 
C 437.313052 625.322827 438.804261 621.72273 438.804261 617.969413 
C 438.804261 614.216096 437.313052 610.616 434.659056 607.962003 
C 432.00506 605.308007 428.404964 603.816799 424.651647 603.816799 
C 420.898329 603.816799 417.298233 605.308007 414.644237 607.962003 
C 411.990241 610.616 410.499032 614.216096 410.499032 617.969413 
C 410.499032 621.72273 411.990241 625.322827 414.644237 627.976823 
C 417.298233 630.630819 420.898329 632.122028 424.651647 632.122028 
z
" style="fill:#ffffff;"/>
   </g>
   <g id="patch_71">
    <path clip-path="url(#p7de7eeb986)" d="M 1130.417457 726.597423 
C 1134.170774 726.597423 1137.770871 725.106214 1140.424867 722.452218 
C 1143.078863 719.798222 1144.570072 716.198126 1144.570072 712.444808 
C 1144.570072 708.691491 1143.078863 705.091395 1140.424867 702.437399 
C 1137.770871 699.783403 1134.170774 698.292194 1130.417457 698.292194 
C 1126.66414 698.292194 1123.064043 699.783403 1120.410047 702.437399 
C 1117.756051 705.091395 1116.264842 708.691491 1116.264842 712.444808 
C 1116.264842 716.198126 1117.756051 719.798222 1120.410047 722.452218 
C 1123.064043 725.106214 1126.66414 726.597423 1130.417457 726.597423 
z
" style="fill:#ffffff;"/>
   </g>
  </g>
 </g>
 <defs>
  <clipPath id="p7de7eeb986">
   <rect height="1133.15256" width="1317.6" x="32.4" y="161.34372"/>
  </clipPath>
 </defs>
</svg>
