<?xml version="1.0" encoding="utf-8" standalone="no"?>
<!DOCTYPE svg PUBLIC "-//W3C//DTD SVG 1.1//EN"
  "http://www.w3.org/Graphics/SVG/1.1/DTD/svg11.dtd">
<!-- Created with matplotlib (http://matplotlib.org/) -->
<svg height="1455pt" version="1.1" viewBox="0 0 1382 1455" width="1382pt" xmlns="http://www.w3.org/2000/svg" xmlns:xlink="http://www.w3.org/1999/xlink">
 <defs>
  <style type="text/css">
*{stroke-linecap:butt;stroke-linejoin:round;}
  </style>
 </defs>
 <g id="figure_1">
  <g id="patch_1">
   <path d="M 0 1455.84 
L 1382.4 1455.84 
L 1382.4 0 
L 0 0 
z
" style="fill:#ffffff;"/>
  </g>
  <g id="axes_1">
   <g id="patch_2">
    <path clip-path="url(#p809dffa0f1)" d="M 839.377806 1014.158577 
L 839.377806 1014.158577 
L 838.858438 1016.548929 
L 686.237366 983.38787 
L 686.756735 980.997518 
L 687.276103 978.607166 
L 839.897175 1011.768225 
L 839.377806 1014.158577 
z
"/>
   </g>
   <g id="patch_3">
    <path clip-path="url(#p809dffa0f1)" d="M 652.255665 774.533638 
L 652.255665 774.533639 
L 654.668335 774.13047 
L 689.169406 980.59435 
L 686.756735 980.997518 
L 684.344064 981.400687 
L 649.842994 774.936807 
L 652.255665 774.533639 
z
"/>
   </g>
   <g id="patch_4">
    <path clip-path="url(#p809dffa0f1)" d="M 785.071163 770.832551 
L 785.071163 770.832551 
L 783.011631 772.152344 
L 684.344738 618.183032 
L 686.404269 616.863239 
L 688.463801 615.543446 
L 787.130695 769.512758 
L 785.071163 770.832551 
z
"/>
   </g>
   <g id="patch_5">
    <path clip-path="url(#p809dffa0f1)" d="M 707.216217 502.269505 
L 707.216217 502.269505 
L 709.622972 502.706608 
L 688.811024 617.300341 
L 686.404269 616.863239 
L 683.997515 616.426136 
L 704.809463 501.832402 
L 707.216217 502.269505 
z
"/>
   </g>
   <g id="patch_6">
    <path clip-path="url(#p809dffa0f1)" d="M 652.255665 774.533639 
L 652.255665 774.533639 
L 649.864969 774.015856 
L 684.013574 616.345456 
L 686.404269 616.863239 
L 688.794965 617.381021 
L 654.646361 775.051421 
L 652.255665 774.533639 
z
"/>
   </g>
   <g id="patch_7">
    <path clip-path="url(#p809dffa0f1)" d="M 420.135911 791.48384 
L 420.135911 791.48384 
L 418.794463 789.438347 
L 685.062821 614.817746 
L 686.404269 616.863239 
L 687.745718 618.908732 
L 421.47736 793.529333 
L 420.135911 791.48384 
z
"/>
   </g>
   <g id="patch_8">
    <path clip-path="url(#p809dffa0f1)" d="M 785.071163 770.832551 
L 785.071163 770.832551 
L 785.016836 768.387029 
L 945.368125 764.824864 
L 945.422452 767.270385 
L 945.476779 769.715906 
L 785.125489 773.278072 
L 785.071163 770.832551 
z
"/>
   </g>
   <g id="patch_9">
    <path clip-path="url(#p809dffa0f1)" d="M 1028.564863 908.340423 
L 1028.564863 908.340423 
L 1026.45751 909.582433 
L 943.315099 768.512395 
L 945.422452 767.270385 
L 947.529805 766.028375 
L 1030.672216 907.098413 
L 1028.564863 908.340423 
z
"/>
   </g>
   <g id="patch_10">
    <path clip-path="url(#p809dffa0f1)" d="M 509.418524 963.498961 
L 509.418524 963.498961 
L 508.414607 961.268339 
L 944.418535 765.039763 
L 945.422452 767.270385 
L 946.426369 769.501007 
L 510.422441 965.729584 
L 509.418524 963.498961 
z
"/>
   </g>
   <g id="patch_11">
    <path clip-path="url(#p809dffa0f1)" d="M 707.216217 502.269505 
L 707.216217 502.269505 
L 704.876607 502.983473 
L 671.417112 393.339582 
L 673.756722 392.625615 
L 676.096332 391.911647 
L 709.555827 501.555538 
L 707.216217 502.269505 
z
"/>
   </g>
   <g id="patch_12">
    <path clip-path="url(#p809dffa0f1)" d="M 785.071163 770.832551 
L 785.071163 770.832551 
L 787.45855 770.299722 
L 841.765194 1013.625749 
L 839.377806 1014.158577 
L 836.990419 1014.691406 
L 782.683775 771.365379 
L 785.071163 770.832551 
z
"/>
   </g>
   <g id="patch_13">
    <path clip-path="url(#p809dffa0f1)" d="M 752.462179 1103.71852 
L 752.462179 1103.71852 
L 750.706787 1102.014958 
L 837.622415 1012.455015 
L 839.377806 1014.158577 
L 841.133198 1015.86214 
L 754.217571 1105.422083 
L 752.462179 1103.71852 
z
"/>
   </g>
   <g id="patch_14">
    <path clip-path="url(#p809dffa0f1)" d="M 959.967865 1042.354088 
L 959.967865 1042.354088 
L 959.41095 1044.735972 
L 838.820891 1016.540461 
L 839.377806 1014.158577 
L 839.934721 1011.776693 
L 960.524781 1039.972204 
L 959.967865 1042.354088 
z
"/>
   </g>
   <g id="patch_15">
    <path clip-path="url(#p809dffa0f1)" d="M 752.462179 1103.71852 
L 752.462179 1103.71852 
L 752.222755 1106.152899 
L 615.146397 1092.671255 
L 615.385821 1090.236876 
L 615.625246 1087.802497 
L 752.701604 1101.284141 
L 752.462179 1103.71852 
z
"/>
   </g>
   <g id="patch_16">
    <path clip-path="url(#p809dffa0f1)" d="M 509.418524 963.498961 
L 509.418524 963.498961 
L 511.295121 961.929914 
L 617.262418 1088.667828 
L 615.385821 1090.236876 
L 613.509225 1091.805924 
L 507.541928 965.068009 
L 509.418524 963.498961 
z
"/>
   </g>
   <g id="patch_17">
    <path clip-path="url(#p809dffa0f1)" d="M 824.392395 691.39988 
L 824.392395 691.39988 
L 826.58462 692.485088 
L 787.263387 771.917759 
L 785.071163 770.832551 
L 782.878938 769.747343 
L 822.200171 690.314672 
L 824.392395 691.39988 
z
"/>
   </g>
   <g id="patch_18">
    <path clip-path="url(#p809dffa0f1)" d="M 959.967865 1042.354088 
L 959.967865 1042.354088 
L 957.911435 1043.678708 
L 783.014732 772.157171 
L 785.071163 770.832551 
L 787.127593 769.50793 
L 962.024296 1041.029467 
L 959.967865 1042.354088 
z
"/>
   </g>
   <g id="patch_19">
    <path clip-path="url(#p809dffa0f1)" d="M 509.418524 963.498961 
L 509.418524 963.498961 
L 508.017182 961.494026 
L 783.66982 768.827615 
L 785.071163 770.832551 
L 786.472505 772.837486 
L 510.819866 965.503897 
L 509.418524 963.498961 
z
"/>
   </g>
   <g id="patch_20">
    <path clip-path="url(#p809dffa0f1)" d="M 698.507826 718.69259 
L 698.507826 718.69259 
L 699.76994 716.597216 
L 786.333276 768.737176 
L 785.071163 770.832551 
L 783.809049 772.927925 
L 697.245713 720.787965 
L 698.507826 718.69259 
z
"/>
   </g>
   <g id="patch_21">
    <path clip-path="url(#p809dffa0f1)" d="M 502.753471 647.306953 
L 502.753471 647.306953 
L 501.338206 645.311821 
L 705.800953 500.274373 
L 707.216217 502.269505 
L 708.631482 504.264637 
L 504.168735 649.302085 
L 502.753471 647.306953 
z
"/>
   </g>
   <g id="patch_22">
    <path clip-path="url(#p809dffa0f1)" d="M 889.726529 652.986685 
L 889.726529 652.986685 
L 888.168959 654.872819 
L 705.658646 504.155639 
L 707.216217 502.269505 
L 708.773788 500.383372 
L 891.2841 651.100552 
L 889.726529 652.986685 
z
"/>
   </g>
   <g id="patch_23">
    <path clip-path="url(#p809dffa0f1)" d="M 1028.564863 908.340423 
L 1028.564863 908.340423 
L 1026.139911 908.661562 
L 998.652653 701.102537 
L 1001.077606 700.781398 
L 1003.502559 700.460259 
L 1030.989816 908.019284 
L 1028.564863 908.340423 
z
"/>
   </g>
   <g id="patch_24">
    <path clip-path="url(#p809dffa0f1)" d="M 889.726529 652.986685 
L 889.726529 652.986685 
L 890.691347 650.738875 
L 1002.042424 698.533587 
L 1001.077606 700.781398 
L 1000.112789 703.029209 
L 888.761712 655.234496 
L 889.726529 652.986685 
z
"/>
   </g>
   <g id="patch_25">
    <path clip-path="url(#p809dffa0f1)" d="M 959.967865 1042.354088 
L 959.967865 1042.354088 
L 957.790417 1041.239527 
L 1026.387415 907.225862 
L 1028.564863 908.340423 
L 1030.742311 909.454984 
L 962.145313 1043.468649 
L 959.967865 1042.354088 
z
"/>
   </g>
   <g id="patch_26">
    <path clip-path="url(#p809dffa0f1)" d="M 959.967865 1042.354088 
L 959.967865 1042.354088 
L 958.361935 1044.19922 
L 650.649735 776.378771 
L 652.255665 774.533639 
L 653.861595 772.688506 
L 961.573795 1040.508955 
L 959.967865 1042.354088 
z
"/>
   </g>
   <g id="patch_27">
    <path clip-path="url(#p809dffa0f1)" d="M 502.753471 647.306953 
L 502.753471 647.306953 
L 504.338783 645.444076 
L 653.840977 772.670762 
L 652.255665 774.533639 
L 650.670352 776.396515 
L 501.168159 649.16983 
L 502.753471 647.306953 
z
"/>
   </g>
   <g id="patch_28">
    <path clip-path="url(#p809dffa0f1)" d="M 420.135911 791.48384 
L 420.135911 791.48384 
L 419.957761 789.044211 
L 652.077514 772.09401 
L 652.255665 774.533639 
L 652.433815 776.973267 
L 420.314062 793.923469 
L 420.135911 791.48384 
z
"/>
   </g>
   <g id="patch_29">
    <path clip-path="url(#p809dffa0f1)" d="M 698.507826 718.69259 
L 698.507826 718.69259 
L 700.391662 720.252939 
L 654.139501 776.093987 
L 652.255665 774.533639 
L 650.371828 772.97329 
L 696.62399 717.132242 
L 698.507826 718.69259 
z
"/>
   </g>
   <g id="patch_30">
    <path clip-path="url(#p809dffa0f1)" d="M 420.135911 791.48384 
L 420.135911 791.48384 
L 422.307007 790.356956 
L 511.58962 962.372077 
L 509.418524 963.498961 
L 507.247428 964.625846 
L 417.964815 792.610724 
L 420.135911 791.48384 
z
"/>
   </g>
   <g id="matplotlib.axis_1"/>
   <g id="matplotlib.axis_2"/>
   <g id="patch_31">
    <path clip-path="url(#p809dffa0f1)" d="M 686.756735 995.674266 
C 690.649054 995.674266 694.382478 994.127831 697.134763 991.375546 
C 699.887048 988.623261 701.433483 984.889837 701.433483 980.997518 
C 701.433483 977.105199 699.887048 973.371776 697.134763 970.61949 
C 694.382478 967.867205 690.649054 966.320771 686.756735 966.320771 
C 682.864416 966.320771 679.130992 967.867205 676.378707 970.61949 
C 673.626422 973.371776 672.079987 977.105199 672.079987 980.997518 
C 672.079987 984.889837 673.626422 988.623261 676.378707 991.375546 
C 679.130992 994.127831 682.864416 995.674266 686.756735 995.674266 
z
"/>
   </g>
   <g id="patch_32">
    <path clip-path="url(#p809dffa0f1)" d="M 686.404269 631.539986 
C 690.296588 631.539986 694.030012 629.993552 696.782297 627.241266 
C 699.534582 624.488981 701.081017 620.755558 701.081017 616.863239 
C 701.081017 612.97092 699.534582 609.237496 696.782297 606.485211 
C 694.030012 603.732926 690.296588 602.186491 686.404269 602.186491 
C 682.511951 602.186491 678.778527 603.732926 676.026242 606.485211 
C 673.273957 609.237496 671.727522 612.97092 671.727522 616.863239 
C 671.727522 620.755558 673.273957 624.488981 676.026242 627.241266 
C 678.778527 629.993552 682.511951 631.539986 686.404269 631.539986 
z
"/>
   </g>
   <g id="patch_33">
    <path clip-path="url(#p809dffa0f1)" d="M 945.422452 781.947133 
C 949.314771 781.947133 953.048195 780.400698 955.80048 777.648413 
C 958.552765 774.896127 960.0992 771.162704 960.0992 767.270385 
C 960.0992 763.378066 958.552765 759.644642 955.80048 756.892357 
C 953.048195 754.140072 949.314771 752.593637 945.422452 752.593637 
C 941.530133 752.593637 937.796709 754.140072 935.044424 756.892357 
C 932.292139 759.644642 930.745704 763.378066 930.745704 767.270385 
C 930.745704 771.162704 932.292139 774.896127 935.044424 777.648413 
C 937.796709 780.400698 941.530133 781.947133 945.422452 781.947133 
z
"/>
   </g>
   <g id="patch_34">
    <path clip-path="url(#p809dffa0f1)" d="M 673.756722 407.302362 
C 677.649041 407.302362 681.382464 405.755928 684.13475 403.003643 
C 686.887035 400.251357 688.433469 396.517934 688.433469 392.625615 
C 688.433469 388.733296 686.887035 384.999872 684.13475 382.247587 
C 681.382464 379.495302 677.649041 377.948867 673.756722 377.948867 
C 669.864403 377.948867 666.130979 379.495302 663.378694 382.247587 
C 660.626409 384.999872 659.079974 388.733296 659.079974 392.625615 
C 659.079974 396.517934 660.626409 400.251357 663.378694 403.003643 
C 666.130979 405.755928 669.864403 407.302362 673.756722 407.302362 
z
"/>
   </g>
   <g id="patch_35">
    <path clip-path="url(#p809dffa0f1)" d="M 839.377806 1028.835325 
C 843.270125 1028.835325 847.003549 1027.28889 849.755834 1024.536605 
C 852.508119 1021.78432 854.054554 1018.050896 854.054554 1014.158577 
C 854.054554 1010.266258 852.508119 1006.532835 849.755834 1003.780549 
C 847.003549 1001.028264 843.270125 999.48183 839.377806 999.48183 
C 835.485487 999.48183 831.752064 1001.028264 828.999779 1003.780549 
C 826.247493 1006.532835 824.701059 1010.266258 824.701059 1014.158577 
C 824.701059 1018.050896 826.247493 1021.78432 828.999779 1024.536605 
C 831.752064 1027.28889 835.485487 1028.835325 839.377806 1028.835325 
z
"/>
   </g>
   <g id="patch_36">
    <path clip-path="url(#p809dffa0f1)" d="M 615.385821 1104.913623 
C 619.27814 1104.913623 623.011564 1103.367189 625.763849 1100.614904 
C 628.516134 1097.862618 630.062569 1094.129195 630.062569 1090.236876 
C 630.062569 1086.344557 628.516134 1082.611133 625.763849 1079.858848 
C 623.011564 1077.106563 619.27814 1075.560128 615.385821 1075.560128 
C 611.493502 1075.560128 607.760078 1077.106563 605.007793 1079.858848 
C 602.255508 1082.611133 600.709073 1086.344557 600.709073 1090.236876 
C 600.709073 1094.129195 602.255508 1097.862618 605.007793 1100.614904 
C 607.760078 1103.367189 611.493502 1104.913623 615.385821 1104.913623 
z
"/>
   </g>
   <g id="patch_37">
    <path clip-path="url(#p809dffa0f1)" d="M 785.071163 785.509298 
C 788.963482 785.509298 792.696905 783.962864 795.44919 781.210578 
C 798.201476 778.458293 799.74791 774.72487 799.74791 770.832551 
C 799.74791 766.940232 798.201476 763.206808 795.44919 760.454523 
C 792.696905 757.702238 788.963482 756.155803 785.071163 756.155803 
C 781.178844 756.155803 777.44542 757.702238 774.693135 760.454523 
C 771.94085 763.206808 770.394415 766.940232 770.394415 770.832551 
C 770.394415 774.72487 771.94085 778.458293 774.693135 781.210578 
C 777.44542 783.962864 781.178844 785.509298 785.071163 785.509298 
z
"/>
   </g>
   <g id="patch_38">
    <path clip-path="url(#p809dffa0f1)" d="M 707.216217 516.946253 
C 711.108536 516.946253 714.84196 515.399818 717.594245 512.647533 
C 720.34653 509.895248 721.892965 506.161824 721.892965 502.269505 
C 721.892965 498.377186 720.34653 494.643763 717.594245 491.891478 
C 714.84196 489.139192 711.108536 487.592758 707.216217 487.592758 
C 703.323898 487.592758 699.590474 489.139192 696.838189 491.891478 
C 694.085904 494.643763 692.539469 498.377186 692.539469 502.269505 
C 692.539469 506.161824 694.085904 509.895248 696.838189 512.647533 
C 699.590474 515.399818 703.323898 516.946253 707.216217 516.946253 
z
"/>
   </g>
   <g id="patch_39">
    <path clip-path="url(#p809dffa0f1)" d="M 752.462179 1118.395268 
C 756.354498 1118.395268 760.087922 1116.848833 762.840207 1114.096548 
C 765.592492 1111.344263 767.138927 1107.610839 767.138927 1103.71852 
C 767.138927 1099.826201 765.592492 1096.092778 762.840207 1093.340492 
C 760.087922 1090.588207 756.354498 1089.041773 752.462179 1089.041773 
C 748.56986 1089.041773 744.836436 1090.588207 742.084151 1093.340492 
C 739.331866 1096.092778 737.785431 1099.826201 737.785431 1103.71852 
C 737.785431 1107.610839 739.331866 1111.344263 742.084151 1114.096548 
C 744.836436 1116.848833 748.56986 1118.395268 752.462179 1118.395268 
z
"/>
   </g>
   <g id="patch_40">
    <path clip-path="url(#p809dffa0f1)" d="M 1001.077606 715.458146 
C 1004.969925 715.458146 1008.703349 713.911711 1011.455634 711.159426 
C 1014.207919 708.407141 1015.754354 704.673717 1015.754354 700.781398 
C 1015.754354 696.889079 1014.207919 693.155655 1011.455634 690.40337 
C 1008.703349 687.651085 1004.969925 686.10465 1001.077606 686.10465 
C 997.185287 686.10465 993.451863 687.651085 990.699578 690.40337 
C 987.947293 693.155655 986.400858 696.889079 986.400858 700.781398 
C 986.400858 704.673717 987.947293 708.407141 990.699578 711.159426 
C 993.451863 713.911711 997.185287 715.458146 1001.077606 715.458146 
z
"/>
   </g>
   <g id="patch_41">
    <path clip-path="url(#p809dffa0f1)" d="M 1028.564863 923.017171 
C 1032.457182 923.017171 1036.190606 921.470736 1038.942891 918.718451 
C 1041.695176 915.966166 1043.241611 912.232742 1043.241611 908.340423 
C 1043.241611 904.448104 1041.695176 900.714681 1038.942891 897.962395 
C 1036.190606 895.21011 1032.457182 893.663676 1028.564863 893.663676 
C 1024.672544 893.663676 1020.939121 895.21011 1018.186836 897.962395 
C 1015.43455 900.714681 1013.888116 904.448104 1013.888116 908.340423 
C 1013.888116 912.232742 1015.43455 915.966166 1018.186836 918.718451 
C 1020.939121 921.470736 1024.672544 923.017171 1028.564863 923.017171 
z
"/>
   </g>
   <g id="patch_42">
    <path clip-path="url(#p809dffa0f1)" d="M 652.255665 789.210386 
C 656.147984 789.210386 659.881407 787.663951 662.633692 784.911666 
C 665.385978 782.159381 666.932412 778.425958 666.932412 774.533639 
C 666.932412 770.64132 665.385978 766.907896 662.633692 764.155611 
C 659.881407 761.403326 656.147984 759.856891 652.255665 759.856891 
C 648.363346 759.856891 644.629922 761.403326 641.877637 764.155611 
C 639.125352 766.907896 637.578917 770.64132 637.578917 774.533639 
C 637.578917 778.425958 639.125352 782.159381 641.877637 784.911666 
C 644.629922 787.663951 648.363346 789.210386 652.255665 789.210386 
z
"/>
   </g>
   <g id="patch_43">
    <path clip-path="url(#p809dffa0f1)" d="M 824.392395 706.076627 
C 828.284714 706.076627 832.018138 704.530193 834.770423 701.777908 
C 837.522708 699.025622 839.069143 695.292199 839.069143 691.39988 
C 839.069143 687.507561 837.522708 683.774137 834.770423 681.021852 
C 832.018138 678.269567 828.284714 676.723132 824.392395 676.723132 
C 820.500076 676.723132 816.766653 678.269567 814.014368 681.021852 
C 811.262082 683.774137 809.715648 687.507561 809.715648 691.39988 
C 809.715648 695.292199 811.262082 699.025622 814.014368 701.777908 
C 816.766653 704.530193 820.500076 706.076627 824.392395 706.076627 
z
"/>
   </g>
   <g id="patch_44">
    <path clip-path="url(#p809dffa0f1)" d="M 959.967865 1057.030835 
C 963.860184 1057.030835 967.593608 1055.484401 970.345893 1052.732116 
C 973.098178 1049.97983 974.644613 1046.246407 974.644613 1042.354088 
C 974.644613 1038.461769 973.098178 1034.728345 970.345893 1031.97606 
C 967.593608 1029.223775 963.860184 1027.67734 959.967865 1027.67734 
C 956.075546 1027.67734 952.342123 1029.223775 949.589838 1031.97606 
C 946.837552 1034.728345 945.291118 1038.461769 945.291118 1042.354088 
C 945.291118 1046.246407 946.837552 1049.97983 949.589838 1052.732116 
C 952.342123 1055.484401 956.075546 1057.030835 959.967865 1057.030835 
z
"/>
   </g>
   <g id="patch_45">
    <path clip-path="url(#p809dffa0f1)" d="M 502.753471 661.983701 
C 506.64579 661.983701 510.379213 660.437266 513.131499 657.684981 
C 515.883784 654.932696 517.430218 651.199272 517.430218 647.306953 
C 517.430218 643.414634 515.883784 639.68121 513.131499 636.928925 
C 510.379213 634.17664 506.64579 632.630205 502.753471 632.630205 
C 498.861152 632.630205 495.127728 634.17664 492.375443 636.928925 
C 489.623158 639.68121 488.076723 643.414634 488.076723 647.306953 
C 488.076723 651.199272 489.623158 654.932696 492.375443 657.684981 
C 495.127728 660.437266 498.861152 661.983701 502.753471 661.983701 
z
"/>
   </g>
   <g id="patch_46">
    <path clip-path="url(#p809dffa0f1)" d="M 889.726529 667.663433 
C 893.618848 667.663433 897.352272 666.116998 900.104557 663.364713 
C 902.856842 660.612428 904.403277 656.879004 904.403277 652.986685 
C 904.403277 649.094366 902.856842 645.360943 900.104557 642.608658 
C 897.352272 639.856372 893.618848 638.309938 889.726529 638.309938 
C 885.83421 638.309938 882.100787 639.856372 879.348501 642.608658 
C 876.596216 645.360943 875.049782 649.094366 875.049782 652.986685 
C 875.049782 656.879004 876.596216 660.612428 879.348501 663.364713 
C 882.100787 666.116998 885.83421 667.663433 889.726529 667.663433 
z
"/>
   </g>
   <g id="patch_47">
    <path clip-path="url(#p809dffa0f1)" d="M 509.418524 978.175709 
C 513.310843 978.175709 517.044267 976.629274 519.796552 973.876989 
C 522.548837 971.124704 524.095272 967.39128 524.095272 963.498961 
C 524.095272 959.606642 522.548837 955.873219 519.796552 953.120934 
C 517.044267 950.368648 513.310843 948.822214 509.418524 948.822214 
C 505.526205 948.822214 501.792781 950.368648 499.040496 953.120934 
C 496.288211 955.873219 494.741776 959.606642 494.741776 963.498961 
C 494.741776 967.39128 496.288211 971.124704 499.040496 973.876989 
C 501.792781 976.629274 505.526205 978.175709 509.418524 978.175709 
z
"/>
   </g>
   <g id="patch_48">
    <path clip-path="url(#p809dffa0f1)" d="M 420.135911 806.160588 
C 424.02823 806.160588 427.761654 804.614153 430.513939 801.861868 
C 433.266224 799.109583 434.812659 795.376159 434.812659 791.48384 
C 434.812659 787.591521 433.266224 783.858098 430.513939 781.105812 
C 427.761654 778.353527 424.02823 776.807092 420.135911 776.807092 
C 416.243592 776.807092 412.510169 778.353527 409.757883 781.105812 
C 407.005598 783.858098 405.459164 787.591521 405.459164 791.48384 
C 405.459164 795.376159 407.005598 799.109583 409.757883 801.861868 
C 412.510169 804.614153 416.243592 806.160588 420.135911 806.160588 
z
"/>
   </g>
   <g id="patch_49">
    <path clip-path="url(#p809dffa0f1)" d="M 698.507826 733.369338 
C 702.400145 733.369338 706.133569 731.822903 708.885854 729.070618 
C 711.638139 726.318333 713.184574 722.584909 713.184574 718.69259 
C 713.184574 714.800271 711.638139 711.066848 708.885854 708.314563 
C 706.133569 705.562277 702.400145 704.015843 698.507826 704.015843 
C 694.615507 704.015843 690.882083 705.562277 688.129798 708.314563 
C 685.377513 711.066848 683.831078 714.800271 683.831078 718.69259 
C 683.831078 722.584909 685.377513 726.318333 688.129798 729.070618 
C 690.882083 731.822903 694.615507 733.369338 698.507826 733.369338 
z
"/>
   </g>
   <g id="patch_50">
    <path clip-path="url(#p809dffa0f1)" d="M 686.756735 993.228141 
C 690.000334 993.228141 693.11152 991.939446 695.405091 989.645875 
C 697.698662 987.352304 698.987358 984.241117 698.987358 980.997518 
C 698.987358 977.753919 697.698662 974.642733 695.405091 972.349162 
C 693.11152 970.055591 690.000334 968.766895 686.756735 968.766895 
C 683.513136 968.766895 680.401949 970.055591 678.108378 972.349162 
C 675.814807 974.642733 674.526112 977.753919 674.526112 980.997518 
C 674.526112 984.241117 675.814807 987.352304 678.108378 989.645875 
C 680.401949 991.939446 683.513136 993.228141 686.756735 993.228141 
z
" style="fill:#ffffff;"/>
   </g>
   <g id="patch_51">
    <path clip-path="url(#p809dffa0f1)" d="M 686.404269 629.093862 
C 689.647869 629.093862 692.759055 627.805166 695.052626 625.511595 
C 697.346197 623.218024 698.634893 620.106838 698.634893 616.863239 
C 698.634893 613.619639 697.346197 610.508453 695.052626 608.214882 
C 692.759055 605.921311 689.647869 604.632616 686.404269 604.632616 
C 683.16067 604.632616 680.049484 605.921311 677.755913 608.214882 
C 675.462342 610.508453 674.173646 613.619639 674.173646 616.863239 
C 674.173646 620.106838 675.462342 623.218024 677.755913 625.511595 
C 680.049484 627.805166 683.16067 629.093862 686.404269 629.093862 
z
" style="fill:#ffffff;"/>
   </g>
   <g id="patch_52">
    <path clip-path="url(#p809dffa0f1)" d="M 945.422452 779.501008 
C 948.666051 779.501008 951.777237 778.212312 954.070808 775.918741 
C 956.364379 773.62517 957.653075 770.513984 957.653075 767.270385 
C 957.653075 764.026786 956.364379 760.915599 954.070808 758.622028 
C 951.777237 756.328457 948.666051 755.039762 945.422452 755.039762 
C 942.178853 755.039762 939.067666 756.328457 936.774095 758.622028 
C 934.480524 760.915599 933.191829 764.026786 933.191829 767.270385 
C 933.191829 770.513984 934.480524 773.62517 936.774095 775.918741 
C 939.067666 778.212312 942.178853 779.501008 945.422452 779.501008 
z
" style="fill:#ffffff;"/>
   </g>
   <g id="patch_53">
    <path clip-path="url(#p809dffa0f1)" d="M 673.756722 404.856238 
C 677.000321 404.856238 680.111507 403.567542 682.405078 401.273971 
C 684.698649 398.9804 685.987345 395.869214 685.987345 392.625615 
C 685.987345 389.382016 684.698649 386.270829 682.405078 383.977258 
C 680.111507 381.683687 677.000321 380.394992 673.756722 380.394992 
C 670.513123 380.394992 667.401936 381.683687 665.108365 383.977258 
C 662.814794 386.270829 661.526099 389.382016 661.526099 392.625615 
C 661.526099 395.869214 662.814794 398.9804 665.108365 401.273971 
C 667.401936 403.567542 670.513123 404.856238 673.756722 404.856238 
z
" style="fill:#ffffff;"/>
   </g>
   <g id="patch_54">
    <path clip-path="url(#p809dffa0f1)" d="M 839.377806 1026.3892 
C 842.621405 1026.3892 845.732592 1025.100505 848.026163 1022.806934 
C 850.319734 1020.513363 851.608429 1017.402176 851.608429 1014.158577 
C 851.608429 1010.914978 850.319734 1007.803792 848.026163 1005.510221 
C 845.732592 1003.21665 842.621405 1001.927954 839.377806 1001.927954 
C 836.134207 1001.927954 833.023021 1003.21665 830.72945 1005.510221 
C 828.435879 1007.803792 827.147183 1010.914978 827.147183 1014.158577 
C 827.147183 1017.402176 828.435879 1020.513363 830.72945 1022.806934 
C 833.023021 1025.100505 836.134207 1026.3892 839.377806 1026.3892 
z
" style="fill:#ffffff;"/>
   </g>
   <g id="patch_55">
    <path clip-path="url(#p809dffa0f1)" d="M 615.385821 1102.467499 
C 618.62942 1102.467499 621.740607 1101.178803 624.034178 1098.885232 
C 626.327749 1096.591661 627.616444 1093.480475 627.616444 1090.236876 
C 627.616444 1086.993277 626.327749 1083.88209 624.034178 1081.588519 
C 621.740607 1079.294948 618.62942 1078.006253 615.385821 1078.006253 
C 612.142222 1078.006253 609.031036 1079.294948 606.737465 1081.588519 
C 604.443894 1083.88209 603.155198 1086.993277 603.155198 1090.236876 
C 603.155198 1093.480475 604.443894 1096.591661 606.737465 1098.885232 
C 609.031036 1101.178803 612.142222 1102.467499 615.385821 1102.467499 
z
" style="fill:#ffffff;"/>
   </g>
   <g id="patch_56">
    <path clip-path="url(#p809dffa0f1)" d="M 785.071163 783.063174 
C 788.314762 783.063174 791.425948 781.774478 793.719519 779.480907 
C 796.01309 777.187336 797.301786 774.07615 797.301786 770.832551 
C 797.301786 767.588951 796.01309 764.477765 793.719519 762.184194 
C 791.425948 759.890623 788.314762 758.601928 785.071163 758.601928 
C 781.827563 758.601928 778.716377 759.890623 776.422806 762.184194 
C 774.129235 764.477765 772.84054 767.588951 772.84054 770.832551 
C 772.84054 774.07615 774.129235 777.187336 776.422806 779.480907 
C 778.716377 781.774478 781.827563 783.063174 785.071163 783.063174 
z
" style="fill:#ffffff;"/>
   </g>
   <g id="patch_57">
    <path clip-path="url(#p809dffa0f1)" d="M 707.216217 514.500128 
C 710.459816 514.500128 713.571003 513.211433 715.864574 510.917862 
C 718.158145 508.624291 719.44684 505.513104 719.44684 502.269505 
C 719.44684 499.025906 718.158145 495.91472 715.864574 493.621149 
C 713.571003 491.327578 710.459816 490.038882 707.216217 490.038882 
C 703.972618 490.038882 700.861432 491.327578 698.567861 493.621149 
C 696.27429 495.91472 694.985594 499.025906 694.985594 502.269505 
C 694.985594 505.513104 696.27429 508.624291 698.567861 510.917862 
C 700.861432 513.211433 703.972618 514.500128 707.216217 514.500128 
z
" style="fill:#ffffff;"/>
   </g>
   <g id="patch_58">
    <path clip-path="url(#p809dffa0f1)" d="M 752.462179 1115.949143 
C 755.705778 1115.949143 758.816965 1114.660448 761.110536 1112.366877 
C 763.404107 1110.073306 764.692802 1106.962119 764.692802 1103.71852 
C 764.692802 1100.474921 763.404107 1097.363735 761.110536 1095.070164 
C 758.816965 1092.776593 755.705778 1091.487897 752.462179 1091.487897 
C 749.21858 1091.487897 746.107394 1092.776593 743.813823 1095.070164 
C 741.520252 1097.363735 740.231556 1100.474921 740.231556 1103.71852 
C 740.231556 1106.962119 741.520252 1110.073306 743.813823 1112.366877 
C 746.107394 1114.660448 749.21858 1115.949143 752.462179 1115.949143 
z
" style="fill:#ffffff;"/>
   </g>
   <g id="patch_59">
    <path clip-path="url(#p809dffa0f1)" d="M 1001.077606 713.012021 
C 1004.321205 713.012021 1007.432392 711.723325 1009.725963 709.429754 
C 1012.019534 707.136184 1013.308229 704.024997 1013.308229 700.781398 
C 1013.308229 697.537799 1012.019534 694.426612 1009.725963 692.133041 
C 1007.432392 689.839471 1004.321205 688.550775 1001.077606 688.550775 
C 997.834007 688.550775 994.722821 689.839471 992.42925 692.133041 
C 990.135679 694.426612 988.846983 697.537799 988.846983 700.781398 
C 988.846983 704.024997 990.135679 707.136184 992.42925 709.429754 
C 994.722821 711.723325 997.834007 713.012021 1001.077606 713.012021 
z
" style="fill:#ffffff;"/>
   </g>
   <g id="patch_60">
    <path clip-path="url(#p809dffa0f1)" d="M 1028.564863 920.571046 
C 1031.808463 920.571046 1034.919649 919.282351 1037.21322 916.98878 
C 1039.506791 914.695209 1040.795486 911.584022 1040.795486 908.340423 
C 1040.795486 905.096824 1039.506791 901.985638 1037.21322 899.692067 
C 1034.919649 897.398496 1031.808463 896.1098 1028.564863 896.1098 
C 1025.321264 896.1098 1022.210078 897.398496 1019.916507 899.692067 
C 1017.622936 901.985638 1016.33424 905.096824 1016.33424 908.340423 
C 1016.33424 911.584022 1017.622936 914.695209 1019.916507 916.98878 
C 1022.210078 919.282351 1025.321264 920.571046 1028.564863 920.571046 
z
" style="fill:#ffffff;"/>
   </g>
   <g id="patch_61">
    <path clip-path="url(#p809dffa0f1)" d="M 652.255665 786.764262 
C 655.499264 786.764262 658.61045 785.475566 660.904021 783.181995 
C 663.197592 780.888424 664.486288 777.777238 664.486288 774.533639 
C 664.486288 771.290039 663.197592 768.178853 660.904021 765.885282 
C 658.61045 763.591711 655.499264 762.303015 652.255665 762.303015 
C 649.012065 762.303015 645.900879 763.591711 643.607308 765.885282 
C 641.313737 768.178853 640.025041 771.290039 640.025041 774.533639 
C 640.025041 777.777238 641.313737 780.888424 643.607308 783.181995 
C 645.900879 785.475566 649.012065 786.764262 652.255665 786.764262 
z
" style="fill:#ffffff;"/>
   </g>
   <g id="patch_62">
    <path clip-path="url(#p809dffa0f1)" d="M 824.392395 703.630503 
C 827.635994 703.630503 830.747181 702.341807 833.040752 700.048236 
C 835.334323 697.754665 836.623018 694.643479 836.623018 691.39988 
C 836.623018 688.156281 835.334323 685.045094 833.040752 682.751523 
C 830.747181 680.457952 827.635994 679.169257 824.392395 679.169257 
C 821.148796 679.169257 818.03761 680.457952 815.744039 682.751523 
C 813.450468 685.045094 812.161772 688.156281 812.161772 691.39988 
C 812.161772 694.643479 813.450468 697.754665 815.744039 700.048236 
C 818.03761 702.341807 821.148796 703.630503 824.392395 703.630503 
z
" style="fill:#ffffff;"/>
   </g>
   <g id="patch_63">
    <path clip-path="url(#p809dffa0f1)" d="M 959.967865 1054.584711 
C 963.211465 1054.584711 966.322651 1053.296015 968.616222 1051.002444 
C 970.909793 1048.708873 972.198488 1045.597687 972.198488 1042.354088 
C 972.198488 1039.110489 970.909793 1035.999302 968.616222 1033.705731 
C 966.322651 1031.41216 963.211465 1030.123465 959.967865 1030.123465 
C 956.724266 1030.123465 953.61308 1031.41216 951.319509 1033.705731 
C 949.025938 1035.999302 947.737242 1039.110489 947.737242 1042.354088 
C 947.737242 1045.597687 949.025938 1048.708873 951.319509 1051.002444 
C 953.61308 1053.296015 956.724266 1054.584711 959.967865 1054.584711 
z
" style="fill:#ffffff;"/>
   </g>
   <g id="patch_64">
    <path clip-path="url(#p809dffa0f1)" d="M 502.753471 659.537576 
C 505.99707 659.537576 509.108256 658.248881 511.401827 655.95531 
C 513.695398 653.661739 514.984094 650.550552 514.984094 647.306953 
C 514.984094 644.063354 513.695398 640.952168 511.401827 638.658597 
C 509.108256 636.365026 505.99707 635.07633 502.753471 635.07633 
C 499.509872 635.07633 496.398685 636.365026 494.105114 638.658597 
C 491.811543 640.952168 490.522848 644.063354 490.522848 647.306953 
C 490.522848 650.550552 491.811543 653.661739 494.105114 655.95531 
C 496.398685 658.248881 499.509872 659.537576 502.753471 659.537576 
z
" style="fill:#ffffff;"/>
   </g>
   <g id="patch_65">
    <path clip-path="url(#p809dffa0f1)" d="M 889.726529 665.217308 
C 892.970128 665.217308 896.081315 663.928613 898.374886 661.635042 
C 900.668457 659.341471 901.957152 656.230285 901.957152 652.986685 
C 901.957152 649.743086 900.668457 646.6319 898.374886 644.338329 
C 896.081315 642.044758 892.970128 640.756062 889.726529 640.756062 
C 886.48293 640.756062 883.371744 642.044758 881.078173 644.338329 
C 878.784602 646.6319 877.495906 649.743086 877.495906 652.986685 
C 877.495906 656.230285 878.784602 659.341471 881.078173 661.635042 
C 883.371744 663.928613 886.48293 665.217308 889.726529 665.217308 
z
" style="fill:#ffffff;"/>
   </g>
   <g id="patch_66">
    <path clip-path="url(#p809dffa0f1)" d="M 509.418524 975.729585 
C 512.662123 975.729585 515.77331 974.440889 518.066881 972.147318 
C 520.360452 969.853747 521.649147 966.742561 521.649147 963.498961 
C 521.649147 960.255362 520.360452 957.144176 518.066881 954.850605 
C 515.77331 952.557034 512.662123 951.268338 509.418524 951.268338 
C 506.174925 951.268338 503.063739 952.557034 500.770168 954.850605 
C 498.476597 957.144176 497.187901 960.255362 497.187901 963.498961 
C 497.187901 966.742561 498.476597 969.853747 500.770168 972.147318 
C 503.063739 974.440889 506.174925 975.729585 509.418524 975.729585 
z
" style="fill:#ffffff;"/>
   </g>
   <g id="patch_67">
    <path clip-path="url(#p809dffa0f1)" d="M 420.135911 803.714463 
C 423.37951 803.714463 426.490697 802.425768 428.784268 800.132197 
C 431.077839 797.838626 432.366534 794.727439 432.366534 791.48384 
C 432.366534 788.240241 431.077839 785.129055 428.784268 782.835484 
C 426.490697 780.541913 423.37951 779.253217 420.135911 779.253217 
C 416.892312 779.253217 413.781126 780.541913 411.487555 782.835484 
C 409.193984 785.129055 407.905288 788.240241 407.905288 791.48384 
C 407.905288 794.727439 409.193984 797.838626 411.487555 800.132197 
C 413.781126 802.425768 416.892312 803.714463 420.135911 803.714463 
z
" style="fill:#ffffff;"/>
   </g>
   <g id="patch_68">
    <path clip-path="url(#p809dffa0f1)" d="M 698.507826 730.923213 
C 701.751425 730.923213 704.862612 729.634518 707.156183 727.340947 
C 709.449753 725.047376 710.738449 721.936189 710.738449 718.69259 
C 710.738449 715.448991 709.449753 712.337805 707.156183 710.044234 
C 704.862612 707.750663 701.751425 706.461967 698.507826 706.461967 
C 695.264227 706.461967 692.15304 707.750663 689.85947 710.044234 
C 687.565899 712.337805 686.277203 715.448991 686.277203 718.69259 
C 686.277203 721.936189 687.565899 725.047376 689.85947 727.340947 
C 692.15304 729.634518 695.264227 730.923213 698.507826 730.923213 
z
" style="fill:#ffffff;"/>
   </g>
  </g>
 </g>
 <defs>
  <clipPath id="p809dffa0f1">
   <rect height="1120.9968" width="812.415846" x="302.272077" y="174.7008"/>
  </clipPath>
 </defs>
</svg>
