<?xml version="1.0" encoding="utf-8" standalone="no"?>
<!DOCTYPE svg PUBLIC "-//W3C//DTD SVG 1.1//EN"
  "http://www.w3.org/Graphics/SVG/1.1/DTD/svg11.dtd">
<!-- Created with matplotlib (http://matplotlib.org/) -->
<svg height="1455pt" version="1.1" viewBox="0 0 1382 1455" width="1382pt" xmlns="http://www.w3.org/2000/svg" xmlns:xlink="http://www.w3.org/1999/xlink">
 <defs>
  <style type="text/css">
*{stroke-linecap:butt;stroke-linejoin:round;}
  </style>
 </defs>
 <g id="figure_1">
  <g id="patch_1">
   <path d="M 0 1455.84 
L 1382.4 1455.84 
L 1382.4 0 
L 0 0 
z
" style="fill:#ffffff;"/>
  </g>
  <g id="axes_1">
   <g id="patch_2">
    <path clip-path="url(#p7a45779987)" d="M 827.747091 208.430119 
L 833.251983 223.394969 
L 827.142057 221.56497 
L 724.617994 563.868244 
L 721.563031 562.953244 
L 718.508068 562.038245 
L 821.032131 219.734972 
L 814.922205 217.904974 
z
"/>
   </g>
   <g id="patch_3">
    <path clip-path="url(#p7a45779987)" d="M 693.999896 893.614498 
L 685.525471 880.107659 
L 691.881521 880.637485 
L 718.385006 562.688332 
L 721.563031 562.953244 
L 724.741056 563.218157 
L 698.237571 881.16731 
L 704.593622 881.697135 
z
"/>
   </g>
   <g id="patch_4">
    <path clip-path="url(#p7a45779987)" d="M 204.737457 703.133058 
L 219.517893 709.115472 
L 217.88496 702.949953 
L 723.195963 569.118763 
L 722.379497 566.036004 
z
"/>
   </g>
   <g id="patch_5">
    <path clip-path="url(#p7a45779987)" d="M 621.996365 1246.805015 
L 614.366926 1232.803507 
L 620.678474 1233.722449 
L 718.407257 562.493774 
L 721.563031 562.953244 
L 724.718805 563.412715 
L 626.990022 1234.64139 
L 633.30157 1235.560332 
z
"/>
   </g>
   <g id="patch_6">
    <path clip-path="url(#p7a45779987)" d="M 937.005436 889.091254 
L 921.540714 892.976215 
L 924.009059 887.095113 
L 618.81803 759.003978 
L 620.052203 756.063427 
L 621.286375 753.122876 
L 926.477405 881.214011 
L 928.945751 875.332909 
z
"/>
   </g>
   <g id="patch_7">
    <path clip-path="url(#p7a45779987)" d="M 204.427752 707.183979 
L 218.214073 699.172241 
L 217.469112 705.50668 
L 620.424683 752.896207 
L 620.052203 756.063427 
L 619.679722 759.230647 
L 216.724151 711.84112 
L 215.97919 718.175559 
z
"/>
   </g>
   <g id="patch_8">
    <path clip-path="url(#p7a45779987)" d="M 618.184041 737.02056 
L 607.417166 725.259396 
L 613.764788 724.636676 
L 583.149842 412.567181 
L 586.323653 412.255821 
L 589.497464 411.94446 
L 620.11241 724.013955 
L 626.460033 723.391234 
z
"/>
   </g>
   <g id="patch_9">
    <path clip-path="url(#p7a45779987)" d="M 819.012777 202.898382 
L 815.928925 218.542563 
L 811.662911 213.801127 
L 588.45666 414.626539 
L 586.323653 412.255821 
L 584.190646 409.885103 
L 807.396898 209.059691 
L 803.130884 204.318254 
z
"/>
   </g>
   <g id="patch_10">
    <path clip-path="url(#p7a45779987)" d="M 301.356478 1085.623838 
L 297.517348 1070.147674 
L 303.391111 1072.633432 
L 583.386771 411.012942 
L 586.323653 412.255821 
L 589.260535 413.4987 
L 309.264875 1075.11919 
L 315.138639 1077.604947 
z
"/>
   </g>
   <g id="patch_11">
    <path clip-path="url(#p7a45779987)" d="M 835.301914 209.388351 
L 829.510514 224.244671 
L 835.654473 222.532402 
L 939.737936 596.004373 
L 942.809915 595.148239 
z
"/>
   </g>
   <g id="patch_12">
    <path clip-path="url(#p7a45779987)" d="M 958.383355 1022.528834 
L 948.448056 1010.05725 
L 954.823435 1009.871134 
L 942.694205 594.385162 
L 945.881894 594.292104 
L 949.069583 594.199046 
L 961.198813 1009.685019 
L 967.574192 1009.498903 
z
"/>
   </g>
   <g id="patch_13">
    <path clip-path="url(#p7a45779987)" d="M 954.093896 877.370054 
L 944.16088 864.896652 
L 950.536292 864.711703 
L 942.694188 594.384579 
L 945.881894 594.292104 
L 949.0696 594.19963 
L 956.911705 864.526754 
L 963.287117 864.341805 
z
"/>
   </g>
   <g id="patch_14">
    <path clip-path="url(#p7a45779987)" d="M 860.929666 1143.184341 
L 876.61733 1140.329916 
L 873.765707 1146.035031 
L 1035.074091 1226.66281 
L 1033.64828 1229.515368 
L 1032.222468 1232.367925 
L 870.914084 1151.740145 
L 868.062461 1157.44526 
z
"/>
   </g>
   <g id="patch_15">
    <path clip-path="url(#p7a45779987)" d="M 943.817066 575.004094 
L 949.608466 560.147774 
L 943.464508 561.860043 
L 839.381045 188.388072 
L 836.309066 189.244206 
z
"/>
   </g>
   <g id="patch_16">
    <path clip-path="url(#p7a45779987)" d="M 1015.921765 1222.311792 
L 1000.502301 1226.372666 
L 1002.903493 1220.463828 
L 554.509274 1038.248558 
L 555.70987 1035.294139 
L 556.910466 1032.339719 
L 1005.304685 1214.554989 
L 1007.705876 1208.646151 
z
"/>
   </g>
   <g id="patch_17">
    <path clip-path="url(#p7a45779987)" d="M 312.419857 1098.438233 
L 322.36351 1085.973309 
L 323.965809 1092.14686 
L 554.908721 1032.207363 
L 555.70987 1035.294139 
L 556.51102 1038.380914 
L 325.568108 1098.320411 
L 327.170406 1104.493961 
z
"/>
   </g>
   <g id="patch_18">
    <path clip-path="url(#p7a45779987)" d="M 199.70253 717.687102 
L 215.590263 719.040059 
L 211.344261 723.799424 
L 557.832871 1032.914456 
L 555.70987 1035.294139 
L 553.586869 1037.673821 
L 207.098259 728.558789 
L 202.852257 733.318154 
z
"/>
   </g>
   <g id="patch_19">
    <path clip-path="url(#p7a45779987)" d="M 825.725073 1128.392492 
L 810.547084 1133.27913 
L 812.626077 1127.249381 
L 554.670374 1038.309013 
L 555.70987 1035.294139 
L 556.749367 1032.279264 
L 814.70507 1121.219631 
L 816.784064 1115.189882 
z
"/>
   </g>
   <g id="patch_20">
    <path clip-path="url(#p7a45779987)" d="M 1026.577702 1211.735386 
L 1012.973992 1203.417354 
L 1018.900653 1201.060495 
L 955.978372 1042.833399 
L 958.941702 1041.654969 
L 961.905032 1040.47654 
L 1024.827313 1198.703635 
L 1030.753974 1196.346776 
z
"/>
   </g>
   <g id="patch_21">
    <path clip-path="url(#p7a45779987)" d="M 708.245109 923.887714 
L 715.560397 938.055887 
L 718.338543 932.314633 
L 956.163556 1047.396223 
L 957.552629 1044.525596 
z
"/>
   </g>
   <g id="patch_22">
    <path clip-path="url(#p7a45779987)" d="M 858.70049 1122.607708 
L 862.613721 1107.150115 
L 866.620975 1112.112171 
L 956.938075 1039.173941 
L 958.941702 1041.654969 
L 960.945329 1044.135997 
L 870.62823 1117.074227 
L 874.635484 1122.036284 
z
"/>
   </g>
   <g id="patch_23">
    <path clip-path="url(#p7a45779987)" d="M 366.347381 834.892895 
L 372.259031 849.701776 
L 366.101393 848.039373 
L 296.978023 1104.07633 
L 293.899204 1103.245129 
L 290.820385 1102.413927 
L 359.943755 846.376969 
L 353.786117 844.714566 
z
"/>
   </g>
   <g id="patch_24">
    <path clip-path="url(#p7a45779987)" d="M 602.121622 1257.189941 
L 586.434817 1260.049088 
L 589.284723 1254.343116 
L 292.474251 1106.098115 
L 293.899204 1103.245129 
L 295.324157 1100.392142 
L 592.134629 1248.637143 
L 594.984535 1242.93117 
z
"/>
   </g>
   <g id="patch_25">
    <path clip-path="url(#p7a45779987)" d="M 815.394859 197.01234 
L 806.95604 210.541453 
L 804.65204 204.594044 
L 408.558208 358.039018 
L 407.406208 355.065313 
L 406.254208 352.091609 
L 802.34804 198.646634 
L 800.044041 192.699225 
z
"/>
   </g>
   <g id="patch_26">
    <path clip-path="url(#p7a45779987)" d="M 376.005422 797.592496 
L 386.53778 785.620863 
L 380.179091 785.1237 
L 413.764897 355.562476 
L 410.585552 355.313895 
z
"/>
   </g>
   <g id="patch_27">
    <path clip-path="url(#p7a45779987)" d="M 195.67508 688.792207 
L 194.4304 672.895624 
L 199.816029 676.312507 
L 404.713393 353.356872 
L 407.406208 355.065313 
L 410.099023 356.773754 
L 205.201659 679.729389 
L 210.587289 683.146271 
z
"/>
   </g>
   <g id="patch_28">
    <path clip-path="url(#p7a45779987)" d="M 543.382439 1020.660094 
L 527.84713 1017.06778 
L 532.725145 1012.958636 
L 368.895583 818.474553 
L 371.334591 816.419981 
L 373.773598 814.365409 
L 537.603159 1008.849492 
L 542.481174 1004.740349 
z
"/>
   </g>
   <g id="patch_29">
    <path clip-path="url(#p7a45779987)" d="M 402.735377 373.892798 
L 392.203019 385.864432 
L 398.561708 386.361594 
L 364.975902 815.922818 
L 368.155246 816.1714 
z
"/>
   </g>
   <g id="patch_30">
    <path clip-path="url(#p7a45779987)" d="M 201.834875 714.788722 
L 217.694982 713.143252 
L 214.415107 718.613399 
L 372.974528 813.684907 
L 371.334591 816.419981 
L 369.694653 819.155054 
L 211.135231 724.083546 
L 207.855356 729.553693 
z
"/>
   </g>
   <g id="patch_31">
    <path clip-path="url(#p7a45779987)" d="M 827.943777 1123.940849 
L 812.019103 1124.750372 
L 815.581978 1119.460191 
L 369.553154 819.065071 
L 371.334591 816.419981 
L 373.116028 813.77489 
L 819.144852 1114.170009 
L 822.707726 1108.879828 
z
"/>
   </g>
   <g id="patch_32">
    <path clip-path="url(#p7a45779987)" d="M 711.508359 911.503851 
L 723.650918 901.169016 
L 724.043851 907.534996 
L 954.452276 893.313301 
L 954.648742 896.496291 
L 954.845208 899.679281 
L 724.436784 913.900975 
L 724.829717 920.266955 
z
"/>
   </g>
   <g id="patch_33">
    <path clip-path="url(#p7a45779987)" d="M 854.779546 1118.627763 
L 868.835897 1111.099844 
L 863.053439 1108.408512 
L 960.4312 899.187623 
L 957.539971 897.841957 
z
"/>
   </g>
   <g id="patch_34">
    <path clip-path="url(#p7a45779987)" d="M 606.179567 742.885005 
L 590.341932 741.035709 
L 594.73474 736.411497 
L 204.951587 366.133852 
L 207.147991 363.821746 
L 209.344395 361.50964 
L 599.127547 731.787285 
L 603.520354 727.163073 
z
"/>
   </g>
   <g id="patch_35">
    <path clip-path="url(#p7a45779987)" d="M 388.29019 355.901175 
L 375.964108 366.016425 
L 375.685488 359.644419 
L 207.287301 367.007749 
L 207.147991 363.821746 
L 207.008681 360.635743 
L 375.406867 353.272413 
L 375.128247 346.900407 
z
"/>
   </g>
   <g id="patch_36">
    <path clip-path="url(#p7a45779987)" d="M 940.103276 908.928115 
L 936.622211 924.488731 
L 932.47827 919.640242 
L 730.840065 1091.977847 
L 728.768094 1089.553603 
L 726.696124 1087.129358 
L 928.334329 914.791754 
L 924.190387 909.943265 
z
"/>
   </g>
   <g id="patch_37">
    <path clip-path="url(#p7a45779987)" d="M 825.998696 1127.649192 
L 810.631472 1131.903485 
L 812.958232 1125.964943 
L 727.604714 1092.522873 
L 728.768094 1089.553603 
L 729.931474 1086.584332 
L 815.284992 1120.026402 
L 817.611751 1114.08786 
z
"/>
   </g>
   <g id="patch_38">
    <path clip-path="url(#p7a45779987)" d="M 619.101272 1092.148024 
L 631.627624 1082.281865 
L 631.77847 1088.658176 
L 728.692671 1086.365447 
L 728.768094 1089.553603 
L 728.843517 1092.741758 
L 631.929317 1095.034486 
L 632.080163 1101.410797 
z
"/>
   </g>
   <g id="patch_39">
    <path clip-path="url(#p7a45779987)" d="M 629.34168 1249.489503 
L 627.951361 1233.604995 
L 633.36808 1236.972375 
L 726.059735 1087.869913 
L 728.768094 1089.553603 
L 731.476454 1091.237292 
L 638.784799 1240.339755 
L 644.201518 1243.707135 
z
"/>
   </g>
   <g id="patch_40">
    <path clip-path="url(#p7a45779987)" d="M 1019.626166 1216.496108 
L 1003.768459 1214.827658 
L 1008.108213 1210.15362 
L 690.240543 915.019668 
L 692.41042 912.682649 
L 694.580297 910.34563 
L 1012.447966 1205.479582 
L 1016.78772 1200.805544 
z
"/>
   </g>
   <g id="patch_41">
    <path clip-path="url(#p7a45779987)" d="M 943.107014 1030.449904 
L 935.791725 1016.281731 
L 933.013579 1022.022985 
L 695.188566 906.941395 
L 693.799493 909.812022 
z
"/>
   </g>
   <g id="patch_42">
    <path clip-path="url(#p7a45779987)" d="M 724.915398 1070.811203 
L 712.975734 1060.242618 
L 719.223201 1058.958386 
L 689.286687 913.324765 
L 692.41042 912.682649 
L 695.534153 912.040533 
L 725.470667 1057.674153 
L 731.718134 1056.389921 
z
"/>
   </g>
   <g id="patch_43">
    <path clip-path="url(#p7a45779987)" d="M 203.130068 712.203842 
L 218.561197 708.187522 
L 216.142949 714.0894 
L 693.619544 909.73171 
L 692.41042 912.682649 
L 691.201296 915.633588 
L 213.7247 719.991278 
L 211.306451 725.893156 
z
"/>
   </g>
   <g id="patch_44">
    <path clip-path="url(#p7a45779987)" d="M 702.250008 564.769282 
L 687.469572 558.786869 
L 689.102504 564.952388 
L 183.791501 698.783577 
L 184.607968 701.866337 
z
"/>
   </g>
   <g id="patch_45">
    <path clip-path="url(#p7a45779987)" d="M 570.869817 423.538541 
L 566.20862 438.787273 
L 562.447714 433.635994 
L 187.304887 707.524736 
L 185.424434 704.949096 
L 183.54398 702.373457 
L 558.686807 428.484716 
L 554.9259 423.333437 
z
"/>
   </g>
   <g id="patch_46">
    <path clip-path="url(#p7a45779987)" d="M 288.871174 1084.783283 
L 276.288231 1074.989402 
L 282.44218 1073.313392 
L 182.34746 705.787101 
L 185.424434 704.949096 
L 188.501408 704.111091 
L 288.596128 1071.637381 
L 294.750077 1069.961371 
z
"/>
   </g>
   <g id="patch_47">
    <path clip-path="url(#p7a45779987)" d="M 205.931951 382.91735 
L 214.66906 396.255772 
L 208.303859 395.850425 
L 188.607034 705.15177 
L 185.424434 704.949096 
L 182.241833 704.746423 
L 201.938658 395.445079 
L 195.573456 395.039732 
z
"/>
   </g>
   <g id="patch_48">
    <path clip-path="url(#p7a45779987)" d="M 583.84035 431.228275 
L 591.671042 445.11823 
L 585.34689 444.290462 
L 521.490075 932.157027 
L 518.327999 931.743144 
L 515.165923 931.32926 
L 579.022739 443.462694 
L 572.698587 442.634927 
z
"/>
   </g>
   <g id="patch_49">
    <path clip-path="url(#p7a45779987)" d="M 827.576326 1124.507795 
L 811.690158 1125.879009 
L 815.06405 1120.466343 
L 516.641053 934.449476 
L 518.327999 931.743144 
L 520.014945 929.036811 
L 818.437942 1115.053678 
L 821.811834 1109.641013 
z
"/>
   </g>
   <g id="patch_50">
    <path clip-path="url(#p7a45779987)" d="M 613.705503 1247.42313 
L 600.85788 1237.979129 
L 606.96339 1236.13445 
L 515.275244 932.665483 
L 518.327999 931.743144 
L 521.380754 930.820804 
L 613.068899 1234.289771 
L 619.174409 1232.445092 
z
"/>
   </g>
   <g id="patch_51">
    <path clip-path="url(#p7a45779987)" d="M 943.683517 912.498 
L 929.627166 920.025919 
L 935.409624 922.717251 
L 838.031863 1131.93814 
L 840.923092 1133.283806 
z
"/>
   </g>
   <g id="patch_52">
    <path clip-path="url(#p7a45779987)" d="M 618.286899 1098.993354 
L 629.232683 1110.588197 
L 630.316045 1104.302784 
L 842.73096 1140.914885 
L 843.27264 1137.772178 
z
"/>
   </g>
   <g id="patch_53">
    <path clip-path="url(#p7a45779987)" d="M 313.021927 1102.580082 
L 325.437885 1092.575355 
L 325.659568 1098.949596 
L 599.8615 1089.413442 
L 599.972341 1092.600563 
L 600.083182 1095.787683 
L 325.88125 1105.323837 
L 326.102933 1111.698078 
z
"/>
   </g>
   <g id="patch_54">
    <path clip-path="url(#p7a45779987)" d="M 937.903599 905.754855 
L 931.369452 920.299802 
L 928.283264 914.718088 
L 601.515435 1095.39142 
L 599.972341 1092.600563 
L 598.429247 1089.809706 
L 925.197076 909.136374 
L 922.110888 903.554659 
z
"/>
   </g>
   <g id="patch_55">
    <path clip-path="url(#p7a45779987)" d="M 526.98811 948.805479 
L 541.292685 955.850314 
L 535.60524 958.737018 
L 602.816063 1091.157211 
L 599.972341 1092.600563 
L 597.128618 1094.043915 
L 529.917795 961.623721 
L 524.23035 964.510425 
z
"/>
   </g>
   <g id="patch_56">
    <path clip-path="url(#p7a45779987)" d="M 825.499763 1128.23668 
L 814.553979 1116.641837 
L 813.470617 1122.92725 
L 601.055702 1086.31515 
L 600.514022 1089.457856 
z
"/>
   </g>
   <g id="patch_57">
    <path clip-path="url(#p7a45779987)" d="M 942.969483 1052.191051 
L 937.589377 1067.201216 
L 934.07735 1061.877143 
L 620.995554 1268.401696 
L 619.23954 1265.739659 
L 617.483527 1263.077623 
L 930.565323 1056.553069 
L 927.053295 1051.228996 
z
"/>
   </g>
   <g id="matplotlib.axis_1"/>
   <g id="matplotlib.axis_2"/>
   <g id="patch_58">
    <path clip-path="url(#p7a45779987)" d="M 721.563031 582.087528 
C 726.637502 582.087528 731.50482 580.071419 735.093013 576.483226 
C 738.681206 572.895033 740.697315 568.027716 740.697315 562.953244 
C 740.697315 557.878773 738.681206 553.011456 735.093013 549.423263 
C 731.50482 545.835069 726.637502 543.818961 721.563031 543.818961 
C 716.488559 543.818961 711.621242 545.835069 708.033049 549.423263 
C 704.444856 553.011456 702.428747 557.878773 702.428747 562.953244 
C 702.428747 568.027716 704.444856 572.895033 708.033049 576.483226 
C 711.621242 580.071419 716.488559 582.087528 721.563031 582.087528 
z
"/>
   </g>
   <g id="patch_59">
    <path clip-path="url(#p7a45779987)" d="M 620.052203 775.197711 
C 625.126674 775.197711 629.993991 773.181602 633.582184 769.593409 
C 637.170378 766.005216 639.186486 761.137899 639.186486 756.063427 
C 639.186486 750.988956 637.170378 746.121638 633.582184 742.533445 
C 629.993991 738.945252 625.126674 736.929143 620.052203 736.929143 
C 614.977731 736.929143 610.110414 738.945252 606.522221 742.533445 
C 602.934027 746.121638 600.917919 750.988956 600.917919 756.063427 
C 600.917919 761.137899 602.934027 766.005216 606.522221 769.593409 
C 610.110414 773.181602 614.977731 775.197711 620.052203 775.197711 
z
"/>
   </g>
   <g id="patch_60">
    <path clip-path="url(#p7a45779987)" d="M 586.323653 431.390105 
C 591.398124 431.390105 596.265442 429.373996 599.853635 425.785803 
C 603.441828 422.19761 605.457937 417.330292 605.457937 412.255821 
C 605.457937 407.181349 603.441828 402.314032 599.853635 398.725839 
C 596.265442 395.137646 591.398124 393.121537 586.323653 393.121537 
C 581.249182 393.121537 576.381864 395.137646 572.793671 398.725839 
C 569.205478 402.314032 567.189369 407.181349 567.189369 412.255821 
C 567.189369 417.330292 569.205478 422.19761 572.793671 425.785803 
C 576.381864 429.373996 581.249182 431.390105 586.323653 431.390105 
z
"/>
   </g>
   <g id="patch_61">
    <path clip-path="url(#p7a45779987)" d="M 945.881894 613.426388 
C 950.956366 613.426388 955.823683 611.410279 959.411876 607.822086 
C 963.000069 604.233893 965.016178 599.366576 965.016178 594.292104 
C 965.016178 589.217633 963.000069 584.350316 959.411876 580.762122 
C 955.823683 577.173929 950.956366 575.15782 945.881894 575.15782 
C 940.807423 575.15782 935.940105 577.173929 932.351912 580.762122 
C 928.763719 584.350316 926.74761 589.217633 926.74761 594.292104 
C 926.74761 599.366576 928.763719 604.233893 932.351912 607.822086 
C 935.940105 611.410279 940.807423 613.426388 945.881894 613.426388 
z
"/>
   </g>
   <g id="patch_62">
    <path clip-path="url(#p7a45779987)" d="M 1033.64828 1248.649652 
C 1038.722751 1248.649652 1043.590068 1246.633543 1047.178261 1243.04535 
C 1050.766455 1239.457157 1052.782563 1234.589839 1052.782563 1229.515368 
C 1052.782563 1224.440896 1050.766455 1219.573579 1047.178261 1215.985386 
C 1043.590068 1212.397193 1038.722751 1210.381084 1033.64828 1210.381084 
C 1028.573808 1210.381084 1023.706491 1212.397193 1020.118298 1215.985386 
C 1016.530105 1219.573579 1014.513996 1224.440896 1014.513996 1229.515368 
C 1014.513996 1234.589839 1016.530105 1239.457157 1020.118298 1243.04535 
C 1023.706491 1246.633543 1028.573808 1248.649652 1033.64828 1248.649652 
z
"/>
   </g>
   <g id="patch_63">
    <path clip-path="url(#p7a45779987)" d="M 833.237086 209.234625 
C 838.311558 209.234625 843.178875 207.218516 846.767068 203.630323 
C 850.355261 200.042129 852.37137 195.174812 852.37137 190.100341 
C 852.37137 185.025869 850.355261 180.158552 846.767068 176.570359 
C 843.178875 172.982166 838.311558 170.966057 833.237086 170.966057 
C 828.162615 170.966057 823.295298 172.982166 819.707105 176.570359 
C 816.118911 180.158552 814.102803 185.025869 814.102803 190.100341 
C 814.102803 195.174812 816.118911 200.042129 819.707105 203.630323 
C 823.295298 207.218516 828.162615 209.234625 833.237086 209.234625 
z
"/>
   </g>
   <g id="patch_64">
    <path clip-path="url(#p7a45779987)" d="M 555.70987 1054.428422 
C 560.784342 1054.428422 565.651659 1052.412314 569.239852 1048.82412 
C 572.828045 1045.235927 574.844154 1040.36861 574.844154 1035.294139 
C 574.844154 1030.219667 572.828045 1025.35235 569.239852 1021.764157 
C 565.651659 1018.175964 560.784342 1016.159855 555.70987 1016.159855 
C 550.635399 1016.159855 545.768082 1018.175964 542.179889 1021.764157 
C 538.591695 1025.35235 536.575587 1030.219667 536.575587 1035.294139 
C 536.575587 1040.36861 538.591695 1045.235927 542.179889 1048.82412 
C 545.768082 1052.412314 550.635399 1054.428422 555.70987 1054.428422 
z
"/>
   </g>
   <g id="patch_65">
    <path clip-path="url(#p7a45779987)" d="M 958.941702 1060.789253 
C 964.016173 1060.789253 968.883491 1058.773144 972.471684 1055.184951 
C 976.059877 1051.596758 978.075986 1046.729441 978.075986 1041.654969 
C 978.075986 1036.580498 976.059877 1031.713181 972.471684 1028.124987 
C 968.883491 1024.536794 964.016173 1022.520685 958.941702 1022.520685 
C 953.867231 1022.520685 948.999913 1024.536794 945.41172 1028.124987 
C 941.823527 1031.713181 939.807418 1036.580498 939.807418 1041.654969 
C 939.807418 1046.729441 941.823527 1051.596758 945.41172 1055.184951 
C 948.999913 1058.773144 953.867231 1060.789253 958.941702 1060.789253 
z
"/>
   </g>
   <g id="patch_66">
    <path clip-path="url(#p7a45779987)" d="M 293.899204 1122.379413 
C 298.973675 1122.379413 303.840993 1120.363304 307.429186 1116.775111 
C 311.017379 1113.186917 313.033488 1108.3196 313.033488 1103.245129 
C 313.033488 1098.170657 311.017379 1093.30334 307.429186 1089.715147 
C 303.840993 1086.126954 298.973675 1084.110845 293.899204 1084.110845 
C 288.824733 1084.110845 283.957415 1086.126954 280.369222 1089.715147 
C 276.781029 1093.30334 274.76492 1098.170657 274.76492 1103.245129 
C 274.76492 1108.3196 276.781029 1113.186917 280.369222 1116.775111 
C 283.957415 1120.363304 288.824733 1122.379413 293.899204 1122.379413 
z
"/>
   </g>
   <g id="patch_67">
    <path clip-path="url(#p7a45779987)" d="M 407.406208 374.199597 
C 412.480679 374.199597 417.347997 372.183488 420.93619 368.595295 
C 424.524383 365.007102 426.540492 360.139785 426.540492 355.065313 
C 426.540492 349.990842 424.524383 345.123525 420.93619 341.535332 
C 417.347997 337.947138 412.480679 335.93103 407.406208 335.93103 
C 402.331737 335.93103 397.464419 337.947138 393.876226 341.535332 
C 390.288033 345.123525 388.271924 349.990842 388.271924 355.065313 
C 388.271924 360.139785 390.288033 365.007102 393.876226 368.595295 
C 397.464419 372.183488 402.331737 374.199597 407.406208 374.199597 
z
"/>
   </g>
   <g id="patch_68">
    <path clip-path="url(#p7a45779987)" d="M 371.334591 835.554265 
C 376.409062 835.554265 381.276379 833.538156 384.864573 829.949963 
C 388.452766 826.361769 390.468875 821.494452 390.468875 816.419981 
C 390.468875 811.345509 388.452766 806.478192 384.864573 802.889999 
C 381.276379 799.301806 376.409062 797.285697 371.334591 797.285697 
C 366.260119 797.285697 361.392802 799.301806 357.804609 802.889999 
C 354.216416 806.478192 352.200307 811.345509 352.200307 816.419981 
C 352.200307 821.494452 354.216416 826.361769 357.804609 829.949963 
C 361.392802 833.538156 366.260119 835.554265 371.334591 835.554265 
z
"/>
   </g>
   <g id="patch_69">
    <path clip-path="url(#p7a45779987)" d="M 954.648742 915.630575 
C 959.723213 915.630575 964.590531 913.614466 968.178724 910.026273 
C 971.766917 906.43808 973.783026 901.570763 973.783026 896.496291 
C 973.783026 891.42182 971.766917 886.554502 968.178724 882.966309 
C 964.590531 879.378116 959.723213 877.362007 954.648742 877.362007 
C 949.57427 877.362007 944.706953 879.378116 941.11876 882.966309 
C 937.530567 886.554502 935.514458 891.42182 935.514458 896.496291 
C 935.514458 901.570763 937.530567 906.43808 941.11876 910.026273 
C 944.706953 913.614466 949.57427 915.630575 954.648742 915.630575 
z
"/>
   </g>
   <g id="patch_70">
    <path clip-path="url(#p7a45779987)" d="M 207.147991 382.95603 
C 212.222463 382.95603 217.08978 380.939921 220.677973 377.351728 
C 224.266166 373.763535 226.282275 368.896218 226.282275 363.821746 
C 226.282275 358.747275 224.266166 353.879958 220.677973 350.291765 
C 217.08978 346.703571 212.222463 344.687463 207.147991 344.687463 
C 202.07352 344.687463 197.206202 346.703571 193.618009 350.291765 
C 190.029816 353.879958 188.013707 358.747275 188.013707 363.821746 
C 188.013707 368.896218 190.029816 373.763535 193.618009 377.351728 
C 197.206202 380.939921 202.07352 382.95603 207.147991 382.95603 
z
"/>
   </g>
   <g id="patch_71">
    <path clip-path="url(#p7a45779987)" d="M 728.768094 1108.687886 
C 733.842566 1108.687886 738.709883 1106.671778 742.298076 1103.083584 
C 745.886269 1099.495391 747.902378 1094.628074 747.902378 1089.553603 
C 747.902378 1084.479131 745.886269 1079.611814 742.298076 1076.023621 
C 738.709883 1072.435427 733.842566 1070.419319 728.768094 1070.419319 
C 723.693623 1070.419319 718.826306 1072.435427 715.238112 1076.023621 
C 711.649919 1079.611814 709.63381 1084.479131 709.63381 1089.553603 
C 709.63381 1094.628074 711.649919 1099.495391 715.238112 1103.083584 
C 718.826306 1106.671778 723.693623 1108.687886 728.768094 1108.687886 
z
"/>
   </g>
   <g id="patch_72">
    <path clip-path="url(#p7a45779987)" d="M 692.41042 931.816933 
C 697.484892 931.816933 702.352209 929.800824 705.940402 926.212631 
C 709.528595 922.624438 711.544704 917.75712 711.544704 912.682649 
C 711.544704 907.608178 709.528595 902.74086 705.940402 899.152667 
C 702.352209 895.564474 697.484892 893.548365 692.41042 893.548365 
C 687.335949 893.548365 682.468631 895.564474 678.880438 899.152667 
C 675.292245 902.74086 673.276136 907.608178 673.276136 912.682649 
C 673.276136 917.75712 675.292245 922.624438 678.880438 926.212631 
C 682.468631 929.800824 687.335949 931.816933 692.41042 931.816933 
z
"/>
   </g>
   <g id="patch_73">
    <path clip-path="url(#p7a45779987)" d="M 185.424434 724.08338 
C 190.498905 724.08338 195.366222 722.067271 198.954416 718.479078 
C 202.542609 714.890885 204.558718 710.023568 204.558718 704.949096 
C 204.558718 699.874625 202.542609 695.007307 198.954416 691.419114 
C 195.366222 687.830921 190.498905 685.814812 185.424434 685.814812 
C 180.349962 685.814812 175.482645 687.830921 171.894452 691.419114 
C 168.306259 695.007307 166.29015 699.874625 166.29015 704.949096 
C 166.29015 710.023568 168.306259 714.890885 171.894452 718.479078 
C 175.482645 722.067271 180.349962 724.08338 185.424434 724.08338 
z
"/>
   </g>
   <g id="patch_74">
    <path clip-path="url(#p7a45779987)" d="M 518.327999 950.877428 
C 523.40247 950.877428 528.269788 948.861319 531.857981 945.273126 
C 535.446174 941.684932 537.462283 936.817615 537.462283 931.743144 
C 537.462283 926.668672 535.446174 921.801355 531.857981 918.213162 
C 528.269788 914.624969 523.40247 912.60886 518.327999 912.60886 
C 513.253528 912.60886 508.38621 914.624969 504.798017 918.213162 
C 501.209824 921.801355 499.193715 926.668672 499.193715 931.743144 
C 499.193715 936.817615 501.209824 941.684932 504.798017 945.273126 
C 508.38621 948.861319 513.253528 950.877428 518.327999 950.877428 
z
"/>
   </g>
   <g id="patch_75">
    <path clip-path="url(#p7a45779987)" d="M 843.814321 1153.763755 
C 848.888793 1153.763755 853.75611 1151.747647 857.344303 1148.159453 
C 860.932496 1144.57126 862.948605 1139.703943 862.948605 1134.629472 
C 862.948605 1129.555 860.932496 1124.687683 857.344303 1121.09949 
C 853.75611 1117.511297 848.888793 1115.495188 843.814321 1115.495188 
C 838.73985 1115.495188 833.872532 1117.511297 830.284339 1121.09949 
C 826.696146 1124.687683 824.680037 1129.555 824.680037 1134.629472 
C 824.680037 1139.703943 826.696146 1144.57126 830.284339 1148.159453 
C 833.872532 1151.747647 838.73985 1153.763755 843.814321 1153.763755 
z
"/>
   </g>
   <g id="patch_76">
    <path clip-path="url(#p7a45779987)" d="M 599.972341 1111.734847 
C 605.046812 1111.734847 609.91413 1109.718738 613.502323 1106.130545 
C 617.090516 1102.542351 619.106625 1097.675034 619.106625 1092.600563 
C 619.106625 1087.526091 617.090516 1082.658774 613.502323 1079.070581 
C 609.91413 1075.482388 605.046812 1073.466279 599.972341 1073.466279 
C 594.897869 1073.466279 590.030552 1075.482388 586.442359 1079.070581 
C 582.854166 1082.658774 580.838057 1087.526091 580.838057 1092.600563 
C 580.838057 1097.675034 582.854166 1102.542351 586.442359 1106.130545 
C 590.030552 1109.718738 594.897869 1111.734847 599.972341 1111.734847 
z
"/>
   </g>
   <g id="patch_77">
    <path clip-path="url(#p7a45779987)" d="M 619.23954 1284.873943 
C 624.314012 1284.873943 629.181329 1282.857834 632.769522 1279.269641 
C 636.357715 1275.681448 638.373824 1270.814131 638.373824 1265.739659 
C 638.373824 1260.665188 636.357715 1255.797871 632.769522 1252.209677 
C 629.181329 1248.621484 624.314012 1246.605375 619.23954 1246.605375 
C 614.165069 1246.605375 609.297751 1248.621484 605.709558 1252.209677 
C 602.121365 1255.797871 600.105256 1260.665188 600.105256 1265.739659 
C 600.105256 1270.814131 602.121365 1275.681448 605.709558 1279.269641 
C 609.297751 1282.857834 614.165069 1284.873943 619.23954 1284.873943 
z
"/>
   </g>
   <g id="patch_78">
    <path clip-path="url(#p7a45779987)" d="M 721.563031 578.898481 
C 725.791757 578.898481 729.847855 577.21839 732.838016 574.228229 
C 735.828177 571.238068 737.508267 567.181971 737.508267 562.953244 
C 737.508267 558.724518 735.828177 554.668421 732.838016 551.67826 
C 729.847855 548.688099 725.791757 547.008008 721.563031 547.008008 
C 717.334305 547.008008 713.278207 548.688099 710.288046 551.67826 
C 707.297885 554.668421 705.617794 558.724518 705.617794 562.953244 
C 705.617794 567.181971 707.297885 571.238068 710.288046 574.228229 
C 713.278207 577.21839 717.334305 578.898481 721.563031 578.898481 
z
" style="fill:#ffffff;"/>
   </g>
   <g id="patch_79">
    <path clip-path="url(#p7a45779987)" d="M 620.052203 772.008664 
C 624.280929 772.008664 628.337026 770.328573 631.327187 767.338412 
C 634.317348 764.348251 635.997439 760.292153 635.997439 756.063427 
C 635.997439 751.834701 634.317348 747.778603 631.327187 744.788442 
C 628.337026 741.798281 624.280929 740.118191 620.052203 740.118191 
C 615.823476 740.118191 611.767379 741.798281 608.777218 744.788442 
C 605.787057 747.778603 604.106966 751.834701 604.106966 756.063427 
C 604.106966 760.292153 605.787057 764.348251 608.777218 767.338412 
C 611.767379 770.328573 615.823476 772.008664 620.052203 772.008664 
z
" style="fill:#ffffff;"/>
   </g>
   <g id="patch_80">
    <path clip-path="url(#p7a45779987)" d="M 586.323653 428.201057 
C 590.552379 428.201057 594.608477 426.520967 597.598638 423.530806 
C 600.588799 420.540645 602.26889 416.484547 602.26889 412.255821 
C 602.26889 408.027095 600.588799 403.970997 597.598638 400.980836 
C 594.608477 397.990675 590.552379 396.310584 586.323653 396.310584 
C 582.094927 396.310584 578.038829 397.990675 575.048668 400.980836 
C 572.058507 403.970997 570.378416 408.027095 570.378416 412.255821 
C 570.378416 416.484547 572.058507 420.540645 575.048668 423.530806 
C 578.038829 426.520967 582.094927 428.201057 586.323653 428.201057 
z
" style="fill:#ffffff;"/>
   </g>
   <g id="patch_81">
    <path clip-path="url(#p7a45779987)" d="M 945.881894 610.237341 
C 950.11062 610.237341 954.166718 608.55725 957.156879 605.567089 
C 960.14704 602.576928 961.827131 598.52083 961.827131 594.292104 
C 961.827131 590.063378 960.14704 586.00728 957.156879 583.017119 
C 954.166718 580.026958 950.11062 578.346868 945.881894 578.346868 
C 941.653168 578.346868 937.59707 580.026958 934.606909 583.017119 
C 931.616748 586.00728 929.936658 590.063378 929.936658 594.292104 
C 929.936658 598.52083 931.616748 602.576928 934.606909 605.567089 
C 937.59707 608.55725 941.653168 610.237341 945.881894 610.237341 
z
" style="fill:#ffffff;"/>
   </g>
   <g id="patch_82">
    <path clip-path="url(#p7a45779987)" d="M 1033.64828 1245.460604 
C 1037.877006 1245.460604 1041.933103 1243.780514 1044.923264 1240.790353 
C 1047.913425 1237.800192 1049.593516 1233.744094 1049.593516 1229.515368 
C 1049.593516 1225.286642 1047.913425 1221.230544 1044.923264 1218.240383 
C 1041.933103 1215.250222 1037.877006 1213.570131 1033.64828 1213.570131 
C 1029.419553 1213.570131 1025.363456 1215.250222 1022.373295 1218.240383 
C 1019.383134 1221.230544 1017.703043 1225.286642 1017.703043 1229.515368 
C 1017.703043 1233.744094 1019.383134 1237.800192 1022.373295 1240.790353 
C 1025.363456 1243.780514 1029.419553 1245.460604 1033.64828 1245.460604 
z
" style="fill:#ffffff;"/>
   </g>
   <g id="patch_83">
    <path clip-path="url(#p7a45779987)" d="M 833.237086 206.045577 
C 837.465813 206.045577 841.52191 204.365487 844.512071 201.375326 
C 847.502232 198.385165 849.182323 194.329067 849.182323 190.100341 
C 849.182323 185.871615 847.502232 181.815517 844.512071 178.825356 
C 841.52191 175.835195 837.465813 174.155104 833.237086 174.155104 
C 829.00836 174.155104 824.952263 175.835195 821.962102 178.825356 
C 818.971941 181.815517 817.29185 185.871615 817.29185 190.100341 
C 817.29185 194.329067 818.971941 198.385165 821.962102 201.375326 
C 824.952263 204.365487 829.00836 206.045577 833.237086 206.045577 
z
" style="fill:#ffffff;"/>
   </g>
   <g id="patch_84">
    <path clip-path="url(#p7a45779987)" d="M 555.70987 1051.239375 
C 559.938597 1051.239375 563.994694 1049.559284 566.984855 1046.569123 
C 569.975016 1043.578963 571.655107 1039.522865 571.655107 1035.294139 
C 571.655107 1031.065412 569.975016 1027.009315 566.984855 1024.019154 
C 563.994694 1021.028993 559.938597 1019.348902 555.70987 1019.348902 
C 551.481144 1019.348902 547.425046 1021.028993 544.434885 1024.019154 
C 541.444725 1027.009315 539.764634 1031.065412 539.764634 1035.294139 
C 539.764634 1039.522865 541.444725 1043.578963 544.434885 1046.569123 
C 547.425046 1049.559284 551.481144 1051.239375 555.70987 1051.239375 
z
" style="fill:#ffffff;"/>
   </g>
   <g id="patch_85">
    <path clip-path="url(#p7a45779987)" d="M 958.941702 1057.600206 
C 963.170428 1057.600206 967.226526 1055.920115 970.216687 1052.929954 
C 973.206848 1049.939793 974.886939 1045.883695 974.886939 1041.654969 
C 974.886939 1037.426243 973.206848 1033.370145 970.216687 1030.379984 
C 967.226526 1027.389823 963.170428 1025.709733 958.941702 1025.709733 
C 954.712976 1025.709733 950.656878 1027.389823 947.666717 1030.379984 
C 944.676556 1033.370145 942.996465 1037.426243 942.996465 1041.654969 
C 942.996465 1045.883695 944.676556 1049.939793 947.666717 1052.929954 
C 950.656878 1055.920115 954.712976 1057.600206 958.941702 1057.600206 
z
" style="fill:#ffffff;"/>
   </g>
   <g id="patch_86">
    <path clip-path="url(#p7a45779987)" d="M 293.899204 1119.190365 
C 298.12793 1119.190365 302.184028 1117.510275 305.174189 1114.520114 
C 308.16435 1111.529953 309.844441 1107.473855 309.844441 1103.245129 
C 309.844441 1099.016403 308.16435 1094.960305 305.174189 1091.970144 
C 302.184028 1088.979983 298.12793 1087.299892 293.899204 1087.299892 
C 289.670478 1087.299892 285.61438 1088.979983 282.624219 1091.970144 
C 279.634058 1094.960305 277.953968 1099.016403 277.953968 1103.245129 
C 277.953968 1107.473855 279.634058 1111.529953 282.624219 1114.520114 
C 285.61438 1117.510275 289.670478 1119.190365 293.899204 1119.190365 
z
" style="fill:#ffffff;"/>
   </g>
   <g id="patch_87">
    <path clip-path="url(#p7a45779987)" d="M 407.406208 371.01055 
C 411.634934 371.01055 415.691032 369.330459 418.681193 366.340298 
C 421.671354 363.350137 423.351445 359.29404 423.351445 355.065313 
C 423.351445 350.836587 421.671354 346.780489 418.681193 343.790328 
C 415.691032 340.800168 411.634934 339.120077 407.406208 339.120077 
C 403.177482 339.120077 399.121384 340.800168 396.131223 343.790328 
C 393.141062 346.780489 391.460972 350.836587 391.460972 355.065313 
C 391.460972 359.29404 393.141062 363.350137 396.131223 366.340298 
C 399.121384 369.330459 403.177482 371.01055 407.406208 371.01055 
z
" style="fill:#ffffff;"/>
   </g>
   <g id="patch_88">
    <path clip-path="url(#p7a45779987)" d="M 371.334591 832.365217 
C 375.563317 832.365217 379.619415 830.685127 382.609576 827.694966 
C 385.599737 824.704805 387.279827 820.648707 387.279827 816.419981 
C 387.279827 812.191255 385.599737 808.135157 382.609576 805.144996 
C 379.619415 802.154835 375.563317 800.474744 371.334591 800.474744 
C 367.105865 800.474744 363.049767 802.154835 360.059606 805.144996 
C 357.069445 808.135157 355.389354 812.191255 355.389354 816.419981 
C 355.389354 820.648707 357.069445 824.704805 360.059606 827.694966 
C 363.049767 830.685127 367.105865 832.365217 371.334591 832.365217 
z
" style="fill:#ffffff;"/>
   </g>
   <g id="patch_89">
    <path clip-path="url(#p7a45779987)" d="M 954.648742 912.441528 
C 958.877468 912.441528 962.933566 910.761437 965.923727 907.771276 
C 968.913888 904.781115 970.593978 900.725017 970.593978 896.496291 
C 970.593978 892.267565 968.913888 888.211467 965.923727 885.221306 
C 962.933566 882.231145 958.877468 880.551055 954.648742 880.551055 
C 950.420016 880.551055 946.363918 882.231145 943.373757 885.221306 
C 940.383596 888.211467 938.703505 892.267565 938.703505 896.496291 
C 938.703505 900.725017 940.383596 904.781115 943.373757 907.771276 
C 946.363918 910.761437 950.420016 912.441528 954.648742 912.441528 
z
" style="fill:#ffffff;"/>
   </g>
   <g id="patch_90">
    <path clip-path="url(#p7a45779987)" d="M 207.147991 379.766983 
C 211.376717 379.766983 215.432815 378.086892 218.422976 375.096731 
C 221.413137 372.10657 223.093228 368.050473 223.093228 363.821746 
C 223.093228 359.59302 221.413137 355.536922 218.422976 352.546761 
C 215.432815 349.556601 211.376717 347.87651 207.147991 347.87651 
C 202.919265 347.87651 198.863167 349.556601 195.873006 352.546761 
C 192.882845 355.536922 191.202755 359.59302 191.202755 363.821746 
C 191.202755 368.050473 192.882845 372.10657 195.873006 375.096731 
C 198.863167 378.086892 202.919265 379.766983 207.147991 379.766983 
z
" style="fill:#ffffff;"/>
   </g>
   <g id="patch_91">
    <path clip-path="url(#p7a45779987)" d="M 728.768094 1105.498839 
C 732.99682 1105.498839 737.052918 1103.818748 740.043079 1100.828587 
C 743.03324 1097.838426 744.713331 1093.782329 744.713331 1089.553603 
C 744.713331 1085.324876 743.03324 1081.268779 740.043079 1078.278618 
C 737.052918 1075.288457 732.99682 1073.608366 728.768094 1073.608366 
C 724.539368 1073.608366 720.48327 1075.288457 717.493109 1078.278618 
C 714.502948 1081.268779 712.822858 1085.324876 712.822858 1089.553603 
C 712.822858 1093.782329 714.502948 1097.838426 717.493109 1100.828587 
C 720.48327 1103.818748 724.539368 1105.498839 728.768094 1105.498839 
z
" style="fill:#ffffff;"/>
   </g>
   <g id="patch_92">
    <path clip-path="url(#p7a45779987)" d="M 692.41042 928.627886 
C 696.639146 928.627886 700.695244 926.947795 703.685405 923.957634 
C 706.675566 920.967473 708.355657 916.911375 708.355657 912.682649 
C 708.355657 908.453923 706.675566 904.397825 703.685405 901.407664 
C 700.695244 898.417503 696.639146 896.737412 692.41042 896.737412 
C 688.181694 896.737412 684.125596 898.417503 681.135435 901.407664 
C 678.145274 904.397825 676.465184 908.453923 676.465184 912.682649 
C 676.465184 916.911375 678.145274 920.967473 681.135435 923.957634 
C 684.125596 926.947795 688.181694 928.627886 692.41042 928.627886 
z
" style="fill:#ffffff;"/>
   </g>
   <g id="patch_93">
    <path clip-path="url(#p7a45779987)" d="M 185.424434 720.894333 
C 189.65316 720.894333 193.709258 719.214242 196.699419 716.224081 
C 199.68958 713.23392 201.36967 709.177822 201.36967 704.949096 
C 201.36967 700.72037 199.68958 696.664272 196.699419 693.674111 
C 193.709258 690.68395 189.65316 689.00386 185.424434 689.00386 
C 181.195708 689.00386 177.13961 690.68395 174.149449 693.674111 
C 171.159288 696.664272 169.479197 700.72037 169.479197 704.949096 
C 169.479197 709.177822 171.159288 713.23392 174.149449 716.224081 
C 177.13961 719.214242 181.195708 720.894333 185.424434 720.894333 
z
" style="fill:#ffffff;"/>
   </g>
   <g id="patch_94">
    <path clip-path="url(#p7a45779987)" d="M 518.327999 947.68838 
C 522.556725 947.68838 526.612823 946.008289 529.602984 943.018129 
C 532.593145 940.027968 534.273235 935.97187 534.273235 931.743144 
C 534.273235 927.514417 532.593145 923.45832 529.602984 920.468159 
C 526.612823 917.477998 522.556725 915.797907 518.327999 915.797907 
C 514.099273 915.797907 510.043175 917.477998 507.053014 920.468159 
C 504.062853 923.45832 502.382762 927.514417 502.382762 931.743144 
C 502.382762 935.97187 504.062853 940.027968 507.053014 943.018129 
C 510.043175 946.008289 514.099273 947.68838 518.327999 947.68838 
z
" style="fill:#ffffff;"/>
   </g>
   <g id="patch_95">
    <path clip-path="url(#p7a45779987)" d="M 843.814321 1150.574708 
C 848.043047 1150.574708 852.099145 1148.894617 855.089306 1145.904456 
C 858.079467 1142.914295 859.759558 1138.858198 859.759558 1134.629472 
C 859.759558 1130.400745 858.079467 1126.344648 855.089306 1123.354487 
C 852.099145 1120.364326 848.043047 1118.684235 843.814321 1118.684235 
C 839.585595 1118.684235 835.529497 1120.364326 832.539336 1123.354487 
C 829.549175 1126.344648 827.869085 1130.400745 827.869085 1134.629472 
C 827.869085 1138.858198 829.549175 1142.914295 832.539336 1145.904456 
C 835.529497 1148.894617 839.585595 1150.574708 843.814321 1150.574708 
z
" style="fill:#ffffff;"/>
   </g>
   <g id="patch_96">
    <path clip-path="url(#p7a45779987)" d="M 599.972341 1108.545799 
C 604.201067 1108.545799 608.257165 1106.865709 611.247326 1103.875548 
C 614.237487 1100.885387 615.917577 1096.829289 615.917577 1092.600563 
C 615.917577 1088.371837 614.237487 1084.315739 611.247326 1081.325578 
C 608.257165 1078.335417 604.201067 1076.655326 599.972341 1076.655326 
C 595.743615 1076.655326 591.687517 1078.335417 588.697356 1081.325578 
C 585.707195 1084.315739 584.027104 1088.371837 584.027104 1092.600563 
C 584.027104 1096.829289 585.707195 1100.885387 588.697356 1103.875548 
C 591.687517 1106.865709 595.743615 1108.545799 599.972341 1108.545799 
z
" style="fill:#ffffff;"/>
   </g>
   <g id="patch_97">
    <path clip-path="url(#p7a45779987)" d="M 619.23954 1281.684896 
C 623.468266 1281.684896 627.524364 1280.004805 630.514525 1277.014644 
C 633.504686 1274.024483 635.184777 1269.968385 635.184777 1265.739659 
C 635.184777 1261.510933 633.504686 1257.454835 630.514525 1254.464674 
C 627.524364 1251.474513 623.468266 1249.794423 619.23954 1249.794423 
C 615.010814 1249.794423 610.954716 1251.474513 607.964555 1254.464674 
C 604.974394 1257.454835 603.294304 1261.510933 603.294304 1265.739659 
C 603.294304 1269.968385 604.974394 1274.024483 607.964555 1277.014644 
C 610.954716 1280.004805 615.010814 1281.684896 619.23954 1281.684896 
z
" style="fill:#ffffff;"/>
   </g>
  </g>
 </g>
 <defs>
  <clipPath id="p7a45779987">
   <rect height="1343.619" width="1248.106293" x="67.146853" y="56.1105"/>
  </clipPath>
 </defs>
</svg>
