<?xml version="1.0" encoding="utf-8" standalone="no"?>
<!DOCTYPE svg PUBLIC "-//W3C//DTD SVG 1.1//EN"
  "http://www.w3.org/Graphics/SVG/1.1/DTD/svg11.dtd">
<!-- Created with matplotlib (http://matplotlib.org/) -->
<svg height="1455pt" version="1.1" viewBox="0 0 1382 1455" width="1382pt" xmlns="http://www.w3.org/2000/svg" xmlns:xlink="http://www.w3.org/1999/xlink">
 <defs>
  <style type="text/css">
*{stroke-linecap:butt;stroke-linejoin:round;}
  </style>
 </defs>
 <g id="figure_1">
  <g id="patch_1">
   <path d="M 0 1455.84 
L 1382.4 1455.84 
L 1382.4 0 
L 0 0 
z
" style="fill:#ffffff;"/>
  </g>
  <g id="axes_1">
   <g id="patch_2">
    <path clip-path="url(#p3a77e58b01)" d="M 835.168214 1070.719437 
L 820.302801 1069.891295 
L 824.135505 1065.333117 
L 526.160853 814.783695 
L 528.077205 812.504606 
L 529.993558 810.225517 
L 827.96821 1060.774939 
L 831.800915 1056.216761 
z
" style="fill:#cacaca;"/>
   </g>
   <g id="patch_3">
    <path clip-path="url(#p3a77e58b01)" d="M 553.382762 926.853254 
L 559.647067 940.359727 
L 562.465705 935.113596 
L 846.02411 1087.463683 
L 847.433429 1084.840617 
z
" style="fill:#67001f;"/>
   </g>
   <g id="patch_4">
    <path clip-path="url(#p3a77e58b01)" d="M 947.266623 827.039189 
L 951.314947 841.366694 
L 945.758548 839.223557 
L 851.620948 1083.28912 
L 848.842748 1082.217552 
L 846.064548 1081.145983 
L 940.202148 837.080419 
L 934.645749 834.937281 
z
" style="fill:#f2f2f2;"/>
   </g>
   <g id="patch_5">
    <path clip-path="url(#p3a77e58b01)" d="M 913.811461 973.154129 
L 899.871022 978.381986 
L 901.543813 972.66636 
L 710.71269 916.815847 
L 711.549086 913.958034 
L 712.385481 911.100221 
L 903.216605 966.950733 
L 904.889396 961.235107 
z
" style="fill:#fbccb4;"/>
   </g>
   <g id="patch_6">
    <path clip-path="url(#p3a77e58b01)" d="M 753.229305 614.922792 
L 760.432599 627.952715 
L 754.534233 627.130587 
L 714.498268 914.369098 
L 711.549086 913.958034 
L 708.599903 913.54697 
L 748.635867 626.308459 
L 742.737501 625.486331 
z
" style="fill:#c4c4c4;"/>
   </g>
   <g id="patch_7">
    <path clip-path="url(#p3a77e58b01)" d="M 269.490479 639.115154 
L 283.446627 633.929377 
L 281.7566 639.639931 
L 725.036623 770.82775 
L 724.191609 773.683027 
L 723.346596 776.538304 
L 280.066573 645.350485 
L 278.376546 651.061038 
z
" style="fill:#262626;"/>
   </g>
   <g id="patch_8">
    <path clip-path="url(#p3a77e58b01)" d="M 540.677596 897.982072 
L 532.8641 885.308651 
L 538.794834 885.849953 
L 565.135809 597.247453 
L 568.101176 597.518104 
L 571.066542 597.788756 
L 544.725568 886.391256 
L 550.656302 886.932559 
z
" style="fill:#fde1d0;"/>
   </g>
   <g id="patch_9">
    <path clip-path="url(#p3a77e58b01)" d="M 713.152803 896.164001 
L 705.324932 883.499454 
L 711.256276 884.034026 
L 721.225937 773.415741 
L 724.191609 773.683027 
L 727.157282 773.950313 
L 717.18762 884.568599 
L 723.118965 885.103172 
z
" style="fill:#707070;"/>
   </g>
   <g id="patch_10">
    <path clip-path="url(#p3a77e58b01)" d="M 515.154927 824.84212 
L 512.708831 839.528268 
L 508.596326 835.220842 
L 248.318451 1083.720491 
L 246.262199 1081.566778 
L 244.205947 1079.413065 
L 504.483822 830.913415 
L 500.371318 826.605989 
z
" style="fill:#e2e2e2;"/>
   </g>
   <g id="patch_11">
    <path clip-path="url(#p3a77e58b01)" d="M 834.513674 1071.138572 
L 828.249368 1057.632099 
L 825.43073 1062.87823 
L 541.872326 910.528143 
L 540.463007 913.151208 
z
" style="fill:#f6f6f6;"/>
   </g>
   <g id="patch_12">
    <path clip-path="url(#p3a77e58b01)" d="M 979.639072 837.125866 
L 964.934471 834.793262 
L 969.210008 830.647615 
L 951.558267 812.442814 
L 953.696036 810.369991 
L 955.833805 808.297167 
L 973.485546 826.501968 
L 977.761083 822.35632 
z
" style="fill:#d7d7d7;"/>
   </g>
   <g id="patch_13">
    <path clip-path="url(#p3a77e58b01)" d="M 573.368655 614.590104 
L 585.416308 623.337698 
L 579.725642 625.093524 
L 640.140563 820.899409 
L 637.295229 821.777323 
L 634.449896 822.655236 
L 574.034975 626.849351 
L 568.344308 628.605177 
z
" style="fill:#da6853;"/>
   </g>
   <g id="patch_14">
    <path clip-path="url(#p3a77e58b01)" d="M 700.341377 900.044487 
L 685.912798 896.372643 
L 690.550647 892.63674 
L 634.976305 823.645274 
L 637.295229 821.777323 
L 639.614154 819.909371 
L 695.188496 888.900838 
L 699.826345 885.164935 
z
" style="fill:#b7b7b7;"/>
   </g>
   <g id="patch_15">
    <path clip-path="url(#p3a77e58b01)" d="M 264.289518 620.416994 
L 278.152275 614.986497 
L 273.087454 611.853734 
L 409.371165 391.52026 
L 406.838754 389.953878 
z
" style="fill:#e6e6e6;"/>
   </g>
   <g id="patch_16">
    <path clip-path="url(#p3a77e58b01)" d="M 447.431551 575.267134 
L 459.946991 567.20301 
L 459.523805 573.143341 
L 755.907282 594.257529 
L 755.695689 597.227694 
L 755.484096 600.19786 
L 459.10062 579.083671 
L 458.677434 585.024002 
z
" style="fill:#f7b99c;"/>
   </g>
   <g id="patch_17">
    <path clip-path="url(#p3a77e58b01)" d="M 556.004191 610.665822 
L 554.513393 625.479459 
L 550.13082 621.447131 
L 373.714832 813.186446 
L 371.523546 811.170282 
L 369.33226 809.154118 
L 545.748248 617.414803 
L 541.365675 613.382475 
z
" style="fill:#fde1d0;"/>
   </g>
   <g id="patch_18">
    <path clip-path="url(#p3a77e58b01)" d="M 831.160396 1084.773711 
L 820.650241 1095.318993 
L 819.798188 1089.424876 
L 550.856761 1128.303026 
L 550.430735 1125.355967 
L 550.004708 1122.408908 
L 818.946135 1083.530758 
L 818.094082 1077.636641 
z
" style="fill:#adadad;"/>
   </g>
   <g id="patch_19">
    <path clip-path="url(#p3a77e58b01)" d="M 723.480845 755.831015 
L 714.080996 744.285056 
L 720.031666 744.048135 
L 708.761092 460.969351 
L 711.736427 460.850891 
L 714.711762 460.73243 
L 725.982337 743.811213 
L 731.933007 743.574291 
z
" style="fill:#e7e7e7;"/>
   </g>
   <g id="patch_20">
    <path clip-path="url(#p3a77e58b01)" d="M 415.322716 402.453024 
L 429.699728 406.321856 
L 425.011219 409.99398 
L 570.44543 595.682042 
L 568.101176 597.518104 
L 565.756921 599.354167 
L 420.32271 413.666104 
L 415.634201 417.338228 
z
" style="fill:#b82531;"/>
   </g>
   <g id="patch_21">
    <path clip-path="url(#p3a77e58b01)" d="M 406.719712 406.089903 
L 417.179827 416.684822 
L 411.279025 417.489278 
L 432.560961 573.595349 
L 429.61056 573.997577 
L 426.660159 574.399805 
L 405.378223 418.293734 
L 399.477422 419.098191 
z
" style="fill:#fddbc7;"/>
   </g>
   <g id="patch_22">
    <path clip-path="url(#p3a77e58b01)" d="M 267.614071 643.344363 
L 282.433884 641.916263 
L 279.334121 647.001347 
L 713.098967 911.415492 
L 711.549086 913.958034 
L 709.999204 916.500576 
L 276.234358 652.086431 
L 273.134595 657.171516 
z
" style="fill:#ba2832;"/>
   </g>
   <g id="patch_23">
    <path clip-path="url(#p3a77e58b01)" d="M 522.71968 923.013038 
L 515.449723 936.005884 
L 513.036802 930.561215 
L 430.680181 967.059307 
L 429.473721 964.336972 
L 428.26726 961.614637 
L 510.62388 925.116546 
L 508.210959 919.671876 
z
" style="fill:#eaeaea;"/>
   </g>
   <g id="patch_24">
    <path clip-path="url(#p3a77e58b01)" d="M 375.773615 793.816999 
L 369.930353 780.123109 
L 375.714781 781.539799 
L 426.718346 573.289232 
L 429.61056 573.997577 
L 432.502774 574.705922 
L 381.499208 782.956488 
L 387.283636 784.373178 
z
" style="fill:#a51429;"/>
   </g>
   <g id="patch_25">
    <path clip-path="url(#p3a77e58b01)" d="M 767.855455 610.31737 
L 782.506803 612.963938 
L 778.143578 617.017193 
L 955.877649 808.343363 
L 953.696036 810.369991 
L 951.514423 812.396618 
L 773.780352 621.070448 
L 769.417127 625.123704 
z
" style="fill:#f9c2a7;"/>
   </g>
   <g id="patch_26">
    <path clip-path="url(#p3a77e58b01)" d="M 447.061567 961.195765 
L 457.216194 950.307704 
L 458.263263 956.17032 
L 711.025551 911.026727 
L 711.549086 913.958034 
L 712.07262 916.889342 
L 459.310332 962.032935 
L 460.357401 967.895551 
z
" style="fill:#bbbbbb;"/>
   </g>
   <g id="patch_27">
    <path clip-path="url(#p3a77e58b01)" d="M 974.657491 853.926722 
L 965.032265 865.285478 
L 963.707517 859.479304 
L 712.211459 916.861121 
L 711.549086 913.958034 
L 710.886712 911.054947 
L 962.38277 853.67313 
L 961.058022 847.866956 
z
" style="fill:#fcfcfc;"/>
   </g>
   <g id="patch_28">
    <path clip-path="url(#p3a77e58b01)" d="M 695.154131 467.501227 
L 687.424435 480.225932 
L 685.207656 474.6985 
L 430.718949 576.761293 
L 429.61056 573.997577 
L 428.502171 571.233861 
L 682.990878 469.171068 
L 680.774099 463.643636 
z
" style="fill:#dc6e57;"/>
   </g>
   <g id="patch_29">
    <path clip-path="url(#p3a77e58b01)" d="M 577.05578 612.978201 
L 590.755564 618.80763 
L 585.602199 621.792498 
L 851.419431 1080.725118 
L 848.842748 1082.217552 
L 846.266065 1083.709986 
L 580.448833 624.777366 
L 575.295468 627.762234 
z
" style="fill:#cb4942;"/>
   </g>
   <g id="patch_30">
    <path clip-path="url(#p3a77e58b01)" d="M 561.785215 614.23062 
L 565.930832 628.530277 
L 560.359994 626.424956 
L 432.25914 965.389632 
L 429.473721 964.336972 
L 426.688301 963.284312 
L 554.789156 624.319636 
L 549.218317 622.214316 
z
" style="fill:#f6b191;"/>
   </g>
   <g id="patch_31">
    <path clip-path="url(#p3a77e58b01)" d="M 263.946041 1084.112607 
L 277.008183 1076.967905 
L 276.159574 1082.862519 
L 550.85504 1122.40866 
L 550.430735 1125.355967 
L 550.00643 1128.303274 
L 275.310964 1088.757133 
L 274.462354 1094.651747 
z
" style="fill:#fcd3bc;"/>
   </g>
   <g id="patch_32">
    <path clip-path="url(#p3a77e58b01)" d="M 423.151486 947.626829 
L 410.581592 939.647851 
L 416.15164 937.54044 
L 368.738522 812.223988 
L 371.523546 811.170282 
L 374.30857 810.116576 
L 421.721687 935.433028 
L 427.291735 933.325617 
z
" style="fill:#5c5c5c;"/>
   </g>
   <g id="patch_33">
    <path clip-path="url(#p3a77e58b01)" d="M 537.537139 1112.988481 
L 522.757665 1111.190289 
L 526.880161 1106.892424 
L 276.702126 866.922654 
L 278.763374 864.773722 
L 280.824621 862.624789 
L 531.002656 1102.594558 
L 535.125151 1098.296693 
z
" style="fill:#f2a17f;"/>
   </g>
   <g id="patch_34">
    <path clip-path="url(#p3a77e58b01)" d="M 261.311304 1071.937451 
L 266.529377 1057.993346 
L 269.739153 1063.009715 
L 427.868833 961.828788 
L 429.473721 964.336972 
L 431.078608 966.845156 
L 272.948929 1068.026083 
L 276.158705 1073.042452 
z
" style="fill:#f8f8f8;"/>
   </g>
   <g id="patch_35">
    <path clip-path="url(#p3a77e58b01)" d="M 412.689036 579.730075 
L 404.274268 592.012502 
L 402.363436 586.371994 
L 253.314235 636.865328 
L 252.358818 634.045074 
L 251.403402 631.22482 
L 400.452603 580.731486 
L 398.54177 575.090978 
z
" style="fill:#f8bda1;"/>
   </g>
   <g id="patch_36">
    <path clip-path="url(#p3a77e58b01)" d="M 421.695965 392.486351 
L 435.338472 386.524109 
L 433.972188 392.32065 
L 712.419569 457.95262 
L 711.736427 460.850891 
L 711.053285 463.749161 
L 432.605903 398.11719 
L 431.239618 403.91373 
z
" style="fill:#a9a9a9;"/>
   </g>
   <g id="patch_37">
    <path clip-path="url(#p3a77e58b01)" d="M 429.479984 946.470818 
L 420.551082 934.556916 
L 426.506467 934.559004 
L 426.632867 573.996533 
L 429.61056 573.997577 
L 432.588252 573.998621 
L 432.461852 934.561092 
L 438.417237 934.563179 
z
" style="fill:#f7f7f7;"/>
   </g>
   <g id="patch_38">
    <path clip-path="url(#p3a77e58b01)" d="M 267.357382 643.752938 
L 282.210356 642.725566 
L 278.974401 647.725087 
L 529.695183 810.004846 
L 528.077205 812.504606 
L 526.459228 815.004367 
L 275.738446 652.724608 
L 272.502492 657.724129 
z
" style="fill:#eaeaea;"/>
   </g>
   <g id="patch_39">
    <path clip-path="url(#p3a77e58b01)" d="M 583.452347 606.658183 
L 598.256501 605.075983 
L 595.209808 610.193041 
L 993.59936 847.393951 
L 992.076014 849.952479 
L 990.552667 852.511008 
L 592.163115 615.310098 
L 589.116422 620.427155 
z
" style="fill:#fcd5bf;"/>
   </g>
   <g id="patch_40">
    <path clip-path="url(#p3a77e58b01)" d="M 736.894649 786.24616 
L 751.644908 788.270062 
L 747.457197 792.504408 
L 933.052195 976.05533 
L 930.95834 978.172503 
L 928.864484 980.289676 
L 743.269486 796.738755 
L 739.081776 800.973101 
z
" style="fill:#fdfdfd;"/>
   </g>
   <g id="patch_41">
    <path clip-path="url(#p3a77e58b01)" d="M 421.383265 589.85668 
L 423.827953 604.543062 
L 418.541586 601.800631 
L 281.406558 866.144937 
L 278.763374 864.773722 
L 276.12019 863.402506 
L 413.255218 599.058199 
L 407.968851 596.315768 
z
" style="fill:#f8f8f8;"/>
   </g>
   <g id="patch_42">
    <path clip-path="url(#p3a77e58b01)" d="M 749.223407 613.880294 
L 753.234852 628.218168 
L 747.683985 626.060741 
L 553.206168 1126.434681 
L 550.430735 1125.355967 
L 547.655301 1124.277253 
L 742.133119 623.903314 
L 736.582252 621.745886 
z
" style="fill:#b3b3b3;"/>
   </g>
   <g id="patch_43">
    <path clip-path="url(#p3a77e58b01)" d="M 296.502426 862.646392 
L 307.264797 852.358646 
L 307.973906 858.271664 
L 636.940674 818.820814 
L 637.295229 821.777323 
L 637.649784 824.733831 
L 308.683016 864.184681 
L 309.392126 870.097699 
z
" style="fill:#e0e0e0;"/>
   </g>
   <g id="patch_44">
    <path clip-path="url(#p3a77e58b01)" d="M 523.899058 906.311889 
L 509.06478 907.580947 
L 512.218908 902.529404 
L 369.946482 813.696053 
L 371.523546 811.170282 
L 373.10061 808.64451 
L 515.373036 897.477861 
L 518.527165 892.426318 
z
" style="fill:#b1b1b1;"/>
   </g>
   <g id="patch_45">
    <path clip-path="url(#p3a77e58b01)" d="M 974.265932 848.538079 
L 961.685345 856.500187 
L 962.156812 850.563493 
L 637.059496 824.745669 
L 637.295229 821.777323 
L 637.530963 818.808976 
L 962.628278 844.626799 
L 963.099745 838.690106 
z
" style="fill:#be3036;"/>
   </g>
   <g id="patch_46">
    <path clip-path="url(#p3a77e58b01)" d="M 265.101974 646.567514 
L 279.858632 648.544229 
L 275.684485 652.791947 
L 541.140761 913.650415 
L 539.053688 915.774274 
L 536.966614 917.898133 
L 271.510339 657.039666 
L 267.336192 661.287385 
z
" style="fill:#636363;"/>
   </g>
   <g id="patch_47">
    <path clip-path="url(#p3a77e58b01)" d="M 727.975318 906.931056 
L 735.41265 894.033289 
L 737.754976 899.508699 
L 952.524873 807.632285 
L 953.696036 810.369991 
L 954.867199 813.107696 
L 740.097302 904.98411 
L 742.439628 910.459521 
z
" style="fill:#b1b1b1;"/>
   </g>
   <g id="patch_48">
    <path clip-path="url(#p3a77e58b01)" d="M 727.331752 756.094991 
L 720.631162 742.799562 
L 726.493841 743.846276 
L 752.764349 596.704337 
L 755.695689 597.227694 
L 758.627028 597.751051 
L 732.35652 744.89299 
L 738.219198 745.939704 
z
" style="fill:#d6604d;"/>
   </g>
   <g id="patch_49">
    <path clip-path="url(#p3a77e58b01)" d="M 712.343224 760.310844 
L 697.758209 757.320248 
L 702.215603 753.370786 
L 565.872478 599.492835 
L 568.101176 597.518104 
L 570.329873 595.543374 
L 706.672998 749.421324 
L 711.130392 745.471862 
z
" style="fill:#fef2ea;"/>
   </g>
   <g id="patch_50">
    <path clip-path="url(#p3a77e58b01)" d="M 392.375644 402.015577 
L 378.512887 407.446074 
L 383.577708 410.578837 
L 247.293998 630.912311 
L 249.826408 632.478693 
z
" style="fill:#fbd0b9;"/>
   </g>
   <g id="patch_51">
    <path clip-path="url(#p3a77e58b01)" d="M 622.562264 831.883718 
L 617.793484 845.987798 
L 614.424686 841.07681 
L 431.15812 966.792466 
L 429.473721 964.336972 
L 427.789321 961.881478 
L 611.055887 836.165821 
L 607.687089 831.254833 
z
" style="fill:#afafaf;"/>
   </g>
   <g id="matplotlib.axis_1"/>
   <g id="matplotlib.axis_2"/>
   <g id="patch_52">
    <path clip-path="url(#p3a77e58b01)" d="M 568.101176 615.38426 
C 572.839335 615.38426 577.38407 613.501769 580.734455 610.151384 
C 584.08484 606.800999 585.967331 602.256264 585.967331 597.518104 
C 585.967331 592.779945 584.08484 588.23521 580.734455 584.884825 
C 577.38407 581.53444 572.839335 579.651949 568.101176 579.651949 
C 563.363016 579.651949 558.818281 581.53444 555.467896 584.884825 
C 552.117511 588.23521 550.23502 592.779945 550.23502 597.518104 
C 550.23502 602.256264 552.117511 606.800999 555.467896 610.151384 
C 558.818281 613.501769 563.363016 615.38426 568.101176 615.38426 
z
"/>
   </g>
   <g id="patch_53">
    <path clip-path="url(#p3a77e58b01)" d="M 404.306344 406.253652 
C 409.044504 406.253652 413.589239 404.371162 416.939624 401.020777 
C 420.290009 397.670392 422.172499 393.125657 422.172499 388.387497 
C 422.172499 383.649337 420.290009 379.104602 416.939624 375.754217 
C 413.589239 372.403832 409.044504 370.521341 404.306344 370.521341 
C 399.568184 370.521341 395.023449 372.403832 391.673064 375.754217 
C 388.322679 379.104602 386.440188 383.649337 386.440188 388.387497 
C 386.440188 393.125657 388.322679 397.670392 391.673064 401.020777 
C 395.023449 404.371162 399.568184 406.253652 404.306344 406.253652 
z
"/>
   </g>
   <g id="patch_54">
    <path clip-path="url(#p3a77e58b01)" d="M 711.549086 931.82419 
C 716.287245 931.82419 720.83198 929.941699 724.182365 926.591314 
C 727.53275 923.240929 729.415241 918.696194 729.415241 913.958034 
C 729.415241 909.219874 727.53275 904.675139 724.182365 901.324754 
C 720.83198 897.974369 716.287245 896.091879 711.549086 896.091879 
C 706.810926 896.091879 702.266191 897.974369 698.915806 901.324754 
C 695.565421 904.675139 693.68293 909.219874 693.68293 913.958034 
C 693.68293 918.696194 695.565421 923.240929 698.915806 926.591314 
C 702.266191 929.941699 706.810926 931.82419 711.549086 931.82419 
z
"/>
   </g>
   <g id="patch_55">
    <path clip-path="url(#p3a77e58b01)" d="M 539.053688 933.64043 
C 543.791847 933.64043 548.336582 931.757939 551.686967 928.407554 
C 555.037352 925.057169 556.919843 920.512434 556.919843 915.774274 
C 556.919843 911.036114 555.037352 906.491379 551.686967 903.140994 
C 548.336582 899.790609 543.791847 897.908118 539.053688 897.908118 
C 534.315528 897.908118 529.770793 899.790609 526.420408 903.140994 
C 523.070023 906.491379 521.187532 911.036114 521.187532 915.774274 
C 521.187532 920.512434 523.070023 925.057169 526.420408 928.407554 
C 529.770793 931.757939 534.315528 933.64043 539.053688 933.64043 
z
"/>
   </g>
   <g id="patch_56">
    <path clip-path="url(#p3a77e58b01)" d="M 550.430735 1143.222123 
C 555.168895 1143.222123 559.71363 1141.339632 563.064014 1137.989247 
C 566.414399 1134.638862 568.29689 1130.094127 568.29689 1125.355967 
C 568.29689 1120.617807 566.414399 1116.073072 563.064014 1112.722687 
C 559.71363 1109.372302 555.168895 1107.489812 550.430735 1107.489812 
C 545.692575 1107.489812 541.14784 1109.372302 537.797455 1112.722687 
C 534.44707 1116.073072 532.564579 1120.617807 532.564579 1125.355967 
C 532.564579 1130.094127 534.44707 1134.638862 537.797455 1137.989247 
C 541.14784 1141.339632 545.692575 1143.222123 550.430735 1143.222123 
z
"/>
   </g>
   <g id="patch_57">
    <path clip-path="url(#p3a77e58b01)" d="M 637.295229 839.643478 
C 642.033389 839.643478 646.578124 837.760987 649.928509 834.410602 
C 653.278894 831.060217 655.161385 826.515482 655.161385 821.777323 
C 655.161385 817.039163 653.278894 812.494428 649.928509 809.144043 
C 646.578124 805.793658 642.033389 803.911167 637.295229 803.911167 
C 632.557069 803.911167 628.012335 805.793658 624.66195 809.144043 
C 621.311565 812.494428 619.429074 817.039163 619.429074 821.777323 
C 619.429074 826.515482 621.311565 831.060217 624.66195 834.410602 
C 628.012335 837.760987 632.557069 839.643478 637.295229 839.643478 
z
"/>
   </g>
   <g id="patch_58">
    <path clip-path="url(#p3a77e58b01)" d="M 278.763374 882.639877 
C 283.501534 882.639877 288.046269 880.757386 291.396654 877.407001 
C 294.747039 874.056616 296.629529 869.511881 296.629529 864.773722 
C 296.629529 860.035562 294.747039 855.490827 291.396654 852.140442 
C 288.046269 848.790057 283.501534 846.907566 278.763374 846.907566 
C 274.025214 846.907566 269.480479 848.790057 266.130094 852.140442 
C 262.779709 855.490827 260.897218 860.035562 260.897218 864.773722 
C 260.897218 869.511881 262.779709 874.056616 266.130094 877.407001 
C 269.480479 880.757386 274.025214 882.639877 278.763374 882.639877 
z
"/>
   </g>
   <g id="patch_59">
    <path clip-path="url(#p3a77e58b01)" d="M 755.695689 615.09385 
C 760.433849 615.09385 764.978584 613.211359 768.328969 609.860974 
C 771.679354 606.510589 773.561844 601.965854 773.561844 597.227694 
C 773.561844 592.489534 771.679354 587.944799 768.328969 584.594414 
C 764.978584 581.244029 760.433849 579.361539 755.695689 579.361539 
C 750.957529 579.361539 746.412794 581.244029 743.062409 584.594414 
C 739.712024 587.944799 737.829533 592.489534 737.829533 597.227694 
C 737.829533 601.965854 739.712024 606.510589 743.062409 609.860974 
C 746.412794 613.211359 750.957529 615.09385 755.695689 615.09385 
z
"/>
   </g>
   <g id="patch_60">
    <path clip-path="url(#p3a77e58b01)" d="M 252.358818 651.91123 
C 257.096978 651.91123 261.641713 650.028739 264.992098 646.678354 
C 268.342483 643.327969 270.224974 638.783234 270.224974 634.045074 
C 270.224974 629.306914 268.342483 624.762179 264.992098 621.411794 
C 261.641713 618.061409 257.096978 616.178919 252.358818 616.178919 
C 247.620659 616.178919 243.075924 618.061409 239.725539 621.411794 
C 236.375154 624.762179 234.492663 629.306914 234.492663 634.045074 
C 234.492663 638.783234 236.375154 643.327969 239.725539 646.678354 
C 243.075924 650.028739 247.620659 651.91123 252.358818 651.91123 
z
"/>
   </g>
   <g id="patch_61">
    <path clip-path="url(#p3a77e58b01)" d="M 930.95834 996.038659 
C 935.696499 996.038659 940.241234 994.156168 943.591619 990.805783 
C 946.942004 987.455398 948.824495 982.910663 948.824495 978.172503 
C 948.824495 973.434343 946.942004 968.889608 943.591619 965.539223 
C 940.241234 962.188838 935.696499 960.306348 930.95834 960.306348 
C 926.22018 960.306348 921.675445 962.188838 918.32506 965.539223 
C 914.974675 968.889608 913.092184 973.434343 913.092184 978.172503 
C 913.092184 982.910663 914.974675 987.455398 918.32506 990.805783 
C 921.675445 994.156168 926.22018 996.038659 930.95834 996.038659 
z
"/>
   </g>
   <g id="patch_62">
    <path clip-path="url(#p3a77e58b01)" d="M 429.473721 982.203128 
C 434.21188 982.203128 438.756615 980.320637 442.107 976.970252 
C 445.457385 973.619867 447.339876 969.075132 447.339876 964.336972 
C 447.339876 959.598812 445.457385 955.054077 442.107 951.703692 
C 438.756615 948.353307 434.21188 946.470816 429.473721 946.470816 
C 424.735561 946.470816 420.190826 948.353307 416.840441 951.703692 
C 413.490056 955.054077 411.607565 959.598812 411.607565 964.336972 
C 411.607565 969.075132 413.490056 973.619867 416.840441 976.970252 
C 420.190826 980.320637 424.735561 982.203128 429.473721 982.203128 
z
"/>
   </g>
   <g id="patch_63">
    <path clip-path="url(#p3a77e58b01)" d="M 953.696036 828.236146 
C 958.434196 828.236146 962.978931 826.353656 966.329316 823.003271 
C 969.679701 819.652886 971.562192 815.108151 971.562192 810.369991 
C 971.562192 805.631831 969.679701 801.087096 966.329316 797.736711 
C 962.978931 794.386326 958.434196 792.503835 953.696036 792.503835 
C 948.957876 792.503835 944.413141 794.386326 941.062756 797.736711 
C 937.712371 801.087096 935.829881 805.631831 935.829881 810.369991 
C 935.829881 815.108151 937.712371 819.652886 941.062756 823.003271 
C 944.413141 826.353656 948.957876 828.236146 953.696036 828.236146 
z
"/>
   </g>
   <g id="patch_64">
    <path clip-path="url(#p3a77e58b01)" d="M 429.61056 591.863733 
C 434.34872 591.863733 438.893455 589.981242 442.24384 586.630857 
C 445.594225 583.280472 447.476716 578.735737 447.476716 573.997577 
C 447.476716 569.259417 445.594225 564.714682 442.24384 561.364297 
C 438.893455 558.013912 434.34872 556.131422 429.61056 556.131422 
C 424.8724 556.131422 420.327665 558.013912 416.97728 561.364297 
C 413.626895 564.714682 411.744404 569.259417 411.744404 573.997577 
C 411.744404 578.735737 413.626895 583.280472 416.97728 586.630857 
C 420.327665 589.981242 424.8724 591.863733 429.61056 591.863733 
z
"/>
   </g>
   <g id="patch_65">
    <path clip-path="url(#p3a77e58b01)" d="M 992.076014 867.818635 
C 996.814173 867.818635 1001.358908 865.936144 1004.709293 862.585759 
C 1008.059678 859.235374 1009.942169 854.690639 1009.942169 849.952479 
C 1009.942169 845.214319 1008.059678 840.669584 1004.709293 837.319199 
C 1001.358908 833.968814 996.814173 832.086324 992.076014 832.086324 
C 987.337854 832.086324 982.793119 833.968814 979.442734 837.319199 
C 976.092349 840.669584 974.209858 845.214319 974.209858 849.952479 
C 974.209858 854.690639 976.092349 859.235374 979.442734 862.585759 
C 982.793119 865.936144 987.337854 867.818635 992.076014 867.818635 
z
"/>
   </g>
   <g id="patch_66">
    <path clip-path="url(#p3a77e58b01)" d="M 371.523546 829.036437 
C 376.261706 829.036437 380.806441 827.153947 384.156826 823.803562 
C 387.507211 820.453177 389.389702 815.908442 389.389702 811.170282 
C 389.389702 806.432122 387.507211 801.887387 384.156826 798.537002 
C 380.806441 795.186617 376.261706 793.304126 371.523546 793.304126 
C 366.785386 793.304126 362.240651 795.186617 358.890266 798.537002 
C 355.539881 801.887387 353.65739 806.432122 353.65739 811.170282 
C 353.65739 815.908442 355.539881 820.453177 358.890266 823.803562 
C 362.240651 827.153947 366.785386 829.036437 371.523546 829.036437 
z
"/>
   </g>
   <g id="patch_67">
    <path clip-path="url(#p3a77e58b01)" d="M 246.262199 1099.432933 
C 251.000359 1099.432933 255.545094 1097.550443 258.895479 1094.200058 
C 262.245864 1090.849673 264.128354 1086.304938 264.128354 1081.566778 
C 264.128354 1076.828618 262.245864 1072.283883 258.895479 1068.933498 
C 255.545094 1065.583113 251.000359 1063.700622 246.262199 1063.700622 
C 241.524039 1063.700622 236.979304 1065.583113 233.628919 1068.933498 
C 230.278534 1072.283883 228.396043 1076.828618 228.396043 1081.566778 
C 228.396043 1086.304938 230.278534 1090.849673 233.628919 1094.200058 
C 236.979304 1097.550443 241.524039 1099.432933 246.262199 1099.432933 
z
"/>
   </g>
   <g id="patch_68">
    <path clip-path="url(#p3a77e58b01)" d="M 711.736427 478.717046 
C 716.474587 478.717046 721.019322 476.834555 724.369707 473.48417 
C 727.720092 470.133785 729.602583 465.58905 729.602583 460.850891 
C 729.602583 456.112731 727.720092 451.567996 724.369707 448.217611 
C 721.019322 444.867226 716.474587 442.984735 711.736427 442.984735 
C 706.998267 442.984735 702.453532 444.867226 699.103147 448.217611 
C 695.752762 451.567996 693.870272 456.112731 693.870272 460.850891 
C 693.870272 465.58905 695.752762 470.133785 699.103147 473.48417 
C 702.453532 476.834555 706.998267 478.717046 711.736427 478.717046 
z
"/>
   </g>
   <g id="patch_69">
    <path clip-path="url(#p3a77e58b01)" d="M 848.842748 1100.083707 
C 853.580908 1100.083707 858.125643 1098.201216 861.476028 1094.850831 
C 864.826413 1091.500446 866.708904 1086.955711 866.708904 1082.217552 
C 866.708904 1077.479392 864.826413 1072.934657 861.476028 1069.584272 
C 858.125643 1066.233887 853.580908 1064.351396 848.842748 1064.351396 
C 844.104588 1064.351396 839.559853 1066.233887 836.209468 1069.584272 
C 832.859083 1072.934657 830.976592 1077.479392 830.976592 1082.217552 
C 830.976592 1086.955711 832.859083 1091.500446 836.209468 1094.850831 
C 839.559853 1098.201216 844.104588 1100.083707 848.842748 1100.083707 
z
"/>
   </g>
   <g id="patch_70">
    <path clip-path="url(#p3a77e58b01)" d="M 724.191609 791.549183 
C 728.929769 791.549183 733.474504 789.666692 736.824889 786.316307 
C 740.175274 782.965922 742.057765 778.421187 742.057765 773.683027 
C 742.057765 768.944867 740.175274 764.400132 736.824889 761.049747 
C 733.474504 757.699362 728.929769 755.816871 724.191609 755.816871 
C 719.45345 755.816871 714.908715 757.699362 711.55833 761.049747 
C 708.207945 764.400132 706.325454 768.944867 706.325454 773.683027 
C 706.325454 778.421187 708.207945 782.965922 711.55833 786.316307 
C 714.908715 789.666692 719.45345 791.549183 724.191609 791.549183 
z
"/>
   </g>
   <g id="patch_71">
    <path clip-path="url(#p3a77e58b01)" d="M 528.077205 830.370762 
C 532.815365 830.370762 537.3601 828.488271 540.710485 825.137886 
C 544.06087 821.787501 545.943361 817.242766 545.943361 812.504606 
C 545.943361 807.766447 544.06087 803.221712 540.710485 799.871327 
C 537.3601 796.520942 532.815365 794.638451 528.077205 794.638451 
C 523.339045 794.638451 518.79431 796.520942 515.443925 799.871327 
C 512.09354 803.221712 510.21105 807.766447 510.21105 812.504606 
C 510.21105 817.242766 512.09354 821.787501 515.443925 825.137886 
C 518.79431 828.488271 523.339045 830.370762 528.077205 830.370762 
z
"/>
   </g>
   <g id="patch_72">
    <path clip-path="url(#p3a77e58b01)" d="M 568.101176 612.406567 
C 572.049642 612.406567 575.836921 610.837825 578.628909 608.045838 
C 581.420896 605.25385 582.989639 601.466571 582.989639 597.518104 
C 582.989639 593.569638 581.420896 589.782359 578.628909 586.990371 
C 575.836921 584.198384 572.049642 582.629641 568.101176 582.629641 
C 564.152709 582.629641 560.36543 584.198384 557.573442 586.990371 
C 554.781455 589.782359 553.212713 593.569638 553.212713 597.518104 
C 553.212713 601.466571 554.781455 605.25385 557.573442 608.045838 
C 560.36543 610.837825 564.152709 612.406567 568.101176 612.406567 
z
" style="fill:#ffffff;"/>
   </g>
   <g id="patch_73">
    <path clip-path="url(#p3a77e58b01)" d="M 404.306344 403.27596 
C 408.25481 403.27596 412.042089 401.707217 414.834077 398.91523 
C 417.626064 396.123243 419.194807 392.335963 419.194807 388.387497 
C 419.194807 384.43903 417.626064 380.651751 414.834077 377.859764 
C 412.042089 375.067776 408.25481 373.499034 404.306344 373.499034 
C 400.357877 373.499034 396.570598 375.067776 393.778611 377.859764 
C 390.986623 380.651751 389.417881 384.43903 389.417881 388.387497 
C 389.417881 392.335963 390.986623 396.123243 393.778611 398.91523 
C 396.570598 401.707217 400.357877 403.27596 404.306344 403.27596 
z
" style="fill:#ffffff;"/>
   </g>
   <g id="patch_74">
    <path clip-path="url(#p3a77e58b01)" d="M 711.549086 928.846497 
C 715.497552 928.846497 719.284831 927.277755 722.076819 924.485767 
C 724.868806 921.69378 726.437549 917.906501 726.437549 913.958034 
C 726.437549 910.009568 724.868806 906.222289 722.076819 903.430301 
C 719.284831 900.638314 715.497552 899.069571 711.549086 899.069571 
C 707.600619 899.069571 703.81334 900.638314 701.021352 903.430301 
C 698.229365 906.222289 696.660623 910.009568 696.660623 913.958034 
C 696.660623 917.906501 698.229365 921.69378 701.021352 924.485767 
C 703.81334 927.277755 707.600619 928.846497 711.549086 928.846497 
z
" style="fill:#ffffff;"/>
   </g>
   <g id="patch_75">
    <path clip-path="url(#p3a77e58b01)" d="M 539.053688 930.662737 
C 543.002154 930.662737 546.789433 929.093995 549.581421 926.302007 
C 552.373408 923.51002 553.942151 919.722741 553.942151 915.774274 
C 553.942151 911.825807 552.373408 908.038528 549.581421 905.246541 
C 546.789433 902.454553 543.002154 900.885811 539.053688 900.885811 
C 535.105221 900.885811 531.317942 902.454553 528.525954 905.246541 
C 525.733967 908.038528 524.165225 911.825807 524.165225 915.774274 
C 524.165225 919.722741 525.733967 923.51002 528.525954 926.302007 
C 531.317942 929.093995 535.105221 930.662737 539.053688 930.662737 
z
" style="fill:#ffffff;"/>
   </g>
   <g id="patch_76">
    <path clip-path="url(#p3a77e58b01)" d="M 550.430735 1140.24443 
C 554.379201 1140.24443 558.16648 1138.675688 560.958468 1135.8837 
C 563.750455 1133.091713 565.319198 1129.304434 565.319198 1125.355967 
C 565.319198 1121.407501 563.750455 1117.620221 560.958468 1114.828234 
C 558.16648 1112.036246 554.379201 1110.467504 550.430735 1110.467504 
C 546.482268 1110.467504 542.694989 1112.036246 539.903002 1114.828234 
C 537.111014 1117.620221 535.542272 1121.407501 535.542272 1125.355967 
C 535.542272 1129.304434 537.111014 1133.091713 539.903002 1135.8837 
C 542.694989 1138.675688 546.482268 1140.24443 550.430735 1140.24443 
z
" style="fill:#ffffff;"/>
   </g>
   <g id="patch_77">
    <path clip-path="url(#p3a77e58b01)" d="M 637.295229 836.665786 
C 641.243696 836.665786 645.030975 835.097043 647.822962 832.305056 
C 650.61495 829.513068 652.183692 825.725789 652.183692 821.777323 
C 652.183692 817.828856 650.61495 814.041577 647.822962 811.249589 
C 645.030975 808.457602 641.243696 806.88886 637.295229 806.88886 
C 633.346763 806.88886 629.559484 808.457602 626.767496 811.249589 
C 623.975509 814.041577 622.406766 817.828856 622.406766 821.777323 
C 622.406766 825.725789 623.975509 829.513068 626.767496 832.305056 
C 629.559484 835.097043 633.346763 836.665786 637.295229 836.665786 
z
" style="fill:#ffffff;"/>
   </g>
   <g id="patch_78">
    <path clip-path="url(#p3a77e58b01)" d="M 278.763374 879.662185 
C 282.71184 879.662185 286.499119 878.093442 289.291107 875.301455 
C 292.083094 872.509467 293.651837 868.722188 293.651837 864.773722 
C 293.651837 860.825255 292.083094 857.037976 289.291107 854.245988 
C 286.499119 851.454001 282.71184 849.885259 278.763374 849.885259 
C 274.814907 849.885259 271.027628 851.454001 268.235641 854.245988 
C 265.443653 857.037976 263.874911 860.825255 263.874911 864.773722 
C 263.874911 868.722188 265.443653 872.509467 268.235641 875.301455 
C 271.027628 878.093442 274.814907 879.662185 278.763374 879.662185 
z
" style="fill:#ffffff;"/>
   </g>
   <g id="patch_79">
    <path clip-path="url(#p3a77e58b01)" d="M 755.695689 612.116157 
C 759.644155 612.116157 763.431435 610.547415 766.223422 607.755427 
C 769.015409 604.96344 770.584152 601.176161 770.584152 597.227694 
C 770.584152 593.279228 769.015409 589.491949 766.223422 586.699961 
C 763.431435 583.907974 759.644155 582.339231 755.695689 582.339231 
C 751.747222 582.339231 747.959943 583.907974 745.167956 586.699961 
C 742.375968 589.491949 740.807226 593.279228 740.807226 597.227694 
C 740.807226 601.176161 742.375968 604.96344 745.167956 607.755427 
C 747.959943 610.547415 751.747222 612.116157 755.695689 612.116157 
z
" style="fill:#ffffff;"/>
   </g>
   <g id="patch_80">
    <path clip-path="url(#p3a77e58b01)" d="M 252.358818 648.933537 
C 256.307285 648.933537 260.094564 647.364795 262.886552 644.572807 
C 265.678539 641.78082 267.247281 637.993541 267.247281 634.045074 
C 267.247281 630.096608 265.678539 626.309329 262.886552 623.517341 
C 260.094564 620.725354 256.307285 619.156611 252.358818 619.156611 
C 248.410352 619.156611 244.623073 620.725354 241.831085 623.517341 
C 239.039098 626.309329 237.470355 630.096608 237.470355 634.045074 
C 237.470355 637.993541 239.039098 641.78082 241.831085 644.572807 
C 244.623073 647.364795 248.410352 648.933537 252.358818 648.933537 
z
" style="fill:#ffffff;"/>
   </g>
   <g id="patch_81">
    <path clip-path="url(#p3a77e58b01)" d="M 930.95834 993.060966 
C 934.906806 993.060966 938.694085 991.492224 941.486073 988.700236 
C 944.27806 985.908249 945.846803 982.12097 945.846803 978.172503 
C 945.846803 974.224037 944.27806 970.436757 941.486073 967.64477 
C 938.694085 964.852783 934.906806 963.28404 930.95834 963.28404 
C 927.009873 963.28404 923.222594 964.852783 920.430606 967.64477 
C 917.638619 970.436757 916.069877 974.224037 916.069877 978.172503 
C 916.069877 982.12097 917.638619 985.908249 920.430606 988.700236 
C 923.222594 991.492224 927.009873 993.060966 930.95834 993.060966 
z
" style="fill:#ffffff;"/>
   </g>
   <g id="patch_82">
    <path clip-path="url(#p3a77e58b01)" d="M 429.473721 979.225435 
C 433.422187 979.225435 437.209466 977.656693 440.001454 974.864705 
C 442.793441 972.072718 444.362184 968.285439 444.362184 964.336972 
C 444.362184 960.388506 442.793441 956.601226 440.001454 953.809239 
C 437.209466 951.017251 433.422187 949.448509 429.473721 949.448509 
C 425.525254 949.448509 421.737975 951.017251 418.945987 953.809239 
C 416.154 956.601226 414.585258 960.388506 414.585258 964.336972 
C 414.585258 968.285439 416.154 972.072718 418.945987 974.864705 
C 421.737975 977.656693 425.525254 979.225435 429.473721 979.225435 
z
" style="fill:#ffffff;"/>
   </g>
   <g id="patch_83">
    <path clip-path="url(#p3a77e58b01)" d="M 953.696036 825.258454 
C 957.644503 825.258454 961.431782 823.689711 964.223769 820.897724 
C 967.015757 818.105737 968.584499 814.318457 968.584499 810.369991 
C 968.584499 806.421524 967.015757 802.634245 964.223769 799.842258 
C 961.431782 797.05027 957.644503 795.481528 953.696036 795.481528 
C 949.74757 795.481528 945.96029 797.05027 943.168303 799.842258 
C 940.376316 802.634245 938.807573 806.421524 938.807573 810.369991 
C 938.807573 814.318457 940.376316 818.105737 943.168303 820.897724 
C 945.96029 823.689711 949.74757 825.258454 953.696036 825.258454 
z
" style="fill:#ffffff;"/>
   </g>
   <g id="patch_84">
    <path clip-path="url(#p3a77e58b01)" d="M 429.61056 588.88604 
C 433.559026 588.88604 437.346306 587.317298 440.138293 584.52531 
C 442.930281 581.733323 444.499023 577.946044 444.499023 573.997577 
C 444.499023 570.049111 442.930281 566.261832 440.138293 563.469844 
C 437.346306 560.677857 433.559026 559.109114 429.61056 559.109114 
C 425.662093 559.109114 421.874814 560.677857 419.082827 563.469844 
C 416.290839 566.261832 414.722097 570.049111 414.722097 573.997577 
C 414.722097 577.946044 416.290839 581.733323 419.082827 584.52531 
C 421.874814 587.317298 425.662093 588.88604 429.61056 588.88604 
z
" style="fill:#ffffff;"/>
   </g>
   <g id="patch_85">
    <path clip-path="url(#p3a77e58b01)" d="M 992.076014 864.840942 
C 996.02448 864.840942 999.811759 863.2722 1002.603747 860.480212 
C 1005.395734 857.688225 1006.964477 853.900946 1006.964477 849.952479 
C 1006.964477 846.004013 1005.395734 842.216733 1002.603747 839.424746 
C 999.811759 836.632759 996.02448 835.064016 992.076014 835.064016 
C 988.127547 835.064016 984.340268 836.632759 981.54828 839.424746 
C 978.756293 842.216733 977.18755 846.004013 977.18755 849.952479 
C 977.18755 853.900946 978.756293 857.688225 981.54828 860.480212 
C 984.340268 863.2722 988.127547 864.840942 992.076014 864.840942 
z
" style="fill:#ffffff;"/>
   </g>
   <g id="patch_86">
    <path clip-path="url(#p3a77e58b01)" d="M 371.523546 826.058745 
C 375.472013 826.058745 379.259292 824.490002 382.051279 821.698015 
C 384.843267 818.906028 386.412009 815.118748 386.412009 811.170282 
C 386.412009 807.221815 384.843267 803.434536 382.051279 800.642549 
C 379.259292 797.850561 375.472013 796.281819 371.523546 796.281819 
C 367.57508 796.281819 363.7878 797.850561 360.995813 800.642549 
C 358.203825 803.434536 356.635083 807.221815 356.635083 811.170282 
C 356.635083 815.118748 358.203825 818.906028 360.995813 821.698015 
C 363.7878 824.490002 367.57508 826.058745 371.523546 826.058745 
z
" style="fill:#ffffff;"/>
   </g>
   <g id="patch_87">
    <path clip-path="url(#p3a77e58b01)" d="M 246.262199 1096.455241 
C 250.210665 1096.455241 253.997944 1094.886499 256.789932 1092.094511 
C 259.581919 1089.302524 261.150662 1085.515244 261.150662 1081.566778 
C 261.150662 1077.618311 259.581919 1073.831032 256.789932 1071.039045 
C 253.997944 1068.247057 250.210665 1066.678315 246.262199 1066.678315 
C 242.313732 1066.678315 238.526453 1068.247057 235.734466 1071.039045 
C 232.942478 1073.831032 231.373736 1077.618311 231.373736 1081.566778 
C 231.373736 1085.515244 232.942478 1089.302524 235.734466 1092.094511 
C 238.526453 1094.886499 242.313732 1096.455241 246.262199 1096.455241 
z
" style="fill:#ffffff;"/>
   </g>
   <g id="patch_88">
    <path clip-path="url(#p3a77e58b01)" d="M 711.736427 475.739354 
C 715.684894 475.739354 719.472173 474.170611 722.26416 471.378624 
C 725.056148 468.586636 726.62489 464.799357 726.62489 460.850891 
C 726.62489 456.902424 725.056148 453.115145 722.26416 450.323157 
C 719.472173 447.53117 715.684894 445.962428 711.736427 445.962428 
C 707.787961 445.962428 704.000681 447.53117 701.208694 450.323157 
C 698.416707 453.115145 696.847964 456.902424 696.847964 460.850891 
C 696.847964 464.799357 698.416707 468.586636 701.208694 471.378624 
C 704.000681 474.170611 707.787961 475.739354 711.736427 475.739354 
z
" style="fill:#ffffff;"/>
   </g>
   <g id="patch_89">
    <path clip-path="url(#p3a77e58b01)" d="M 848.842748 1097.106015 
C 852.791214 1097.106015 856.578494 1095.537272 859.370481 1092.745285 
C 862.162469 1089.953297 863.731211 1086.166018 863.731211 1082.217552 
C 863.731211 1078.269085 862.162469 1074.481806 859.370481 1071.689818 
C 856.578494 1068.897831 852.791214 1067.329089 848.842748 1067.329089 
C 844.894281 1067.329089 841.107002 1068.897831 838.315015 1071.689818 
C 835.523027 1074.481806 833.954285 1078.269085 833.954285 1082.217552 
C 833.954285 1086.166018 835.523027 1089.953297 838.315015 1092.745285 
C 841.107002 1095.537272 844.894281 1097.106015 848.842748 1097.106015 
z
" style="fill:#ffffff;"/>
   </g>
   <g id="patch_90">
    <path clip-path="url(#p3a77e58b01)" d="M 724.191609 788.57149 
C 728.140076 788.57149 731.927355 787.002748 734.719343 784.21076 
C 737.51133 781.418773 739.080072 777.631494 739.080072 773.683027 
C 739.080072 769.73456 737.51133 765.947281 734.719343 763.155294 
C 731.927355 760.363306 728.140076 758.794564 724.191609 758.794564 
C 720.243143 758.794564 716.455864 760.363306 713.663876 763.155294 
C 710.871889 765.947281 709.303146 769.73456 709.303146 773.683027 
C 709.303146 777.631494 710.871889 781.418773 713.663876 784.21076 
C 716.455864 787.002748 720.243143 788.57149 724.191609 788.57149 
z
" style="fill:#ffffff;"/>
   </g>
   <g id="patch_91">
    <path clip-path="url(#p3a77e58b01)" d="M 528.077205 827.393069 
C 532.025672 827.393069 535.812951 825.824327 538.604938 823.03234 
C 541.396926 820.240352 542.965668 816.453073 542.965668 812.504606 
C 542.965668 808.55614 541.396926 804.768861 538.604938 801.976873 
C 535.812951 799.184886 532.025672 797.616143 528.077205 797.616143 
C 524.128739 797.616143 520.34146 799.184886 517.549472 801.976873 
C 514.757485 804.768861 513.188742 808.55614 513.188742 812.504606 
C 513.188742 816.453073 514.757485 820.240352 517.549472 823.03234 
C 520.34146 825.824327 524.128739 827.393069 528.077205 827.393069 
z
" style="fill:#ffffff;"/>
   </g>
  </g>
 </g>
 <defs>
  <clipPath id="p3a77e58b01">
   <rect height="1343.619" width="1100.208225" x="141.095888" y="56.1105"/>
  </clipPath>
 </defs>
</svg>
